M48
;DRILL file {KiCad (5.0.0-rc2-dev-185-g935a5ca)} date Tuesday, March 20, 2018 at 09:50:34 AM
;FORMAT={-:-/ absolute / inch / decimal}
FMAT,2
INCH,TZ
T1C0.0100
T2C0.0157
T3C0.0256
T4C0.0315
T5C0.1260
%
G90
G05
M72
T1
X7.86Y-3.65
X7.87Y-5.08
X7.92Y-5.13
X7.97Y-5.13
X8.01Y-4.595
X8.105Y-3.87
X8.155Y-3.87
X8.2Y-4.405
X8.2Y-4.475
X8.2Y-4.545
X8.205Y-3.895
X8.23Y-4.36
X8.275Y-4.57
X8.285Y-3.42
X8.31Y-4.2
X8.33Y-3.62
X8.33Y-3.94
X8.355Y-3.895
X8.3605Y-3.7117
X8.3605Y-3.7511
X8.3605Y-3.8003
X8.3802Y-3.7314
X8.3802Y-3.7806
X8.3999Y-3.7117
X8.3999Y-3.7609
X8.3999Y-3.8003
X8.405Y-4.59
X8.405Y-4.89
X8.405Y-5.19
X8.43Y-3.62
X8.455Y-3.42
X8.455Y-4.73
X8.455Y-5.03
X8.455Y-5.33
X8.465Y-4.14
X8.465Y-4.196
X8.465Y-4.246
X8.4913Y-4.3184
X8.495Y-4.17
X8.495Y-4.22
X8.495Y-4.27
X8.495Y-4.55
X8.495Y-4.85
X8.495Y-5.14
X8.51Y-4.07
X8.51Y-4.795
X8.51Y-5.095
X8.53Y-3.87
X8.555Y-4.51
X8.56Y-4.82
X8.56Y-5.12
X8.5622Y-3.8522
X8.605Y-4.11
X8.61Y-4.795
X8.61Y-5.095
X8.6322Y-4.5214
X8.6368Y-4.8488
X8.6369Y-5.1513
X8.6589Y-4.5466
X8.6873Y-4.5466
X8.705Y-4.31
X8.7341Y-4.5011
X8.7565Y-4.5231
X8.78Y-3.565
X8.78Y-4.46
X8.785Y-4.82
X8.785Y-5.12
X8.8Y-3.78
X8.8148Y-4.1967
X8.8149Y-4.2451
X8.835Y-4.17
X8.835Y-4.795
X8.835Y-5.095
X8.835Y-4.22
X8.885Y-3.695
X8.91Y-3.84
X8.91Y-3.945
X8.915Y-4.23
X8.915Y-4.26
X8.93Y-3.695
X8.975Y-3.695
X8.995Y-4.2
X8.995Y-4.26
X9.155Y-3.42
X9.155Y-3.46
X9.155Y-3.5
X9.155Y-3.54
X9.16Y-3.89
X9.62Y-3.62
X9.62Y-3.65
X9.62Y-3.68
X9.62Y-3.71
X9.62Y-3.74
X9.62Y-4.05
X9.62Y-4.08
X9.62Y-4.11
X9.62Y-4.14
X9.62Y-4.17
X9.62Y-4.47
X9.62Y-4.5
X9.62Y-4.53
X9.62Y-4.56
X9.62Y-4.59
X9.62Y-4.9
X9.62Y-4.93
X9.62Y-4.96
X9.62Y-4.99
X9.62Y-5.02
X9.62Y-5.1
X9.62Y-5.13
X9.62Y-5.16
X9.62Y-5.19
X9.62Y-5.22
X9.66Y-3.62
X9.66Y-3.65
X9.66Y-3.68
X9.66Y-3.71
X9.66Y-3.74
X9.66Y-4.05
X9.66Y-4.08
X9.66Y-4.11
X9.66Y-4.14
X9.66Y-4.17
X9.66Y-4.47
X9.66Y-4.5
X9.66Y-4.53
X9.66Y-4.56
X9.66Y-4.59
X9.66Y-4.9
X9.66Y-4.93
X9.66Y-4.96
X9.66Y-4.99
X9.66Y-5.02
X9.66Y-5.1
X9.66Y-5.13
X9.66Y-5.16
X9.66Y-5.19
X9.66Y-5.22
T2
X7.935Y-4.095
X7.955Y-4.345
X8.055Y-5.18
X8.055Y-5.22
X8.055Y-5.26
X8.055Y-5.3
X8.055Y-5.34
X8.095Y-5.18
X8.095Y-5.22
X8.095Y-5.26
X8.095Y-5.3
X8.095Y-5.34
X8.21Y-4.095
X8.515Y-4.
X8.815Y-3.51
X8.825Y-3.48
X8.84Y-3.59
X8.84Y-3.6275
T3
X7.835Y-4.195
X7.835Y-4.245
X7.835Y-4.295
X7.835Y-4.345
X7.835Y-4.395
X7.835Y-4.445
X7.835Y-4.495
X7.835Y-4.545
X7.835Y-4.595
X7.835Y-4.645
X7.885Y-4.195
X7.885Y-4.245
X7.885Y-4.295
X7.885Y-4.345
X7.885Y-4.395
X7.885Y-4.445
X7.885Y-4.495
X7.885Y-4.545
X7.885Y-4.595
X7.885Y-4.645
T4
X8.07Y-3.99
X8.2078Y-3.99
T5
X7.88Y-5.4
X9.74Y-3.44
X7.88Y-3.44
X9.74Y-5.4
T0
M30
