G04 #@! TF.GenerationSoftware,KiCad,Pcbnew,(5.0.0-rc2-dev-185-g935a5ca)*
G04 #@! TF.CreationDate,2018-03-20T09:50:27-05:00*
G04 #@! TF.ProjectId,Power Board,506F77657220426F6172642E6B696361,rev?*
G04 #@! TF.SameCoordinates,Original*
G04 #@! TF.FileFunction,Soldermask,Bot*
G04 #@! TF.FilePolarity,Negative*
%FSLAX46Y46*%
G04 Gerber Fmt 4.6, Leading zero omitted, Abs format (unit mm)*
G04 Created by KiCad (PCBNEW (5.0.0-rc2-dev-185-g935a5ca)) date Tuesday, March 20, 2018 at 09:50:27 AM*
%MOMM*%
%LPD*%
G01*
G04 APERTURE LIST*
%ADD10C,0.100000*%
G04 APERTURE END LIST*
D10*
G36*
X247870112Y-135597063D02*
X248165916Y-135719589D01*
X248432132Y-135897469D01*
X248658531Y-136123868D01*
X248836411Y-136390084D01*
X248958937Y-136685888D01*
X249021400Y-136999912D01*
X249021400Y-137320088D01*
X248958937Y-137634112D01*
X248836411Y-137929916D01*
X248658531Y-138196132D01*
X248432132Y-138422531D01*
X248165916Y-138600411D01*
X247870112Y-138722937D01*
X247556088Y-138785400D01*
X247235912Y-138785400D01*
X246921888Y-138722937D01*
X246626084Y-138600411D01*
X246359868Y-138422531D01*
X246133469Y-138196132D01*
X245955589Y-137929916D01*
X245833063Y-137634112D01*
X245770600Y-137320088D01*
X245770600Y-136999912D01*
X245833063Y-136685888D01*
X245955589Y-136390084D01*
X246133469Y-136123868D01*
X246359868Y-135897469D01*
X246626084Y-135719589D01*
X246921888Y-135597063D01*
X247235912Y-135534600D01*
X247556088Y-135534600D01*
X247870112Y-135597063D01*
X247870112Y-135597063D01*
G37*
G36*
X200626112Y-135597063D02*
X200921916Y-135719589D01*
X201188132Y-135897469D01*
X201414531Y-136123868D01*
X201592411Y-136390084D01*
X201714937Y-136685888D01*
X201777400Y-136999912D01*
X201777400Y-137320088D01*
X201714937Y-137634112D01*
X201592411Y-137929916D01*
X201414531Y-138196132D01*
X201188132Y-138422531D01*
X200921916Y-138600411D01*
X200626112Y-138722937D01*
X200312088Y-138785400D01*
X199991912Y-138785400D01*
X199677888Y-138722937D01*
X199382084Y-138600411D01*
X199115868Y-138422531D01*
X198889469Y-138196132D01*
X198711589Y-137929916D01*
X198589063Y-137634112D01*
X198526600Y-137320088D01*
X198526600Y-136999912D01*
X198589063Y-136685888D01*
X198711589Y-136390084D01*
X198889469Y-136123868D01*
X199115868Y-135897469D01*
X199382084Y-135719589D01*
X199677888Y-135597063D01*
X199991912Y-135534600D01*
X200312088Y-135534600D01*
X200626112Y-135597063D01*
X200626112Y-135597063D01*
G37*
G36*
X200381996Y-117465202D02*
X200481035Y-117495245D01*
X200572309Y-117544032D01*
X200652311Y-117609689D01*
X200717968Y-117689691D01*
X200766755Y-117780965D01*
X200796798Y-117880004D01*
X200806942Y-117983000D01*
X200796798Y-118085996D01*
X200766755Y-118185035D01*
X200717968Y-118276309D01*
X200652311Y-118356311D01*
X200572309Y-118421968D01*
X200481035Y-118470755D01*
X200381996Y-118500798D01*
X200304810Y-118508400D01*
X200253190Y-118508400D01*
X200176004Y-118500798D01*
X200076965Y-118470755D01*
X199985691Y-118421968D01*
X199905689Y-118356311D01*
X199840032Y-118276309D01*
X199791245Y-118185035D01*
X199761202Y-118085996D01*
X199751058Y-117983000D01*
X199761202Y-117880004D01*
X199791245Y-117780965D01*
X199840032Y-117689691D01*
X199905689Y-117609689D01*
X199985691Y-117544032D01*
X200076965Y-117495245D01*
X200176004Y-117465202D01*
X200253190Y-117457600D01*
X200304810Y-117457600D01*
X200381996Y-117465202D01*
X200381996Y-117465202D01*
G37*
G36*
X199534400Y-118508400D02*
X198483600Y-118508400D01*
X198483600Y-117457600D01*
X199534400Y-117457600D01*
X199534400Y-118508400D01*
X199534400Y-118508400D01*
G37*
G36*
X200381996Y-116195202D02*
X200481035Y-116225245D01*
X200572309Y-116274032D01*
X200652311Y-116339689D01*
X200717968Y-116419691D01*
X200766755Y-116510965D01*
X200796798Y-116610004D01*
X200806942Y-116713000D01*
X200796798Y-116815996D01*
X200766755Y-116915035D01*
X200717968Y-117006309D01*
X200652311Y-117086311D01*
X200572309Y-117151968D01*
X200481035Y-117200755D01*
X200381996Y-117230798D01*
X200304810Y-117238400D01*
X200253190Y-117238400D01*
X200176004Y-117230798D01*
X200076965Y-117200755D01*
X199985691Y-117151968D01*
X199905689Y-117086311D01*
X199840032Y-117006309D01*
X199791245Y-116915035D01*
X199761202Y-116815996D01*
X199751058Y-116713000D01*
X199761202Y-116610004D01*
X199791245Y-116510965D01*
X199840032Y-116419691D01*
X199905689Y-116339689D01*
X199985691Y-116274032D01*
X200076965Y-116225245D01*
X200176004Y-116195202D01*
X200253190Y-116187600D01*
X200304810Y-116187600D01*
X200381996Y-116195202D01*
X200381996Y-116195202D01*
G37*
G36*
X199111996Y-116195202D02*
X199211035Y-116225245D01*
X199302309Y-116274032D01*
X199382311Y-116339689D01*
X199447968Y-116419691D01*
X199496755Y-116510965D01*
X199526798Y-116610004D01*
X199536942Y-116713000D01*
X199526798Y-116815996D01*
X199496755Y-116915035D01*
X199447968Y-117006309D01*
X199382311Y-117086311D01*
X199302309Y-117151968D01*
X199211035Y-117200755D01*
X199111996Y-117230798D01*
X199034810Y-117238400D01*
X198983190Y-117238400D01*
X198906004Y-117230798D01*
X198806965Y-117200755D01*
X198715691Y-117151968D01*
X198635689Y-117086311D01*
X198570032Y-117006309D01*
X198521245Y-116915035D01*
X198491202Y-116815996D01*
X198481058Y-116713000D01*
X198491202Y-116610004D01*
X198521245Y-116510965D01*
X198570032Y-116419691D01*
X198635689Y-116339689D01*
X198715691Y-116274032D01*
X198806965Y-116225245D01*
X198906004Y-116195202D01*
X198983190Y-116187600D01*
X199034810Y-116187600D01*
X199111996Y-116195202D01*
X199111996Y-116195202D01*
G37*
G36*
X199111996Y-114925202D02*
X199211035Y-114955245D01*
X199302309Y-115004032D01*
X199382311Y-115069689D01*
X199447968Y-115149691D01*
X199496755Y-115240965D01*
X199526798Y-115340004D01*
X199536942Y-115443000D01*
X199526798Y-115545996D01*
X199496755Y-115645035D01*
X199447968Y-115736309D01*
X199382311Y-115816311D01*
X199302309Y-115881968D01*
X199211035Y-115930755D01*
X199111996Y-115960798D01*
X199034810Y-115968400D01*
X198983190Y-115968400D01*
X198906004Y-115960798D01*
X198806965Y-115930755D01*
X198715691Y-115881968D01*
X198635689Y-115816311D01*
X198570032Y-115736309D01*
X198521245Y-115645035D01*
X198491202Y-115545996D01*
X198481058Y-115443000D01*
X198491202Y-115340004D01*
X198521245Y-115240965D01*
X198570032Y-115149691D01*
X198635689Y-115069689D01*
X198715691Y-115004032D01*
X198806965Y-114955245D01*
X198906004Y-114925202D01*
X198983190Y-114917600D01*
X199034810Y-114917600D01*
X199111996Y-114925202D01*
X199111996Y-114925202D01*
G37*
G36*
X200381996Y-114925202D02*
X200481035Y-114955245D01*
X200572309Y-115004032D01*
X200652311Y-115069689D01*
X200717968Y-115149691D01*
X200766755Y-115240965D01*
X200796798Y-115340004D01*
X200806942Y-115443000D01*
X200796798Y-115545996D01*
X200766755Y-115645035D01*
X200717968Y-115736309D01*
X200652311Y-115816311D01*
X200572309Y-115881968D01*
X200481035Y-115930755D01*
X200381996Y-115960798D01*
X200304810Y-115968400D01*
X200253190Y-115968400D01*
X200176004Y-115960798D01*
X200076965Y-115930755D01*
X199985691Y-115881968D01*
X199905689Y-115816311D01*
X199840032Y-115736309D01*
X199791245Y-115645035D01*
X199761202Y-115545996D01*
X199751058Y-115443000D01*
X199761202Y-115340004D01*
X199791245Y-115240965D01*
X199840032Y-115149691D01*
X199905689Y-115069689D01*
X199985691Y-115004032D01*
X200076965Y-114955245D01*
X200176004Y-114925202D01*
X200253190Y-114917600D01*
X200304810Y-114917600D01*
X200381996Y-114925202D01*
X200381996Y-114925202D01*
G37*
G36*
X199111996Y-113655202D02*
X199211035Y-113685245D01*
X199302309Y-113734032D01*
X199382311Y-113799689D01*
X199447968Y-113879691D01*
X199496755Y-113970965D01*
X199526798Y-114070004D01*
X199536942Y-114173000D01*
X199526798Y-114275996D01*
X199496755Y-114375035D01*
X199447968Y-114466309D01*
X199382311Y-114546311D01*
X199302309Y-114611968D01*
X199211035Y-114660755D01*
X199111996Y-114690798D01*
X199034810Y-114698400D01*
X198983190Y-114698400D01*
X198906004Y-114690798D01*
X198806965Y-114660755D01*
X198715691Y-114611968D01*
X198635689Y-114546311D01*
X198570032Y-114466309D01*
X198521245Y-114375035D01*
X198491202Y-114275996D01*
X198481058Y-114173000D01*
X198491202Y-114070004D01*
X198521245Y-113970965D01*
X198570032Y-113879691D01*
X198635689Y-113799689D01*
X198715691Y-113734032D01*
X198806965Y-113685245D01*
X198906004Y-113655202D01*
X198983190Y-113647600D01*
X199034810Y-113647600D01*
X199111996Y-113655202D01*
X199111996Y-113655202D01*
G37*
G36*
X200381996Y-113655202D02*
X200481035Y-113685245D01*
X200572309Y-113734032D01*
X200652311Y-113799689D01*
X200717968Y-113879691D01*
X200766755Y-113970965D01*
X200796798Y-114070004D01*
X200806942Y-114173000D01*
X200796798Y-114275996D01*
X200766755Y-114375035D01*
X200717968Y-114466309D01*
X200652311Y-114546311D01*
X200572309Y-114611968D01*
X200481035Y-114660755D01*
X200381996Y-114690798D01*
X200304810Y-114698400D01*
X200253190Y-114698400D01*
X200176004Y-114690798D01*
X200076965Y-114660755D01*
X199985691Y-114611968D01*
X199905689Y-114546311D01*
X199840032Y-114466309D01*
X199791245Y-114375035D01*
X199761202Y-114275996D01*
X199751058Y-114173000D01*
X199761202Y-114070004D01*
X199791245Y-113970965D01*
X199840032Y-113879691D01*
X199905689Y-113799689D01*
X199985691Y-113734032D01*
X200076965Y-113685245D01*
X200176004Y-113655202D01*
X200253190Y-113647600D01*
X200304810Y-113647600D01*
X200381996Y-113655202D01*
X200381996Y-113655202D01*
G37*
G36*
X200381996Y-112385202D02*
X200481035Y-112415245D01*
X200572309Y-112464032D01*
X200652311Y-112529689D01*
X200717968Y-112609691D01*
X200766755Y-112700965D01*
X200796798Y-112800004D01*
X200806942Y-112903000D01*
X200796798Y-113005996D01*
X200766755Y-113105035D01*
X200717968Y-113196309D01*
X200652311Y-113276311D01*
X200572309Y-113341968D01*
X200481035Y-113390755D01*
X200381996Y-113420798D01*
X200304810Y-113428400D01*
X200253190Y-113428400D01*
X200176004Y-113420798D01*
X200076965Y-113390755D01*
X199985691Y-113341968D01*
X199905689Y-113276311D01*
X199840032Y-113196309D01*
X199791245Y-113105035D01*
X199761202Y-113005996D01*
X199751058Y-112903000D01*
X199761202Y-112800004D01*
X199791245Y-112700965D01*
X199840032Y-112609691D01*
X199905689Y-112529689D01*
X199985691Y-112464032D01*
X200076965Y-112415245D01*
X200176004Y-112385202D01*
X200253190Y-112377600D01*
X200304810Y-112377600D01*
X200381996Y-112385202D01*
X200381996Y-112385202D01*
G37*
G36*
X199111996Y-112385202D02*
X199211035Y-112415245D01*
X199302309Y-112464032D01*
X199382311Y-112529689D01*
X199447968Y-112609691D01*
X199496755Y-112700965D01*
X199526798Y-112800004D01*
X199536942Y-112903000D01*
X199526798Y-113005996D01*
X199496755Y-113105035D01*
X199447968Y-113196309D01*
X199382311Y-113276311D01*
X199302309Y-113341968D01*
X199211035Y-113390755D01*
X199111996Y-113420798D01*
X199034810Y-113428400D01*
X198983190Y-113428400D01*
X198906004Y-113420798D01*
X198806965Y-113390755D01*
X198715691Y-113341968D01*
X198635689Y-113276311D01*
X198570032Y-113196309D01*
X198521245Y-113105035D01*
X198491202Y-113005996D01*
X198481058Y-112903000D01*
X198491202Y-112800004D01*
X198521245Y-112700965D01*
X198570032Y-112609691D01*
X198635689Y-112529689D01*
X198715691Y-112464032D01*
X198806965Y-112415245D01*
X198906004Y-112385202D01*
X198983190Y-112377600D01*
X199034810Y-112377600D01*
X199111996Y-112385202D01*
X199111996Y-112385202D01*
G37*
G36*
X200381996Y-111115202D02*
X200481035Y-111145245D01*
X200572309Y-111194032D01*
X200652311Y-111259689D01*
X200717968Y-111339691D01*
X200766755Y-111430965D01*
X200796798Y-111530004D01*
X200806942Y-111633000D01*
X200796798Y-111735996D01*
X200766755Y-111835035D01*
X200717968Y-111926309D01*
X200652311Y-112006311D01*
X200572309Y-112071968D01*
X200481035Y-112120755D01*
X200381996Y-112150798D01*
X200304810Y-112158400D01*
X200253190Y-112158400D01*
X200176004Y-112150798D01*
X200076965Y-112120755D01*
X199985691Y-112071968D01*
X199905689Y-112006311D01*
X199840032Y-111926309D01*
X199791245Y-111835035D01*
X199761202Y-111735996D01*
X199751058Y-111633000D01*
X199761202Y-111530004D01*
X199791245Y-111430965D01*
X199840032Y-111339691D01*
X199905689Y-111259689D01*
X199985691Y-111194032D01*
X200076965Y-111145245D01*
X200176004Y-111115202D01*
X200253190Y-111107600D01*
X200304810Y-111107600D01*
X200381996Y-111115202D01*
X200381996Y-111115202D01*
G37*
G36*
X199111996Y-111115202D02*
X199211035Y-111145245D01*
X199302309Y-111194032D01*
X199382311Y-111259689D01*
X199447968Y-111339691D01*
X199496755Y-111430965D01*
X199526798Y-111530004D01*
X199536942Y-111633000D01*
X199526798Y-111735996D01*
X199496755Y-111835035D01*
X199447968Y-111926309D01*
X199382311Y-112006311D01*
X199302309Y-112071968D01*
X199211035Y-112120755D01*
X199111996Y-112150798D01*
X199034810Y-112158400D01*
X198983190Y-112158400D01*
X198906004Y-112150798D01*
X198806965Y-112120755D01*
X198715691Y-112071968D01*
X198635689Y-112006311D01*
X198570032Y-111926309D01*
X198521245Y-111835035D01*
X198491202Y-111735996D01*
X198481058Y-111633000D01*
X198491202Y-111530004D01*
X198521245Y-111430965D01*
X198570032Y-111339691D01*
X198635689Y-111259689D01*
X198715691Y-111194032D01*
X198806965Y-111145245D01*
X198906004Y-111115202D01*
X198983190Y-111107600D01*
X199034810Y-111107600D01*
X199111996Y-111115202D01*
X199111996Y-111115202D01*
G37*
G36*
X200381996Y-109845202D02*
X200481035Y-109875245D01*
X200572309Y-109924032D01*
X200652311Y-109989689D01*
X200717968Y-110069691D01*
X200766755Y-110160965D01*
X200796798Y-110260004D01*
X200806942Y-110363000D01*
X200796798Y-110465996D01*
X200766755Y-110565035D01*
X200717968Y-110656309D01*
X200652311Y-110736311D01*
X200572309Y-110801968D01*
X200481035Y-110850755D01*
X200381996Y-110880798D01*
X200304810Y-110888400D01*
X200253190Y-110888400D01*
X200176004Y-110880798D01*
X200076965Y-110850755D01*
X199985691Y-110801968D01*
X199905689Y-110736311D01*
X199840032Y-110656309D01*
X199791245Y-110565035D01*
X199761202Y-110465996D01*
X199751058Y-110363000D01*
X199761202Y-110260004D01*
X199791245Y-110160965D01*
X199840032Y-110069691D01*
X199905689Y-109989689D01*
X199985691Y-109924032D01*
X200076965Y-109875245D01*
X200176004Y-109845202D01*
X200253190Y-109837600D01*
X200304810Y-109837600D01*
X200381996Y-109845202D01*
X200381996Y-109845202D01*
G37*
G36*
X199111996Y-109845202D02*
X199211035Y-109875245D01*
X199302309Y-109924032D01*
X199382311Y-109989689D01*
X199447968Y-110069691D01*
X199496755Y-110160965D01*
X199526798Y-110260004D01*
X199536942Y-110363000D01*
X199526798Y-110465996D01*
X199496755Y-110565035D01*
X199447968Y-110656309D01*
X199382311Y-110736311D01*
X199302309Y-110801968D01*
X199211035Y-110850755D01*
X199111996Y-110880798D01*
X199034810Y-110888400D01*
X198983190Y-110888400D01*
X198906004Y-110880798D01*
X198806965Y-110850755D01*
X198715691Y-110801968D01*
X198635689Y-110736311D01*
X198570032Y-110656309D01*
X198521245Y-110565035D01*
X198491202Y-110465996D01*
X198481058Y-110363000D01*
X198491202Y-110260004D01*
X198521245Y-110160965D01*
X198570032Y-110069691D01*
X198635689Y-109989689D01*
X198715691Y-109924032D01*
X198806965Y-109875245D01*
X198906004Y-109845202D01*
X198983190Y-109837600D01*
X199034810Y-109837600D01*
X199111996Y-109845202D01*
X199111996Y-109845202D01*
G37*
G36*
X200381996Y-108575202D02*
X200481035Y-108605245D01*
X200572309Y-108654032D01*
X200652311Y-108719689D01*
X200717968Y-108799691D01*
X200766755Y-108890965D01*
X200796798Y-108990004D01*
X200806942Y-109093000D01*
X200796798Y-109195996D01*
X200766755Y-109295035D01*
X200717968Y-109386309D01*
X200652311Y-109466311D01*
X200572309Y-109531968D01*
X200481035Y-109580755D01*
X200381996Y-109610798D01*
X200304810Y-109618400D01*
X200253190Y-109618400D01*
X200176004Y-109610798D01*
X200076965Y-109580755D01*
X199985691Y-109531968D01*
X199905689Y-109466311D01*
X199840032Y-109386309D01*
X199791245Y-109295035D01*
X199761202Y-109195996D01*
X199751058Y-109093000D01*
X199761202Y-108990004D01*
X199791245Y-108890965D01*
X199840032Y-108799691D01*
X199905689Y-108719689D01*
X199985691Y-108654032D01*
X200076965Y-108605245D01*
X200176004Y-108575202D01*
X200253190Y-108567600D01*
X200304810Y-108567600D01*
X200381996Y-108575202D01*
X200381996Y-108575202D01*
G37*
G36*
X199111996Y-108575202D02*
X199211035Y-108605245D01*
X199302309Y-108654032D01*
X199382311Y-108719689D01*
X199447968Y-108799691D01*
X199496755Y-108890965D01*
X199526798Y-108990004D01*
X199536942Y-109093000D01*
X199526798Y-109195996D01*
X199496755Y-109295035D01*
X199447968Y-109386309D01*
X199382311Y-109466311D01*
X199302309Y-109531968D01*
X199211035Y-109580755D01*
X199111996Y-109610798D01*
X199034810Y-109618400D01*
X198983190Y-109618400D01*
X198906004Y-109610798D01*
X198806965Y-109580755D01*
X198715691Y-109531968D01*
X198635689Y-109466311D01*
X198570032Y-109386309D01*
X198521245Y-109295035D01*
X198491202Y-109195996D01*
X198481058Y-109093000D01*
X198491202Y-108990004D01*
X198521245Y-108890965D01*
X198570032Y-108799691D01*
X198635689Y-108719689D01*
X198715691Y-108654032D01*
X198806965Y-108605245D01*
X198906004Y-108575202D01*
X198983190Y-108567600D01*
X199034810Y-108567600D01*
X199111996Y-108575202D01*
X199111996Y-108575202D01*
G37*
G36*
X199111996Y-107305202D02*
X199211035Y-107335245D01*
X199302309Y-107384032D01*
X199382311Y-107449689D01*
X199447968Y-107529691D01*
X199496755Y-107620965D01*
X199526798Y-107720004D01*
X199536942Y-107823000D01*
X199526798Y-107925996D01*
X199496755Y-108025035D01*
X199447968Y-108116309D01*
X199382311Y-108196311D01*
X199302309Y-108261968D01*
X199211035Y-108310755D01*
X199111996Y-108340798D01*
X199034810Y-108348400D01*
X198983190Y-108348400D01*
X198906004Y-108340798D01*
X198806965Y-108310755D01*
X198715691Y-108261968D01*
X198635689Y-108196311D01*
X198570032Y-108116309D01*
X198521245Y-108025035D01*
X198491202Y-107925996D01*
X198481058Y-107823000D01*
X198491202Y-107720004D01*
X198521245Y-107620965D01*
X198570032Y-107529691D01*
X198635689Y-107449689D01*
X198715691Y-107384032D01*
X198806965Y-107335245D01*
X198906004Y-107305202D01*
X198983190Y-107297600D01*
X199034810Y-107297600D01*
X199111996Y-107305202D01*
X199111996Y-107305202D01*
G37*
G36*
X200381996Y-107305202D02*
X200481035Y-107335245D01*
X200572309Y-107384032D01*
X200652311Y-107449689D01*
X200717968Y-107529691D01*
X200766755Y-107620965D01*
X200796798Y-107720004D01*
X200806942Y-107823000D01*
X200796798Y-107925996D01*
X200766755Y-108025035D01*
X200717968Y-108116309D01*
X200652311Y-108196311D01*
X200572309Y-108261968D01*
X200481035Y-108310755D01*
X200381996Y-108340798D01*
X200304810Y-108348400D01*
X200253190Y-108348400D01*
X200176004Y-108340798D01*
X200076965Y-108310755D01*
X199985691Y-108261968D01*
X199905689Y-108196311D01*
X199840032Y-108116309D01*
X199791245Y-108025035D01*
X199761202Y-107925996D01*
X199751058Y-107823000D01*
X199761202Y-107720004D01*
X199791245Y-107620965D01*
X199840032Y-107529691D01*
X199905689Y-107449689D01*
X199985691Y-107384032D01*
X200076965Y-107335245D01*
X200176004Y-107305202D01*
X200253190Y-107297600D01*
X200304810Y-107297600D01*
X200381996Y-107305202D01*
X200381996Y-107305202D01*
G37*
G36*
X199111996Y-106035202D02*
X199211035Y-106065245D01*
X199302309Y-106114032D01*
X199382311Y-106179689D01*
X199447968Y-106259691D01*
X199496755Y-106350965D01*
X199526798Y-106450004D01*
X199536942Y-106553000D01*
X199526798Y-106655996D01*
X199496755Y-106755035D01*
X199447968Y-106846309D01*
X199382311Y-106926311D01*
X199302309Y-106991968D01*
X199211035Y-107040755D01*
X199111996Y-107070798D01*
X199034810Y-107078400D01*
X198983190Y-107078400D01*
X198906004Y-107070798D01*
X198806965Y-107040755D01*
X198715691Y-106991968D01*
X198635689Y-106926311D01*
X198570032Y-106846309D01*
X198521245Y-106755035D01*
X198491202Y-106655996D01*
X198481058Y-106553000D01*
X198491202Y-106450004D01*
X198521245Y-106350965D01*
X198570032Y-106259691D01*
X198635689Y-106179689D01*
X198715691Y-106114032D01*
X198806965Y-106065245D01*
X198906004Y-106035202D01*
X198983190Y-106027600D01*
X199034810Y-106027600D01*
X199111996Y-106035202D01*
X199111996Y-106035202D01*
G37*
G36*
X200381996Y-106035202D02*
X200481035Y-106065245D01*
X200572309Y-106114032D01*
X200652311Y-106179689D01*
X200717968Y-106259691D01*
X200766755Y-106350965D01*
X200796798Y-106450004D01*
X200806942Y-106553000D01*
X200796798Y-106655996D01*
X200766755Y-106755035D01*
X200717968Y-106846309D01*
X200652311Y-106926311D01*
X200572309Y-106991968D01*
X200481035Y-107040755D01*
X200381996Y-107070798D01*
X200304810Y-107078400D01*
X200253190Y-107078400D01*
X200176004Y-107070798D01*
X200076965Y-107040755D01*
X199985691Y-106991968D01*
X199905689Y-106926311D01*
X199840032Y-106846309D01*
X199791245Y-106755035D01*
X199761202Y-106655996D01*
X199751058Y-106553000D01*
X199761202Y-106450004D01*
X199791245Y-106350965D01*
X199840032Y-106259691D01*
X199905689Y-106179689D01*
X199985691Y-106114032D01*
X200076965Y-106065245D01*
X200176004Y-106035202D01*
X200253190Y-106027600D01*
X200304810Y-106027600D01*
X200381996Y-106035202D01*
X200381996Y-106035202D01*
G37*
G36*
X205803400Y-102171400D02*
X204152600Y-102171400D01*
X204152600Y-100520600D01*
X205803400Y-100520600D01*
X205803400Y-102171400D01*
X205803400Y-102171400D01*
G37*
G36*
X208718761Y-100552319D02*
X208868972Y-100614538D01*
X209004163Y-100704871D01*
X209119129Y-100819837D01*
X209209462Y-100955028D01*
X209271681Y-101105239D01*
X209303400Y-101264705D01*
X209303400Y-101427295D01*
X209271681Y-101586761D01*
X209209462Y-101736972D01*
X209119129Y-101872163D01*
X209004163Y-101987129D01*
X208868972Y-102077462D01*
X208718761Y-102139681D01*
X208559295Y-102171400D01*
X208396705Y-102171400D01*
X208237239Y-102139681D01*
X208087028Y-102077462D01*
X207951837Y-101987129D01*
X207836871Y-101872163D01*
X207746538Y-101736972D01*
X207684319Y-101586761D01*
X207652600Y-101427295D01*
X207652600Y-101264705D01*
X207684319Y-101105239D01*
X207746538Y-100955028D01*
X207836871Y-100819837D01*
X207951837Y-100704871D01*
X208087028Y-100614538D01*
X208237239Y-100552319D01*
X208396705Y-100520600D01*
X208559295Y-100520600D01*
X208718761Y-100552319D01*
X208718761Y-100552319D01*
G37*
G36*
X200626112Y-85813063D02*
X200921916Y-85935589D01*
X201188132Y-86113469D01*
X201414531Y-86339868D01*
X201592411Y-86606084D01*
X201714937Y-86901888D01*
X201777400Y-87215912D01*
X201777400Y-87536088D01*
X201714937Y-87850112D01*
X201592411Y-88145916D01*
X201414531Y-88412132D01*
X201188132Y-88638531D01*
X200921916Y-88816411D01*
X200626112Y-88938937D01*
X200312088Y-89001400D01*
X199991912Y-89001400D01*
X199677888Y-88938937D01*
X199382084Y-88816411D01*
X199115868Y-88638531D01*
X198889469Y-88412132D01*
X198711589Y-88145916D01*
X198589063Y-87850112D01*
X198526600Y-87536088D01*
X198526600Y-87215912D01*
X198589063Y-86901888D01*
X198711589Y-86606084D01*
X198889469Y-86339868D01*
X199115868Y-86113469D01*
X199382084Y-85935589D01*
X199677888Y-85813063D01*
X199991912Y-85750600D01*
X200312088Y-85750600D01*
X200626112Y-85813063D01*
X200626112Y-85813063D01*
G37*
G36*
X247870112Y-85813063D02*
X248165916Y-85935589D01*
X248432132Y-86113469D01*
X248658531Y-86339868D01*
X248836411Y-86606084D01*
X248958937Y-86901888D01*
X249021400Y-87215912D01*
X249021400Y-87536088D01*
X248958937Y-87850112D01*
X248836411Y-88145916D01*
X248658531Y-88412132D01*
X248432132Y-88638531D01*
X248165916Y-88816411D01*
X247870112Y-88938937D01*
X247556088Y-89001400D01*
X247235912Y-89001400D01*
X246921888Y-88938937D01*
X246626084Y-88816411D01*
X246359868Y-88638531D01*
X246133469Y-88412132D01*
X245955589Y-88145916D01*
X245833063Y-87850112D01*
X245770600Y-87536088D01*
X245770600Y-87215912D01*
X245833063Y-86901888D01*
X245955589Y-86606084D01*
X246133469Y-86339868D01*
X246359868Y-86113469D01*
X246626084Y-85935589D01*
X246921888Y-85813063D01*
X247235912Y-85750600D01*
X247556088Y-85750600D01*
X247870112Y-85813063D01*
X247870112Y-85813063D01*
G37*
M02*
