G04 #@! TF.GenerationSoftware,KiCad,Pcbnew,(5.0.0-rc2-dev-185-g935a5ca)*
G04 #@! TF.CreationDate,2018-03-13T10:49:46-05:00*
G04 #@! TF.ProjectId,Power Board,506F77657220426F6172642E6B696361,rev?*
G04 #@! TF.SameCoordinates,Original*
G04 #@! TF.FileFunction,Legend,Bot*
G04 #@! TF.FilePolarity,Positive*
%FSLAX46Y46*%
G04 Gerber Fmt 4.6, Leading zero omitted, Abs format (unit mm)*
G04 Created by KiCad (PCBNEW (5.0.0-rc2-dev-185-g935a5ca)) date Tuesday, March 13, 2018 at 10:49:46 AM*
%MOMM*%
%LPD*%
G01*
G04 APERTURE LIST*
%ADD10C,0.150000*%
%ADD11C,0.120000*%
%ADD12C,0.010000*%
%ADD13O,1.050800X1.050800*%
%ADD14R,1.050800X1.050800*%
%ADD15R,1.650800X1.650800*%
%ADD16C,1.650800*%
%ADD17C,3.250800*%
G04 APERTURE END LIST*
D10*
X239440404Y-86560380D02*
X239440404Y-85560380D01*
X239059452Y-85560380D01*
X238964214Y-85608000D01*
X238916595Y-85655619D01*
X238868976Y-85750857D01*
X238868976Y-85893714D01*
X238916595Y-85988952D01*
X238964214Y-86036571D01*
X239059452Y-86084190D01*
X239440404Y-86084190D01*
X238297547Y-86560380D02*
X238392785Y-86512761D01*
X238440404Y-86465142D01*
X238488023Y-86369904D01*
X238488023Y-86084190D01*
X238440404Y-85988952D01*
X238392785Y-85941333D01*
X238297547Y-85893714D01*
X238154690Y-85893714D01*
X238059452Y-85941333D01*
X238011833Y-85988952D01*
X237964214Y-86084190D01*
X237964214Y-86369904D01*
X238011833Y-86465142D01*
X238059452Y-86512761D01*
X238154690Y-86560380D01*
X238297547Y-86560380D01*
X237630880Y-85893714D02*
X237440404Y-86560380D01*
X237249928Y-86084190D01*
X237059452Y-86560380D01*
X236868976Y-85893714D01*
X236107071Y-86512761D02*
X236202309Y-86560380D01*
X236392785Y-86560380D01*
X236488023Y-86512761D01*
X236535642Y-86417523D01*
X236535642Y-86036571D01*
X236488023Y-85941333D01*
X236392785Y-85893714D01*
X236202309Y-85893714D01*
X236107071Y-85941333D01*
X236059452Y-86036571D01*
X236059452Y-86131809D01*
X236535642Y-86227047D01*
X235630880Y-86560380D02*
X235630880Y-85893714D01*
X235630880Y-86084190D02*
X235583261Y-85988952D01*
X235535642Y-85941333D01*
X235440404Y-85893714D01*
X235345166Y-85893714D01*
X233916595Y-86036571D02*
X233773738Y-86084190D01*
X233726119Y-86131809D01*
X233678500Y-86227047D01*
X233678500Y-86369904D01*
X233726119Y-86465142D01*
X233773738Y-86512761D01*
X233868976Y-86560380D01*
X234249928Y-86560380D01*
X234249928Y-85560380D01*
X233916595Y-85560380D01*
X233821357Y-85608000D01*
X233773738Y-85655619D01*
X233726119Y-85750857D01*
X233726119Y-85846095D01*
X233773738Y-85941333D01*
X233821357Y-85988952D01*
X233916595Y-86036571D01*
X234249928Y-86036571D01*
X233107071Y-86560380D02*
X233202309Y-86512761D01*
X233249928Y-86465142D01*
X233297547Y-86369904D01*
X233297547Y-86084190D01*
X233249928Y-85988952D01*
X233202309Y-85941333D01*
X233107071Y-85893714D01*
X232964214Y-85893714D01*
X232868976Y-85941333D01*
X232821357Y-85988952D01*
X232773738Y-86084190D01*
X232773738Y-86369904D01*
X232821357Y-86465142D01*
X232868976Y-86512761D01*
X232964214Y-86560380D01*
X233107071Y-86560380D01*
X231916595Y-86560380D02*
X231916595Y-86036571D01*
X231964214Y-85941333D01*
X232059452Y-85893714D01*
X232249928Y-85893714D01*
X232345166Y-85941333D01*
X231916595Y-86512761D02*
X232011833Y-86560380D01*
X232249928Y-86560380D01*
X232345166Y-86512761D01*
X232392785Y-86417523D01*
X232392785Y-86322285D01*
X232345166Y-86227047D01*
X232249928Y-86179428D01*
X232011833Y-86179428D01*
X231916595Y-86131809D01*
X231440404Y-86560380D02*
X231440404Y-85893714D01*
X231440404Y-86084190D02*
X231392785Y-85988952D01*
X231345166Y-85941333D01*
X231249928Y-85893714D01*
X231154690Y-85893714D01*
X230392785Y-86560380D02*
X230392785Y-85560380D01*
X230392785Y-86512761D02*
X230488023Y-86560380D01*
X230678500Y-86560380D01*
X230773738Y-86512761D01*
X230821357Y-86465142D01*
X230868976Y-86369904D01*
X230868976Y-86084190D01*
X230821357Y-85988952D01*
X230773738Y-85941333D01*
X230678500Y-85893714D01*
X230488023Y-85893714D01*
X230392785Y-85941333D01*
X229249928Y-85893714D02*
X229011833Y-86560380D01*
X228773738Y-85893714D01*
X228202309Y-85560380D02*
X228107071Y-85560380D01*
X228011833Y-85608000D01*
X227964214Y-85655619D01*
X227916595Y-85750857D01*
X227868976Y-85941333D01*
X227868976Y-86179428D01*
X227916595Y-86369904D01*
X227964214Y-86465142D01*
X228011833Y-86512761D01*
X228107071Y-86560380D01*
X228202309Y-86560380D01*
X228297547Y-86512761D01*
X228345166Y-86465142D01*
X228392785Y-86369904D01*
X228440404Y-86179428D01*
X228440404Y-85941333D01*
X228392785Y-85750857D01*
X228345166Y-85655619D01*
X228297547Y-85608000D01*
X228202309Y-85560380D01*
X227440404Y-86465142D02*
X227392785Y-86512761D01*
X227440404Y-86560380D01*
X227488023Y-86512761D01*
X227440404Y-86465142D01*
X227440404Y-86560380D01*
X226821357Y-85988952D02*
X226916595Y-85941333D01*
X226964214Y-85893714D01*
X227011833Y-85798476D01*
X227011833Y-85750857D01*
X226964214Y-85655619D01*
X226916595Y-85608000D01*
X226821357Y-85560380D01*
X226630880Y-85560380D01*
X226535642Y-85608000D01*
X226488023Y-85655619D01*
X226440404Y-85750857D01*
X226440404Y-85798476D01*
X226488023Y-85893714D01*
X226535642Y-85941333D01*
X226630880Y-85988952D01*
X226821357Y-85988952D01*
X226916595Y-86036571D01*
X226964214Y-86084190D01*
X227011833Y-86179428D01*
X227011833Y-86369904D01*
X226964214Y-86465142D01*
X226916595Y-86512761D01*
X226821357Y-86560380D01*
X226630880Y-86560380D01*
X226535642Y-86512761D01*
X226488023Y-86465142D01*
X226440404Y-86369904D01*
X226440404Y-86179428D01*
X226488023Y-86084190D01*
X226535642Y-86036571D01*
X226630880Y-85988952D01*
X239440404Y-87210380D02*
X239440404Y-88019904D01*
X239392785Y-88115142D01*
X239345166Y-88162761D01*
X239249928Y-88210380D01*
X239059452Y-88210380D01*
X238964214Y-88162761D01*
X238916595Y-88115142D01*
X238868976Y-88019904D01*
X238868976Y-87210380D01*
X238440404Y-87924666D02*
X237964214Y-87924666D01*
X238535642Y-88210380D02*
X238202309Y-87210380D01*
X237868976Y-88210380D01*
X237535642Y-88210380D02*
X237535642Y-87210380D01*
X237535642Y-87686571D02*
X236964214Y-87686571D01*
X236964214Y-88210380D02*
X236964214Y-87210380D01*
X235773738Y-88162761D02*
X235630880Y-88210380D01*
X235392785Y-88210380D01*
X235297547Y-88162761D01*
X235249928Y-88115142D01*
X235202309Y-88019904D01*
X235202309Y-87924666D01*
X235249928Y-87829428D01*
X235297547Y-87781809D01*
X235392785Y-87734190D01*
X235583261Y-87686571D01*
X235678500Y-87638952D01*
X235726119Y-87591333D01*
X235773738Y-87496095D01*
X235773738Y-87400857D01*
X235726119Y-87305619D01*
X235678500Y-87258000D01*
X235583261Y-87210380D01*
X235345166Y-87210380D01*
X235202309Y-87258000D01*
X234773738Y-88210380D02*
X234773738Y-87210380D01*
X234773738Y-87686571D02*
X234202309Y-87686571D01*
X234202309Y-88210380D02*
X234202309Y-87210380D01*
X233154690Y-88115142D02*
X233202309Y-88162761D01*
X233345166Y-88210380D01*
X233440404Y-88210380D01*
X233583261Y-88162761D01*
X233678500Y-88067523D01*
X233726119Y-87972285D01*
X233773738Y-87781809D01*
X233773738Y-87638952D01*
X233726119Y-87448476D01*
X233678500Y-87353238D01*
X233583261Y-87258000D01*
X233440404Y-87210380D01*
X233345166Y-87210380D01*
X233202309Y-87258000D01*
X233154690Y-87305619D01*
X232011833Y-88162761D02*
X231868976Y-88210380D01*
X231630880Y-88210380D01*
X231535642Y-88162761D01*
X231488023Y-88115142D01*
X231440404Y-88019904D01*
X231440404Y-87924666D01*
X231488023Y-87829428D01*
X231535642Y-87781809D01*
X231630880Y-87734190D01*
X231821357Y-87686571D01*
X231916595Y-87638952D01*
X231964214Y-87591333D01*
X232011833Y-87496095D01*
X232011833Y-87400857D01*
X231964214Y-87305619D01*
X231916595Y-87258000D01*
X231821357Y-87210380D01*
X231583261Y-87210380D01*
X231440404Y-87258000D01*
X231011833Y-87543714D02*
X231011833Y-88543714D01*
X231011833Y-87591333D02*
X230916595Y-87543714D01*
X230726119Y-87543714D01*
X230630880Y-87591333D01*
X230583261Y-87638952D01*
X230535642Y-87734190D01*
X230535642Y-88019904D01*
X230583261Y-88115142D01*
X230630880Y-88162761D01*
X230726119Y-88210380D01*
X230916595Y-88210380D01*
X231011833Y-88162761D01*
X229678500Y-88210380D02*
X229678500Y-87686571D01*
X229726119Y-87591333D01*
X229821357Y-87543714D01*
X230011833Y-87543714D01*
X230107071Y-87591333D01*
X229678500Y-88162761D02*
X229773738Y-88210380D01*
X230011833Y-88210380D01*
X230107071Y-88162761D01*
X230154690Y-88067523D01*
X230154690Y-87972285D01*
X230107071Y-87877047D01*
X230011833Y-87829428D01*
X229773738Y-87829428D01*
X229678500Y-87781809D01*
X228773738Y-88162761D02*
X228868976Y-88210380D01*
X229059452Y-88210380D01*
X229154690Y-88162761D01*
X229202309Y-88115142D01*
X229249928Y-88019904D01*
X229249928Y-87734190D01*
X229202309Y-87638952D01*
X229154690Y-87591333D01*
X229059452Y-87543714D01*
X228868976Y-87543714D01*
X228773738Y-87591333D01*
X227964214Y-88162761D02*
X228059452Y-88210380D01*
X228249928Y-88210380D01*
X228345166Y-88162761D01*
X228392785Y-88067523D01*
X228392785Y-87686571D01*
X228345166Y-87591333D01*
X228249928Y-87543714D01*
X228059452Y-87543714D01*
X227964214Y-87591333D01*
X227916595Y-87686571D01*
X227916595Y-87781809D01*
X228392785Y-87877047D01*
X227488023Y-87543714D02*
X227488023Y-88543714D01*
X227488023Y-87591333D02*
X227392785Y-87543714D01*
X227202309Y-87543714D01*
X227107071Y-87591333D01*
X227059452Y-87638952D01*
X227011833Y-87734190D01*
X227011833Y-88019904D01*
X227059452Y-88115142D01*
X227107071Y-88162761D01*
X227202309Y-88210380D01*
X227392785Y-88210380D01*
X227488023Y-88162761D01*
X226440404Y-88210380D02*
X226535642Y-88162761D01*
X226583261Y-88115142D01*
X226630880Y-88019904D01*
X226630880Y-87734190D01*
X226583261Y-87638952D01*
X226535642Y-87591333D01*
X226440404Y-87543714D01*
X226297547Y-87543714D01*
X226202309Y-87591333D01*
X226154690Y-87638952D01*
X226107071Y-87734190D01*
X226107071Y-88019904D01*
X226154690Y-88115142D01*
X226202309Y-88162761D01*
X226297547Y-88210380D01*
X226440404Y-88210380D01*
X225678500Y-88210380D02*
X225678500Y-87543714D01*
X225678500Y-87734190D02*
X225630880Y-87638952D01*
X225583261Y-87591333D01*
X225488023Y-87543714D01*
X225392785Y-87543714D01*
X225202309Y-87543714D02*
X224821357Y-87543714D01*
X225059452Y-87210380D02*
X225059452Y-88067523D01*
X225011833Y-88162761D01*
X224916595Y-88210380D01*
X224821357Y-88210380D01*
X223773738Y-87924666D02*
X223297547Y-87924666D01*
X223868976Y-88210380D02*
X223535642Y-87210380D01*
X223202309Y-88210380D01*
X222868976Y-88210380D02*
X222868976Y-87543714D01*
X222868976Y-87638952D02*
X222821357Y-87591333D01*
X222726119Y-87543714D01*
X222583261Y-87543714D01*
X222488023Y-87591333D01*
X222440404Y-87686571D01*
X222440404Y-88210380D01*
X222440404Y-87686571D02*
X222392785Y-87591333D01*
X222297547Y-87543714D01*
X222154690Y-87543714D01*
X222059452Y-87591333D01*
X222011833Y-87686571D01*
X222011833Y-88210380D01*
X221154690Y-88162761D02*
X221249928Y-88210380D01*
X221440404Y-88210380D01*
X221535642Y-88162761D01*
X221583261Y-88067523D01*
X221583261Y-87686571D01*
X221535642Y-87591333D01*
X221440404Y-87543714D01*
X221249928Y-87543714D01*
X221154690Y-87591333D01*
X221107071Y-87686571D01*
X221107071Y-87781809D01*
X221583261Y-87877047D01*
X220678500Y-88210380D02*
X220678500Y-87543714D01*
X220678500Y-87734190D02*
X220630880Y-87638952D01*
X220583261Y-87591333D01*
X220488023Y-87543714D01*
X220392785Y-87543714D01*
X220059452Y-88210380D02*
X220059452Y-87543714D01*
X220059452Y-87210380D02*
X220107071Y-87258000D01*
X220059452Y-87305619D01*
X220011833Y-87258000D01*
X220059452Y-87210380D01*
X220059452Y-87305619D01*
X219154690Y-88162761D02*
X219249928Y-88210380D01*
X219440404Y-88210380D01*
X219535642Y-88162761D01*
X219583261Y-88115142D01*
X219630880Y-88019904D01*
X219630880Y-87734190D01*
X219583261Y-87638952D01*
X219535642Y-87591333D01*
X219440404Y-87543714D01*
X219249928Y-87543714D01*
X219154690Y-87591333D01*
X218297547Y-88210380D02*
X218297547Y-87686571D01*
X218345166Y-87591333D01*
X218440404Y-87543714D01*
X218630880Y-87543714D01*
X218726119Y-87591333D01*
X218297547Y-88162761D02*
X218392785Y-88210380D01*
X218630880Y-88210380D01*
X218726119Y-88162761D01*
X218773738Y-88067523D01*
X218773738Y-87972285D01*
X218726119Y-87877047D01*
X218630880Y-87829428D01*
X218392785Y-87829428D01*
X218297547Y-87781809D01*
X216488023Y-88115142D02*
X216535642Y-88162761D01*
X216678500Y-88210380D01*
X216773738Y-88210380D01*
X216916595Y-88162761D01*
X217011833Y-88067523D01*
X217059452Y-87972285D01*
X217107071Y-87781809D01*
X217107071Y-87638952D01*
X217059452Y-87448476D01*
X217011833Y-87353238D01*
X216916595Y-87258000D01*
X216773738Y-87210380D01*
X216678500Y-87210380D01*
X216535642Y-87258000D01*
X216488023Y-87305619D01*
X215630880Y-87543714D02*
X215630880Y-88210380D01*
X216059452Y-87543714D02*
X216059452Y-88067523D01*
X216011833Y-88162761D01*
X215916595Y-88210380D01*
X215773738Y-88210380D01*
X215678500Y-88162761D01*
X215630880Y-88115142D01*
X215154690Y-87543714D02*
X215154690Y-88543714D01*
X215154690Y-87591333D02*
X215059452Y-87543714D01*
X214868976Y-87543714D01*
X214773738Y-87591333D01*
X214726119Y-87638952D01*
X214678500Y-87734190D01*
X214678500Y-88019904D01*
X214726119Y-88115142D01*
X214773738Y-88162761D01*
X214868976Y-88210380D01*
X215059452Y-88210380D01*
X215154690Y-88162761D01*
X213535642Y-87305619D02*
X213488023Y-87258000D01*
X213392785Y-87210380D01*
X213154690Y-87210380D01*
X213059452Y-87258000D01*
X213011833Y-87305619D01*
X212964214Y-87400857D01*
X212964214Y-87496095D01*
X213011833Y-87638952D01*
X213583261Y-88210380D01*
X212964214Y-88210380D01*
X212345166Y-87210380D02*
X212249928Y-87210380D01*
X212154690Y-87258000D01*
X212107071Y-87305619D01*
X212059452Y-87400857D01*
X212011833Y-87591333D01*
X212011833Y-87829428D01*
X212059452Y-88019904D01*
X212107071Y-88115142D01*
X212154690Y-88162761D01*
X212249928Y-88210380D01*
X212345166Y-88210380D01*
X212440404Y-88162761D01*
X212488023Y-88115142D01*
X212535642Y-88019904D01*
X212583261Y-87829428D01*
X212583261Y-87591333D01*
X212535642Y-87400857D01*
X212488023Y-87305619D01*
X212440404Y-87258000D01*
X212345166Y-87210380D01*
X211059452Y-88210380D02*
X211630880Y-88210380D01*
X211345166Y-88210380D02*
X211345166Y-87210380D01*
X211440404Y-87353238D01*
X211535642Y-87448476D01*
X211630880Y-87496095D01*
X210488023Y-87638952D02*
X210583261Y-87591333D01*
X210630880Y-87543714D01*
X210678500Y-87448476D01*
X210678500Y-87400857D01*
X210630880Y-87305619D01*
X210583261Y-87258000D01*
X210488023Y-87210380D01*
X210297547Y-87210380D01*
X210202309Y-87258000D01*
X210154690Y-87305619D01*
X210107071Y-87400857D01*
X210107071Y-87448476D01*
X210154690Y-87543714D01*
X210202309Y-87591333D01*
X210297547Y-87638952D01*
X210488023Y-87638952D01*
X210583261Y-87686571D01*
X210630880Y-87734190D01*
X210678500Y-87829428D01*
X210678500Y-88019904D01*
X210630880Y-88115142D01*
X210583261Y-88162761D01*
X210488023Y-88210380D01*
X210297547Y-88210380D01*
X210202309Y-88162761D01*
X210154690Y-88115142D01*
X210107071Y-88019904D01*
X210107071Y-87829428D01*
X210154690Y-87734190D01*
X210202309Y-87686571D01*
X210297547Y-87638952D01*
X239440404Y-89860380D02*
X239440404Y-88860380D01*
X239202309Y-88860380D01*
X239059452Y-88908000D01*
X238964214Y-89003238D01*
X238916595Y-89098476D01*
X238868976Y-89288952D01*
X238868976Y-89431809D01*
X238916595Y-89622285D01*
X238964214Y-89717523D01*
X239059452Y-89812761D01*
X239202309Y-89860380D01*
X239440404Y-89860380D01*
X238059452Y-89812761D02*
X238154690Y-89860380D01*
X238345166Y-89860380D01*
X238440404Y-89812761D01*
X238488023Y-89717523D01*
X238488023Y-89336571D01*
X238440404Y-89241333D01*
X238345166Y-89193714D01*
X238154690Y-89193714D01*
X238059452Y-89241333D01*
X238011833Y-89336571D01*
X238011833Y-89431809D01*
X238488023Y-89527047D01*
X237630880Y-89812761D02*
X237535642Y-89860380D01*
X237345166Y-89860380D01*
X237249928Y-89812761D01*
X237202309Y-89717523D01*
X237202309Y-89669904D01*
X237249928Y-89574666D01*
X237345166Y-89527047D01*
X237488023Y-89527047D01*
X237583261Y-89479428D01*
X237630880Y-89384190D01*
X237630880Y-89336571D01*
X237583261Y-89241333D01*
X237488023Y-89193714D01*
X237345166Y-89193714D01*
X237249928Y-89241333D01*
X236773738Y-89860380D02*
X236773738Y-89193714D01*
X236773738Y-88860380D02*
X236821357Y-88908000D01*
X236773738Y-88955619D01*
X236726119Y-88908000D01*
X236773738Y-88860380D01*
X236773738Y-88955619D01*
X235868976Y-89193714D02*
X235868976Y-90003238D01*
X235916595Y-90098476D01*
X235964214Y-90146095D01*
X236059452Y-90193714D01*
X236202309Y-90193714D01*
X236297547Y-90146095D01*
X235868976Y-89812761D02*
X235964214Y-89860380D01*
X236154690Y-89860380D01*
X236249928Y-89812761D01*
X236297547Y-89765142D01*
X236345166Y-89669904D01*
X236345166Y-89384190D01*
X236297547Y-89288952D01*
X236249928Y-89241333D01*
X236154690Y-89193714D01*
X235964214Y-89193714D01*
X235868976Y-89241333D01*
X235392785Y-89193714D02*
X235392785Y-89860380D01*
X235392785Y-89288952D02*
X235345166Y-89241333D01*
X235249928Y-89193714D01*
X235107071Y-89193714D01*
X235011833Y-89241333D01*
X234964214Y-89336571D01*
X234964214Y-89860380D01*
X234107071Y-89812761D02*
X234202309Y-89860380D01*
X234392785Y-89860380D01*
X234488023Y-89812761D01*
X234535642Y-89717523D01*
X234535642Y-89336571D01*
X234488023Y-89241333D01*
X234392785Y-89193714D01*
X234202309Y-89193714D01*
X234107071Y-89241333D01*
X234059452Y-89336571D01*
X234059452Y-89431809D01*
X234535642Y-89527047D01*
X233202309Y-89860380D02*
X233202309Y-88860380D01*
X233202309Y-89812761D02*
X233297547Y-89860380D01*
X233488023Y-89860380D01*
X233583261Y-89812761D01*
X233630880Y-89765142D01*
X233678500Y-89669904D01*
X233678500Y-89384190D01*
X233630880Y-89288952D01*
X233583261Y-89241333D01*
X233488023Y-89193714D01*
X233297547Y-89193714D01*
X233202309Y-89241333D01*
X231964214Y-89860380D02*
X231964214Y-88860380D01*
X231964214Y-89241333D02*
X231868976Y-89193714D01*
X231678500Y-89193714D01*
X231583261Y-89241333D01*
X231535642Y-89288952D01*
X231488023Y-89384190D01*
X231488023Y-89669904D01*
X231535642Y-89765142D01*
X231583261Y-89812761D01*
X231678500Y-89860380D01*
X231868976Y-89860380D01*
X231964214Y-89812761D01*
X231154690Y-89193714D02*
X230916595Y-89860380D01*
X230678500Y-89193714D02*
X230916595Y-89860380D01*
X231011833Y-90098476D01*
X231059452Y-90146095D01*
X231154690Y-90193714D01*
X229678500Y-88860380D02*
X229107071Y-88860380D01*
X229392785Y-89860380D02*
X229392785Y-88860380D01*
X228773738Y-89860380D02*
X228773738Y-88860380D01*
X228345166Y-89860380D02*
X228345166Y-89336571D01*
X228392785Y-89241333D01*
X228488023Y-89193714D01*
X228630880Y-89193714D01*
X228726119Y-89241333D01*
X228773738Y-89288952D01*
X227726119Y-89860380D02*
X227821357Y-89812761D01*
X227868976Y-89765142D01*
X227916595Y-89669904D01*
X227916595Y-89384190D01*
X227868976Y-89288952D01*
X227821357Y-89241333D01*
X227726119Y-89193714D01*
X227583261Y-89193714D01*
X227488023Y-89241333D01*
X227440404Y-89288952D01*
X227392785Y-89384190D01*
X227392785Y-89669904D01*
X227440404Y-89765142D01*
X227488023Y-89812761D01*
X227583261Y-89860380D01*
X227726119Y-89860380D01*
X226964214Y-89860380D02*
X226964214Y-89193714D01*
X226964214Y-89288952D02*
X226916595Y-89241333D01*
X226821357Y-89193714D01*
X226678500Y-89193714D01*
X226583261Y-89241333D01*
X226535642Y-89336571D01*
X226535642Y-89860380D01*
X226535642Y-89336571D02*
X226488023Y-89241333D01*
X226392785Y-89193714D01*
X226249928Y-89193714D01*
X226154690Y-89241333D01*
X226107071Y-89336571D01*
X226107071Y-89860380D01*
X225202309Y-89860380D02*
X225202309Y-89336571D01*
X225249928Y-89241333D01*
X225345166Y-89193714D01*
X225535642Y-89193714D01*
X225630880Y-89241333D01*
X225202309Y-89812761D02*
X225297547Y-89860380D01*
X225535642Y-89860380D01*
X225630880Y-89812761D01*
X225678500Y-89717523D01*
X225678500Y-89622285D01*
X225630880Y-89527047D01*
X225535642Y-89479428D01*
X225297547Y-89479428D01*
X225202309Y-89431809D01*
X224773738Y-89812761D02*
X224678500Y-89860380D01*
X224488023Y-89860380D01*
X224392785Y-89812761D01*
X224345166Y-89717523D01*
X224345166Y-89669904D01*
X224392785Y-89574666D01*
X224488023Y-89527047D01*
X224630880Y-89527047D01*
X224726119Y-89479428D01*
X224773738Y-89384190D01*
X224773738Y-89336571D01*
X224726119Y-89241333D01*
X224630880Y-89193714D01*
X224488023Y-89193714D01*
X224392785Y-89241333D01*
X222821357Y-89336571D02*
X222678500Y-89384190D01*
X222630880Y-89431809D01*
X222583261Y-89527047D01*
X222583261Y-89669904D01*
X222630880Y-89765142D01*
X222678500Y-89812761D01*
X222773738Y-89860380D01*
X223154690Y-89860380D01*
X223154690Y-88860380D01*
X222821357Y-88860380D01*
X222726119Y-88908000D01*
X222678500Y-88955619D01*
X222630880Y-89050857D01*
X222630880Y-89146095D01*
X222678500Y-89241333D01*
X222726119Y-89288952D01*
X222821357Y-89336571D01*
X223154690Y-89336571D01*
X221773738Y-89812761D02*
X221868976Y-89860380D01*
X222059452Y-89860380D01*
X222154690Y-89812761D01*
X222202309Y-89717523D01*
X222202309Y-89336571D01*
X222154690Y-89241333D01*
X222059452Y-89193714D01*
X221868976Y-89193714D01*
X221773738Y-89241333D01*
X221726119Y-89336571D01*
X221726119Y-89431809D01*
X222202309Y-89527047D01*
X221297547Y-89193714D02*
X221297547Y-89860380D01*
X221297547Y-89288952D02*
X221249928Y-89241333D01*
X221154690Y-89193714D01*
X221011833Y-89193714D01*
X220916595Y-89241333D01*
X220868976Y-89336571D01*
X220868976Y-89860380D01*
X220392785Y-89193714D02*
X220392785Y-89860380D01*
X220392785Y-89288952D02*
X220345166Y-89241333D01*
X220249928Y-89193714D01*
X220107071Y-89193714D01*
X220011833Y-89241333D01*
X219964214Y-89336571D01*
X219964214Y-89860380D01*
X219107071Y-89812761D02*
X219202309Y-89860380D01*
X219392785Y-89860380D01*
X219488023Y-89812761D01*
X219535642Y-89717523D01*
X219535642Y-89336571D01*
X219488023Y-89241333D01*
X219392785Y-89193714D01*
X219202309Y-89193714D01*
X219107071Y-89241333D01*
X219059452Y-89336571D01*
X219059452Y-89431809D01*
X219535642Y-89527047D01*
X218773738Y-89193714D02*
X218392785Y-89193714D01*
X218630880Y-88860380D02*
X218630880Y-89717523D01*
X218583261Y-89812761D01*
X218488023Y-89860380D01*
X218392785Y-89860380D01*
X218202309Y-89193714D02*
X217821357Y-89193714D01*
X218059452Y-88860380D02*
X218059452Y-89717523D01*
X218011833Y-89812761D01*
X217916595Y-89860380D01*
X217821357Y-89860380D01*
X239440404Y-91510380D02*
X239440404Y-90510380D01*
X239202309Y-90510380D01*
X239059452Y-90558000D01*
X238964214Y-90653238D01*
X238916595Y-90748476D01*
X238868976Y-90938952D01*
X238868976Y-91081809D01*
X238916595Y-91272285D01*
X238964214Y-91367523D01*
X239059452Y-91462761D01*
X239202309Y-91510380D01*
X239440404Y-91510380D01*
X238011833Y-91510380D02*
X238011833Y-90986571D01*
X238059452Y-90891333D01*
X238154690Y-90843714D01*
X238345166Y-90843714D01*
X238440404Y-90891333D01*
X238011833Y-91462761D02*
X238107071Y-91510380D01*
X238345166Y-91510380D01*
X238440404Y-91462761D01*
X238488023Y-91367523D01*
X238488023Y-91272285D01*
X238440404Y-91177047D01*
X238345166Y-91129428D01*
X238107071Y-91129428D01*
X238011833Y-91081809D01*
X237535642Y-90843714D02*
X237535642Y-91510380D01*
X237535642Y-90938952D02*
X237488023Y-90891333D01*
X237392785Y-90843714D01*
X237249928Y-90843714D01*
X237154690Y-90891333D01*
X237107071Y-90986571D01*
X237107071Y-91510380D01*
X236630880Y-91510380D02*
X236630880Y-90843714D01*
X236630880Y-90510380D02*
X236678500Y-90558000D01*
X236630880Y-90605619D01*
X236583261Y-90558000D01*
X236630880Y-90510380D01*
X236630880Y-90605619D01*
X235773738Y-91462761D02*
X235868976Y-91510380D01*
X236059452Y-91510380D01*
X236154690Y-91462761D01*
X236202309Y-91367523D01*
X236202309Y-90986571D01*
X236154690Y-90891333D01*
X236059452Y-90843714D01*
X235868976Y-90843714D01*
X235773738Y-90891333D01*
X235726119Y-90986571D01*
X235726119Y-91081809D01*
X236202309Y-91177047D01*
X235154690Y-91510380D02*
X235249928Y-91462761D01*
X235297547Y-91367523D01*
X235297547Y-90510380D01*
X233440404Y-91415142D02*
X233488023Y-91462761D01*
X233630880Y-91510380D01*
X233726119Y-91510380D01*
X233868976Y-91462761D01*
X233964214Y-91367523D01*
X234011833Y-91272285D01*
X234059452Y-91081809D01*
X234059452Y-90938952D01*
X234011833Y-90748476D01*
X233964214Y-90653238D01*
X233868976Y-90558000D01*
X233726119Y-90510380D01*
X233630880Y-90510380D01*
X233488023Y-90558000D01*
X233440404Y-90605619D01*
X232868976Y-91510380D02*
X232964214Y-91462761D01*
X233011833Y-91415142D01*
X233059452Y-91319904D01*
X233059452Y-91034190D01*
X233011833Y-90938952D01*
X232964214Y-90891333D01*
X232868976Y-90843714D01*
X232726119Y-90843714D01*
X232630880Y-90891333D01*
X232583261Y-90938952D01*
X232535642Y-91034190D01*
X232535642Y-91319904D01*
X232583261Y-91415142D01*
X232630880Y-91462761D01*
X232726119Y-91510380D01*
X232868976Y-91510380D01*
X232107071Y-91510380D02*
X232107071Y-90843714D01*
X232107071Y-91034190D02*
X232059452Y-90938952D01*
X232011833Y-90891333D01*
X231916595Y-90843714D01*
X231821357Y-90843714D01*
X231107071Y-91462761D02*
X231202309Y-91510380D01*
X231392785Y-91510380D01*
X231488023Y-91462761D01*
X231535642Y-91367523D01*
X231535642Y-90986571D01*
X231488023Y-90891333D01*
X231392785Y-90843714D01*
X231202309Y-90843714D01*
X231107071Y-90891333D01*
X231059452Y-90986571D01*
X231059452Y-91081809D01*
X231535642Y-91177047D01*
X230726119Y-90843714D02*
X230488023Y-91510380D01*
X230249928Y-90843714D02*
X230488023Y-91510380D01*
X230583261Y-91748476D01*
X230630880Y-91796095D01*
X230726119Y-91843714D01*
X229821357Y-91462761D02*
X229821357Y-91510380D01*
X229868976Y-91605619D01*
X229916595Y-91653238D01*
X228630880Y-91510380D02*
X228630880Y-90510380D01*
X228059452Y-91510380D02*
X228488023Y-90938952D01*
X228059452Y-90510380D02*
X228630880Y-91081809D01*
X227726119Y-90843714D02*
X227488023Y-91510380D01*
X227249928Y-90843714D02*
X227488023Y-91510380D01*
X227583261Y-91748476D01*
X227630880Y-91796095D01*
X227726119Y-91843714D01*
X226726119Y-91510380D02*
X226821357Y-91462761D01*
X226868976Y-91367523D01*
X226868976Y-90510380D01*
X225964214Y-91462761D02*
X226059452Y-91510380D01*
X226249928Y-91510380D01*
X226345166Y-91462761D01*
X226392785Y-91367523D01*
X226392785Y-90986571D01*
X226345166Y-90891333D01*
X226249928Y-90843714D01*
X226059452Y-90843714D01*
X225964214Y-90891333D01*
X225916595Y-90986571D01*
X225916595Y-91081809D01*
X226392785Y-91177047D01*
X224726119Y-91510380D02*
X224726119Y-90510380D01*
X224488023Y-90510380D01*
X224345166Y-90558000D01*
X224249928Y-90653238D01*
X224202309Y-90748476D01*
X224154690Y-90938952D01*
X224154690Y-91081809D01*
X224202309Y-91272285D01*
X224249928Y-91367523D01*
X224345166Y-91462761D01*
X224488023Y-91510380D01*
X224726119Y-91510380D01*
X223297547Y-91510380D02*
X223297547Y-90986571D01*
X223345166Y-90891333D01*
X223440404Y-90843714D01*
X223630880Y-90843714D01*
X223726119Y-90891333D01*
X223297547Y-91462761D02*
X223392785Y-91510380D01*
X223630880Y-91510380D01*
X223726119Y-91462761D01*
X223773738Y-91367523D01*
X223773738Y-91272285D01*
X223726119Y-91177047D01*
X223630880Y-91129428D01*
X223392785Y-91129428D01*
X223297547Y-91081809D01*
X222821357Y-91510380D02*
X222821357Y-90843714D01*
X222821357Y-90510380D02*
X222868976Y-90558000D01*
X222821357Y-90605619D01*
X222773738Y-90558000D01*
X222821357Y-90510380D01*
X222821357Y-90605619D01*
X221916595Y-90843714D02*
X221916595Y-91653238D01*
X221964214Y-91748476D01*
X222011833Y-91796095D01*
X222107071Y-91843714D01*
X222249928Y-91843714D01*
X222345166Y-91796095D01*
X221916595Y-91462761D02*
X222011833Y-91510380D01*
X222202309Y-91510380D01*
X222297547Y-91462761D01*
X222345166Y-91415142D01*
X222392785Y-91319904D01*
X222392785Y-91034190D01*
X222345166Y-90938952D01*
X222297547Y-90891333D01*
X222202309Y-90843714D01*
X222011833Y-90843714D01*
X221916595Y-90891333D01*
X221297547Y-91510380D02*
X221392785Y-91462761D01*
X221440404Y-91367523D01*
X221440404Y-90510380D01*
X220535642Y-91462761D02*
X220630880Y-91510380D01*
X220821357Y-91510380D01*
X220916595Y-91462761D01*
X220964214Y-91367523D01*
X220964214Y-90986571D01*
X220916595Y-90891333D01*
X220821357Y-90843714D01*
X220630880Y-90843714D01*
X220535642Y-90891333D01*
X220488023Y-90986571D01*
X220488023Y-91081809D01*
X220964214Y-91177047D01*
X220011833Y-91462761D02*
X220011833Y-91510380D01*
X220059452Y-91605619D01*
X220107071Y-91653238D01*
X239154690Y-92160380D02*
X239154690Y-92874666D01*
X239202309Y-93017523D01*
X239297547Y-93112761D01*
X239440404Y-93160380D01*
X239535642Y-93160380D01*
X238249928Y-93160380D02*
X238249928Y-92636571D01*
X238297547Y-92541333D01*
X238392785Y-92493714D01*
X238583261Y-92493714D01*
X238678500Y-92541333D01*
X238249928Y-93112761D02*
X238345166Y-93160380D01*
X238583261Y-93160380D01*
X238678500Y-93112761D01*
X238726119Y-93017523D01*
X238726119Y-92922285D01*
X238678500Y-92827047D01*
X238583261Y-92779428D01*
X238345166Y-92779428D01*
X238249928Y-92731809D01*
X237345166Y-93112761D02*
X237440404Y-93160380D01*
X237630880Y-93160380D01*
X237726119Y-93112761D01*
X237773738Y-93065142D01*
X237821357Y-92969904D01*
X237821357Y-92684190D01*
X237773738Y-92588952D01*
X237726119Y-92541333D01*
X237630880Y-92493714D01*
X237440404Y-92493714D01*
X237345166Y-92541333D01*
X236773738Y-93160380D02*
X236868976Y-93112761D01*
X236916595Y-93065142D01*
X236964214Y-92969904D01*
X236964214Y-92684190D01*
X236916595Y-92588952D01*
X236868976Y-92541333D01*
X236773738Y-92493714D01*
X236630880Y-92493714D01*
X236535642Y-92541333D01*
X236488023Y-92588952D01*
X236440404Y-92684190D01*
X236440404Y-92969904D01*
X236488023Y-93065142D01*
X236535642Y-93112761D01*
X236630880Y-93160380D01*
X236773738Y-93160380D01*
X236011833Y-93160380D02*
X236011833Y-92160380D01*
X236011833Y-92541333D02*
X235916595Y-92493714D01*
X235726119Y-92493714D01*
X235630880Y-92541333D01*
X235583261Y-92588952D01*
X235535642Y-92684190D01*
X235535642Y-92969904D01*
X235583261Y-93065142D01*
X235630880Y-93112761D01*
X235726119Y-93160380D01*
X235916595Y-93160380D01*
X236011833Y-93112761D01*
X234345166Y-93160380D02*
X234345166Y-92160380D01*
X233773738Y-93160380D02*
X234202309Y-92588952D01*
X233773738Y-92160380D02*
X234345166Y-92731809D01*
X233202309Y-93160380D02*
X233297547Y-93112761D01*
X233345166Y-93017523D01*
X233345166Y-92160380D01*
X232821357Y-93160380D02*
X232821357Y-92493714D01*
X232821357Y-92160380D02*
X232868976Y-92208000D01*
X232821357Y-92255619D01*
X232773738Y-92208000D01*
X232821357Y-92160380D01*
X232821357Y-92255619D01*
X232345166Y-92493714D02*
X232345166Y-93160380D01*
X232345166Y-92588952D02*
X232297547Y-92541333D01*
X232202309Y-92493714D01*
X232059452Y-92493714D01*
X231964214Y-92541333D01*
X231916595Y-92636571D01*
X231916595Y-93160380D01*
X231011833Y-92493714D02*
X231011833Y-93303238D01*
X231059452Y-93398476D01*
X231107071Y-93446095D01*
X231202309Y-93493714D01*
X231345166Y-93493714D01*
X231440404Y-93446095D01*
X231011833Y-93112761D02*
X231107071Y-93160380D01*
X231297547Y-93160380D01*
X231392785Y-93112761D01*
X231440404Y-93065142D01*
X231488023Y-92969904D01*
X231488023Y-92684190D01*
X231440404Y-92588952D01*
X231392785Y-92541333D01*
X231297547Y-92493714D01*
X231107071Y-92493714D01*
X231011833Y-92541333D01*
X230535642Y-93160380D02*
X230535642Y-92160380D01*
X230535642Y-92541333D02*
X230440404Y-92493714D01*
X230249928Y-92493714D01*
X230154690Y-92541333D01*
X230107071Y-92588952D01*
X230059452Y-92684190D01*
X230059452Y-92969904D01*
X230107071Y-93065142D01*
X230154690Y-93112761D01*
X230249928Y-93160380D01*
X230440404Y-93160380D01*
X230535642Y-93112761D01*
X229249928Y-93112761D02*
X229345166Y-93160380D01*
X229535642Y-93160380D01*
X229630880Y-93112761D01*
X229678500Y-93017523D01*
X229678500Y-92636571D01*
X229630880Y-92541333D01*
X229535642Y-92493714D01*
X229345166Y-92493714D01*
X229249928Y-92541333D01*
X229202309Y-92636571D01*
X229202309Y-92731809D01*
X229678500Y-92827047D01*
X228773738Y-93160380D02*
X228773738Y-92493714D01*
X228773738Y-92160380D02*
X228821357Y-92208000D01*
X228773738Y-92255619D01*
X228726119Y-92208000D01*
X228773738Y-92160380D01*
X228773738Y-92255619D01*
X228154690Y-93160380D02*
X228249928Y-93112761D01*
X228297547Y-93017523D01*
X228297547Y-92160380D01*
X227726119Y-93112761D02*
X227726119Y-93160380D01*
X227773738Y-93255619D01*
X227821357Y-93303238D01*
X226202309Y-92636571D02*
X226059452Y-92684190D01*
X226011833Y-92731809D01*
X225964214Y-92827047D01*
X225964214Y-92969904D01*
X226011833Y-93065142D01*
X226059452Y-93112761D01*
X226154690Y-93160380D01*
X226535642Y-93160380D01*
X226535642Y-92160380D01*
X226202309Y-92160380D01*
X226107071Y-92208000D01*
X226059452Y-92255619D01*
X226011833Y-92350857D01*
X226011833Y-92446095D01*
X226059452Y-92541333D01*
X226107071Y-92588952D01*
X226202309Y-92636571D01*
X226535642Y-92636571D01*
X225535642Y-93160380D02*
X225535642Y-92493714D01*
X225535642Y-92684190D02*
X225488023Y-92588952D01*
X225440404Y-92541333D01*
X225345166Y-92493714D01*
X225249928Y-92493714D01*
X224535642Y-93112761D02*
X224630880Y-93160380D01*
X224821357Y-93160380D01*
X224916595Y-93112761D01*
X224964214Y-93017523D01*
X224964214Y-92636571D01*
X224916595Y-92541333D01*
X224821357Y-92493714D01*
X224630880Y-92493714D01*
X224535642Y-92541333D01*
X224488023Y-92636571D01*
X224488023Y-92731809D01*
X224964214Y-92827047D01*
X224059452Y-92493714D02*
X224059452Y-93160380D01*
X224059452Y-92588952D02*
X224011833Y-92541333D01*
X223916595Y-92493714D01*
X223773738Y-92493714D01*
X223678500Y-92541333D01*
X223630880Y-92636571D01*
X223630880Y-93160380D01*
X222726119Y-93160380D02*
X222726119Y-92160380D01*
X222726119Y-93112761D02*
X222821357Y-93160380D01*
X223011833Y-93160380D01*
X223107071Y-93112761D01*
X223154690Y-93065142D01*
X223202309Y-92969904D01*
X223202309Y-92684190D01*
X223154690Y-92588952D01*
X223107071Y-92541333D01*
X223011833Y-92493714D01*
X222821357Y-92493714D01*
X222726119Y-92541333D01*
X221821357Y-93160380D02*
X221821357Y-92636571D01*
X221868976Y-92541333D01*
X221964214Y-92493714D01*
X222154690Y-92493714D01*
X222249928Y-92541333D01*
X221821357Y-93112761D02*
X221916595Y-93160380D01*
X222154690Y-93160380D01*
X222249928Y-93112761D01*
X222297547Y-93017523D01*
X222297547Y-92922285D01*
X222249928Y-92827047D01*
X222154690Y-92779428D01*
X221916595Y-92779428D01*
X221821357Y-92731809D01*
X221345166Y-92493714D02*
X221345166Y-93160380D01*
X221345166Y-92588952D02*
X221297547Y-92541333D01*
X221202309Y-92493714D01*
X221059452Y-92493714D01*
X220964214Y-92541333D01*
X220916595Y-92636571D01*
X220916595Y-93160380D01*
X219202309Y-93160380D02*
X219678500Y-93160380D01*
X219678500Y-92160380D01*
X218440404Y-92493714D02*
X218440404Y-93160380D01*
X218868976Y-92493714D02*
X218868976Y-93017523D01*
X218821357Y-93112761D01*
X218726119Y-93160380D01*
X218583261Y-93160380D01*
X218488023Y-93112761D01*
X218440404Y-93065142D01*
X217964214Y-93160380D02*
X217964214Y-92160380D01*
X217868976Y-92779428D02*
X217583261Y-93160380D01*
X217583261Y-92493714D02*
X217964214Y-92874666D01*
X216773738Y-93112761D02*
X216868976Y-93160380D01*
X217059452Y-93160380D01*
X217154690Y-93112761D01*
X217202309Y-93017523D01*
X217202309Y-92636571D01*
X217154690Y-92541333D01*
X217059452Y-92493714D01*
X216868976Y-92493714D01*
X216773738Y-92541333D01*
X216726119Y-92636571D01*
X216726119Y-92731809D01*
X217202309Y-92827047D01*
D11*
X197879000Y-118743000D02*
X199009000Y-118743000D01*
X197879000Y-117983000D02*
X197879000Y-118743000D01*
X200586530Y-118678000D02*
X201409000Y-118678000D01*
X199769000Y-118678000D02*
X199971470Y-118678000D01*
X199769000Y-118546471D02*
X199769000Y-118678000D01*
X199769000Y-117276471D02*
X199769000Y-117419529D01*
X199572471Y-117223000D02*
X199715529Y-117223000D01*
X197879000Y-117223000D02*
X198445529Y-117223000D01*
X201409000Y-118678000D02*
X201409000Y-105858000D01*
X197879000Y-117223000D02*
X197879000Y-105858000D01*
X199316530Y-105858000D02*
X199971470Y-105858000D01*
X200586530Y-105858000D02*
X201409000Y-105858000D01*
X197879000Y-105858000D02*
X198701470Y-105858000D01*
D12*
G36*
X230530698Y-120405945D02*
X230429857Y-120616376D01*
X230282019Y-120913935D01*
X230093593Y-121286295D01*
X229870990Y-121721130D01*
X229620621Y-122206112D01*
X229348894Y-122728914D01*
X229062222Y-123277208D01*
X228767013Y-123838667D01*
X228469679Y-124400965D01*
X228176630Y-124951774D01*
X227894275Y-125478766D01*
X227850188Y-125560667D01*
X227053699Y-127027434D01*
X226271201Y-128444985D01*
X225505411Y-129808857D01*
X224759043Y-131114587D01*
X224034811Y-132357712D01*
X223335431Y-133533768D01*
X222663618Y-134638294D01*
X222022086Y-135666825D01*
X221413551Y-136614900D01*
X220840726Y-137478054D01*
X220306328Y-138251825D01*
X219813072Y-138931751D01*
X219363671Y-139513367D01*
X219358947Y-139519244D01*
X219185910Y-139736256D01*
X219041831Y-139920425D01*
X218939854Y-140054689D01*
X218893121Y-140121985D01*
X218891556Y-140126022D01*
X218946791Y-140129446D01*
X219107661Y-140132735D01*
X219366909Y-140135859D01*
X219717282Y-140138787D01*
X220151525Y-140141490D01*
X220662383Y-140143937D01*
X221242601Y-140146098D01*
X221884924Y-140147943D01*
X222582097Y-140149441D01*
X223326867Y-140150562D01*
X224111977Y-140151276D01*
X224930174Y-140151553D01*
X225015778Y-140151556D01*
X225836962Y-140151295D01*
X226625804Y-140150537D01*
X227375050Y-140149315D01*
X228077445Y-140147664D01*
X228725735Y-140145618D01*
X229312665Y-140143211D01*
X229830979Y-140140476D01*
X230273424Y-140137449D01*
X230632743Y-140134164D01*
X230901684Y-140130654D01*
X231072990Y-140126954D01*
X231139407Y-140123098D01*
X231140000Y-140122695D01*
X231110468Y-140065233D01*
X231032725Y-139941037D01*
X230923050Y-139776029D01*
X230913243Y-139761634D01*
X230574813Y-139183185D01*
X230280139Y-138503297D01*
X230029045Y-137721349D01*
X229821353Y-136836720D01*
X229656887Y-135848789D01*
X229557042Y-134991122D01*
X229532448Y-134647609D01*
X229514957Y-134213193D01*
X229504428Y-133709628D01*
X229500722Y-133158667D01*
X229503696Y-132582064D01*
X229513211Y-132001572D01*
X229529126Y-131438945D01*
X229551300Y-130915936D01*
X229579592Y-130454299D01*
X229587002Y-130358445D01*
X229687782Y-129288018D01*
X229817983Y-128188797D01*
X229974410Y-127077814D01*
X230153872Y-125972099D01*
X230353175Y-124888685D01*
X230569127Y-123844603D01*
X230798534Y-122856884D01*
X231038204Y-121942560D01*
X231284943Y-121118662D01*
X231364055Y-120879301D01*
X231438768Y-120651587D01*
X231496935Y-120460279D01*
X231530301Y-120333233D01*
X231535112Y-120301892D01*
X231486034Y-120230304D01*
X231359259Y-120143704D01*
X231185478Y-120058644D01*
X230995380Y-119991680D01*
X230929786Y-119975389D01*
X230747793Y-119936113D01*
X230530698Y-120405945D01*
X230530698Y-120405945D01*
G37*
X230530698Y-120405945D02*
X230429857Y-120616376D01*
X230282019Y-120913935D01*
X230093593Y-121286295D01*
X229870990Y-121721130D01*
X229620621Y-122206112D01*
X229348894Y-122728914D01*
X229062222Y-123277208D01*
X228767013Y-123838667D01*
X228469679Y-124400965D01*
X228176630Y-124951774D01*
X227894275Y-125478766D01*
X227850188Y-125560667D01*
X227053699Y-127027434D01*
X226271201Y-128444985D01*
X225505411Y-129808857D01*
X224759043Y-131114587D01*
X224034811Y-132357712D01*
X223335431Y-133533768D01*
X222663618Y-134638294D01*
X222022086Y-135666825D01*
X221413551Y-136614900D01*
X220840726Y-137478054D01*
X220306328Y-138251825D01*
X219813072Y-138931751D01*
X219363671Y-139513367D01*
X219358947Y-139519244D01*
X219185910Y-139736256D01*
X219041831Y-139920425D01*
X218939854Y-140054689D01*
X218893121Y-140121985D01*
X218891556Y-140126022D01*
X218946791Y-140129446D01*
X219107661Y-140132735D01*
X219366909Y-140135859D01*
X219717282Y-140138787D01*
X220151525Y-140141490D01*
X220662383Y-140143937D01*
X221242601Y-140146098D01*
X221884924Y-140147943D01*
X222582097Y-140149441D01*
X223326867Y-140150562D01*
X224111977Y-140151276D01*
X224930174Y-140151553D01*
X225015778Y-140151556D01*
X225836962Y-140151295D01*
X226625804Y-140150537D01*
X227375050Y-140149315D01*
X228077445Y-140147664D01*
X228725735Y-140145618D01*
X229312665Y-140143211D01*
X229830979Y-140140476D01*
X230273424Y-140137449D01*
X230632743Y-140134164D01*
X230901684Y-140130654D01*
X231072990Y-140126954D01*
X231139407Y-140123098D01*
X231140000Y-140122695D01*
X231110468Y-140065233D01*
X231032725Y-139941037D01*
X230923050Y-139776029D01*
X230913243Y-139761634D01*
X230574813Y-139183185D01*
X230280139Y-138503297D01*
X230029045Y-137721349D01*
X229821353Y-136836720D01*
X229656887Y-135848789D01*
X229557042Y-134991122D01*
X229532448Y-134647609D01*
X229514957Y-134213193D01*
X229504428Y-133709628D01*
X229500722Y-133158667D01*
X229503696Y-132582064D01*
X229513211Y-132001572D01*
X229529126Y-131438945D01*
X229551300Y-130915936D01*
X229579592Y-130454299D01*
X229587002Y-130358445D01*
X229687782Y-129288018D01*
X229817983Y-128188797D01*
X229974410Y-127077814D01*
X230153872Y-125972099D01*
X230353175Y-124888685D01*
X230569127Y-123844603D01*
X230798534Y-122856884D01*
X231038204Y-121942560D01*
X231284943Y-121118662D01*
X231364055Y-120879301D01*
X231438768Y-120651587D01*
X231496935Y-120460279D01*
X231530301Y-120333233D01*
X231535112Y-120301892D01*
X231486034Y-120230304D01*
X231359259Y-120143704D01*
X231185478Y-120058644D01*
X230995380Y-119991680D01*
X230929786Y-119975389D01*
X230747793Y-119936113D01*
X230530698Y-120405945D01*
G36*
X243207845Y-90529767D02*
X243099398Y-90671109D01*
X242952837Y-90894530D01*
X242773337Y-91190091D01*
X242566071Y-91547852D01*
X242336213Y-91957874D01*
X242088935Y-92410217D01*
X241829411Y-92894942D01*
X241562816Y-93402109D01*
X241294321Y-93921778D01*
X241029101Y-94444010D01*
X240772329Y-94958865D01*
X240529179Y-95456404D01*
X240304823Y-95926688D01*
X240104436Y-96359775D01*
X239933190Y-96745728D01*
X239796260Y-97074607D01*
X239698818Y-97336471D01*
X239688802Y-97366667D01*
X239659868Y-97441854D01*
X239590665Y-97614561D01*
X239484001Y-97877962D01*
X239342686Y-98225231D01*
X239169528Y-98649542D01*
X238967337Y-99144068D01*
X238738923Y-99701983D01*
X238487094Y-100316461D01*
X238214659Y-100980677D01*
X237924428Y-101687803D01*
X237619209Y-102431014D01*
X237301813Y-103203484D01*
X236975048Y-103998387D01*
X236641723Y-104808896D01*
X236304647Y-105628185D01*
X235966631Y-106449429D01*
X235630482Y-107265800D01*
X235299010Y-108070474D01*
X234975024Y-108856623D01*
X234661333Y-109617422D01*
X234360747Y-110346044D01*
X234076075Y-111035664D01*
X233810126Y-111679456D01*
X233565708Y-112270592D01*
X233345632Y-112802247D01*
X233152706Y-113267596D01*
X232989740Y-113659811D01*
X232859542Y-113972067D01*
X232764923Y-114197537D01*
X232708690Y-114329396D01*
X232699920Y-114349248D01*
X232640885Y-114422391D01*
X232507665Y-114555579D01*
X232313129Y-114736983D01*
X232070146Y-114954777D01*
X231791585Y-115197132D01*
X231600627Y-115359624D01*
X231263854Y-115645472D01*
X231003247Y-115871740D01*
X230807277Y-116049936D01*
X230664413Y-116191566D01*
X230563124Y-116308134D01*
X230491880Y-116411148D01*
X230439149Y-116512112D01*
X230433831Y-116523932D01*
X230366691Y-116686525D01*
X230327705Y-116803775D01*
X230323547Y-116841706D01*
X230379853Y-116874456D01*
X230518034Y-116939259D01*
X230715343Y-117025756D01*
X230881377Y-117095706D01*
X231105513Y-117194624D01*
X231284307Y-117284872D01*
X231395751Y-117354646D01*
X231421935Y-117385654D01*
X231401136Y-117472382D01*
X231347716Y-117621073D01*
X231307319Y-117719589D01*
X231192416Y-117987647D01*
X231424192Y-118673973D01*
X231197430Y-118862334D01*
X231069286Y-118976325D01*
X230987072Y-119063956D01*
X230970667Y-119093542D01*
X231019220Y-119133256D01*
X231147941Y-119200063D01*
X231331421Y-119281085D01*
X231379069Y-119300527D01*
X231579612Y-119381238D01*
X231740244Y-119446090D01*
X231831468Y-119483171D01*
X231838754Y-119486191D01*
X231861310Y-119447690D01*
X231864166Y-119319974D01*
X231851881Y-119170462D01*
X231813725Y-118833207D01*
X232150883Y-118653504D01*
X232342098Y-118536587D01*
X232477076Y-118424417D01*
X232526298Y-118353262D01*
X232575211Y-118215872D01*
X232639856Y-118052505D01*
X232640988Y-118049794D01*
X232717420Y-117866866D01*
X233269266Y-118085686D01*
X233503635Y-118176507D01*
X233701413Y-118249227D01*
X233837659Y-118294904D01*
X233883834Y-118306031D01*
X233936338Y-118258383D01*
X234006170Y-118133820D01*
X234057991Y-118011222D01*
X234095930Y-117906279D01*
X234122440Y-117811398D01*
X234137660Y-117707867D01*
X234141731Y-117576974D01*
X234134793Y-117400003D01*
X234116987Y-117158245D01*
X234088452Y-116832984D01*
X234068466Y-116614222D01*
X234036345Y-116248907D01*
X234008154Y-115899487D01*
X233985661Y-115590239D01*
X233970635Y-115345441D01*
X233964864Y-115192177D01*
X233966575Y-115145290D01*
X233973727Y-115089148D01*
X233988268Y-115018870D01*
X234012148Y-114929575D01*
X234047315Y-114816380D01*
X234095717Y-114674404D01*
X234159302Y-114498765D01*
X234240019Y-114284581D01*
X234339816Y-114026971D01*
X234460642Y-113721052D01*
X234604445Y-113361943D01*
X234773173Y-112944763D01*
X234968776Y-112464629D01*
X235193200Y-111916660D01*
X235448396Y-111295974D01*
X235736310Y-110597689D01*
X236058892Y-109816923D01*
X236418090Y-108948796D01*
X236815852Y-107988424D01*
X237254127Y-106930927D01*
X237467989Y-106415066D01*
X237946800Y-105260192D01*
X238384511Y-104204345D01*
X238783245Y-103242262D01*
X239145127Y-102368684D01*
X239472279Y-101578351D01*
X239766825Y-100866001D01*
X240030889Y-100226373D01*
X240266592Y-99654209D01*
X240476060Y-99144246D01*
X240661415Y-98691224D01*
X240824781Y-98289883D01*
X240968281Y-97934962D01*
X241094038Y-97621200D01*
X241204176Y-97343338D01*
X241300819Y-97096113D01*
X241386089Y-96874267D01*
X241462110Y-96672537D01*
X241531006Y-96485664D01*
X241594899Y-96308387D01*
X241655913Y-96135446D01*
X241716172Y-95961579D01*
X241777799Y-95781526D01*
X241842917Y-95590027D01*
X241872131Y-95504000D01*
X242097612Y-94830787D01*
X242310736Y-94176351D01*
X242509192Y-93548984D01*
X242690668Y-92956977D01*
X242852850Y-92408623D01*
X242993426Y-91912213D01*
X243110085Y-91476040D01*
X243200514Y-91108395D01*
X243262401Y-90817570D01*
X243293433Y-90611856D01*
X243291298Y-90499547D01*
X243273006Y-90480445D01*
X243207845Y-90529767D01*
X243207845Y-90529767D01*
G37*
X243207845Y-90529767D02*
X243099398Y-90671109D01*
X242952837Y-90894530D01*
X242773337Y-91190091D01*
X242566071Y-91547852D01*
X242336213Y-91957874D01*
X242088935Y-92410217D01*
X241829411Y-92894942D01*
X241562816Y-93402109D01*
X241294321Y-93921778D01*
X241029101Y-94444010D01*
X240772329Y-94958865D01*
X240529179Y-95456404D01*
X240304823Y-95926688D01*
X240104436Y-96359775D01*
X239933190Y-96745728D01*
X239796260Y-97074607D01*
X239698818Y-97336471D01*
X239688802Y-97366667D01*
X239659868Y-97441854D01*
X239590665Y-97614561D01*
X239484001Y-97877962D01*
X239342686Y-98225231D01*
X239169528Y-98649542D01*
X238967337Y-99144068D01*
X238738923Y-99701983D01*
X238487094Y-100316461D01*
X238214659Y-100980677D01*
X237924428Y-101687803D01*
X237619209Y-102431014D01*
X237301813Y-103203484D01*
X236975048Y-103998387D01*
X236641723Y-104808896D01*
X236304647Y-105628185D01*
X235966631Y-106449429D01*
X235630482Y-107265800D01*
X235299010Y-108070474D01*
X234975024Y-108856623D01*
X234661333Y-109617422D01*
X234360747Y-110346044D01*
X234076075Y-111035664D01*
X233810126Y-111679456D01*
X233565708Y-112270592D01*
X233345632Y-112802247D01*
X233152706Y-113267596D01*
X232989740Y-113659811D01*
X232859542Y-113972067D01*
X232764923Y-114197537D01*
X232708690Y-114329396D01*
X232699920Y-114349248D01*
X232640885Y-114422391D01*
X232507665Y-114555579D01*
X232313129Y-114736983D01*
X232070146Y-114954777D01*
X231791585Y-115197132D01*
X231600627Y-115359624D01*
X231263854Y-115645472D01*
X231003247Y-115871740D01*
X230807277Y-116049936D01*
X230664413Y-116191566D01*
X230563124Y-116308134D01*
X230491880Y-116411148D01*
X230439149Y-116512112D01*
X230433831Y-116523932D01*
X230366691Y-116686525D01*
X230327705Y-116803775D01*
X230323547Y-116841706D01*
X230379853Y-116874456D01*
X230518034Y-116939259D01*
X230715343Y-117025756D01*
X230881377Y-117095706D01*
X231105513Y-117194624D01*
X231284307Y-117284872D01*
X231395751Y-117354646D01*
X231421935Y-117385654D01*
X231401136Y-117472382D01*
X231347716Y-117621073D01*
X231307319Y-117719589D01*
X231192416Y-117987647D01*
X231424192Y-118673973D01*
X231197430Y-118862334D01*
X231069286Y-118976325D01*
X230987072Y-119063956D01*
X230970667Y-119093542D01*
X231019220Y-119133256D01*
X231147941Y-119200063D01*
X231331421Y-119281085D01*
X231379069Y-119300527D01*
X231579612Y-119381238D01*
X231740244Y-119446090D01*
X231831468Y-119483171D01*
X231838754Y-119486191D01*
X231861310Y-119447690D01*
X231864166Y-119319974D01*
X231851881Y-119170462D01*
X231813725Y-118833207D01*
X232150883Y-118653504D01*
X232342098Y-118536587D01*
X232477076Y-118424417D01*
X232526298Y-118353262D01*
X232575211Y-118215872D01*
X232639856Y-118052505D01*
X232640988Y-118049794D01*
X232717420Y-117866866D01*
X233269266Y-118085686D01*
X233503635Y-118176507D01*
X233701413Y-118249227D01*
X233837659Y-118294904D01*
X233883834Y-118306031D01*
X233936338Y-118258383D01*
X234006170Y-118133820D01*
X234057991Y-118011222D01*
X234095930Y-117906279D01*
X234122440Y-117811398D01*
X234137660Y-117707867D01*
X234141731Y-117576974D01*
X234134793Y-117400003D01*
X234116987Y-117158245D01*
X234088452Y-116832984D01*
X234068466Y-116614222D01*
X234036345Y-116248907D01*
X234008154Y-115899487D01*
X233985661Y-115590239D01*
X233970635Y-115345441D01*
X233964864Y-115192177D01*
X233966575Y-115145290D01*
X233973727Y-115089148D01*
X233988268Y-115018870D01*
X234012148Y-114929575D01*
X234047315Y-114816380D01*
X234095717Y-114674404D01*
X234159302Y-114498765D01*
X234240019Y-114284581D01*
X234339816Y-114026971D01*
X234460642Y-113721052D01*
X234604445Y-113361943D01*
X234773173Y-112944763D01*
X234968776Y-112464629D01*
X235193200Y-111916660D01*
X235448396Y-111295974D01*
X235736310Y-110597689D01*
X236058892Y-109816923D01*
X236418090Y-108948796D01*
X236815852Y-107988424D01*
X237254127Y-106930927D01*
X237467989Y-106415066D01*
X237946800Y-105260192D01*
X238384511Y-104204345D01*
X238783245Y-103242262D01*
X239145127Y-102368684D01*
X239472279Y-101578351D01*
X239766825Y-100866001D01*
X240030889Y-100226373D01*
X240266592Y-99654209D01*
X240476060Y-99144246D01*
X240661415Y-98691224D01*
X240824781Y-98289883D01*
X240968281Y-97934962D01*
X241094038Y-97621200D01*
X241204176Y-97343338D01*
X241300819Y-97096113D01*
X241386089Y-96874267D01*
X241462110Y-96672537D01*
X241531006Y-96485664D01*
X241594899Y-96308387D01*
X241655913Y-96135446D01*
X241716172Y-95961579D01*
X241777799Y-95781526D01*
X241842917Y-95590027D01*
X241872131Y-95504000D01*
X242097612Y-94830787D01*
X242310736Y-94176351D01*
X242509192Y-93548984D01*
X242690668Y-92956977D01*
X242852850Y-92408623D01*
X242993426Y-91912213D01*
X243110085Y-91476040D01*
X243200514Y-91108395D01*
X243262401Y-90817570D01*
X243293433Y-90611856D01*
X243291298Y-90499547D01*
X243273006Y-90480445D01*
X243207845Y-90529767D01*
D10*
X199977333Y-119130380D02*
X199977333Y-119844666D01*
X200024952Y-119987523D01*
X200120190Y-120082761D01*
X200263047Y-120130380D01*
X200358285Y-120130380D01*
X198977333Y-120130380D02*
X199548761Y-120130380D01*
X199263047Y-120130380D02*
X199263047Y-119130380D01*
X199358285Y-119273238D01*
X199453523Y-119368476D01*
X199548761Y-119416095D01*
%LPC*%
D13*
X200279000Y-106553000D03*
X199009000Y-106553000D03*
X200279000Y-107823000D03*
X199009000Y-107823000D03*
X200279000Y-109093000D03*
X199009000Y-109093000D03*
X200279000Y-110363000D03*
X199009000Y-110363000D03*
X200279000Y-111633000D03*
X199009000Y-111633000D03*
X200279000Y-112903000D03*
X199009000Y-112903000D03*
X200279000Y-114173000D03*
X199009000Y-114173000D03*
X200279000Y-115443000D03*
X199009000Y-115443000D03*
X200279000Y-116713000D03*
X199009000Y-116713000D03*
X200279000Y-117983000D03*
D14*
X199009000Y-117983000D03*
D15*
X204978000Y-101346000D03*
D16*
X208478000Y-101346000D03*
D17*
X200152000Y-87376000D03*
X247396000Y-87376000D03*
X200152000Y-137160000D03*
X247396000Y-137160000D03*
M02*
