G04 #@! TF.FileFunction,Paste,Top*
%FSLAX46Y46*%
G04 Gerber Fmt 4.6, Leading zero omitted, Abs format (unit mm)*
G04 Created by KiCad (PCBNEW 4.0.7) date Tuesday, March 06, 2018 'PMt' 03:27:42 PM*
%MOMM*%
%LPD*%
G01*
G04 APERTURE LIST*
%ADD10C,0.100000*%
%ADD11R,0.610300X0.660300*%
%ADD12R,0.860300X1.110300*%
%ADD13R,1.110300X0.860300*%
%ADD14R,2.360300X2.160300*%
%ADD15R,2.160300X2.360300*%
%ADD16R,0.660300X0.660300*%
%ADD17R,4.860300X4.360300*%
%ADD18R,0.470300X1.130300*%
%ADD19R,0.470300X0.880300*%
%ADD20R,3.770300X3.670300*%
%ADD21R,0.360300X0.760300*%
%ADD22R,0.260300X1.060300*%
%ADD23R,0.920300X0.510300*%
%ADD24R,0.660300X0.610300*%
%ADD25R,1.860300X2.860300*%
%ADD26R,0.160300X1.260300*%
%ADD27R,2.710300X1.510300*%
G04 APERTURE END LIST*
D10*
D11*
X85344000Y-105422000D03*
X85344000Y-106922000D03*
X86868000Y-104152000D03*
X86868000Y-105652000D03*
X88646000Y-104152000D03*
X88646000Y-105652000D03*
X80010000Y-106922000D03*
X80010000Y-105422000D03*
X81788000Y-106922000D03*
X81788000Y-105422000D03*
X83566000Y-106922000D03*
X83566000Y-105422000D03*
D12*
X109871000Y-100838000D03*
X111871000Y-100838000D03*
D13*
X117221000Y-96345500D03*
X117221000Y-98345500D03*
X114998500Y-96345500D03*
X114998500Y-98345500D03*
D12*
X117903500Y-107823000D03*
X115903500Y-107823000D03*
X117903500Y-105283000D03*
X115903500Y-105283000D03*
X109871000Y-117983000D03*
X111871000Y-117983000D03*
D13*
X117221000Y-113490500D03*
X117221000Y-115490500D03*
X114998500Y-113490500D03*
X114998500Y-115490500D03*
D12*
X117903500Y-122428000D03*
X115903500Y-122428000D03*
X117903500Y-124968000D03*
X115903500Y-124968000D03*
X97500000Y-123500000D03*
X95500000Y-123500000D03*
D14*
X72390000Y-118110000D03*
X76690000Y-118110000D03*
D15*
X82550000Y-97300000D03*
X82550000Y-101600000D03*
D14*
X72390000Y-123825000D03*
X68090000Y-123825000D03*
X64135000Y-118110000D03*
X59835000Y-118110000D03*
D16*
X86398000Y-125476000D03*
X84798000Y-125476000D03*
X86398000Y-123698000D03*
X84798000Y-123698000D03*
D17*
X125793500Y-97493000D03*
X125793500Y-107993000D03*
X125793500Y-114638000D03*
X125793500Y-125138000D03*
D18*
X78105000Y-107820000D03*
X76835000Y-107820000D03*
X75565000Y-107820000D03*
X74295000Y-107820000D03*
D19*
X74295000Y-113285000D03*
X75565000Y-113285000D03*
X76835000Y-113285000D03*
X78105000Y-113285000D03*
D20*
X76200000Y-111180000D03*
D18*
X74295000Y-104270000D03*
X75565000Y-104270000D03*
X76835000Y-104270000D03*
X78105000Y-104270000D03*
D19*
X78105000Y-98805000D03*
X76835000Y-98805000D03*
X75565000Y-98805000D03*
X74295000Y-98805000D03*
D20*
X76200000Y-100910000D03*
D18*
X70485000Y-107820000D03*
X69215000Y-107820000D03*
X67945000Y-107820000D03*
X66675000Y-107820000D03*
D19*
X66675000Y-113285000D03*
X67945000Y-113285000D03*
X69215000Y-113285000D03*
X70485000Y-113285000D03*
D20*
X68580000Y-111180000D03*
D18*
X66675000Y-104270000D03*
X67945000Y-104270000D03*
X69215000Y-104270000D03*
X70485000Y-104270000D03*
D19*
X70485000Y-98805000D03*
X69215000Y-98805000D03*
X67945000Y-98805000D03*
X66675000Y-98805000D03*
D20*
X68580000Y-100910000D03*
D18*
X62865000Y-107820000D03*
X61595000Y-107820000D03*
X60325000Y-107820000D03*
X59055000Y-107820000D03*
D19*
X59055000Y-113285000D03*
X60325000Y-113285000D03*
X61595000Y-113285000D03*
X62865000Y-113285000D03*
D20*
X60960000Y-111180000D03*
D18*
X59055000Y-104270000D03*
X60325000Y-104270000D03*
X61595000Y-104270000D03*
X62865000Y-104270000D03*
D19*
X62865000Y-98805000D03*
X61595000Y-98805000D03*
X60325000Y-98805000D03*
X59055000Y-98805000D03*
D20*
X60960000Y-100910000D03*
D21*
X84062000Y-117348000D03*
X82562000Y-117348000D03*
X85610000Y-117348000D03*
X87110000Y-117348000D03*
X90180000Y-117348000D03*
X88680000Y-117348000D03*
X84062000Y-119380000D03*
X82562000Y-119380000D03*
X85610000Y-119380000D03*
X87110000Y-119380000D03*
X90158000Y-119380000D03*
X88658000Y-119380000D03*
X84062000Y-121412000D03*
X82562000Y-121412000D03*
X85610000Y-121412000D03*
X87110000Y-121412000D03*
X90210000Y-121412000D03*
X88710000Y-121412000D03*
X110986000Y-104965500D03*
X109486000Y-104965500D03*
X109486000Y-103060500D03*
X110986000Y-103060500D03*
X110986000Y-122110500D03*
X109486000Y-122110500D03*
X109486000Y-120205500D03*
X110986000Y-120205500D03*
X83300000Y-127254000D03*
X81800000Y-127254000D03*
X83300000Y-125476000D03*
X81800000Y-125476000D03*
X83300000Y-123698000D03*
X81800000Y-123698000D03*
D22*
X83566000Y-114420000D03*
X84201000Y-114420000D03*
X84836000Y-114420000D03*
X85471000Y-114420000D03*
X86106000Y-114420000D03*
X86741000Y-114420000D03*
X87376000Y-114420000D03*
X88011000Y-114420000D03*
X88646000Y-114420000D03*
X89281000Y-114420000D03*
X89916000Y-114420000D03*
X90551000Y-114420000D03*
X90551000Y-109220000D03*
X89916000Y-109220000D03*
X89281000Y-109220000D03*
X88646000Y-109220000D03*
X88011000Y-109220000D03*
X87376000Y-109220000D03*
X86741000Y-109220000D03*
X86106000Y-109220000D03*
X85471000Y-109220000D03*
X84836000Y-109220000D03*
X84201000Y-109220000D03*
X83566000Y-109220000D03*
D23*
X111018500Y-98295500D03*
X111018500Y-97345500D03*
X111018500Y-96395500D03*
X108818500Y-96395500D03*
X108818500Y-98295500D03*
X108818500Y-97345500D03*
X111018500Y-115440500D03*
X111018500Y-114490500D03*
X111018500Y-113540500D03*
X108818500Y-113540500D03*
X108818500Y-115440500D03*
X108818500Y-114490500D03*
D16*
X86398000Y-127254000D03*
X84798000Y-127254000D03*
D24*
X99750000Y-113500000D03*
X101250000Y-113500000D03*
X99750000Y-123500000D03*
X101250000Y-123500000D03*
D12*
X97000000Y-111000000D03*
X95000000Y-111000000D03*
D24*
X94750000Y-113000000D03*
X96250000Y-113000000D03*
X93750000Y-114500000D03*
X95250000Y-114500000D03*
D25*
X103500000Y-115000000D03*
X103500000Y-122000000D03*
D26*
X98500000Y-116550000D03*
X98000000Y-116550000D03*
X97500000Y-116550000D03*
X97000000Y-116550000D03*
X96500000Y-116550000D03*
X96500000Y-120950000D03*
X97000000Y-120950000D03*
X97500000Y-120950000D03*
X98000000Y-120950000D03*
X98500000Y-120950000D03*
X96000000Y-116550000D03*
X95500000Y-116550000D03*
X95000000Y-116550000D03*
X96000000Y-120950000D03*
X95500000Y-120950000D03*
X95000000Y-120950000D03*
D27*
X96850000Y-118750000D03*
M02*
