G04 #@! TF.FileFunction,Soldermask,Top*
%FSLAX46Y46*%
G04 Gerber Fmt 4.6, Leading zero omitted, Abs format (unit mm)*
G04 Created by KiCad (PCBNEW 4.0.7) date Tuesday, March 06, 2018 'PMt' 03:27:42 PM*
%MOMM*%
%LPD*%
G01*
G04 APERTURE LIST*
%ADD10C,0.100000*%
G04 APERTURE END LIST*
D10*
G36*
X56857900Y-138455400D02*
X54902100Y-138455400D01*
X54902100Y-130784600D01*
X56857900Y-130784600D01*
X56857900Y-138455400D01*
X56857900Y-138455400D01*
G37*
G36*
X59397900Y-138455400D02*
X57442100Y-138455400D01*
X57442100Y-130784600D01*
X59397900Y-130784600D01*
X59397900Y-138455400D01*
X59397900Y-138455400D01*
G37*
G36*
X61937900Y-138455400D02*
X59982100Y-138455400D01*
X59982100Y-130784600D01*
X61937900Y-130784600D01*
X61937900Y-138455400D01*
X61937900Y-138455400D01*
G37*
G36*
X64477900Y-138455400D02*
X62522100Y-138455400D01*
X62522100Y-130784600D01*
X64477900Y-130784600D01*
X64477900Y-138455400D01*
X64477900Y-138455400D01*
G37*
G36*
X67017900Y-138455400D02*
X65062100Y-138455400D01*
X65062100Y-130784600D01*
X67017900Y-130784600D01*
X67017900Y-138455400D01*
X67017900Y-138455400D01*
G37*
G36*
X69557900Y-138455400D02*
X67602100Y-138455400D01*
X67602100Y-130784600D01*
X69557900Y-130784600D01*
X69557900Y-138455400D01*
X69557900Y-138455400D01*
G37*
G36*
X72097900Y-138455400D02*
X70142100Y-138455400D01*
X70142100Y-130784600D01*
X72097900Y-130784600D01*
X72097900Y-138455400D01*
X72097900Y-138455400D01*
G37*
G36*
X74637900Y-138455400D02*
X72682100Y-138455400D01*
X72682100Y-130784600D01*
X74637900Y-130784600D01*
X74637900Y-138455400D01*
X74637900Y-138455400D01*
G37*
G36*
X77177900Y-138455400D02*
X75222100Y-138455400D01*
X75222100Y-130784600D01*
X77177900Y-130784600D01*
X77177900Y-138455400D01*
X77177900Y-138455400D01*
G37*
G36*
X79717900Y-138455400D02*
X77762100Y-138455400D01*
X77762100Y-130784600D01*
X79717900Y-130784600D01*
X79717900Y-138455400D01*
X79717900Y-138455400D01*
G37*
G36*
X89877900Y-138455400D02*
X87922100Y-138455400D01*
X87922100Y-130784600D01*
X89877900Y-130784600D01*
X89877900Y-138455400D01*
X89877900Y-138455400D01*
G37*
G36*
X82257900Y-138455400D02*
X80302100Y-138455400D01*
X80302100Y-130784600D01*
X82257900Y-130784600D01*
X82257900Y-138455400D01*
X82257900Y-138455400D01*
G37*
G36*
X84797900Y-138455400D02*
X82842100Y-138455400D01*
X82842100Y-130784600D01*
X84797900Y-130784600D01*
X84797900Y-138455400D01*
X84797900Y-138455400D01*
G37*
G36*
X87337900Y-138455400D02*
X85382100Y-138455400D01*
X85382100Y-130784600D01*
X87337900Y-130784600D01*
X87337900Y-138455400D01*
X87337900Y-138455400D01*
G37*
G36*
X92417900Y-138455400D02*
X90462100Y-138455400D01*
X90462100Y-130784600D01*
X92417900Y-130784600D01*
X92417900Y-138455400D01*
X92417900Y-138455400D01*
G37*
G36*
X83575400Y-127729400D02*
X83024600Y-127729400D01*
X83024600Y-126778600D01*
X83575400Y-126778600D01*
X83575400Y-127729400D01*
X83575400Y-127729400D01*
G37*
G36*
X82075400Y-127729400D02*
X81524600Y-127729400D01*
X81524600Y-126778600D01*
X82075400Y-126778600D01*
X82075400Y-127729400D01*
X82075400Y-127729400D01*
G37*
G36*
X85223400Y-127679400D02*
X84372600Y-127679400D01*
X84372600Y-126828600D01*
X85223400Y-126828600D01*
X85223400Y-127679400D01*
X85223400Y-127679400D01*
G37*
G36*
X86823400Y-127679400D02*
X85972600Y-127679400D01*
X85972600Y-126828600D01*
X86823400Y-126828600D01*
X86823400Y-127679400D01*
X86823400Y-127679400D01*
G37*
G36*
X128318900Y-127413400D02*
X123268100Y-127413400D01*
X123268100Y-122862600D01*
X128318900Y-122862600D01*
X128318900Y-127413400D01*
X128318900Y-127413400D01*
G37*
G36*
X83575400Y-125951400D02*
X83024600Y-125951400D01*
X83024600Y-125000600D01*
X83575400Y-125000600D01*
X83575400Y-125951400D01*
X83575400Y-125951400D01*
G37*
G36*
X82075400Y-125951400D02*
X81524600Y-125951400D01*
X81524600Y-125000600D01*
X82075400Y-125000600D01*
X82075400Y-125951400D01*
X82075400Y-125951400D01*
G37*
G36*
X86823400Y-125901400D02*
X85972600Y-125901400D01*
X85972600Y-125050600D01*
X86823400Y-125050600D01*
X86823400Y-125901400D01*
X86823400Y-125901400D01*
G37*
G36*
X85223400Y-125901400D02*
X84372600Y-125901400D01*
X84372600Y-125050600D01*
X85223400Y-125050600D01*
X85223400Y-125901400D01*
X85223400Y-125901400D01*
G37*
G36*
X118428900Y-125618400D02*
X117378100Y-125618400D01*
X117378100Y-124317600D01*
X118428900Y-124317600D01*
X118428900Y-125618400D01*
X118428900Y-125618400D01*
G37*
G36*
X116428900Y-125618400D02*
X115378100Y-125618400D01*
X115378100Y-124317600D01*
X116428900Y-124317600D01*
X116428900Y-125618400D01*
X116428900Y-125618400D01*
G37*
G36*
X73665400Y-125000400D02*
X71114600Y-125000400D01*
X71114600Y-122649600D01*
X73665400Y-122649600D01*
X73665400Y-125000400D01*
X73665400Y-125000400D01*
G37*
G36*
X69365400Y-125000400D02*
X66814600Y-125000400D01*
X66814600Y-122649600D01*
X69365400Y-122649600D01*
X69365400Y-125000400D01*
X69365400Y-125000400D01*
G37*
G36*
X83575400Y-124173400D02*
X83024600Y-124173400D01*
X83024600Y-123222600D01*
X83575400Y-123222600D01*
X83575400Y-124173400D01*
X83575400Y-124173400D01*
G37*
G36*
X82075400Y-124173400D02*
X81524600Y-124173400D01*
X81524600Y-123222600D01*
X82075400Y-123222600D01*
X82075400Y-124173400D01*
X82075400Y-124173400D01*
G37*
G36*
X98025400Y-124150400D02*
X96974600Y-124150400D01*
X96974600Y-122849600D01*
X98025400Y-122849600D01*
X98025400Y-124150400D01*
X98025400Y-124150400D01*
G37*
G36*
X96025400Y-124150400D02*
X94974600Y-124150400D01*
X94974600Y-122849600D01*
X96025400Y-122849600D01*
X96025400Y-124150400D01*
X96025400Y-124150400D01*
G37*
G36*
X86823400Y-124123400D02*
X85972600Y-124123400D01*
X85972600Y-123272600D01*
X86823400Y-123272600D01*
X86823400Y-124123400D01*
X86823400Y-124123400D01*
G37*
G36*
X85223400Y-124123400D02*
X84372600Y-124123400D01*
X84372600Y-123272600D01*
X85223400Y-123272600D01*
X85223400Y-124123400D01*
X85223400Y-124123400D01*
G37*
G36*
X100175400Y-123900400D02*
X99324600Y-123900400D01*
X99324600Y-123099600D01*
X100175400Y-123099600D01*
X100175400Y-123900400D01*
X100175400Y-123900400D01*
G37*
G36*
X101675400Y-123900400D02*
X100824600Y-123900400D01*
X100824600Y-123099600D01*
X101675400Y-123099600D01*
X101675400Y-123900400D01*
X101675400Y-123900400D01*
G37*
G36*
X104525400Y-123525400D02*
X102474600Y-123525400D01*
X102474600Y-120474600D01*
X104525400Y-120474600D01*
X104525400Y-123525400D01*
X104525400Y-123525400D01*
G37*
G36*
X118428900Y-123078400D02*
X117378100Y-123078400D01*
X117378100Y-121777600D01*
X118428900Y-121777600D01*
X118428900Y-123078400D01*
X118428900Y-123078400D01*
G37*
G36*
X116428900Y-123078400D02*
X115378100Y-123078400D01*
X115378100Y-121777600D01*
X116428900Y-121777600D01*
X116428900Y-123078400D01*
X116428900Y-123078400D01*
G37*
G36*
X111261400Y-122585900D02*
X110710600Y-122585900D01*
X110710600Y-121635100D01*
X111261400Y-121635100D01*
X111261400Y-122585900D01*
X111261400Y-122585900D01*
G37*
G36*
X109761400Y-122585900D02*
X109210600Y-122585900D01*
X109210600Y-121635100D01*
X109761400Y-121635100D01*
X109761400Y-122585900D01*
X109761400Y-122585900D01*
G37*
G36*
X88985400Y-121887400D02*
X88434600Y-121887400D01*
X88434600Y-120936600D01*
X88985400Y-120936600D01*
X88985400Y-121887400D01*
X88985400Y-121887400D01*
G37*
G36*
X90485400Y-121887400D02*
X89934600Y-121887400D01*
X89934600Y-120936600D01*
X90485400Y-120936600D01*
X90485400Y-121887400D01*
X90485400Y-121887400D01*
G37*
G36*
X87385400Y-121887400D02*
X86834600Y-121887400D01*
X86834600Y-120936600D01*
X87385400Y-120936600D01*
X87385400Y-121887400D01*
X87385400Y-121887400D01*
G37*
G36*
X85885400Y-121887400D02*
X85334600Y-121887400D01*
X85334600Y-120936600D01*
X85885400Y-120936600D01*
X85885400Y-121887400D01*
X85885400Y-121887400D01*
G37*
G36*
X82837400Y-121887400D02*
X82286600Y-121887400D01*
X82286600Y-120936600D01*
X82837400Y-120936600D01*
X82837400Y-121887400D01*
X82837400Y-121887400D01*
G37*
G36*
X84337400Y-121887400D02*
X83786600Y-121887400D01*
X83786600Y-120936600D01*
X84337400Y-120936600D01*
X84337400Y-121887400D01*
X84337400Y-121887400D01*
G37*
G36*
X96175400Y-121675400D02*
X95824600Y-121675400D01*
X95824600Y-120224600D01*
X96175400Y-120224600D01*
X96175400Y-121675400D01*
X96175400Y-121675400D01*
G37*
G36*
X95175400Y-121675400D02*
X94824600Y-121675400D01*
X94824600Y-120224600D01*
X95175400Y-120224600D01*
X95175400Y-121675400D01*
X95175400Y-121675400D01*
G37*
G36*
X95675400Y-121675400D02*
X95324600Y-121675400D01*
X95324600Y-120224600D01*
X95675400Y-120224600D01*
X95675400Y-121675400D01*
X95675400Y-121675400D01*
G37*
G36*
X96675400Y-121675400D02*
X96324600Y-121675400D01*
X96324600Y-120224600D01*
X96675400Y-120224600D01*
X96675400Y-121675400D01*
X96675400Y-121675400D01*
G37*
G36*
X97175400Y-121675400D02*
X96824600Y-121675400D01*
X96824600Y-120224600D01*
X97175400Y-120224600D01*
X97175400Y-121675400D01*
X97175400Y-121675400D01*
G37*
G36*
X97675400Y-121675400D02*
X97324600Y-121675400D01*
X97324600Y-120224600D01*
X97675400Y-120224600D01*
X97675400Y-121675400D01*
X97675400Y-121675400D01*
G37*
G36*
X98175400Y-121675400D02*
X97824600Y-121675400D01*
X97824600Y-120224600D01*
X98175400Y-120224600D01*
X98175400Y-121675400D01*
X98175400Y-121675400D01*
G37*
G36*
X98675400Y-121675400D02*
X98324600Y-121675400D01*
X98324600Y-120224600D01*
X98675400Y-120224600D01*
X98675400Y-121675400D01*
X98675400Y-121675400D01*
G37*
G36*
X109761400Y-120680900D02*
X109210600Y-120680900D01*
X109210600Y-119730100D01*
X109761400Y-119730100D01*
X109761400Y-120680900D01*
X109761400Y-120680900D01*
G37*
G36*
X111261400Y-120680900D02*
X110710600Y-120680900D01*
X110710600Y-119730100D01*
X111261400Y-119730100D01*
X111261400Y-120680900D01*
X111261400Y-120680900D01*
G37*
G36*
X84337400Y-119855400D02*
X83786600Y-119855400D01*
X83786600Y-118904600D01*
X84337400Y-118904600D01*
X84337400Y-119855400D01*
X84337400Y-119855400D01*
G37*
G36*
X82837400Y-119855400D02*
X82286600Y-119855400D01*
X82286600Y-118904600D01*
X82837400Y-118904600D01*
X82837400Y-119855400D01*
X82837400Y-119855400D01*
G37*
G36*
X85885400Y-119855400D02*
X85334600Y-119855400D01*
X85334600Y-118904600D01*
X85885400Y-118904600D01*
X85885400Y-119855400D01*
X85885400Y-119855400D01*
G37*
G36*
X87385400Y-119855400D02*
X86834600Y-119855400D01*
X86834600Y-118904600D01*
X87385400Y-118904600D01*
X87385400Y-119855400D01*
X87385400Y-119855400D01*
G37*
G36*
X90433400Y-119855400D02*
X89882600Y-119855400D01*
X89882600Y-118904600D01*
X90433400Y-118904600D01*
X90433400Y-119855400D01*
X90433400Y-119855400D01*
G37*
G36*
X88933400Y-119855400D02*
X88382600Y-119855400D01*
X88382600Y-118904600D01*
X88933400Y-118904600D01*
X88933400Y-119855400D01*
X88933400Y-119855400D01*
G37*
G36*
X98300400Y-119600400D02*
X95399600Y-119600400D01*
X95399600Y-117899600D01*
X98300400Y-117899600D01*
X98300400Y-119600400D01*
X98300400Y-119600400D01*
G37*
G36*
X61110400Y-119285400D02*
X58559600Y-119285400D01*
X58559600Y-116934600D01*
X61110400Y-116934600D01*
X61110400Y-119285400D01*
X61110400Y-119285400D01*
G37*
G36*
X65410400Y-119285400D02*
X62859600Y-119285400D01*
X62859600Y-116934600D01*
X65410400Y-116934600D01*
X65410400Y-119285400D01*
X65410400Y-119285400D01*
G37*
G36*
X73665400Y-119285400D02*
X71114600Y-119285400D01*
X71114600Y-116934600D01*
X73665400Y-116934600D01*
X73665400Y-119285400D01*
X73665400Y-119285400D01*
G37*
G36*
X77965400Y-119285400D02*
X75414600Y-119285400D01*
X75414600Y-116934600D01*
X77965400Y-116934600D01*
X77965400Y-119285400D01*
X77965400Y-119285400D01*
G37*
G36*
X112396400Y-118633400D02*
X111345600Y-118633400D01*
X111345600Y-117332600D01*
X112396400Y-117332600D01*
X112396400Y-118633400D01*
X112396400Y-118633400D01*
G37*
G36*
X110396400Y-118633400D02*
X109345600Y-118633400D01*
X109345600Y-117332600D01*
X110396400Y-117332600D01*
X110396400Y-118633400D01*
X110396400Y-118633400D01*
G37*
G36*
X85885400Y-117823400D02*
X85334600Y-117823400D01*
X85334600Y-116872600D01*
X85885400Y-116872600D01*
X85885400Y-117823400D01*
X85885400Y-117823400D01*
G37*
G36*
X84337400Y-117823400D02*
X83786600Y-117823400D01*
X83786600Y-116872600D01*
X84337400Y-116872600D01*
X84337400Y-117823400D01*
X84337400Y-117823400D01*
G37*
G36*
X87385400Y-117823400D02*
X86834600Y-117823400D01*
X86834600Y-116872600D01*
X87385400Y-116872600D01*
X87385400Y-117823400D01*
X87385400Y-117823400D01*
G37*
G36*
X82837400Y-117823400D02*
X82286600Y-117823400D01*
X82286600Y-116872600D01*
X82837400Y-116872600D01*
X82837400Y-117823400D01*
X82837400Y-117823400D01*
G37*
G36*
X88955400Y-117823400D02*
X88404600Y-117823400D01*
X88404600Y-116872600D01*
X88955400Y-116872600D01*
X88955400Y-117823400D01*
X88955400Y-117823400D01*
G37*
G36*
X90455400Y-117823400D02*
X89904600Y-117823400D01*
X89904600Y-116872600D01*
X90455400Y-116872600D01*
X90455400Y-117823400D01*
X90455400Y-117823400D01*
G37*
G36*
X98675400Y-117275400D02*
X98324600Y-117275400D01*
X98324600Y-115824600D01*
X98675400Y-115824600D01*
X98675400Y-117275400D01*
X98675400Y-117275400D01*
G37*
G36*
X98175400Y-117275400D02*
X97824600Y-117275400D01*
X97824600Y-115824600D01*
X98175400Y-115824600D01*
X98175400Y-117275400D01*
X98175400Y-117275400D01*
G37*
G36*
X95175400Y-117275400D02*
X94824600Y-117275400D01*
X94824600Y-115824600D01*
X95175400Y-115824600D01*
X95175400Y-117275400D01*
X95175400Y-117275400D01*
G37*
G36*
X95675400Y-117275400D02*
X95324600Y-117275400D01*
X95324600Y-115824600D01*
X95675400Y-115824600D01*
X95675400Y-117275400D01*
X95675400Y-117275400D01*
G37*
G36*
X96175400Y-117275400D02*
X95824600Y-117275400D01*
X95824600Y-115824600D01*
X96175400Y-115824600D01*
X96175400Y-117275400D01*
X96175400Y-117275400D01*
G37*
G36*
X96675400Y-117275400D02*
X96324600Y-117275400D01*
X96324600Y-115824600D01*
X96675400Y-115824600D01*
X96675400Y-117275400D01*
X96675400Y-117275400D01*
G37*
G36*
X97175400Y-117275400D02*
X96824600Y-117275400D01*
X96824600Y-115824600D01*
X97175400Y-115824600D01*
X97175400Y-117275400D01*
X97175400Y-117275400D01*
G37*
G36*
X97675400Y-117275400D02*
X97324600Y-117275400D01*
X97324600Y-115824600D01*
X97675400Y-115824600D01*
X97675400Y-117275400D01*
X97675400Y-117275400D01*
G37*
G36*
X128318900Y-116913400D02*
X123268100Y-116913400D01*
X123268100Y-112362600D01*
X128318900Y-112362600D01*
X128318900Y-116913400D01*
X128318900Y-116913400D01*
G37*
G36*
X104525400Y-116525400D02*
X102474600Y-116525400D01*
X102474600Y-113474600D01*
X104525400Y-113474600D01*
X104525400Y-116525400D01*
X104525400Y-116525400D01*
G37*
G36*
X117871400Y-116015900D02*
X116570600Y-116015900D01*
X116570600Y-114965100D01*
X117871400Y-114965100D01*
X117871400Y-116015900D01*
X117871400Y-116015900D01*
G37*
G36*
X115648900Y-116015900D02*
X114348100Y-116015900D01*
X114348100Y-114965100D01*
X115648900Y-114965100D01*
X115648900Y-116015900D01*
X115648900Y-116015900D01*
G37*
G36*
X111573900Y-115790900D02*
X110463100Y-115790900D01*
X110463100Y-115090100D01*
X111573900Y-115090100D01*
X111573900Y-115790900D01*
X111573900Y-115790900D01*
G37*
G36*
X109373900Y-115790900D02*
X108263100Y-115790900D01*
X108263100Y-115090100D01*
X109373900Y-115090100D01*
X109373900Y-115790900D01*
X109373900Y-115790900D01*
G37*
G36*
X90776400Y-115045400D02*
X90325600Y-115045400D01*
X90325600Y-113794600D01*
X90776400Y-113794600D01*
X90776400Y-115045400D01*
X90776400Y-115045400D01*
G37*
G36*
X90141400Y-115045400D02*
X89690600Y-115045400D01*
X89690600Y-113794600D01*
X90141400Y-113794600D01*
X90141400Y-115045400D01*
X90141400Y-115045400D01*
G37*
G36*
X89506400Y-115045400D02*
X89055600Y-115045400D01*
X89055600Y-113794600D01*
X89506400Y-113794600D01*
X89506400Y-115045400D01*
X89506400Y-115045400D01*
G37*
G36*
X88871400Y-115045400D02*
X88420600Y-115045400D01*
X88420600Y-113794600D01*
X88871400Y-113794600D01*
X88871400Y-115045400D01*
X88871400Y-115045400D01*
G37*
G36*
X88236400Y-115045400D02*
X87785600Y-115045400D01*
X87785600Y-113794600D01*
X88236400Y-113794600D01*
X88236400Y-115045400D01*
X88236400Y-115045400D01*
G37*
G36*
X87601400Y-115045400D02*
X87150600Y-115045400D01*
X87150600Y-113794600D01*
X87601400Y-113794600D01*
X87601400Y-115045400D01*
X87601400Y-115045400D01*
G37*
G36*
X86966400Y-115045400D02*
X86515600Y-115045400D01*
X86515600Y-113794600D01*
X86966400Y-113794600D01*
X86966400Y-115045400D01*
X86966400Y-115045400D01*
G37*
G36*
X86331400Y-115045400D02*
X85880600Y-115045400D01*
X85880600Y-113794600D01*
X86331400Y-113794600D01*
X86331400Y-115045400D01*
X86331400Y-115045400D01*
G37*
G36*
X85696400Y-115045400D02*
X85245600Y-115045400D01*
X85245600Y-113794600D01*
X85696400Y-113794600D01*
X85696400Y-115045400D01*
X85696400Y-115045400D01*
G37*
G36*
X85061400Y-115045400D02*
X84610600Y-115045400D01*
X84610600Y-113794600D01*
X85061400Y-113794600D01*
X85061400Y-115045400D01*
X85061400Y-115045400D01*
G37*
G36*
X84426400Y-115045400D02*
X83975600Y-115045400D01*
X83975600Y-113794600D01*
X84426400Y-113794600D01*
X84426400Y-115045400D01*
X84426400Y-115045400D01*
G37*
G36*
X83791400Y-115045400D02*
X83340600Y-115045400D01*
X83340600Y-113794600D01*
X83791400Y-113794600D01*
X83791400Y-115045400D01*
X83791400Y-115045400D01*
G37*
G36*
X94175400Y-114900400D02*
X93324600Y-114900400D01*
X93324600Y-114099600D01*
X94175400Y-114099600D01*
X94175400Y-114900400D01*
X94175400Y-114900400D01*
G37*
G36*
X95675400Y-114900400D02*
X94824600Y-114900400D01*
X94824600Y-114099600D01*
X95675400Y-114099600D01*
X95675400Y-114900400D01*
X95675400Y-114900400D01*
G37*
G36*
X109373900Y-114840900D02*
X108263100Y-114840900D01*
X108263100Y-114140100D01*
X109373900Y-114140100D01*
X109373900Y-114840900D01*
X109373900Y-114840900D01*
G37*
G36*
X111573900Y-114840900D02*
X110463100Y-114840900D01*
X110463100Y-114140100D01*
X111573900Y-114140100D01*
X111573900Y-114840900D01*
X111573900Y-114840900D01*
G37*
G36*
X117871400Y-114015900D02*
X116570600Y-114015900D01*
X116570600Y-112965100D01*
X117871400Y-112965100D01*
X117871400Y-114015900D01*
X117871400Y-114015900D01*
G37*
G36*
X115648900Y-114015900D02*
X114348100Y-114015900D01*
X114348100Y-112965100D01*
X115648900Y-112965100D01*
X115648900Y-114015900D01*
X115648900Y-114015900D01*
G37*
G36*
X101675400Y-113900400D02*
X100824600Y-113900400D01*
X100824600Y-113099600D01*
X101675400Y-113099600D01*
X101675400Y-113900400D01*
X101675400Y-113900400D01*
G37*
G36*
X100175400Y-113900400D02*
X99324600Y-113900400D01*
X99324600Y-113099600D01*
X100175400Y-113099600D01*
X100175400Y-113900400D01*
X100175400Y-113900400D01*
G37*
G36*
X109373900Y-113890900D02*
X108263100Y-113890900D01*
X108263100Y-113190100D01*
X109373900Y-113190100D01*
X109373900Y-113890900D01*
X109373900Y-113890900D01*
G37*
G36*
X111573900Y-113890900D02*
X110463100Y-113890900D01*
X110463100Y-113190100D01*
X111573900Y-113190100D01*
X111573900Y-113890900D01*
X111573900Y-113890900D01*
G37*
G36*
X70560400Y-112698800D02*
X70562411Y-112712953D01*
X70568286Y-112725984D01*
X70577558Y-112736864D01*
X70589494Y-112744729D01*
X70603149Y-112748958D01*
X70611200Y-112749600D01*
X70815400Y-112749600D01*
X70815400Y-113820400D01*
X70154600Y-113820400D01*
X70154600Y-113161200D01*
X70152589Y-113147047D01*
X70146714Y-113134016D01*
X70137442Y-113123136D01*
X70125506Y-113115271D01*
X70111851Y-113111042D01*
X70103800Y-113110400D01*
X69596200Y-113110400D01*
X69582047Y-113112411D01*
X69569016Y-113118286D01*
X69558136Y-113127558D01*
X69550271Y-113139494D01*
X69546042Y-113153149D01*
X69545400Y-113161200D01*
X69545400Y-113820400D01*
X68884600Y-113820400D01*
X68884600Y-113161200D01*
X68882589Y-113147047D01*
X68876714Y-113134016D01*
X68867442Y-113123136D01*
X68855506Y-113115271D01*
X68841851Y-113111042D01*
X68833800Y-113110400D01*
X68326200Y-113110400D01*
X68312047Y-113112411D01*
X68299016Y-113118286D01*
X68288136Y-113127558D01*
X68280271Y-113139494D01*
X68276042Y-113153149D01*
X68275400Y-113161200D01*
X68275400Y-113820400D01*
X67614600Y-113820400D01*
X67614600Y-113161200D01*
X67612589Y-113147047D01*
X67606714Y-113134016D01*
X67597442Y-113123136D01*
X67585506Y-113115271D01*
X67571851Y-113111042D01*
X67563800Y-113110400D01*
X67056200Y-113110400D01*
X67042047Y-113112411D01*
X67029016Y-113118286D01*
X67018136Y-113127558D01*
X67010271Y-113139494D01*
X67006042Y-113153149D01*
X67005400Y-113161200D01*
X67005400Y-113820400D01*
X66344600Y-113820400D01*
X66344600Y-112749600D01*
X66548800Y-112749600D01*
X66562953Y-112747589D01*
X66575984Y-112741714D01*
X66586864Y-112732442D01*
X66594729Y-112720506D01*
X66598958Y-112706851D01*
X66599600Y-112698800D01*
X66599600Y-109249600D01*
X70560400Y-109249600D01*
X70560400Y-112698800D01*
X70560400Y-112698800D01*
G37*
G36*
X62940400Y-112698800D02*
X62942411Y-112712953D01*
X62948286Y-112725984D01*
X62957558Y-112736864D01*
X62969494Y-112744729D01*
X62983149Y-112748958D01*
X62991200Y-112749600D01*
X63195400Y-112749600D01*
X63195400Y-113820400D01*
X62534600Y-113820400D01*
X62534600Y-113161200D01*
X62532589Y-113147047D01*
X62526714Y-113134016D01*
X62517442Y-113123136D01*
X62505506Y-113115271D01*
X62491851Y-113111042D01*
X62483800Y-113110400D01*
X61976200Y-113110400D01*
X61962047Y-113112411D01*
X61949016Y-113118286D01*
X61938136Y-113127558D01*
X61930271Y-113139494D01*
X61926042Y-113153149D01*
X61925400Y-113161200D01*
X61925400Y-113820400D01*
X61264600Y-113820400D01*
X61264600Y-113161200D01*
X61262589Y-113147047D01*
X61256714Y-113134016D01*
X61247442Y-113123136D01*
X61235506Y-113115271D01*
X61221851Y-113111042D01*
X61213800Y-113110400D01*
X60706200Y-113110400D01*
X60692047Y-113112411D01*
X60679016Y-113118286D01*
X60668136Y-113127558D01*
X60660271Y-113139494D01*
X60656042Y-113153149D01*
X60655400Y-113161200D01*
X60655400Y-113820400D01*
X59994600Y-113820400D01*
X59994600Y-113161200D01*
X59992589Y-113147047D01*
X59986714Y-113134016D01*
X59977442Y-113123136D01*
X59965506Y-113115271D01*
X59951851Y-113111042D01*
X59943800Y-113110400D01*
X59436200Y-113110400D01*
X59422047Y-113112411D01*
X59409016Y-113118286D01*
X59398136Y-113127558D01*
X59390271Y-113139494D01*
X59386042Y-113153149D01*
X59385400Y-113161200D01*
X59385400Y-113820400D01*
X58724600Y-113820400D01*
X58724600Y-112749600D01*
X58928800Y-112749600D01*
X58942953Y-112747589D01*
X58955984Y-112741714D01*
X58966864Y-112732442D01*
X58974729Y-112720506D01*
X58978958Y-112706851D01*
X58979600Y-112698800D01*
X58979600Y-109249600D01*
X62940400Y-109249600D01*
X62940400Y-112698800D01*
X62940400Y-112698800D01*
G37*
G36*
X78180400Y-112698800D02*
X78182411Y-112712953D01*
X78188286Y-112725984D01*
X78197558Y-112736864D01*
X78209494Y-112744729D01*
X78223149Y-112748958D01*
X78231200Y-112749600D01*
X78435400Y-112749600D01*
X78435400Y-113820400D01*
X77774600Y-113820400D01*
X77774600Y-113161200D01*
X77772589Y-113147047D01*
X77766714Y-113134016D01*
X77757442Y-113123136D01*
X77745506Y-113115271D01*
X77731851Y-113111042D01*
X77723800Y-113110400D01*
X77216200Y-113110400D01*
X77202047Y-113112411D01*
X77189016Y-113118286D01*
X77178136Y-113127558D01*
X77170271Y-113139494D01*
X77166042Y-113153149D01*
X77165400Y-113161200D01*
X77165400Y-113820400D01*
X76504600Y-113820400D01*
X76504600Y-113161200D01*
X76502589Y-113147047D01*
X76496714Y-113134016D01*
X76487442Y-113123136D01*
X76475506Y-113115271D01*
X76461851Y-113111042D01*
X76453800Y-113110400D01*
X75946200Y-113110400D01*
X75932047Y-113112411D01*
X75919016Y-113118286D01*
X75908136Y-113127558D01*
X75900271Y-113139494D01*
X75896042Y-113153149D01*
X75895400Y-113161200D01*
X75895400Y-113820400D01*
X75234600Y-113820400D01*
X75234600Y-113161200D01*
X75232589Y-113147047D01*
X75226714Y-113134016D01*
X75217442Y-113123136D01*
X75205506Y-113115271D01*
X75191851Y-113111042D01*
X75183800Y-113110400D01*
X74676200Y-113110400D01*
X74662047Y-113112411D01*
X74649016Y-113118286D01*
X74638136Y-113127558D01*
X74630271Y-113139494D01*
X74626042Y-113153149D01*
X74625400Y-113161200D01*
X74625400Y-113820400D01*
X73964600Y-113820400D01*
X73964600Y-112749600D01*
X74168800Y-112749600D01*
X74182953Y-112747589D01*
X74195984Y-112741714D01*
X74206864Y-112732442D01*
X74214729Y-112720506D01*
X74218958Y-112706851D01*
X74219600Y-112698800D01*
X74219600Y-109249600D01*
X78180400Y-109249600D01*
X78180400Y-112698800D01*
X78180400Y-112698800D01*
G37*
G36*
X95175400Y-113400400D02*
X94324600Y-113400400D01*
X94324600Y-112599600D01*
X95175400Y-112599600D01*
X95175400Y-113400400D01*
X95175400Y-113400400D01*
G37*
G36*
X96675400Y-113400400D02*
X95824600Y-113400400D01*
X95824600Y-112599600D01*
X96675400Y-112599600D01*
X96675400Y-113400400D01*
X96675400Y-113400400D01*
G37*
G36*
X97525400Y-111650400D02*
X96474600Y-111650400D01*
X96474600Y-110349600D01*
X97525400Y-110349600D01*
X97525400Y-111650400D01*
X97525400Y-111650400D01*
G37*
G36*
X95525400Y-111650400D02*
X94474600Y-111650400D01*
X94474600Y-110349600D01*
X95525400Y-110349600D01*
X95525400Y-111650400D01*
X95525400Y-111650400D01*
G37*
G36*
X128318900Y-110268400D02*
X123268100Y-110268400D01*
X123268100Y-105717600D01*
X128318900Y-105717600D01*
X128318900Y-110268400D01*
X128318900Y-110268400D01*
G37*
G36*
X87601400Y-109845400D02*
X87150600Y-109845400D01*
X87150600Y-108594600D01*
X87601400Y-108594600D01*
X87601400Y-109845400D01*
X87601400Y-109845400D01*
G37*
G36*
X88236400Y-109845400D02*
X87785600Y-109845400D01*
X87785600Y-108594600D01*
X88236400Y-108594600D01*
X88236400Y-109845400D01*
X88236400Y-109845400D01*
G37*
G36*
X88871400Y-109845400D02*
X88420600Y-109845400D01*
X88420600Y-108594600D01*
X88871400Y-108594600D01*
X88871400Y-109845400D01*
X88871400Y-109845400D01*
G37*
G36*
X89506400Y-109845400D02*
X89055600Y-109845400D01*
X89055600Y-108594600D01*
X89506400Y-108594600D01*
X89506400Y-109845400D01*
X89506400Y-109845400D01*
G37*
G36*
X90141400Y-109845400D02*
X89690600Y-109845400D01*
X89690600Y-108594600D01*
X90141400Y-108594600D01*
X90141400Y-109845400D01*
X90141400Y-109845400D01*
G37*
G36*
X90776400Y-109845400D02*
X90325600Y-109845400D01*
X90325600Y-108594600D01*
X90776400Y-108594600D01*
X90776400Y-109845400D01*
X90776400Y-109845400D01*
G37*
G36*
X83791400Y-109845400D02*
X83340600Y-109845400D01*
X83340600Y-108594600D01*
X83791400Y-108594600D01*
X83791400Y-109845400D01*
X83791400Y-109845400D01*
G37*
G36*
X84426400Y-109845400D02*
X83975600Y-109845400D01*
X83975600Y-108594600D01*
X84426400Y-108594600D01*
X84426400Y-109845400D01*
X84426400Y-109845400D01*
G37*
G36*
X85061400Y-109845400D02*
X84610600Y-109845400D01*
X84610600Y-108594600D01*
X85061400Y-108594600D01*
X85061400Y-109845400D01*
X85061400Y-109845400D01*
G37*
G36*
X85696400Y-109845400D02*
X85245600Y-109845400D01*
X85245600Y-108594600D01*
X85696400Y-108594600D01*
X85696400Y-109845400D01*
X85696400Y-109845400D01*
G37*
G36*
X86331400Y-109845400D02*
X85880600Y-109845400D01*
X85880600Y-108594600D01*
X86331400Y-108594600D01*
X86331400Y-109845400D01*
X86331400Y-109845400D01*
G37*
G36*
X86966400Y-109845400D02*
X86515600Y-109845400D01*
X86515600Y-108594600D01*
X86966400Y-108594600D01*
X86966400Y-109845400D01*
X86966400Y-109845400D01*
G37*
G36*
X78435400Y-108480400D02*
X77774600Y-108480400D01*
X77774600Y-107159600D01*
X78435400Y-107159600D01*
X78435400Y-108480400D01*
X78435400Y-108480400D01*
G37*
G36*
X77165400Y-108480400D02*
X76504600Y-108480400D01*
X76504600Y-107159600D01*
X77165400Y-107159600D01*
X77165400Y-108480400D01*
X77165400Y-108480400D01*
G37*
G36*
X75895400Y-108480400D02*
X75234600Y-108480400D01*
X75234600Y-107159600D01*
X75895400Y-107159600D01*
X75895400Y-108480400D01*
X75895400Y-108480400D01*
G37*
G36*
X74625400Y-108480400D02*
X73964600Y-108480400D01*
X73964600Y-107159600D01*
X74625400Y-107159600D01*
X74625400Y-108480400D01*
X74625400Y-108480400D01*
G37*
G36*
X70815400Y-108480400D02*
X70154600Y-108480400D01*
X70154600Y-107159600D01*
X70815400Y-107159600D01*
X70815400Y-108480400D01*
X70815400Y-108480400D01*
G37*
G36*
X63195400Y-108480400D02*
X62534600Y-108480400D01*
X62534600Y-107159600D01*
X63195400Y-107159600D01*
X63195400Y-108480400D01*
X63195400Y-108480400D01*
G37*
G36*
X67005400Y-108480400D02*
X66344600Y-108480400D01*
X66344600Y-107159600D01*
X67005400Y-107159600D01*
X67005400Y-108480400D01*
X67005400Y-108480400D01*
G37*
G36*
X68275400Y-108480400D02*
X67614600Y-108480400D01*
X67614600Y-107159600D01*
X68275400Y-107159600D01*
X68275400Y-108480400D01*
X68275400Y-108480400D01*
G37*
G36*
X69545400Y-108480400D02*
X68884600Y-108480400D01*
X68884600Y-107159600D01*
X69545400Y-107159600D01*
X69545400Y-108480400D01*
X69545400Y-108480400D01*
G37*
G36*
X59385400Y-108480400D02*
X58724600Y-108480400D01*
X58724600Y-107159600D01*
X59385400Y-107159600D01*
X59385400Y-108480400D01*
X59385400Y-108480400D01*
G37*
G36*
X60655400Y-108480400D02*
X59994600Y-108480400D01*
X59994600Y-107159600D01*
X60655400Y-107159600D01*
X60655400Y-108480400D01*
X60655400Y-108480400D01*
G37*
G36*
X61925400Y-108480400D02*
X61264600Y-108480400D01*
X61264600Y-107159600D01*
X61925400Y-107159600D01*
X61925400Y-108480400D01*
X61925400Y-108480400D01*
G37*
G36*
X116428900Y-108473400D02*
X115378100Y-108473400D01*
X115378100Y-107172600D01*
X116428900Y-107172600D01*
X116428900Y-108473400D01*
X116428900Y-108473400D01*
G37*
G36*
X118428900Y-108473400D02*
X117378100Y-108473400D01*
X117378100Y-107172600D01*
X118428900Y-107172600D01*
X118428900Y-108473400D01*
X118428900Y-108473400D01*
G37*
G36*
X80410400Y-107347400D02*
X79609600Y-107347400D01*
X79609600Y-106496600D01*
X80410400Y-106496600D01*
X80410400Y-107347400D01*
X80410400Y-107347400D01*
G37*
G36*
X82188400Y-107347400D02*
X81387600Y-107347400D01*
X81387600Y-106496600D01*
X82188400Y-106496600D01*
X82188400Y-107347400D01*
X82188400Y-107347400D01*
G37*
G36*
X83966400Y-107347400D02*
X83165600Y-107347400D01*
X83165600Y-106496600D01*
X83966400Y-106496600D01*
X83966400Y-107347400D01*
X83966400Y-107347400D01*
G37*
G36*
X85744400Y-107347400D02*
X84943600Y-107347400D01*
X84943600Y-106496600D01*
X85744400Y-106496600D01*
X85744400Y-107347400D01*
X85744400Y-107347400D01*
G37*
G36*
X87268400Y-106077400D02*
X86467600Y-106077400D01*
X86467600Y-105226600D01*
X87268400Y-105226600D01*
X87268400Y-106077400D01*
X87268400Y-106077400D01*
G37*
G36*
X89046400Y-106077400D02*
X88245600Y-106077400D01*
X88245600Y-105226600D01*
X89046400Y-105226600D01*
X89046400Y-106077400D01*
X89046400Y-106077400D01*
G37*
G36*
X116428900Y-105933400D02*
X115378100Y-105933400D01*
X115378100Y-104632600D01*
X116428900Y-104632600D01*
X116428900Y-105933400D01*
X116428900Y-105933400D01*
G37*
G36*
X118428900Y-105933400D02*
X117378100Y-105933400D01*
X117378100Y-104632600D01*
X118428900Y-104632600D01*
X118428900Y-105933400D01*
X118428900Y-105933400D01*
G37*
G36*
X82188400Y-105847400D02*
X81387600Y-105847400D01*
X81387600Y-104996600D01*
X82188400Y-104996600D01*
X82188400Y-105847400D01*
X82188400Y-105847400D01*
G37*
G36*
X80410400Y-105847400D02*
X79609600Y-105847400D01*
X79609600Y-104996600D01*
X80410400Y-104996600D01*
X80410400Y-105847400D01*
X80410400Y-105847400D01*
G37*
G36*
X83966400Y-105847400D02*
X83165600Y-105847400D01*
X83165600Y-104996600D01*
X83966400Y-104996600D01*
X83966400Y-105847400D01*
X83966400Y-105847400D01*
G37*
G36*
X85744400Y-105847400D02*
X84943600Y-105847400D01*
X84943600Y-104996600D01*
X85744400Y-104996600D01*
X85744400Y-105847400D01*
X85744400Y-105847400D01*
G37*
G36*
X109761400Y-105440900D02*
X109210600Y-105440900D01*
X109210600Y-104490100D01*
X109761400Y-104490100D01*
X109761400Y-105440900D01*
X109761400Y-105440900D01*
G37*
G36*
X111261400Y-105440900D02*
X110710600Y-105440900D01*
X110710600Y-104490100D01*
X111261400Y-104490100D01*
X111261400Y-105440900D01*
X111261400Y-105440900D01*
G37*
G36*
X70815400Y-104930400D02*
X70154600Y-104930400D01*
X70154600Y-103609600D01*
X70815400Y-103609600D01*
X70815400Y-104930400D01*
X70815400Y-104930400D01*
G37*
G36*
X69545400Y-104930400D02*
X68884600Y-104930400D01*
X68884600Y-103609600D01*
X69545400Y-103609600D01*
X69545400Y-104930400D01*
X69545400Y-104930400D01*
G37*
G36*
X68275400Y-104930400D02*
X67614600Y-104930400D01*
X67614600Y-103609600D01*
X68275400Y-103609600D01*
X68275400Y-104930400D01*
X68275400Y-104930400D01*
G37*
G36*
X67005400Y-104930400D02*
X66344600Y-104930400D01*
X66344600Y-103609600D01*
X67005400Y-103609600D01*
X67005400Y-104930400D01*
X67005400Y-104930400D01*
G37*
G36*
X63195400Y-104930400D02*
X62534600Y-104930400D01*
X62534600Y-103609600D01*
X63195400Y-103609600D01*
X63195400Y-104930400D01*
X63195400Y-104930400D01*
G37*
G36*
X61925400Y-104930400D02*
X61264600Y-104930400D01*
X61264600Y-103609600D01*
X61925400Y-103609600D01*
X61925400Y-104930400D01*
X61925400Y-104930400D01*
G37*
G36*
X77165400Y-104930400D02*
X76504600Y-104930400D01*
X76504600Y-103609600D01*
X77165400Y-103609600D01*
X77165400Y-104930400D01*
X77165400Y-104930400D01*
G37*
G36*
X60655400Y-104930400D02*
X59994600Y-104930400D01*
X59994600Y-103609600D01*
X60655400Y-103609600D01*
X60655400Y-104930400D01*
X60655400Y-104930400D01*
G37*
G36*
X75895400Y-104930400D02*
X75234600Y-104930400D01*
X75234600Y-103609600D01*
X75895400Y-103609600D01*
X75895400Y-104930400D01*
X75895400Y-104930400D01*
G37*
G36*
X59385400Y-104930400D02*
X58724600Y-104930400D01*
X58724600Y-103609600D01*
X59385400Y-103609600D01*
X59385400Y-104930400D01*
X59385400Y-104930400D01*
G37*
G36*
X74625400Y-104930400D02*
X73964600Y-104930400D01*
X73964600Y-103609600D01*
X74625400Y-103609600D01*
X74625400Y-104930400D01*
X74625400Y-104930400D01*
G37*
G36*
X78435400Y-104930400D02*
X77774600Y-104930400D01*
X77774600Y-103609600D01*
X78435400Y-103609600D01*
X78435400Y-104930400D01*
X78435400Y-104930400D01*
G37*
G36*
X89046400Y-104577400D02*
X88245600Y-104577400D01*
X88245600Y-103726600D01*
X89046400Y-103726600D01*
X89046400Y-104577400D01*
X89046400Y-104577400D01*
G37*
G36*
X87268400Y-104577400D02*
X86467600Y-104577400D01*
X86467600Y-103726600D01*
X87268400Y-103726600D01*
X87268400Y-104577400D01*
X87268400Y-104577400D01*
G37*
G36*
X111261400Y-103535900D02*
X110710600Y-103535900D01*
X110710600Y-102585100D01*
X111261400Y-102585100D01*
X111261400Y-103535900D01*
X111261400Y-103535900D01*
G37*
G36*
X109761400Y-103535900D02*
X109210600Y-103535900D01*
X109210600Y-102585100D01*
X109761400Y-102585100D01*
X109761400Y-103535900D01*
X109761400Y-103535900D01*
G37*
G36*
X83725400Y-102875400D02*
X81374600Y-102875400D01*
X81374600Y-100324600D01*
X83725400Y-100324600D01*
X83725400Y-102875400D01*
X83725400Y-102875400D01*
G37*
G36*
X74625400Y-98928800D02*
X74627411Y-98942953D01*
X74633286Y-98955984D01*
X74642558Y-98966864D01*
X74654494Y-98974729D01*
X74668149Y-98978958D01*
X74676200Y-98979600D01*
X75183800Y-98979600D01*
X75197953Y-98977589D01*
X75210984Y-98971714D01*
X75221864Y-98962442D01*
X75229729Y-98950506D01*
X75233958Y-98936851D01*
X75234600Y-98928800D01*
X75234600Y-98269600D01*
X75895400Y-98269600D01*
X75895400Y-98928800D01*
X75897411Y-98942953D01*
X75903286Y-98955984D01*
X75912558Y-98966864D01*
X75924494Y-98974729D01*
X75938149Y-98978958D01*
X75946200Y-98979600D01*
X76453800Y-98979600D01*
X76467953Y-98977589D01*
X76480984Y-98971714D01*
X76491864Y-98962442D01*
X76499729Y-98950506D01*
X76503958Y-98936851D01*
X76504600Y-98928800D01*
X76504600Y-98269600D01*
X77165400Y-98269600D01*
X77165400Y-98928800D01*
X77167411Y-98942953D01*
X77173286Y-98955984D01*
X77182558Y-98966864D01*
X77194494Y-98974729D01*
X77208149Y-98978958D01*
X77216200Y-98979600D01*
X77723800Y-98979600D01*
X77737953Y-98977589D01*
X77750984Y-98971714D01*
X77761864Y-98962442D01*
X77769729Y-98950506D01*
X77773958Y-98936851D01*
X77774600Y-98928800D01*
X77774600Y-98269600D01*
X78435400Y-98269600D01*
X78435400Y-99340400D01*
X78231200Y-99340400D01*
X78217047Y-99342411D01*
X78204016Y-99348286D01*
X78193136Y-99357558D01*
X78185271Y-99369494D01*
X78181042Y-99383149D01*
X78180400Y-99391200D01*
X78180400Y-102840400D01*
X74219600Y-102840400D01*
X74219600Y-99391200D01*
X74217589Y-99377047D01*
X74211714Y-99364016D01*
X74202442Y-99353136D01*
X74190506Y-99345271D01*
X74176851Y-99341042D01*
X74168800Y-99340400D01*
X73964600Y-99340400D01*
X73964600Y-98269600D01*
X74625400Y-98269600D01*
X74625400Y-98928800D01*
X74625400Y-98928800D01*
G37*
G36*
X67005400Y-98928800D02*
X67007411Y-98942953D01*
X67013286Y-98955984D01*
X67022558Y-98966864D01*
X67034494Y-98974729D01*
X67048149Y-98978958D01*
X67056200Y-98979600D01*
X67563800Y-98979600D01*
X67577953Y-98977589D01*
X67590984Y-98971714D01*
X67601864Y-98962442D01*
X67609729Y-98950506D01*
X67613958Y-98936851D01*
X67614600Y-98928800D01*
X67614600Y-98269600D01*
X68275400Y-98269600D01*
X68275400Y-98928800D01*
X68277411Y-98942953D01*
X68283286Y-98955984D01*
X68292558Y-98966864D01*
X68304494Y-98974729D01*
X68318149Y-98978958D01*
X68326200Y-98979600D01*
X68833800Y-98979600D01*
X68847953Y-98977589D01*
X68860984Y-98971714D01*
X68871864Y-98962442D01*
X68879729Y-98950506D01*
X68883958Y-98936851D01*
X68884600Y-98928800D01*
X68884600Y-98269600D01*
X69545400Y-98269600D01*
X69545400Y-98928800D01*
X69547411Y-98942953D01*
X69553286Y-98955984D01*
X69562558Y-98966864D01*
X69574494Y-98974729D01*
X69588149Y-98978958D01*
X69596200Y-98979600D01*
X70103800Y-98979600D01*
X70117953Y-98977589D01*
X70130984Y-98971714D01*
X70141864Y-98962442D01*
X70149729Y-98950506D01*
X70153958Y-98936851D01*
X70154600Y-98928800D01*
X70154600Y-98269600D01*
X70815400Y-98269600D01*
X70815400Y-99340400D01*
X70611200Y-99340400D01*
X70597047Y-99342411D01*
X70584016Y-99348286D01*
X70573136Y-99357558D01*
X70565271Y-99369494D01*
X70561042Y-99383149D01*
X70560400Y-99391200D01*
X70560400Y-102840400D01*
X66599600Y-102840400D01*
X66599600Y-99391200D01*
X66597589Y-99377047D01*
X66591714Y-99364016D01*
X66582442Y-99353136D01*
X66570506Y-99345271D01*
X66556851Y-99341042D01*
X66548800Y-99340400D01*
X66344600Y-99340400D01*
X66344600Y-98269600D01*
X67005400Y-98269600D01*
X67005400Y-98928800D01*
X67005400Y-98928800D01*
G37*
G36*
X59385400Y-98928800D02*
X59387411Y-98942953D01*
X59393286Y-98955984D01*
X59402558Y-98966864D01*
X59414494Y-98974729D01*
X59428149Y-98978958D01*
X59436200Y-98979600D01*
X59943800Y-98979600D01*
X59957953Y-98977589D01*
X59970984Y-98971714D01*
X59981864Y-98962442D01*
X59989729Y-98950506D01*
X59993958Y-98936851D01*
X59994600Y-98928800D01*
X59994600Y-98269600D01*
X60655400Y-98269600D01*
X60655400Y-98928800D01*
X60657411Y-98942953D01*
X60663286Y-98955984D01*
X60672558Y-98966864D01*
X60684494Y-98974729D01*
X60698149Y-98978958D01*
X60706200Y-98979600D01*
X61213800Y-98979600D01*
X61227953Y-98977589D01*
X61240984Y-98971714D01*
X61251864Y-98962442D01*
X61259729Y-98950506D01*
X61263958Y-98936851D01*
X61264600Y-98928800D01*
X61264600Y-98269600D01*
X61925400Y-98269600D01*
X61925400Y-98928800D01*
X61927411Y-98942953D01*
X61933286Y-98955984D01*
X61942558Y-98966864D01*
X61954494Y-98974729D01*
X61968149Y-98978958D01*
X61976200Y-98979600D01*
X62483800Y-98979600D01*
X62497953Y-98977589D01*
X62510984Y-98971714D01*
X62521864Y-98962442D01*
X62529729Y-98950506D01*
X62533958Y-98936851D01*
X62534600Y-98928800D01*
X62534600Y-98269600D01*
X63195400Y-98269600D01*
X63195400Y-99340400D01*
X62991200Y-99340400D01*
X62977047Y-99342411D01*
X62964016Y-99348286D01*
X62953136Y-99357558D01*
X62945271Y-99369494D01*
X62941042Y-99383149D01*
X62940400Y-99391200D01*
X62940400Y-102840400D01*
X58979600Y-102840400D01*
X58979600Y-99391200D01*
X58977589Y-99377047D01*
X58971714Y-99364016D01*
X58962442Y-99353136D01*
X58950506Y-99345271D01*
X58936851Y-99341042D01*
X58928800Y-99340400D01*
X58724600Y-99340400D01*
X58724600Y-98269600D01*
X59385400Y-98269600D01*
X59385400Y-98928800D01*
X59385400Y-98928800D01*
G37*
G36*
X104480699Y-100719147D02*
X104639255Y-100751695D01*
X104788484Y-100814424D01*
X104922679Y-100904940D01*
X105036737Y-101019797D01*
X105126312Y-101154620D01*
X105187998Y-101304280D01*
X105219368Y-101462711D01*
X105219368Y-101462721D01*
X105219436Y-101463065D01*
X105216854Y-101647951D01*
X105216777Y-101648289D01*
X105216777Y-101648297D01*
X105180993Y-101805801D01*
X105115157Y-101953672D01*
X105021849Y-102085944D01*
X104904627Y-102197573D01*
X104767956Y-102284307D01*
X104617039Y-102342844D01*
X104457633Y-102370952D01*
X104295796Y-102367562D01*
X104137701Y-102332802D01*
X103989369Y-102267998D01*
X103856456Y-102175621D01*
X103744007Y-102059176D01*
X103656322Y-101923115D01*
X103596732Y-101772608D01*
X103567513Y-101613404D01*
X103569772Y-101451549D01*
X103603428Y-101293214D01*
X103667194Y-101144436D01*
X103758646Y-101010874D01*
X103874296Y-100897621D01*
X104009745Y-100808986D01*
X104159828Y-100748348D01*
X104318827Y-100718018D01*
X104480699Y-100719147D01*
X104480699Y-100719147D01*
G37*
G36*
X112396400Y-101488400D02*
X111345600Y-101488400D01*
X111345600Y-100187600D01*
X112396400Y-100187600D01*
X112396400Y-101488400D01*
X112396400Y-101488400D01*
G37*
G36*
X110396400Y-101488400D02*
X109345600Y-101488400D01*
X109345600Y-100187600D01*
X110396400Y-100187600D01*
X110396400Y-101488400D01*
X110396400Y-101488400D01*
G37*
G36*
X128318900Y-99768400D02*
X123268100Y-99768400D01*
X123268100Y-95217600D01*
X128318900Y-95217600D01*
X128318900Y-99768400D01*
X128318900Y-99768400D01*
G37*
G36*
X117871400Y-98870900D02*
X116570600Y-98870900D01*
X116570600Y-97820100D01*
X117871400Y-97820100D01*
X117871400Y-98870900D01*
X117871400Y-98870900D01*
G37*
G36*
X115648900Y-98870900D02*
X114348100Y-98870900D01*
X114348100Y-97820100D01*
X115648900Y-97820100D01*
X115648900Y-98870900D01*
X115648900Y-98870900D01*
G37*
G36*
X105219400Y-98869400D02*
X103568600Y-98869400D01*
X103568600Y-97218600D01*
X105219400Y-97218600D01*
X105219400Y-98869400D01*
X105219400Y-98869400D01*
G37*
G36*
X111573900Y-98645900D02*
X110463100Y-98645900D01*
X110463100Y-97945100D01*
X111573900Y-97945100D01*
X111573900Y-98645900D01*
X111573900Y-98645900D01*
G37*
G36*
X109373900Y-98645900D02*
X108263100Y-98645900D01*
X108263100Y-97945100D01*
X109373900Y-97945100D01*
X109373900Y-98645900D01*
X109373900Y-98645900D01*
G37*
G36*
X83725400Y-98575400D02*
X81374600Y-98575400D01*
X81374600Y-96024600D01*
X83725400Y-96024600D01*
X83725400Y-98575400D01*
X83725400Y-98575400D01*
G37*
G36*
X109373900Y-97695900D02*
X108263100Y-97695900D01*
X108263100Y-96995100D01*
X109373900Y-96995100D01*
X109373900Y-97695900D01*
X109373900Y-97695900D01*
G37*
G36*
X111573900Y-97695900D02*
X110463100Y-97695900D01*
X110463100Y-96995100D01*
X111573900Y-96995100D01*
X111573900Y-97695900D01*
X111573900Y-97695900D01*
G37*
G36*
X117871400Y-96870900D02*
X116570600Y-96870900D01*
X116570600Y-95820100D01*
X117871400Y-95820100D01*
X117871400Y-96870900D01*
X117871400Y-96870900D01*
G37*
G36*
X115648900Y-96870900D02*
X114348100Y-96870900D01*
X114348100Y-95820100D01*
X115648900Y-95820100D01*
X115648900Y-96870900D01*
X115648900Y-96870900D01*
G37*
G36*
X111573900Y-96745900D02*
X110463100Y-96745900D01*
X110463100Y-96045100D01*
X111573900Y-96045100D01*
X111573900Y-96745900D01*
X111573900Y-96745900D01*
G37*
G36*
X109373900Y-96745900D02*
X108263100Y-96745900D01*
X108263100Y-96045100D01*
X109373900Y-96045100D01*
X109373900Y-96745900D01*
X109373900Y-96745900D01*
G37*
M02*
