G04 #@! TF.FileFunction,Legend,Top*
%FSLAX46Y46*%
G04 Gerber Fmt 4.6, Leading zero omitted, Abs format (unit mm)*
G04 Created by KiCad (PCBNEW 4.0.7) date Tuesday, March 06, 2018 'PMt' 03:27:42 PM*
%MOMM*%
%LPD*%
G01*
G04 APERTURE LIST*
%ADD10C,0.100000*%
%ADD11C,0.120000*%
%ADD12C,0.150000*%
%ADD13R,0.800800X0.850800*%
%ADD14R,1.050800X1.300800*%
%ADD15R,1.300800X1.050800*%
%ADD16R,2.550800X2.350800*%
%ADD17R,2.350800X2.550800*%
%ADD18R,0.850800X0.850800*%
%ADD19R,5.050800X4.550800*%
%ADD20R,0.660800X1.320800*%
%ADD21R,0.660800X1.070800*%
%ADD22R,3.960800X3.860800*%
%ADD23R,0.550800X0.950800*%
%ADD24R,0.450800X1.250800*%
%ADD25R,1.110800X0.700800*%
%ADD26R,1.955800X7.670800*%
%ADD27R,1.650800X1.650800*%
%ADD28C,1.650800*%
%ADD29R,0.850800X0.800800*%
%ADD30R,2.050800X3.050800*%
%ADD31R,0.350800X1.450800*%
%ADD32R,2.900800X1.700800*%
G04 APERTURE END LIST*
D10*
D11*
X85944000Y-105822000D02*
X85944000Y-106522000D01*
X84744000Y-106522000D02*
X84744000Y-105822000D01*
X87468000Y-104552000D02*
X87468000Y-105252000D01*
X86268000Y-105252000D02*
X86268000Y-104552000D01*
X89246000Y-104552000D02*
X89246000Y-105252000D01*
X88046000Y-105252000D02*
X88046000Y-104552000D01*
X79410000Y-106522000D02*
X79410000Y-105822000D01*
X80610000Y-105822000D02*
X80610000Y-106522000D01*
X81188000Y-106522000D02*
X81188000Y-105822000D01*
X82388000Y-105822000D02*
X82388000Y-106522000D01*
X82966000Y-106522000D02*
X82966000Y-105822000D01*
X84166000Y-105822000D02*
X84166000Y-106522000D01*
X111371000Y-99988000D02*
X110371000Y-99988000D01*
X110371000Y-101688000D02*
X111371000Y-101688000D01*
X118071000Y-97845500D02*
X118071000Y-96845500D01*
X116371000Y-96845500D02*
X116371000Y-97845500D01*
X115848500Y-97845500D02*
X115848500Y-96845500D01*
X114148500Y-96845500D02*
X114148500Y-97845500D01*
X116403500Y-108673000D02*
X117403500Y-108673000D01*
X117403500Y-106973000D02*
X116403500Y-106973000D01*
X116403500Y-106133000D02*
X117403500Y-106133000D01*
X117403500Y-104433000D02*
X116403500Y-104433000D01*
X111371000Y-117133000D02*
X110371000Y-117133000D01*
X110371000Y-118833000D02*
X111371000Y-118833000D01*
X118071000Y-114990500D02*
X118071000Y-113990500D01*
X116371000Y-113990500D02*
X116371000Y-114990500D01*
X115848500Y-114990500D02*
X115848500Y-113990500D01*
X114148500Y-113990500D02*
X114148500Y-114990500D01*
X116403500Y-123278000D02*
X117403500Y-123278000D01*
X117403500Y-121578000D02*
X116403500Y-121578000D01*
X116403500Y-125818000D02*
X117403500Y-125818000D01*
X117403500Y-124118000D02*
X116403500Y-124118000D01*
X96000000Y-124350000D02*
X97000000Y-124350000D01*
X97000000Y-122650000D02*
X96000000Y-122650000D01*
X70990000Y-115960000D02*
X70990000Y-120260000D01*
X70990000Y-120260000D02*
X76690000Y-120260000D01*
X70990000Y-115960000D02*
X76690000Y-115960000D01*
X84700000Y-95900000D02*
X80400000Y-95900000D01*
X80400000Y-95900000D02*
X80400000Y-101600000D01*
X84700000Y-95900000D02*
X84700000Y-101600000D01*
X73790000Y-125975000D02*
X73790000Y-121675000D01*
X73790000Y-121675000D02*
X68090000Y-121675000D01*
X73790000Y-125975000D02*
X68090000Y-125975000D01*
X65535000Y-120260000D02*
X65535000Y-115960000D01*
X65535000Y-115960000D02*
X59835000Y-115960000D01*
X65535000Y-120260000D02*
X59835000Y-120260000D01*
X84298000Y-124976000D02*
X84298000Y-125976000D01*
X84298000Y-125976000D02*
X86398000Y-125976000D01*
X84298000Y-124976000D02*
X86398000Y-124976000D01*
X84298000Y-123198000D02*
X84298000Y-124198000D01*
X84298000Y-124198000D02*
X86398000Y-124198000D01*
X84298000Y-123198000D02*
X86398000Y-123198000D01*
X122893500Y-96243000D02*
X119293500Y-96243000D01*
X119293500Y-96243000D02*
X119293500Y-109243000D01*
X119293500Y-109243000D02*
X122893500Y-109243000D01*
X128693500Y-96243000D02*
X132293500Y-96243000D01*
X132293500Y-96243000D02*
X132293500Y-109243000D01*
X132293500Y-109243000D02*
X128693500Y-109243000D01*
X122893500Y-113388000D02*
X119293500Y-113388000D01*
X119293500Y-113388000D02*
X119293500Y-126388000D01*
X119293500Y-126388000D02*
X122893500Y-126388000D01*
X128693500Y-113388000D02*
X132293500Y-113388000D01*
X132293500Y-113388000D02*
X132293500Y-126388000D01*
X132293500Y-126388000D02*
X128693500Y-126388000D01*
X78770000Y-107090000D02*
X78770000Y-113435000D01*
X73630000Y-107545000D02*
X73630000Y-113435000D01*
X73630000Y-105000000D02*
X73630000Y-98655000D01*
X78770000Y-104545000D02*
X78770000Y-98655000D01*
X71150000Y-107090000D02*
X71150000Y-113435000D01*
X66010000Y-107545000D02*
X66010000Y-113435000D01*
X66010000Y-105000000D02*
X66010000Y-98655000D01*
X71150000Y-104545000D02*
X71150000Y-98655000D01*
X63530000Y-107090000D02*
X63530000Y-113435000D01*
X58390000Y-107545000D02*
X58390000Y-113435000D01*
X58390000Y-105000000D02*
X58390000Y-98655000D01*
X63530000Y-104545000D02*
X63530000Y-98655000D01*
X82812000Y-116668000D02*
X83812000Y-116668000D01*
X83812000Y-118028000D02*
X82812000Y-118028000D01*
X86860000Y-118028000D02*
X85860000Y-118028000D01*
X85860000Y-116668000D02*
X86860000Y-116668000D01*
X88930000Y-116668000D02*
X89930000Y-116668000D01*
X89930000Y-118028000D02*
X88930000Y-118028000D01*
X82812000Y-118700000D02*
X83812000Y-118700000D01*
X83812000Y-120060000D02*
X82812000Y-120060000D01*
X86860000Y-120060000D02*
X85860000Y-120060000D01*
X85860000Y-118700000D02*
X86860000Y-118700000D01*
X88908000Y-118700000D02*
X89908000Y-118700000D01*
X89908000Y-120060000D02*
X88908000Y-120060000D01*
X82812000Y-120732000D02*
X83812000Y-120732000D01*
X83812000Y-122092000D02*
X82812000Y-122092000D01*
X86860000Y-122092000D02*
X85860000Y-122092000D01*
X85860000Y-120732000D02*
X86860000Y-120732000D01*
X88960000Y-120732000D02*
X89960000Y-120732000D01*
X89960000Y-122092000D02*
X88960000Y-122092000D01*
X109736000Y-104285500D02*
X110736000Y-104285500D01*
X110736000Y-105645500D02*
X109736000Y-105645500D01*
X110736000Y-103740500D02*
X109736000Y-103740500D01*
X109736000Y-102380500D02*
X110736000Y-102380500D01*
X109736000Y-121430500D02*
X110736000Y-121430500D01*
X110736000Y-122790500D02*
X109736000Y-122790500D01*
X110736000Y-120885500D02*
X109736000Y-120885500D01*
X109736000Y-119525500D02*
X110736000Y-119525500D01*
X82050000Y-126574000D02*
X83050000Y-126574000D01*
X83050000Y-127934000D02*
X82050000Y-127934000D01*
X82050000Y-124796000D02*
X83050000Y-124796000D01*
X83050000Y-126156000D02*
X82050000Y-126156000D01*
X82050000Y-123018000D02*
X83050000Y-123018000D01*
X83050000Y-124378000D02*
X82050000Y-124378000D01*
D12*
X82583500Y-113895000D02*
X83058500Y-113895000D01*
X82583500Y-109745000D02*
X83141000Y-109745000D01*
X91533500Y-109745000D02*
X90976000Y-109745000D01*
X91533500Y-113895000D02*
X90976000Y-113895000D01*
X82583500Y-113895000D02*
X82583500Y-109745000D01*
X91533500Y-113895000D02*
X91533500Y-109745000D01*
X83058500Y-113895000D02*
X83058500Y-115020000D01*
D11*
X110818500Y-95735500D02*
X109018500Y-95735500D01*
X109018500Y-98955500D02*
X111468500Y-98955500D01*
X110818500Y-112880500D02*
X109018500Y-112880500D01*
X109018500Y-116100500D02*
X111468500Y-116100500D01*
X84298000Y-126754000D02*
X84298000Y-127754000D01*
X84298000Y-127754000D02*
X86398000Y-127754000D01*
X84298000Y-126754000D02*
X86398000Y-126754000D01*
D12*
X90594000Y-102444000D02*
X103594000Y-102444000D01*
X103594000Y-102544000D02*
X90594000Y-102544000D01*
X90594000Y-103744000D02*
X101394000Y-103744000D01*
X101394000Y-103544000D02*
X90594000Y-103544000D01*
X90594000Y-103344000D02*
X101494000Y-103344000D01*
X101694000Y-103144000D02*
X90594000Y-103144000D01*
X90594000Y-102744000D02*
X103594000Y-102744000D01*
X103594000Y-102944000D02*
X90594000Y-102944000D01*
X102694000Y-103144000D02*
X103594000Y-103144000D01*
X103594000Y-103344000D02*
X102894000Y-103344000D01*
X102994000Y-103544000D02*
X103594000Y-103544000D01*
X103594000Y-103744000D02*
X102994000Y-103744000D01*
X101394000Y-103644000D02*
X90594000Y-103644000D01*
X103594000Y-103644000D02*
X102994000Y-103644000D01*
X102994000Y-103444000D02*
X103594000Y-103444000D01*
X90594000Y-103444000D02*
X101394000Y-103444000D01*
X101594000Y-103244000D02*
X90594000Y-103244000D01*
X103594000Y-103244000D02*
X102794000Y-103244000D01*
X90594000Y-103044000D02*
X103594000Y-103044000D01*
X103594000Y-102844000D02*
X90594000Y-102844000D01*
X103594000Y-102644000D02*
X90594000Y-102644000D01*
X103594000Y-95844000D02*
X103594000Y-103844000D01*
X90594000Y-95844000D02*
X101394000Y-95844000D01*
X90594000Y-103844000D02*
X90594000Y-95844000D01*
X101394000Y-103844000D02*
X90594000Y-103844000D01*
X102994000Y-103844000D02*
G75*
G03X101394000Y-103844000I-800000J0D01*
G01*
X103594000Y-103844000D02*
X102994000Y-103844000D01*
D11*
X104394000Y-95844000D02*
X104394000Y-97044000D01*
X105044000Y-96444000D02*
X103744000Y-96444000D01*
D12*
X101394000Y-95844000D02*
G75*
G03X102994000Y-95844000I800000J0D01*
G01*
X103594000Y-95844000D02*
X102994000Y-95844000D01*
D11*
X100150000Y-112900000D02*
X100850000Y-112900000D01*
X100850000Y-114100000D02*
X100150000Y-114100000D01*
X100150000Y-122900000D02*
X100850000Y-122900000D01*
X100850000Y-124100000D02*
X100150000Y-124100000D01*
X95500000Y-111850000D02*
X96500000Y-111850000D01*
X96500000Y-110150000D02*
X95500000Y-110150000D01*
X95150000Y-112400000D02*
X95850000Y-112400000D01*
X95850000Y-113600000D02*
X95150000Y-113600000D01*
X94150000Y-113900000D02*
X94850000Y-113900000D01*
X94850000Y-115100000D02*
X94150000Y-115100000D01*
X104900000Y-122400000D02*
X107300000Y-122400000D01*
X107300000Y-122400000D02*
X107300000Y-114600000D01*
X102100000Y-114600000D02*
X99700000Y-114600000D01*
X99700000Y-114600000D02*
X99700000Y-122400000D01*
X99700000Y-122400000D02*
X102100000Y-122400000D01*
X104900000Y-114600000D02*
X107300000Y-114600000D01*
D12*
X99175000Y-117075000D02*
X98950000Y-117075000D01*
X99175000Y-120425000D02*
X98875000Y-120425000D01*
X94325000Y-120425000D02*
X94625000Y-120425000D01*
X94325000Y-117075000D02*
X94625000Y-117075000D01*
X99175000Y-117075000D02*
X99175000Y-120425000D01*
X94325000Y-117075000D02*
X94325000Y-120425000D01*
X98950000Y-117075000D02*
X98950000Y-115850000D01*
D10*
X85227334Y-104390000D02*
X85194000Y-104423333D01*
X85094000Y-104456667D01*
X85027334Y-104456667D01*
X84927334Y-104423333D01*
X84860667Y-104356667D01*
X84827334Y-104290000D01*
X84794000Y-104156667D01*
X84794000Y-104056667D01*
X84827334Y-103923333D01*
X84860667Y-103856667D01*
X84927334Y-103790000D01*
X85027334Y-103756667D01*
X85094000Y-103756667D01*
X85194000Y-103790000D01*
X85227334Y-103823333D01*
X85494000Y-103823333D02*
X85527334Y-103790000D01*
X85594000Y-103756667D01*
X85760667Y-103756667D01*
X85827334Y-103790000D01*
X85860667Y-103823333D01*
X85894000Y-103890000D01*
X85894000Y-103956667D01*
X85860667Y-104056667D01*
X85460667Y-104456667D01*
X85894000Y-104456667D01*
X86751334Y-103120000D02*
X86718000Y-103153333D01*
X86618000Y-103186667D01*
X86551334Y-103186667D01*
X86451334Y-103153333D01*
X86384667Y-103086667D01*
X86351334Y-103020000D01*
X86318000Y-102886667D01*
X86318000Y-102786667D01*
X86351334Y-102653333D01*
X86384667Y-102586667D01*
X86451334Y-102520000D01*
X86551334Y-102486667D01*
X86618000Y-102486667D01*
X86718000Y-102520000D01*
X86751334Y-102553333D01*
X86984667Y-102486667D02*
X87418000Y-102486667D01*
X87184667Y-102753333D01*
X87284667Y-102753333D01*
X87351334Y-102786667D01*
X87384667Y-102820000D01*
X87418000Y-102886667D01*
X87418000Y-103053333D01*
X87384667Y-103120000D01*
X87351334Y-103153333D01*
X87284667Y-103186667D01*
X87084667Y-103186667D01*
X87018000Y-103153333D01*
X86984667Y-103120000D01*
X88529334Y-103120000D02*
X88496000Y-103153333D01*
X88396000Y-103186667D01*
X88329334Y-103186667D01*
X88229334Y-103153333D01*
X88162667Y-103086667D01*
X88129334Y-103020000D01*
X88096000Y-102886667D01*
X88096000Y-102786667D01*
X88129334Y-102653333D01*
X88162667Y-102586667D01*
X88229334Y-102520000D01*
X88329334Y-102486667D01*
X88396000Y-102486667D01*
X88496000Y-102520000D01*
X88529334Y-102553333D01*
X89129334Y-102720000D02*
X89129334Y-103186667D01*
X88962667Y-102453333D02*
X88796000Y-102953333D01*
X89229334Y-102953333D01*
X79893334Y-104390000D02*
X79860000Y-104423333D01*
X79760000Y-104456667D01*
X79693334Y-104456667D01*
X79593334Y-104423333D01*
X79526667Y-104356667D01*
X79493334Y-104290000D01*
X79460000Y-104156667D01*
X79460000Y-104056667D01*
X79493334Y-103923333D01*
X79526667Y-103856667D01*
X79593334Y-103790000D01*
X79693334Y-103756667D01*
X79760000Y-103756667D01*
X79860000Y-103790000D01*
X79893334Y-103823333D01*
X80526667Y-103756667D02*
X80193334Y-103756667D01*
X80160000Y-104090000D01*
X80193334Y-104056667D01*
X80260000Y-104023333D01*
X80426667Y-104023333D01*
X80493334Y-104056667D01*
X80526667Y-104090000D01*
X80560000Y-104156667D01*
X80560000Y-104323333D01*
X80526667Y-104390000D01*
X80493334Y-104423333D01*
X80426667Y-104456667D01*
X80260000Y-104456667D01*
X80193334Y-104423333D01*
X80160000Y-104390000D01*
X81671334Y-104390000D02*
X81638000Y-104423333D01*
X81538000Y-104456667D01*
X81471334Y-104456667D01*
X81371334Y-104423333D01*
X81304667Y-104356667D01*
X81271334Y-104290000D01*
X81238000Y-104156667D01*
X81238000Y-104056667D01*
X81271334Y-103923333D01*
X81304667Y-103856667D01*
X81371334Y-103790000D01*
X81471334Y-103756667D01*
X81538000Y-103756667D01*
X81638000Y-103790000D01*
X81671334Y-103823333D01*
X82271334Y-103756667D02*
X82138000Y-103756667D01*
X82071334Y-103790000D01*
X82038000Y-103823333D01*
X81971334Y-103923333D01*
X81938000Y-104056667D01*
X81938000Y-104323333D01*
X81971334Y-104390000D01*
X82004667Y-104423333D01*
X82071334Y-104456667D01*
X82204667Y-104456667D01*
X82271334Y-104423333D01*
X82304667Y-104390000D01*
X82338000Y-104323333D01*
X82338000Y-104156667D01*
X82304667Y-104090000D01*
X82271334Y-104056667D01*
X82204667Y-104023333D01*
X82071334Y-104023333D01*
X82004667Y-104056667D01*
X81971334Y-104090000D01*
X81938000Y-104156667D01*
X83449334Y-104390000D02*
X83416000Y-104423333D01*
X83316000Y-104456667D01*
X83249334Y-104456667D01*
X83149334Y-104423333D01*
X83082667Y-104356667D01*
X83049334Y-104290000D01*
X83016000Y-104156667D01*
X83016000Y-104056667D01*
X83049334Y-103923333D01*
X83082667Y-103856667D01*
X83149334Y-103790000D01*
X83249334Y-103756667D01*
X83316000Y-103756667D01*
X83416000Y-103790000D01*
X83449334Y-103823333D01*
X83682667Y-103756667D02*
X84149334Y-103756667D01*
X83849334Y-104456667D01*
X113611834Y-101088000D02*
X113578500Y-101121333D01*
X113478500Y-101154667D01*
X113411834Y-101154667D01*
X113311834Y-101121333D01*
X113245167Y-101054667D01*
X113211834Y-100988000D01*
X113178500Y-100854667D01*
X113178500Y-100754667D01*
X113211834Y-100621333D01*
X113245167Y-100554667D01*
X113311834Y-100488000D01*
X113411834Y-100454667D01*
X113478500Y-100454667D01*
X113578500Y-100488000D01*
X113611834Y-100521333D01*
X114011834Y-100754667D02*
X113945167Y-100721333D01*
X113911834Y-100688000D01*
X113878500Y-100621333D01*
X113878500Y-100588000D01*
X113911834Y-100521333D01*
X113945167Y-100488000D01*
X114011834Y-100454667D01*
X114145167Y-100454667D01*
X114211834Y-100488000D01*
X114245167Y-100521333D01*
X114278500Y-100588000D01*
X114278500Y-100621333D01*
X114245167Y-100688000D01*
X114211834Y-100721333D01*
X114145167Y-100754667D01*
X114011834Y-100754667D01*
X113945167Y-100788000D01*
X113911834Y-100821333D01*
X113878500Y-100888000D01*
X113878500Y-101021333D01*
X113911834Y-101088000D01*
X113945167Y-101121333D01*
X114011834Y-101154667D01*
X114145167Y-101154667D01*
X114211834Y-101121333D01*
X114245167Y-101088000D01*
X114278500Y-101021333D01*
X114278500Y-100888000D01*
X114245167Y-100821333D01*
X114211834Y-100788000D01*
X114145167Y-100754667D01*
X117104334Y-95055500D02*
X117071000Y-95088833D01*
X116971000Y-95122167D01*
X116904334Y-95122167D01*
X116804334Y-95088833D01*
X116737667Y-95022167D01*
X116704334Y-94955500D01*
X116671000Y-94822167D01*
X116671000Y-94722167D01*
X116704334Y-94588833D01*
X116737667Y-94522167D01*
X116804334Y-94455500D01*
X116904334Y-94422167D01*
X116971000Y-94422167D01*
X117071000Y-94455500D01*
X117104334Y-94488833D01*
X117437667Y-95122167D02*
X117571000Y-95122167D01*
X117637667Y-95088833D01*
X117671000Y-95055500D01*
X117737667Y-94955500D01*
X117771000Y-94822167D01*
X117771000Y-94555500D01*
X117737667Y-94488833D01*
X117704334Y-94455500D01*
X117637667Y-94422167D01*
X117504334Y-94422167D01*
X117437667Y-94455500D01*
X117404334Y-94488833D01*
X117371000Y-94555500D01*
X117371000Y-94722167D01*
X117404334Y-94788833D01*
X117437667Y-94822167D01*
X117504334Y-94855500D01*
X117637667Y-94855500D01*
X117704334Y-94822167D01*
X117737667Y-94788833D01*
X117771000Y-94722167D01*
X114548500Y-95055500D02*
X114515166Y-95088833D01*
X114415166Y-95122167D01*
X114348500Y-95122167D01*
X114248500Y-95088833D01*
X114181833Y-95022167D01*
X114148500Y-94955500D01*
X114115166Y-94822167D01*
X114115166Y-94722167D01*
X114148500Y-94588833D01*
X114181833Y-94522167D01*
X114248500Y-94455500D01*
X114348500Y-94422167D01*
X114415166Y-94422167D01*
X114515166Y-94455500D01*
X114548500Y-94488833D01*
X115215166Y-95122167D02*
X114815166Y-95122167D01*
X115015166Y-95122167D02*
X115015166Y-94422167D01*
X114948500Y-94522167D01*
X114881833Y-94588833D01*
X114815166Y-94622167D01*
X115648500Y-94422167D02*
X115715167Y-94422167D01*
X115781833Y-94455500D01*
X115815167Y-94488833D01*
X115848500Y-94555500D01*
X115881833Y-94688833D01*
X115881833Y-94855500D01*
X115848500Y-94988833D01*
X115815167Y-95055500D01*
X115781833Y-95088833D01*
X115715167Y-95122167D01*
X115648500Y-95122167D01*
X115581833Y-95088833D01*
X115548500Y-95055500D01*
X115515167Y-94988833D01*
X115481833Y-94855500D01*
X115481833Y-94688833D01*
X115515167Y-94555500D01*
X115548500Y-94488833D01*
X115581833Y-94455500D01*
X115648500Y-94422167D01*
X113596000Y-108200000D02*
X113562666Y-108233333D01*
X113462666Y-108266667D01*
X113396000Y-108266667D01*
X113296000Y-108233333D01*
X113229333Y-108166667D01*
X113196000Y-108100000D01*
X113162666Y-107966667D01*
X113162666Y-107866667D01*
X113196000Y-107733333D01*
X113229333Y-107666667D01*
X113296000Y-107600000D01*
X113396000Y-107566667D01*
X113462666Y-107566667D01*
X113562666Y-107600000D01*
X113596000Y-107633333D01*
X114262666Y-108266667D02*
X113862666Y-108266667D01*
X114062666Y-108266667D02*
X114062666Y-107566667D01*
X113996000Y-107666667D01*
X113929333Y-107733333D01*
X113862666Y-107766667D01*
X114929333Y-108266667D02*
X114529333Y-108266667D01*
X114729333Y-108266667D02*
X114729333Y-107566667D01*
X114662667Y-107666667D01*
X114596000Y-107733333D01*
X114529333Y-107766667D01*
X113596000Y-106485500D02*
X113562666Y-106518833D01*
X113462666Y-106552167D01*
X113396000Y-106552167D01*
X113296000Y-106518833D01*
X113229333Y-106452167D01*
X113196000Y-106385500D01*
X113162666Y-106252167D01*
X113162666Y-106152167D01*
X113196000Y-106018833D01*
X113229333Y-105952167D01*
X113296000Y-105885500D01*
X113396000Y-105852167D01*
X113462666Y-105852167D01*
X113562666Y-105885500D01*
X113596000Y-105918833D01*
X114262666Y-106552167D02*
X113862666Y-106552167D01*
X114062666Y-106552167D02*
X114062666Y-105852167D01*
X113996000Y-105952167D01*
X113929333Y-106018833D01*
X113862666Y-106052167D01*
X114529333Y-105918833D02*
X114562667Y-105885500D01*
X114629333Y-105852167D01*
X114796000Y-105852167D01*
X114862667Y-105885500D01*
X114896000Y-105918833D01*
X114929333Y-105985500D01*
X114929333Y-106052167D01*
X114896000Y-106152167D01*
X114496000Y-106552167D01*
X114929333Y-106552167D01*
X113961000Y-118233000D02*
X113927666Y-118266333D01*
X113827666Y-118299667D01*
X113761000Y-118299667D01*
X113661000Y-118266333D01*
X113594333Y-118199667D01*
X113561000Y-118133000D01*
X113527666Y-117999667D01*
X113527666Y-117899667D01*
X113561000Y-117766333D01*
X113594333Y-117699667D01*
X113661000Y-117633000D01*
X113761000Y-117599667D01*
X113827666Y-117599667D01*
X113927666Y-117633000D01*
X113961000Y-117666333D01*
X114627666Y-118299667D02*
X114227666Y-118299667D01*
X114427666Y-118299667D02*
X114427666Y-117599667D01*
X114361000Y-117699667D01*
X114294333Y-117766333D01*
X114227666Y-117799667D01*
X114861000Y-117599667D02*
X115294333Y-117599667D01*
X115061000Y-117866333D01*
X115161000Y-117866333D01*
X115227667Y-117899667D01*
X115261000Y-117933000D01*
X115294333Y-117999667D01*
X115294333Y-118166333D01*
X115261000Y-118233000D01*
X115227667Y-118266333D01*
X115161000Y-118299667D01*
X114961000Y-118299667D01*
X114894333Y-118266333D01*
X114861000Y-118233000D01*
X116771000Y-112200500D02*
X116737666Y-112233833D01*
X116637666Y-112267167D01*
X116571000Y-112267167D01*
X116471000Y-112233833D01*
X116404333Y-112167167D01*
X116371000Y-112100500D01*
X116337666Y-111967167D01*
X116337666Y-111867167D01*
X116371000Y-111733833D01*
X116404333Y-111667167D01*
X116471000Y-111600500D01*
X116571000Y-111567167D01*
X116637666Y-111567167D01*
X116737666Y-111600500D01*
X116771000Y-111633833D01*
X117437666Y-112267167D02*
X117037666Y-112267167D01*
X117237666Y-112267167D02*
X117237666Y-111567167D01*
X117171000Y-111667167D01*
X117104333Y-111733833D01*
X117037666Y-111767167D01*
X118037667Y-111800500D02*
X118037667Y-112267167D01*
X117871000Y-111533833D02*
X117704333Y-112033833D01*
X118137667Y-112033833D01*
X114548500Y-112200500D02*
X114515166Y-112233833D01*
X114415166Y-112267167D01*
X114348500Y-112267167D01*
X114248500Y-112233833D01*
X114181833Y-112167167D01*
X114148500Y-112100500D01*
X114115166Y-111967167D01*
X114115166Y-111867167D01*
X114148500Y-111733833D01*
X114181833Y-111667167D01*
X114248500Y-111600500D01*
X114348500Y-111567167D01*
X114415166Y-111567167D01*
X114515166Y-111600500D01*
X114548500Y-111633833D01*
X115215166Y-112267167D02*
X114815166Y-112267167D01*
X115015166Y-112267167D02*
X115015166Y-111567167D01*
X114948500Y-111667167D01*
X114881833Y-111733833D01*
X114815166Y-111767167D01*
X115848500Y-111567167D02*
X115515167Y-111567167D01*
X115481833Y-111900500D01*
X115515167Y-111867167D01*
X115581833Y-111833833D01*
X115748500Y-111833833D01*
X115815167Y-111867167D01*
X115848500Y-111900500D01*
X115881833Y-111967167D01*
X115881833Y-112133833D01*
X115848500Y-112200500D01*
X115815167Y-112233833D01*
X115748500Y-112267167D01*
X115581833Y-112267167D01*
X115515167Y-112233833D01*
X115481833Y-112200500D01*
X113548500Y-123630500D02*
X113515166Y-123663833D01*
X113415166Y-123697167D01*
X113348500Y-123697167D01*
X113248500Y-123663833D01*
X113181833Y-123597167D01*
X113148500Y-123530500D01*
X113115166Y-123397167D01*
X113115166Y-123297167D01*
X113148500Y-123163833D01*
X113181833Y-123097167D01*
X113248500Y-123030500D01*
X113348500Y-122997167D01*
X113415166Y-122997167D01*
X113515166Y-123030500D01*
X113548500Y-123063833D01*
X114215166Y-123697167D02*
X113815166Y-123697167D01*
X114015166Y-123697167D02*
X114015166Y-122997167D01*
X113948500Y-123097167D01*
X113881833Y-123163833D01*
X113815166Y-123197167D01*
X114815167Y-122997167D02*
X114681833Y-122997167D01*
X114615167Y-123030500D01*
X114581833Y-123063833D01*
X114515167Y-123163833D01*
X114481833Y-123297167D01*
X114481833Y-123563833D01*
X114515167Y-123630500D01*
X114548500Y-123663833D01*
X114615167Y-123697167D01*
X114748500Y-123697167D01*
X114815167Y-123663833D01*
X114848500Y-123630500D01*
X114881833Y-123563833D01*
X114881833Y-123397167D01*
X114848500Y-123330500D01*
X114815167Y-123297167D01*
X114748500Y-123263833D01*
X114615167Y-123263833D01*
X114548500Y-123297167D01*
X114515167Y-123330500D01*
X114481833Y-123397167D01*
X113596000Y-125535500D02*
X113562666Y-125568833D01*
X113462666Y-125602167D01*
X113396000Y-125602167D01*
X113296000Y-125568833D01*
X113229333Y-125502167D01*
X113196000Y-125435500D01*
X113162666Y-125302167D01*
X113162666Y-125202167D01*
X113196000Y-125068833D01*
X113229333Y-125002167D01*
X113296000Y-124935500D01*
X113396000Y-124902167D01*
X113462666Y-124902167D01*
X113562666Y-124935500D01*
X113596000Y-124968833D01*
X114262666Y-125602167D02*
X113862666Y-125602167D01*
X114062666Y-125602167D02*
X114062666Y-124902167D01*
X113996000Y-125002167D01*
X113929333Y-125068833D01*
X113862666Y-125102167D01*
X114496000Y-124902167D02*
X114962667Y-124902167D01*
X114662667Y-125602167D01*
X96050000Y-125750000D02*
X96016666Y-125783333D01*
X95916666Y-125816667D01*
X95850000Y-125816667D01*
X95750000Y-125783333D01*
X95683333Y-125716667D01*
X95650000Y-125650000D01*
X95616666Y-125516667D01*
X95616666Y-125416667D01*
X95650000Y-125283333D01*
X95683333Y-125216667D01*
X95750000Y-125150000D01*
X95850000Y-125116667D01*
X95916666Y-125116667D01*
X96016666Y-125150000D01*
X96050000Y-125183333D01*
X96316666Y-125183333D02*
X96350000Y-125150000D01*
X96416666Y-125116667D01*
X96583333Y-125116667D01*
X96650000Y-125150000D01*
X96683333Y-125183333D01*
X96716666Y-125250000D01*
X96716666Y-125316667D01*
X96683333Y-125416667D01*
X96283333Y-125816667D01*
X96716666Y-125816667D01*
X97383333Y-125816667D02*
X96983333Y-125816667D01*
X97183333Y-125816667D02*
X97183333Y-125116667D01*
X97116667Y-125216667D01*
X97050000Y-125283333D01*
X96983333Y-125316667D01*
X69333334Y-118426667D02*
X69333334Y-117726667D01*
X69500000Y-117726667D01*
X69600000Y-117760000D01*
X69666667Y-117826667D01*
X69700000Y-117893333D01*
X69733334Y-118026667D01*
X69733334Y-118126667D01*
X69700000Y-118260000D01*
X69666667Y-118326667D01*
X69600000Y-118393333D01*
X69500000Y-118426667D01*
X69333334Y-118426667D01*
X70400000Y-118426667D02*
X70000000Y-118426667D01*
X70200000Y-118426667D02*
X70200000Y-117726667D01*
X70133334Y-117826667D01*
X70066667Y-117893333D01*
X70000000Y-117926667D01*
X85866667Y-99966666D02*
X85166667Y-99966666D01*
X85166667Y-99800000D01*
X85200000Y-99700000D01*
X85266667Y-99633333D01*
X85333333Y-99600000D01*
X85466667Y-99566666D01*
X85566667Y-99566666D01*
X85700000Y-99600000D01*
X85766667Y-99633333D01*
X85833333Y-99700000D01*
X85866667Y-99800000D01*
X85866667Y-99966666D01*
X85233333Y-99300000D02*
X85200000Y-99266666D01*
X85166667Y-99200000D01*
X85166667Y-99033333D01*
X85200000Y-98966666D01*
X85233333Y-98933333D01*
X85300000Y-98900000D01*
X85366667Y-98900000D01*
X85466667Y-98933333D01*
X85866667Y-99333333D01*
X85866667Y-98900000D01*
X74413334Y-124014667D02*
X74413334Y-123314667D01*
X74580000Y-123314667D01*
X74680000Y-123348000D01*
X74746667Y-123414667D01*
X74780000Y-123481333D01*
X74813334Y-123614667D01*
X74813334Y-123714667D01*
X74780000Y-123848000D01*
X74746667Y-123914667D01*
X74680000Y-123981333D01*
X74580000Y-124014667D01*
X74413334Y-124014667D01*
X75046667Y-123314667D02*
X75480000Y-123314667D01*
X75246667Y-123581333D01*
X75346667Y-123581333D01*
X75413334Y-123614667D01*
X75446667Y-123648000D01*
X75480000Y-123714667D01*
X75480000Y-123881333D01*
X75446667Y-123948000D01*
X75413334Y-123981333D01*
X75346667Y-124014667D01*
X75146667Y-124014667D01*
X75080000Y-123981333D01*
X75046667Y-123948000D01*
X66285334Y-118426667D02*
X66285334Y-117726667D01*
X66452000Y-117726667D01*
X66552000Y-117760000D01*
X66618667Y-117826667D01*
X66652000Y-117893333D01*
X66685334Y-118026667D01*
X66685334Y-118126667D01*
X66652000Y-118260000D01*
X66618667Y-118326667D01*
X66552000Y-118393333D01*
X66452000Y-118426667D01*
X66285334Y-118426667D01*
X67285334Y-117960000D02*
X67285334Y-118426667D01*
X67118667Y-117693333D02*
X66952000Y-118193333D01*
X67385334Y-118193333D01*
X87621334Y-125792667D02*
X87621334Y-125092667D01*
X87788000Y-125092667D01*
X87888000Y-125126000D01*
X87954667Y-125192667D01*
X87988000Y-125259333D01*
X88021334Y-125392667D01*
X88021334Y-125492667D01*
X87988000Y-125626000D01*
X87954667Y-125692667D01*
X87888000Y-125759333D01*
X87788000Y-125792667D01*
X87621334Y-125792667D01*
X88621334Y-125092667D02*
X88488000Y-125092667D01*
X88421334Y-125126000D01*
X88388000Y-125159333D01*
X88321334Y-125259333D01*
X88288000Y-125392667D01*
X88288000Y-125659333D01*
X88321334Y-125726000D01*
X88354667Y-125759333D01*
X88421334Y-125792667D01*
X88554667Y-125792667D01*
X88621334Y-125759333D01*
X88654667Y-125726000D01*
X88688000Y-125659333D01*
X88688000Y-125492667D01*
X88654667Y-125426000D01*
X88621334Y-125392667D01*
X88554667Y-125359333D01*
X88421334Y-125359333D01*
X88354667Y-125392667D01*
X88321334Y-125426000D01*
X88288000Y-125492667D01*
X87621334Y-124014667D02*
X87621334Y-123314667D01*
X87788000Y-123314667D01*
X87888000Y-123348000D01*
X87954667Y-123414667D01*
X87988000Y-123481333D01*
X88021334Y-123614667D01*
X88021334Y-123714667D01*
X87988000Y-123848000D01*
X87954667Y-123914667D01*
X87888000Y-123981333D01*
X87788000Y-124014667D01*
X87621334Y-124014667D01*
X88254667Y-123314667D02*
X88721334Y-123314667D01*
X88421334Y-124014667D01*
X130439333Y-111632167D02*
X130106000Y-111632167D01*
X130106000Y-110932167D01*
X131039333Y-111632167D02*
X130639333Y-111632167D01*
X130839333Y-111632167D02*
X130839333Y-110932167D01*
X130772667Y-111032167D01*
X130706000Y-111098833D01*
X130639333Y-111132167D01*
X130439333Y-128777167D02*
X130106000Y-128777167D01*
X130106000Y-128077167D01*
X130639333Y-128143833D02*
X130672667Y-128110500D01*
X130739333Y-128077167D01*
X130906000Y-128077167D01*
X130972667Y-128110500D01*
X131006000Y-128143833D01*
X131039333Y-128210500D01*
X131039333Y-128277167D01*
X131006000Y-128377167D01*
X130606000Y-128777167D01*
X131039333Y-128777167D01*
X76133333Y-115445333D02*
X76066667Y-115412000D01*
X76000000Y-115345333D01*
X75900000Y-115245333D01*
X75833333Y-115212000D01*
X75766667Y-115212000D01*
X75800000Y-115378667D02*
X75733333Y-115345333D01*
X75666667Y-115278667D01*
X75633333Y-115145333D01*
X75633333Y-114912000D01*
X75666667Y-114778667D01*
X75733333Y-114712000D01*
X75800000Y-114678667D01*
X75933333Y-114678667D01*
X76000000Y-114712000D01*
X76066667Y-114778667D01*
X76100000Y-114912000D01*
X76100000Y-115145333D01*
X76066667Y-115278667D01*
X76000000Y-115345333D01*
X75933333Y-115378667D01*
X75800000Y-115378667D01*
X76766666Y-115378667D02*
X76366666Y-115378667D01*
X76566666Y-115378667D02*
X76566666Y-114678667D01*
X76500000Y-114778667D01*
X76433333Y-114845333D01*
X76366666Y-114878667D01*
X76133333Y-97411333D02*
X76066667Y-97378000D01*
X76000000Y-97311333D01*
X75900000Y-97211333D01*
X75833333Y-97178000D01*
X75766667Y-97178000D01*
X75800000Y-97344667D02*
X75733333Y-97311333D01*
X75666667Y-97244667D01*
X75633333Y-97111333D01*
X75633333Y-96878000D01*
X75666667Y-96744667D01*
X75733333Y-96678000D01*
X75800000Y-96644667D01*
X75933333Y-96644667D01*
X76000000Y-96678000D01*
X76066667Y-96744667D01*
X76100000Y-96878000D01*
X76100000Y-97111333D01*
X76066667Y-97244667D01*
X76000000Y-97311333D01*
X75933333Y-97344667D01*
X75800000Y-97344667D01*
X76366666Y-96711333D02*
X76400000Y-96678000D01*
X76466666Y-96644667D01*
X76633333Y-96644667D01*
X76700000Y-96678000D01*
X76733333Y-96711333D01*
X76766666Y-96778000D01*
X76766666Y-96844667D01*
X76733333Y-96944667D01*
X76333333Y-97344667D01*
X76766666Y-97344667D01*
X68513333Y-115445333D02*
X68446667Y-115412000D01*
X68380000Y-115345333D01*
X68280000Y-115245333D01*
X68213333Y-115212000D01*
X68146667Y-115212000D01*
X68180000Y-115378667D02*
X68113333Y-115345333D01*
X68046667Y-115278667D01*
X68013333Y-115145333D01*
X68013333Y-114912000D01*
X68046667Y-114778667D01*
X68113333Y-114712000D01*
X68180000Y-114678667D01*
X68313333Y-114678667D01*
X68380000Y-114712000D01*
X68446667Y-114778667D01*
X68480000Y-114912000D01*
X68480000Y-115145333D01*
X68446667Y-115278667D01*
X68380000Y-115345333D01*
X68313333Y-115378667D01*
X68180000Y-115378667D01*
X68713333Y-114678667D02*
X69146666Y-114678667D01*
X68913333Y-114945333D01*
X69013333Y-114945333D01*
X69080000Y-114978667D01*
X69113333Y-115012000D01*
X69146666Y-115078667D01*
X69146666Y-115245333D01*
X69113333Y-115312000D01*
X69080000Y-115345333D01*
X69013333Y-115378667D01*
X68813333Y-115378667D01*
X68746666Y-115345333D01*
X68713333Y-115312000D01*
X68513333Y-97411333D02*
X68446667Y-97378000D01*
X68380000Y-97311333D01*
X68280000Y-97211333D01*
X68213333Y-97178000D01*
X68146667Y-97178000D01*
X68180000Y-97344667D02*
X68113333Y-97311333D01*
X68046667Y-97244667D01*
X68013333Y-97111333D01*
X68013333Y-96878000D01*
X68046667Y-96744667D01*
X68113333Y-96678000D01*
X68180000Y-96644667D01*
X68313333Y-96644667D01*
X68380000Y-96678000D01*
X68446667Y-96744667D01*
X68480000Y-96878000D01*
X68480000Y-97111333D01*
X68446667Y-97244667D01*
X68380000Y-97311333D01*
X68313333Y-97344667D01*
X68180000Y-97344667D01*
X69080000Y-96878000D02*
X69080000Y-97344667D01*
X68913333Y-96611333D02*
X68746666Y-97111333D01*
X69180000Y-97111333D01*
X60893333Y-115445333D02*
X60826667Y-115412000D01*
X60760000Y-115345333D01*
X60660000Y-115245333D01*
X60593333Y-115212000D01*
X60526667Y-115212000D01*
X60560000Y-115378667D02*
X60493333Y-115345333D01*
X60426667Y-115278667D01*
X60393333Y-115145333D01*
X60393333Y-114912000D01*
X60426667Y-114778667D01*
X60493333Y-114712000D01*
X60560000Y-114678667D01*
X60693333Y-114678667D01*
X60760000Y-114712000D01*
X60826667Y-114778667D01*
X60860000Y-114912000D01*
X60860000Y-115145333D01*
X60826667Y-115278667D01*
X60760000Y-115345333D01*
X60693333Y-115378667D01*
X60560000Y-115378667D01*
X61493333Y-114678667D02*
X61160000Y-114678667D01*
X61126666Y-115012000D01*
X61160000Y-114978667D01*
X61226666Y-114945333D01*
X61393333Y-114945333D01*
X61460000Y-114978667D01*
X61493333Y-115012000D01*
X61526666Y-115078667D01*
X61526666Y-115245333D01*
X61493333Y-115312000D01*
X61460000Y-115345333D01*
X61393333Y-115378667D01*
X61226666Y-115378667D01*
X61160000Y-115345333D01*
X61126666Y-115312000D01*
X60893333Y-97411333D02*
X60826667Y-97378000D01*
X60760000Y-97311333D01*
X60660000Y-97211333D01*
X60593333Y-97178000D01*
X60526667Y-97178000D01*
X60560000Y-97344667D02*
X60493333Y-97311333D01*
X60426667Y-97244667D01*
X60393333Y-97111333D01*
X60393333Y-96878000D01*
X60426667Y-96744667D01*
X60493333Y-96678000D01*
X60560000Y-96644667D01*
X60693333Y-96644667D01*
X60760000Y-96678000D01*
X60826667Y-96744667D01*
X60860000Y-96878000D01*
X60860000Y-97111333D01*
X60826667Y-97244667D01*
X60760000Y-97311333D01*
X60693333Y-97344667D01*
X60560000Y-97344667D01*
X61460000Y-96644667D02*
X61326666Y-96644667D01*
X61260000Y-96678000D01*
X61226666Y-96711333D01*
X61160000Y-96811333D01*
X61126666Y-96944667D01*
X61126666Y-97211333D01*
X61160000Y-97278000D01*
X61193333Y-97311333D01*
X61260000Y-97344667D01*
X61393333Y-97344667D01*
X61460000Y-97311333D01*
X61493333Y-97278000D01*
X61526666Y-97211333D01*
X61526666Y-97044667D01*
X61493333Y-96978000D01*
X61460000Y-96944667D01*
X61393333Y-96911333D01*
X61260000Y-96911333D01*
X61193333Y-96944667D01*
X61160000Y-96978000D01*
X61126666Y-97044667D01*
X81163334Y-117664667D02*
X80930000Y-117331333D01*
X80763334Y-117664667D02*
X80763334Y-116964667D01*
X81030000Y-116964667D01*
X81096667Y-116998000D01*
X81130000Y-117031333D01*
X81163334Y-117098000D01*
X81163334Y-117198000D01*
X81130000Y-117264667D01*
X81096667Y-117298000D01*
X81030000Y-117331333D01*
X80763334Y-117331333D01*
X81830000Y-117664667D02*
X81430000Y-117664667D01*
X81630000Y-117664667D02*
X81630000Y-116964667D01*
X81563334Y-117064667D01*
X81496667Y-117131333D01*
X81430000Y-117164667D01*
X87767334Y-116648667D02*
X87534000Y-116315333D01*
X87367334Y-116648667D02*
X87367334Y-115948667D01*
X87634000Y-115948667D01*
X87700667Y-115982000D01*
X87734000Y-116015333D01*
X87767334Y-116082000D01*
X87767334Y-116182000D01*
X87734000Y-116248667D01*
X87700667Y-116282000D01*
X87634000Y-116315333D01*
X87367334Y-116315333D01*
X88034000Y-116015333D02*
X88067334Y-115982000D01*
X88134000Y-115948667D01*
X88300667Y-115948667D01*
X88367334Y-115982000D01*
X88400667Y-116015333D01*
X88434000Y-116082000D01*
X88434000Y-116148667D01*
X88400667Y-116248667D01*
X88000667Y-116648667D01*
X88434000Y-116648667D01*
X91323334Y-117664667D02*
X91090000Y-117331333D01*
X90923334Y-117664667D02*
X90923334Y-116964667D01*
X91190000Y-116964667D01*
X91256667Y-116998000D01*
X91290000Y-117031333D01*
X91323334Y-117098000D01*
X91323334Y-117198000D01*
X91290000Y-117264667D01*
X91256667Y-117298000D01*
X91190000Y-117331333D01*
X90923334Y-117331333D01*
X91556667Y-116964667D02*
X91990000Y-116964667D01*
X91756667Y-117231333D01*
X91856667Y-117231333D01*
X91923334Y-117264667D01*
X91956667Y-117298000D01*
X91990000Y-117364667D01*
X91990000Y-117531333D01*
X91956667Y-117598000D01*
X91923334Y-117631333D01*
X91856667Y-117664667D01*
X91656667Y-117664667D01*
X91590000Y-117631333D01*
X91556667Y-117598000D01*
X81163334Y-119696667D02*
X80930000Y-119363333D01*
X80763334Y-119696667D02*
X80763334Y-118996667D01*
X81030000Y-118996667D01*
X81096667Y-119030000D01*
X81130000Y-119063333D01*
X81163334Y-119130000D01*
X81163334Y-119230000D01*
X81130000Y-119296667D01*
X81096667Y-119330000D01*
X81030000Y-119363333D01*
X80763334Y-119363333D01*
X81763334Y-119230000D02*
X81763334Y-119696667D01*
X81596667Y-118963333D02*
X81430000Y-119463333D01*
X81863334Y-119463333D01*
X87767334Y-118680667D02*
X87534000Y-118347333D01*
X87367334Y-118680667D02*
X87367334Y-117980667D01*
X87634000Y-117980667D01*
X87700667Y-118014000D01*
X87734000Y-118047333D01*
X87767334Y-118114000D01*
X87767334Y-118214000D01*
X87734000Y-118280667D01*
X87700667Y-118314000D01*
X87634000Y-118347333D01*
X87367334Y-118347333D01*
X88400667Y-117980667D02*
X88067334Y-117980667D01*
X88034000Y-118314000D01*
X88067334Y-118280667D01*
X88134000Y-118247333D01*
X88300667Y-118247333D01*
X88367334Y-118280667D01*
X88400667Y-118314000D01*
X88434000Y-118380667D01*
X88434000Y-118547333D01*
X88400667Y-118614000D01*
X88367334Y-118647333D01*
X88300667Y-118680667D01*
X88134000Y-118680667D01*
X88067334Y-118647333D01*
X88034000Y-118614000D01*
X91323334Y-119696667D02*
X91090000Y-119363333D01*
X90923334Y-119696667D02*
X90923334Y-118996667D01*
X91190000Y-118996667D01*
X91256667Y-119030000D01*
X91290000Y-119063333D01*
X91323334Y-119130000D01*
X91323334Y-119230000D01*
X91290000Y-119296667D01*
X91256667Y-119330000D01*
X91190000Y-119363333D01*
X90923334Y-119363333D01*
X91923334Y-118996667D02*
X91790000Y-118996667D01*
X91723334Y-119030000D01*
X91690000Y-119063333D01*
X91623334Y-119163333D01*
X91590000Y-119296667D01*
X91590000Y-119563333D01*
X91623334Y-119630000D01*
X91656667Y-119663333D01*
X91723334Y-119696667D01*
X91856667Y-119696667D01*
X91923334Y-119663333D01*
X91956667Y-119630000D01*
X91990000Y-119563333D01*
X91990000Y-119396667D01*
X91956667Y-119330000D01*
X91923334Y-119296667D01*
X91856667Y-119263333D01*
X91723334Y-119263333D01*
X91656667Y-119296667D01*
X91623334Y-119330000D01*
X91590000Y-119396667D01*
X81163334Y-121728667D02*
X80930000Y-121395333D01*
X80763334Y-121728667D02*
X80763334Y-121028667D01*
X81030000Y-121028667D01*
X81096667Y-121062000D01*
X81130000Y-121095333D01*
X81163334Y-121162000D01*
X81163334Y-121262000D01*
X81130000Y-121328667D01*
X81096667Y-121362000D01*
X81030000Y-121395333D01*
X80763334Y-121395333D01*
X81396667Y-121028667D02*
X81863334Y-121028667D01*
X81563334Y-121728667D01*
X87767334Y-120712667D02*
X87534000Y-120379333D01*
X87367334Y-120712667D02*
X87367334Y-120012667D01*
X87634000Y-120012667D01*
X87700667Y-120046000D01*
X87734000Y-120079333D01*
X87767334Y-120146000D01*
X87767334Y-120246000D01*
X87734000Y-120312667D01*
X87700667Y-120346000D01*
X87634000Y-120379333D01*
X87367334Y-120379333D01*
X88167334Y-120312667D02*
X88100667Y-120279333D01*
X88067334Y-120246000D01*
X88034000Y-120179333D01*
X88034000Y-120146000D01*
X88067334Y-120079333D01*
X88100667Y-120046000D01*
X88167334Y-120012667D01*
X88300667Y-120012667D01*
X88367334Y-120046000D01*
X88400667Y-120079333D01*
X88434000Y-120146000D01*
X88434000Y-120179333D01*
X88400667Y-120246000D01*
X88367334Y-120279333D01*
X88300667Y-120312667D01*
X88167334Y-120312667D01*
X88100667Y-120346000D01*
X88067334Y-120379333D01*
X88034000Y-120446000D01*
X88034000Y-120579333D01*
X88067334Y-120646000D01*
X88100667Y-120679333D01*
X88167334Y-120712667D01*
X88300667Y-120712667D01*
X88367334Y-120679333D01*
X88400667Y-120646000D01*
X88434000Y-120579333D01*
X88434000Y-120446000D01*
X88400667Y-120379333D01*
X88367334Y-120346000D01*
X88300667Y-120312667D01*
X91323334Y-121728667D02*
X91090000Y-121395333D01*
X90923334Y-121728667D02*
X90923334Y-121028667D01*
X91190000Y-121028667D01*
X91256667Y-121062000D01*
X91290000Y-121095333D01*
X91323334Y-121162000D01*
X91323334Y-121262000D01*
X91290000Y-121328667D01*
X91256667Y-121362000D01*
X91190000Y-121395333D01*
X90923334Y-121395333D01*
X91656667Y-121728667D02*
X91790000Y-121728667D01*
X91856667Y-121695333D01*
X91890000Y-121662000D01*
X91956667Y-121562000D01*
X91990000Y-121428667D01*
X91990000Y-121162000D01*
X91956667Y-121095333D01*
X91923334Y-121062000D01*
X91856667Y-121028667D01*
X91723334Y-121028667D01*
X91656667Y-121062000D01*
X91623334Y-121095333D01*
X91590000Y-121162000D01*
X91590000Y-121328667D01*
X91623334Y-121395333D01*
X91656667Y-121428667D01*
X91723334Y-121462000D01*
X91856667Y-121462000D01*
X91923334Y-121428667D01*
X91956667Y-121395333D01*
X91990000Y-121328667D01*
X112326000Y-105282167D02*
X112092666Y-104948833D01*
X111926000Y-105282167D02*
X111926000Y-104582167D01*
X112192666Y-104582167D01*
X112259333Y-104615500D01*
X112292666Y-104648833D01*
X112326000Y-104715500D01*
X112326000Y-104815500D01*
X112292666Y-104882167D01*
X112259333Y-104915500D01*
X112192666Y-104948833D01*
X111926000Y-104948833D01*
X112992666Y-105282167D02*
X112592666Y-105282167D01*
X112792666Y-105282167D02*
X112792666Y-104582167D01*
X112726000Y-104682167D01*
X112659333Y-104748833D01*
X112592666Y-104782167D01*
X113426000Y-104582167D02*
X113492667Y-104582167D01*
X113559333Y-104615500D01*
X113592667Y-104648833D01*
X113626000Y-104715500D01*
X113659333Y-104848833D01*
X113659333Y-105015500D01*
X113626000Y-105148833D01*
X113592667Y-105215500D01*
X113559333Y-105248833D01*
X113492667Y-105282167D01*
X113426000Y-105282167D01*
X113359333Y-105248833D01*
X113326000Y-105215500D01*
X113292667Y-105148833D01*
X113259333Y-105015500D01*
X113259333Y-104848833D01*
X113292667Y-104715500D01*
X113326000Y-104648833D01*
X113359333Y-104615500D01*
X113426000Y-104582167D01*
X112326000Y-103377167D02*
X112092666Y-103043833D01*
X111926000Y-103377167D02*
X111926000Y-102677167D01*
X112192666Y-102677167D01*
X112259333Y-102710500D01*
X112292666Y-102743833D01*
X112326000Y-102810500D01*
X112326000Y-102910500D01*
X112292666Y-102977167D01*
X112259333Y-103010500D01*
X112192666Y-103043833D01*
X111926000Y-103043833D01*
X112992666Y-103377167D02*
X112592666Y-103377167D01*
X112792666Y-103377167D02*
X112792666Y-102677167D01*
X112726000Y-102777167D01*
X112659333Y-102843833D01*
X112592666Y-102877167D01*
X113659333Y-103377167D02*
X113259333Y-103377167D01*
X113459333Y-103377167D02*
X113459333Y-102677167D01*
X113392667Y-102777167D01*
X113326000Y-102843833D01*
X113259333Y-102877167D01*
X112008500Y-122427167D02*
X111775166Y-122093833D01*
X111608500Y-122427167D02*
X111608500Y-121727167D01*
X111875166Y-121727167D01*
X111941833Y-121760500D01*
X111975166Y-121793833D01*
X112008500Y-121860500D01*
X112008500Y-121960500D01*
X111975166Y-122027167D01*
X111941833Y-122060500D01*
X111875166Y-122093833D01*
X111608500Y-122093833D01*
X112675166Y-122427167D02*
X112275166Y-122427167D01*
X112475166Y-122427167D02*
X112475166Y-121727167D01*
X112408500Y-121827167D01*
X112341833Y-121893833D01*
X112275166Y-121927167D01*
X112941833Y-121793833D02*
X112975167Y-121760500D01*
X113041833Y-121727167D01*
X113208500Y-121727167D01*
X113275167Y-121760500D01*
X113308500Y-121793833D01*
X113341833Y-121860500D01*
X113341833Y-121927167D01*
X113308500Y-122027167D01*
X112908500Y-122427167D01*
X113341833Y-122427167D01*
X112008500Y-120522167D02*
X111775166Y-120188833D01*
X111608500Y-120522167D02*
X111608500Y-119822167D01*
X111875166Y-119822167D01*
X111941833Y-119855500D01*
X111975166Y-119888833D01*
X112008500Y-119955500D01*
X112008500Y-120055500D01*
X111975166Y-120122167D01*
X111941833Y-120155500D01*
X111875166Y-120188833D01*
X111608500Y-120188833D01*
X112675166Y-120522167D02*
X112275166Y-120522167D01*
X112475166Y-120522167D02*
X112475166Y-119822167D01*
X112408500Y-119922167D01*
X112341833Y-119988833D01*
X112275166Y-120022167D01*
X112908500Y-119822167D02*
X113341833Y-119822167D01*
X113108500Y-120088833D01*
X113208500Y-120088833D01*
X113275167Y-120122167D01*
X113308500Y-120155500D01*
X113341833Y-120222167D01*
X113341833Y-120388833D01*
X113308500Y-120455500D01*
X113275167Y-120488833D01*
X113208500Y-120522167D01*
X113008500Y-120522167D01*
X112941833Y-120488833D01*
X112908500Y-120455500D01*
X79560000Y-127570667D02*
X79326666Y-127237333D01*
X79160000Y-127570667D02*
X79160000Y-126870667D01*
X79426666Y-126870667D01*
X79493333Y-126904000D01*
X79526666Y-126937333D01*
X79560000Y-127004000D01*
X79560000Y-127104000D01*
X79526666Y-127170667D01*
X79493333Y-127204000D01*
X79426666Y-127237333D01*
X79160000Y-127237333D01*
X80226666Y-127570667D02*
X79826666Y-127570667D01*
X80026666Y-127570667D02*
X80026666Y-126870667D01*
X79960000Y-126970667D01*
X79893333Y-127037333D01*
X79826666Y-127070667D01*
X80826667Y-127104000D02*
X80826667Y-127570667D01*
X80660000Y-126837333D02*
X80493333Y-127337333D01*
X80926667Y-127337333D01*
X79560000Y-125792667D02*
X79326666Y-125459333D01*
X79160000Y-125792667D02*
X79160000Y-125092667D01*
X79426666Y-125092667D01*
X79493333Y-125126000D01*
X79526666Y-125159333D01*
X79560000Y-125226000D01*
X79560000Y-125326000D01*
X79526666Y-125392667D01*
X79493333Y-125426000D01*
X79426666Y-125459333D01*
X79160000Y-125459333D01*
X80226666Y-125792667D02*
X79826666Y-125792667D01*
X80026666Y-125792667D02*
X80026666Y-125092667D01*
X79960000Y-125192667D01*
X79893333Y-125259333D01*
X79826666Y-125292667D01*
X80860000Y-125092667D02*
X80526667Y-125092667D01*
X80493333Y-125426000D01*
X80526667Y-125392667D01*
X80593333Y-125359333D01*
X80760000Y-125359333D01*
X80826667Y-125392667D01*
X80860000Y-125426000D01*
X80893333Y-125492667D01*
X80893333Y-125659333D01*
X80860000Y-125726000D01*
X80826667Y-125759333D01*
X80760000Y-125792667D01*
X80593333Y-125792667D01*
X80526667Y-125759333D01*
X80493333Y-125726000D01*
X79560000Y-124014667D02*
X79326666Y-123681333D01*
X79160000Y-124014667D02*
X79160000Y-123314667D01*
X79426666Y-123314667D01*
X79493333Y-123348000D01*
X79526666Y-123381333D01*
X79560000Y-123448000D01*
X79560000Y-123548000D01*
X79526666Y-123614667D01*
X79493333Y-123648000D01*
X79426666Y-123681333D01*
X79160000Y-123681333D01*
X80226666Y-124014667D02*
X79826666Y-124014667D01*
X80026666Y-124014667D02*
X80026666Y-123314667D01*
X79960000Y-123414667D01*
X79893333Y-123481333D01*
X79826666Y-123514667D01*
X80826667Y-123314667D02*
X80693333Y-123314667D01*
X80626667Y-123348000D01*
X80593333Y-123381333D01*
X80526667Y-123481333D01*
X80493333Y-123614667D01*
X80493333Y-123881333D01*
X80526667Y-123948000D01*
X80560000Y-123981333D01*
X80626667Y-124014667D01*
X80760000Y-124014667D01*
X80826667Y-123981333D01*
X80860000Y-123948000D01*
X80893333Y-123881333D01*
X80893333Y-123714667D01*
X80860000Y-123648000D01*
X80826667Y-123614667D01*
X80760000Y-123581333D01*
X80626667Y-123581333D01*
X80560000Y-123614667D01*
X80526667Y-123648000D01*
X80493333Y-123714667D01*
X89890667Y-107312667D02*
X89890667Y-107879333D01*
X89924000Y-107946000D01*
X89957333Y-107979333D01*
X90024000Y-108012667D01*
X90157333Y-108012667D01*
X90224000Y-107979333D01*
X90257333Y-107946000D01*
X90290667Y-107879333D01*
X90290667Y-107312667D01*
X90990666Y-108012667D02*
X90590666Y-108012667D01*
X90790666Y-108012667D02*
X90790666Y-107312667D01*
X90724000Y-107412667D01*
X90657333Y-107479333D01*
X90590666Y-107512667D01*
X109385167Y-94422167D02*
X109385167Y-94988833D01*
X109418500Y-95055500D01*
X109451833Y-95088833D01*
X109518500Y-95122167D01*
X109651833Y-95122167D01*
X109718500Y-95088833D01*
X109751833Y-95055500D01*
X109785167Y-94988833D01*
X109785167Y-94422167D01*
X110085166Y-94488833D02*
X110118500Y-94455500D01*
X110185166Y-94422167D01*
X110351833Y-94422167D01*
X110418500Y-94455500D01*
X110451833Y-94488833D01*
X110485166Y-94555500D01*
X110485166Y-94622167D01*
X110451833Y-94722167D01*
X110051833Y-95122167D01*
X110485166Y-95122167D01*
X109385167Y-111567167D02*
X109385167Y-112133833D01*
X109418500Y-112200500D01*
X109451833Y-112233833D01*
X109518500Y-112267167D01*
X109651833Y-112267167D01*
X109718500Y-112233833D01*
X109751833Y-112200500D01*
X109785167Y-112133833D01*
X109785167Y-111567167D01*
X110051833Y-111567167D02*
X110485166Y-111567167D01*
X110251833Y-111833833D01*
X110351833Y-111833833D01*
X110418500Y-111867167D01*
X110451833Y-111900500D01*
X110485166Y-111967167D01*
X110485166Y-112133833D01*
X110451833Y-112200500D01*
X110418500Y-112233833D01*
X110351833Y-112267167D01*
X110151833Y-112267167D01*
X110085166Y-112233833D01*
X110051833Y-112200500D01*
X87621334Y-127570667D02*
X87621334Y-126870667D01*
X87788000Y-126870667D01*
X87888000Y-126904000D01*
X87954667Y-126970667D01*
X87988000Y-127037333D01*
X88021334Y-127170667D01*
X88021334Y-127270667D01*
X87988000Y-127404000D01*
X87954667Y-127470667D01*
X87888000Y-127537333D01*
X87788000Y-127570667D01*
X87621334Y-127570667D01*
X88654667Y-126870667D02*
X88321334Y-126870667D01*
X88288000Y-127204000D01*
X88321334Y-127170667D01*
X88388000Y-127137333D01*
X88554667Y-127137333D01*
X88621334Y-127170667D01*
X88654667Y-127204000D01*
X88688000Y-127270667D01*
X88688000Y-127437333D01*
X88654667Y-127504000D01*
X88621334Y-127537333D01*
X88554667Y-127570667D01*
X88388000Y-127570667D01*
X88321334Y-127537333D01*
X88288000Y-127504000D01*
X102499334Y-95246000D02*
X102466000Y-95279333D01*
X102366000Y-95312667D01*
X102299334Y-95312667D01*
X102199334Y-95279333D01*
X102132667Y-95212667D01*
X102099334Y-95146000D01*
X102066000Y-95012667D01*
X102066000Y-94912667D01*
X102099334Y-94779333D01*
X102132667Y-94712667D01*
X102199334Y-94646000D01*
X102299334Y-94612667D01*
X102366000Y-94612667D01*
X102466000Y-94646000D01*
X102499334Y-94679333D01*
X103166000Y-95312667D02*
X102766000Y-95312667D01*
X102966000Y-95312667D02*
X102966000Y-94612667D01*
X102899334Y-94712667D01*
X102832667Y-94779333D01*
X102766000Y-94812667D01*
X101050000Y-112250000D02*
X101016666Y-112283333D01*
X100916666Y-112316667D01*
X100850000Y-112316667D01*
X100750000Y-112283333D01*
X100683333Y-112216667D01*
X100650000Y-112150000D01*
X100616666Y-112016667D01*
X100616666Y-111916667D01*
X100650000Y-111783333D01*
X100683333Y-111716667D01*
X100750000Y-111650000D01*
X100850000Y-111616667D01*
X100916666Y-111616667D01*
X101016666Y-111650000D01*
X101050000Y-111683333D01*
X101716666Y-112316667D02*
X101316666Y-112316667D01*
X101516666Y-112316667D02*
X101516666Y-111616667D01*
X101450000Y-111716667D01*
X101383333Y-111783333D01*
X101316666Y-111816667D01*
X102116667Y-111916667D02*
X102050000Y-111883333D01*
X102016667Y-111850000D01*
X101983333Y-111783333D01*
X101983333Y-111750000D01*
X102016667Y-111683333D01*
X102050000Y-111650000D01*
X102116667Y-111616667D01*
X102250000Y-111616667D01*
X102316667Y-111650000D01*
X102350000Y-111683333D01*
X102383333Y-111750000D01*
X102383333Y-111783333D01*
X102350000Y-111850000D01*
X102316667Y-111883333D01*
X102250000Y-111916667D01*
X102116667Y-111916667D01*
X102050000Y-111950000D01*
X102016667Y-111983333D01*
X101983333Y-112050000D01*
X101983333Y-112183333D01*
X102016667Y-112250000D01*
X102050000Y-112283333D01*
X102116667Y-112316667D01*
X102250000Y-112316667D01*
X102316667Y-112283333D01*
X102350000Y-112250000D01*
X102383333Y-112183333D01*
X102383333Y-112050000D01*
X102350000Y-111983333D01*
X102316667Y-111950000D01*
X102250000Y-111916667D01*
X100050000Y-125250000D02*
X100016666Y-125283333D01*
X99916666Y-125316667D01*
X99850000Y-125316667D01*
X99750000Y-125283333D01*
X99683333Y-125216667D01*
X99650000Y-125150000D01*
X99616666Y-125016667D01*
X99616666Y-124916667D01*
X99650000Y-124783333D01*
X99683333Y-124716667D01*
X99750000Y-124650000D01*
X99850000Y-124616667D01*
X99916666Y-124616667D01*
X100016666Y-124650000D01*
X100050000Y-124683333D01*
X100716666Y-125316667D02*
X100316666Y-125316667D01*
X100516666Y-125316667D02*
X100516666Y-124616667D01*
X100450000Y-124716667D01*
X100383333Y-124783333D01*
X100316666Y-124816667D01*
X101050000Y-125316667D02*
X101183333Y-125316667D01*
X101250000Y-125283333D01*
X101283333Y-125250000D01*
X101350000Y-125150000D01*
X101383333Y-125016667D01*
X101383333Y-124750000D01*
X101350000Y-124683333D01*
X101316667Y-124650000D01*
X101250000Y-124616667D01*
X101116667Y-124616667D01*
X101050000Y-124650000D01*
X101016667Y-124683333D01*
X100983333Y-124750000D01*
X100983333Y-124916667D01*
X101016667Y-124983333D01*
X101050000Y-125016667D01*
X101116667Y-125050000D01*
X101250000Y-125050000D01*
X101316667Y-125016667D01*
X101350000Y-124983333D01*
X101383333Y-124916667D01*
X98550000Y-110750000D02*
X98516666Y-110783333D01*
X98416666Y-110816667D01*
X98350000Y-110816667D01*
X98250000Y-110783333D01*
X98183333Y-110716667D01*
X98150000Y-110650000D01*
X98116666Y-110516667D01*
X98116666Y-110416667D01*
X98150000Y-110283333D01*
X98183333Y-110216667D01*
X98250000Y-110150000D01*
X98350000Y-110116667D01*
X98416666Y-110116667D01*
X98516666Y-110150000D01*
X98550000Y-110183333D01*
X98816666Y-110183333D02*
X98850000Y-110150000D01*
X98916666Y-110116667D01*
X99083333Y-110116667D01*
X99150000Y-110150000D01*
X99183333Y-110183333D01*
X99216666Y-110250000D01*
X99216666Y-110316667D01*
X99183333Y-110416667D01*
X98783333Y-110816667D01*
X99216666Y-110816667D01*
X99650000Y-110116667D02*
X99716667Y-110116667D01*
X99783333Y-110150000D01*
X99816667Y-110183333D01*
X99850000Y-110250000D01*
X99883333Y-110383333D01*
X99883333Y-110550000D01*
X99850000Y-110683333D01*
X99816667Y-110750000D01*
X99783333Y-110783333D01*
X99716667Y-110816667D01*
X99650000Y-110816667D01*
X99583333Y-110783333D01*
X99550000Y-110750000D01*
X99516667Y-110683333D01*
X99483333Y-110550000D01*
X99483333Y-110383333D01*
X99516667Y-110250000D01*
X99550000Y-110183333D01*
X99583333Y-110150000D01*
X99650000Y-110116667D01*
X92550000Y-113250000D02*
X92516666Y-113283333D01*
X92416666Y-113316667D01*
X92350000Y-113316667D01*
X92250000Y-113283333D01*
X92183333Y-113216667D01*
X92150000Y-113150000D01*
X92116666Y-113016667D01*
X92116666Y-112916667D01*
X92150000Y-112783333D01*
X92183333Y-112716667D01*
X92250000Y-112650000D01*
X92350000Y-112616667D01*
X92416666Y-112616667D01*
X92516666Y-112650000D01*
X92550000Y-112683333D01*
X92816666Y-112683333D02*
X92850000Y-112650000D01*
X92916666Y-112616667D01*
X93083333Y-112616667D01*
X93150000Y-112650000D01*
X93183333Y-112683333D01*
X93216666Y-112750000D01*
X93216666Y-112816667D01*
X93183333Y-112916667D01*
X92783333Y-113316667D01*
X93216666Y-113316667D01*
X93483333Y-112683333D02*
X93516667Y-112650000D01*
X93583333Y-112616667D01*
X93750000Y-112616667D01*
X93816667Y-112650000D01*
X93850000Y-112683333D01*
X93883333Y-112750000D01*
X93883333Y-112816667D01*
X93850000Y-112916667D01*
X93450000Y-113316667D01*
X93883333Y-113316667D01*
X96550000Y-114750000D02*
X96516666Y-114783333D01*
X96416666Y-114816667D01*
X96350000Y-114816667D01*
X96250000Y-114783333D01*
X96183333Y-114716667D01*
X96150000Y-114650000D01*
X96116666Y-114516667D01*
X96116666Y-114416667D01*
X96150000Y-114283333D01*
X96183333Y-114216667D01*
X96250000Y-114150000D01*
X96350000Y-114116667D01*
X96416666Y-114116667D01*
X96516666Y-114150000D01*
X96550000Y-114183333D01*
X96816666Y-114183333D02*
X96850000Y-114150000D01*
X96916666Y-114116667D01*
X97083333Y-114116667D01*
X97150000Y-114150000D01*
X97183333Y-114183333D01*
X97216666Y-114250000D01*
X97216666Y-114316667D01*
X97183333Y-114416667D01*
X96783333Y-114816667D01*
X97216666Y-114816667D01*
X97450000Y-114116667D02*
X97883333Y-114116667D01*
X97650000Y-114383333D01*
X97750000Y-114383333D01*
X97816667Y-114416667D01*
X97850000Y-114450000D01*
X97883333Y-114516667D01*
X97883333Y-114683333D01*
X97850000Y-114750000D01*
X97816667Y-114783333D01*
X97750000Y-114816667D01*
X97550000Y-114816667D01*
X97483333Y-114783333D01*
X97450000Y-114750000D01*
X105883333Y-113816667D02*
X105550000Y-113816667D01*
X105550000Y-113116667D01*
X106050000Y-113116667D02*
X106483333Y-113116667D01*
X106250000Y-113383333D01*
X106350000Y-113383333D01*
X106416667Y-113416667D01*
X106450000Y-113450000D01*
X106483333Y-113516667D01*
X106483333Y-113683333D01*
X106450000Y-113750000D01*
X106416667Y-113783333D01*
X106350000Y-113816667D01*
X106150000Y-113816667D01*
X106083333Y-113783333D01*
X106050000Y-113750000D01*
X92716667Y-117616667D02*
X92716667Y-118183333D01*
X92750000Y-118250000D01*
X92783333Y-118283333D01*
X92850000Y-118316667D01*
X92983333Y-118316667D01*
X93050000Y-118283333D01*
X93083333Y-118250000D01*
X93116667Y-118183333D01*
X93116667Y-117616667D01*
X93750000Y-117850000D02*
X93750000Y-118316667D01*
X93583333Y-117583333D02*
X93416666Y-118083333D01*
X93850000Y-118083333D01*
%LPC*%
D13*
X85344000Y-105422000D03*
X85344000Y-106922000D03*
X86868000Y-104152000D03*
X86868000Y-105652000D03*
X88646000Y-104152000D03*
X88646000Y-105652000D03*
X80010000Y-106922000D03*
X80010000Y-105422000D03*
X81788000Y-106922000D03*
X81788000Y-105422000D03*
X83566000Y-106922000D03*
X83566000Y-105422000D03*
D14*
X109871000Y-100838000D03*
X111871000Y-100838000D03*
D15*
X117221000Y-96345500D03*
X117221000Y-98345500D03*
X114998500Y-96345500D03*
X114998500Y-98345500D03*
D14*
X117903500Y-107823000D03*
X115903500Y-107823000D03*
X117903500Y-105283000D03*
X115903500Y-105283000D03*
X109871000Y-117983000D03*
X111871000Y-117983000D03*
D15*
X117221000Y-113490500D03*
X117221000Y-115490500D03*
X114998500Y-113490500D03*
X114998500Y-115490500D03*
D14*
X117903500Y-122428000D03*
X115903500Y-122428000D03*
X117903500Y-124968000D03*
X115903500Y-124968000D03*
X97500000Y-123500000D03*
X95500000Y-123500000D03*
D16*
X72390000Y-118110000D03*
X76690000Y-118110000D03*
D17*
X82550000Y-97300000D03*
X82550000Y-101600000D03*
D16*
X72390000Y-123825000D03*
X68090000Y-123825000D03*
X64135000Y-118110000D03*
X59835000Y-118110000D03*
D18*
X86398000Y-125476000D03*
X84798000Y-125476000D03*
X86398000Y-123698000D03*
X84798000Y-123698000D03*
D19*
X125793500Y-97493000D03*
X125793500Y-107993000D03*
X125793500Y-114638000D03*
X125793500Y-125138000D03*
D20*
X78105000Y-107820000D03*
X76835000Y-107820000D03*
X75565000Y-107820000D03*
X74295000Y-107820000D03*
D21*
X74295000Y-113285000D03*
X75565000Y-113285000D03*
X76835000Y-113285000D03*
X78105000Y-113285000D03*
D22*
X76200000Y-111180000D03*
D20*
X74295000Y-104270000D03*
X75565000Y-104270000D03*
X76835000Y-104270000D03*
X78105000Y-104270000D03*
D21*
X78105000Y-98805000D03*
X76835000Y-98805000D03*
X75565000Y-98805000D03*
X74295000Y-98805000D03*
D22*
X76200000Y-100910000D03*
D20*
X70485000Y-107820000D03*
X69215000Y-107820000D03*
X67945000Y-107820000D03*
X66675000Y-107820000D03*
D21*
X66675000Y-113285000D03*
X67945000Y-113285000D03*
X69215000Y-113285000D03*
X70485000Y-113285000D03*
D22*
X68580000Y-111180000D03*
D20*
X66675000Y-104270000D03*
X67945000Y-104270000D03*
X69215000Y-104270000D03*
X70485000Y-104270000D03*
D21*
X70485000Y-98805000D03*
X69215000Y-98805000D03*
X67945000Y-98805000D03*
X66675000Y-98805000D03*
D22*
X68580000Y-100910000D03*
D20*
X62865000Y-107820000D03*
X61595000Y-107820000D03*
X60325000Y-107820000D03*
X59055000Y-107820000D03*
D21*
X59055000Y-113285000D03*
X60325000Y-113285000D03*
X61595000Y-113285000D03*
X62865000Y-113285000D03*
D22*
X60960000Y-111180000D03*
D20*
X59055000Y-104270000D03*
X60325000Y-104270000D03*
X61595000Y-104270000D03*
X62865000Y-104270000D03*
D21*
X62865000Y-98805000D03*
X61595000Y-98805000D03*
X60325000Y-98805000D03*
X59055000Y-98805000D03*
D22*
X60960000Y-100910000D03*
D23*
X84062000Y-117348000D03*
X82562000Y-117348000D03*
X85610000Y-117348000D03*
X87110000Y-117348000D03*
X90180000Y-117348000D03*
X88680000Y-117348000D03*
X84062000Y-119380000D03*
X82562000Y-119380000D03*
X85610000Y-119380000D03*
X87110000Y-119380000D03*
X90158000Y-119380000D03*
X88658000Y-119380000D03*
X84062000Y-121412000D03*
X82562000Y-121412000D03*
X85610000Y-121412000D03*
X87110000Y-121412000D03*
X90210000Y-121412000D03*
X88710000Y-121412000D03*
X110986000Y-104965500D03*
X109486000Y-104965500D03*
X109486000Y-103060500D03*
X110986000Y-103060500D03*
X110986000Y-122110500D03*
X109486000Y-122110500D03*
X109486000Y-120205500D03*
X110986000Y-120205500D03*
X83300000Y-127254000D03*
X81800000Y-127254000D03*
X83300000Y-125476000D03*
X81800000Y-125476000D03*
X83300000Y-123698000D03*
X81800000Y-123698000D03*
D24*
X83566000Y-114420000D03*
X84201000Y-114420000D03*
X84836000Y-114420000D03*
X85471000Y-114420000D03*
X86106000Y-114420000D03*
X86741000Y-114420000D03*
X87376000Y-114420000D03*
X88011000Y-114420000D03*
X88646000Y-114420000D03*
X89281000Y-114420000D03*
X89916000Y-114420000D03*
X90551000Y-114420000D03*
X90551000Y-109220000D03*
X89916000Y-109220000D03*
X89281000Y-109220000D03*
X88646000Y-109220000D03*
X88011000Y-109220000D03*
X87376000Y-109220000D03*
X86741000Y-109220000D03*
X86106000Y-109220000D03*
X85471000Y-109220000D03*
X84836000Y-109220000D03*
X84201000Y-109220000D03*
X83566000Y-109220000D03*
D25*
X111018500Y-98295500D03*
X111018500Y-97345500D03*
X111018500Y-96395500D03*
X108818500Y-96395500D03*
X108818500Y-98295500D03*
X108818500Y-97345500D03*
X111018500Y-115440500D03*
X111018500Y-114490500D03*
X111018500Y-113540500D03*
X108818500Y-113540500D03*
X108818500Y-115440500D03*
X108818500Y-114490500D03*
D18*
X86398000Y-127254000D03*
X84798000Y-127254000D03*
D26*
X55880000Y-134620000D03*
X58420000Y-134620000D03*
X60960000Y-134620000D03*
X63500000Y-134620000D03*
X66040000Y-134620000D03*
X68580000Y-134620000D03*
X71120000Y-134620000D03*
X73660000Y-134620000D03*
X76200000Y-134620000D03*
X78740000Y-134620000D03*
X88900000Y-134620000D03*
X81280000Y-134620000D03*
X83820000Y-134620000D03*
X86360000Y-134620000D03*
X91440000Y-134620000D03*
D27*
X104394000Y-98044000D03*
D28*
X104394000Y-101544000D03*
D29*
X99750000Y-113500000D03*
X101250000Y-113500000D03*
X99750000Y-123500000D03*
X101250000Y-123500000D03*
D14*
X97000000Y-111000000D03*
X95000000Y-111000000D03*
D29*
X94750000Y-113000000D03*
X96250000Y-113000000D03*
X93750000Y-114500000D03*
X95250000Y-114500000D03*
D30*
X103500000Y-115000000D03*
X103500000Y-122000000D03*
D31*
X98500000Y-116550000D03*
X98000000Y-116550000D03*
X97500000Y-116550000D03*
X97000000Y-116550000D03*
X96500000Y-116550000D03*
X96500000Y-120950000D03*
X97000000Y-120950000D03*
X97500000Y-120950000D03*
X98000000Y-120950000D03*
X98500000Y-120950000D03*
X96000000Y-116550000D03*
X95500000Y-116550000D03*
X95000000Y-116550000D03*
X96000000Y-120950000D03*
X95500000Y-120950000D03*
X95000000Y-120950000D03*
D32*
X96850000Y-118750000D03*
M02*
