G04 #@! TF.FileFunction,Legend,Top*
%FSLAX46Y46*%
G04 Gerber Fmt 4.6, Leading zero omitted, Abs format (unit mm)*
G04 Created by KiCad (PCBNEW 4.0.6) date Wed Dec 27 22:05:19 2017*
%MOMM*%
%LPD*%
G01*
G04 APERTURE LIST*
%ADD10C,0.128000*%
%ADD11C,0.300000*%
%ADD12C,0.150000*%
%ADD13C,0.120000*%
%ADD14C,0.203200*%
%ADD15C,0.254000*%
%ADD16C,0.127000*%
%ADD17C,0.152400*%
G04 APERTURE END LIST*
D10*
D11*
X156440143Y-116116571D02*
X156440143Y-114616571D01*
X156797286Y-114616571D01*
X157011571Y-114688000D01*
X157154429Y-114830857D01*
X157225857Y-114973714D01*
X157297286Y-115259429D01*
X157297286Y-115473714D01*
X157225857Y-115759429D01*
X157154429Y-115902286D01*
X157011571Y-116045143D01*
X156797286Y-116116571D01*
X156440143Y-116116571D01*
X158583000Y-116116571D02*
X158583000Y-115330857D01*
X158511571Y-115188000D01*
X158368714Y-115116571D01*
X158083000Y-115116571D01*
X157940143Y-115188000D01*
X158583000Y-116045143D02*
X158440143Y-116116571D01*
X158083000Y-116116571D01*
X157940143Y-116045143D01*
X157868714Y-115902286D01*
X157868714Y-115759429D01*
X157940143Y-115616571D01*
X158083000Y-115545143D01*
X158440143Y-115545143D01*
X158583000Y-115473714D01*
X159297286Y-115116571D02*
X159297286Y-116116571D01*
X159297286Y-115259429D02*
X159368714Y-115188000D01*
X159511572Y-115116571D01*
X159725857Y-115116571D01*
X159868714Y-115188000D01*
X159940143Y-115330857D01*
X159940143Y-116116571D01*
X160654429Y-116116571D02*
X160654429Y-115116571D01*
X160654429Y-114616571D02*
X160583000Y-114688000D01*
X160654429Y-114759429D01*
X160725857Y-114688000D01*
X160654429Y-114616571D01*
X160654429Y-114759429D01*
X161940143Y-116045143D02*
X161797286Y-116116571D01*
X161511572Y-116116571D01*
X161368715Y-116045143D01*
X161297286Y-115902286D01*
X161297286Y-115330857D01*
X161368715Y-115188000D01*
X161511572Y-115116571D01*
X161797286Y-115116571D01*
X161940143Y-115188000D01*
X162011572Y-115330857D01*
X162011572Y-115473714D01*
X161297286Y-115616571D01*
X162868715Y-116116571D02*
X162725857Y-116045143D01*
X162654429Y-115902286D01*
X162654429Y-114616571D01*
X165440143Y-115973714D02*
X165368714Y-116045143D01*
X165154428Y-116116571D01*
X165011571Y-116116571D01*
X164797286Y-116045143D01*
X164654428Y-115902286D01*
X164583000Y-115759429D01*
X164511571Y-115473714D01*
X164511571Y-115259429D01*
X164583000Y-114973714D01*
X164654428Y-114830857D01*
X164797286Y-114688000D01*
X165011571Y-114616571D01*
X165154428Y-114616571D01*
X165368714Y-114688000D01*
X165440143Y-114759429D01*
X166297286Y-116116571D02*
X166154428Y-116045143D01*
X166083000Y-115973714D01*
X166011571Y-115830857D01*
X166011571Y-115402286D01*
X166083000Y-115259429D01*
X166154428Y-115188000D01*
X166297286Y-115116571D01*
X166511571Y-115116571D01*
X166654428Y-115188000D01*
X166725857Y-115259429D01*
X166797286Y-115402286D01*
X166797286Y-115830857D01*
X166725857Y-115973714D01*
X166654428Y-116045143D01*
X166511571Y-116116571D01*
X166297286Y-116116571D01*
X167440143Y-116116571D02*
X167440143Y-115116571D01*
X167440143Y-115402286D02*
X167511571Y-115259429D01*
X167583000Y-115188000D01*
X167725857Y-115116571D01*
X167868714Y-115116571D01*
X168940142Y-116045143D02*
X168797285Y-116116571D01*
X168511571Y-116116571D01*
X168368714Y-116045143D01*
X168297285Y-115902286D01*
X168297285Y-115330857D01*
X168368714Y-115188000D01*
X168511571Y-115116571D01*
X168797285Y-115116571D01*
X168940142Y-115188000D01*
X169011571Y-115330857D01*
X169011571Y-115473714D01*
X168297285Y-115616571D01*
X169511571Y-115116571D02*
X169868714Y-116116571D01*
X170225856Y-115116571D02*
X169868714Y-116116571D01*
X169725856Y-116473714D01*
X169654428Y-116545143D01*
X169511571Y-116616571D01*
X156225857Y-117166571D02*
X157083000Y-117166571D01*
X156654429Y-118666571D02*
X156654429Y-117166571D01*
X157583000Y-118666571D02*
X157583000Y-117166571D01*
X158225857Y-118666571D02*
X158225857Y-117880857D01*
X158154428Y-117738000D01*
X158011571Y-117666571D01*
X157797286Y-117666571D01*
X157654428Y-117738000D01*
X157583000Y-117809429D01*
X159154429Y-118666571D02*
X159011571Y-118595143D01*
X158940143Y-118523714D01*
X158868714Y-118380857D01*
X158868714Y-117952286D01*
X158940143Y-117809429D01*
X159011571Y-117738000D01*
X159154429Y-117666571D01*
X159368714Y-117666571D01*
X159511571Y-117738000D01*
X159583000Y-117809429D01*
X159654429Y-117952286D01*
X159654429Y-118380857D01*
X159583000Y-118523714D01*
X159511571Y-118595143D01*
X159368714Y-118666571D01*
X159154429Y-118666571D01*
X160297286Y-118666571D02*
X160297286Y-117666571D01*
X160297286Y-117809429D02*
X160368714Y-117738000D01*
X160511572Y-117666571D01*
X160725857Y-117666571D01*
X160868714Y-117738000D01*
X160940143Y-117880857D01*
X160940143Y-118666571D01*
X160940143Y-117880857D02*
X161011572Y-117738000D01*
X161154429Y-117666571D01*
X161368714Y-117666571D01*
X161511572Y-117738000D01*
X161583000Y-117880857D01*
X161583000Y-118666571D01*
X162940143Y-118666571D02*
X162940143Y-117880857D01*
X162868714Y-117738000D01*
X162725857Y-117666571D01*
X162440143Y-117666571D01*
X162297286Y-117738000D01*
X162940143Y-118595143D02*
X162797286Y-118666571D01*
X162440143Y-118666571D01*
X162297286Y-118595143D01*
X162225857Y-118452286D01*
X162225857Y-118309429D01*
X162297286Y-118166571D01*
X162440143Y-118095143D01*
X162797286Y-118095143D01*
X162940143Y-118023714D01*
X163583000Y-118595143D02*
X163725857Y-118666571D01*
X164011572Y-118666571D01*
X164154429Y-118595143D01*
X164225857Y-118452286D01*
X164225857Y-118380857D01*
X164154429Y-118238000D01*
X164011572Y-118166571D01*
X163797286Y-118166571D01*
X163654429Y-118095143D01*
X163583000Y-117952286D01*
X163583000Y-117880857D01*
X163654429Y-117738000D01*
X163797286Y-117666571D01*
X164011572Y-117666571D01*
X164154429Y-117738000D01*
X166511572Y-117880857D02*
X166725858Y-117952286D01*
X166797286Y-118023714D01*
X166868715Y-118166571D01*
X166868715Y-118380857D01*
X166797286Y-118523714D01*
X166725858Y-118595143D01*
X166583000Y-118666571D01*
X166011572Y-118666571D01*
X166011572Y-117166571D01*
X166511572Y-117166571D01*
X166654429Y-117238000D01*
X166725858Y-117309429D01*
X166797286Y-117452286D01*
X166797286Y-117595143D01*
X166725858Y-117738000D01*
X166654429Y-117809429D01*
X166511572Y-117880857D01*
X166011572Y-117880857D01*
X168083000Y-118595143D02*
X167940143Y-118666571D01*
X167654429Y-118666571D01*
X167511572Y-118595143D01*
X167440143Y-118452286D01*
X167440143Y-117880857D01*
X167511572Y-117738000D01*
X167654429Y-117666571D01*
X167940143Y-117666571D01*
X168083000Y-117738000D01*
X168154429Y-117880857D01*
X168154429Y-118023714D01*
X167440143Y-118166571D01*
X168797286Y-117666571D02*
X168797286Y-118666571D01*
X168797286Y-117809429D02*
X168868714Y-117738000D01*
X169011572Y-117666571D01*
X169225857Y-117666571D01*
X169368714Y-117738000D01*
X169440143Y-117880857D01*
X169440143Y-118666571D01*
X170154429Y-117666571D02*
X170154429Y-118666571D01*
X170154429Y-117809429D02*
X170225857Y-117738000D01*
X170368715Y-117666571D01*
X170583000Y-117666571D01*
X170725857Y-117738000D01*
X170797286Y-117880857D01*
X170797286Y-118666571D01*
X172083000Y-118595143D02*
X171940143Y-118666571D01*
X171654429Y-118666571D01*
X171511572Y-118595143D01*
X171440143Y-118452286D01*
X171440143Y-117880857D01*
X171511572Y-117738000D01*
X171654429Y-117666571D01*
X171940143Y-117666571D01*
X172083000Y-117738000D01*
X172154429Y-117880857D01*
X172154429Y-118023714D01*
X171440143Y-118166571D01*
X172583000Y-117666571D02*
X173154429Y-117666571D01*
X172797286Y-117166571D02*
X172797286Y-118452286D01*
X172868714Y-118595143D01*
X173011572Y-118666571D01*
X173154429Y-118666571D01*
X173440143Y-117666571D02*
X174011572Y-117666571D01*
X173654429Y-117166571D02*
X173654429Y-118452286D01*
X173725857Y-118595143D01*
X173868715Y-118666571D01*
X174011572Y-118666571D01*
D12*
X156591000Y-110363000D02*
G75*
G03X156591000Y-110363000I-7620000J0D01*
G01*
D13*
X151720000Y-82923000D02*
X151720000Y-81923000D01*
X153080000Y-81923000D02*
X153080000Y-82923000D01*
X151175000Y-81923000D02*
X151175000Y-82923000D01*
X149815000Y-82923000D02*
X149815000Y-81923000D01*
D14*
X147731480Y-84114640D02*
X145232120Y-84114640D01*
X145232120Y-84114640D02*
X145232120Y-63614300D01*
X145232120Y-63614300D02*
X147731480Y-63614300D01*
X147731480Y-84114640D02*
X147731480Y-63614300D01*
X167228520Y-84114640D02*
X169727880Y-84114640D01*
X169727880Y-84114640D02*
X169727880Y-63614300D01*
X169727880Y-63614300D02*
X167228520Y-63614300D01*
X167228520Y-84114640D02*
X167228520Y-63614300D01*
D13*
X176035000Y-92770000D02*
X176857470Y-92770000D01*
X178742530Y-92770000D02*
X179565000Y-92770000D01*
X177472530Y-92770000D02*
X178127470Y-92770000D01*
X176035000Y-90295000D02*
X176035000Y-92770000D01*
X179565000Y-88840000D02*
X179565000Y-92770000D01*
X176035000Y-90295000D02*
X176601529Y-90295000D01*
X177728471Y-90295000D02*
X177871529Y-90295000D01*
X177925000Y-90241529D02*
X177925000Y-90098471D01*
X177925000Y-88971529D02*
X177925000Y-88840000D01*
X177925000Y-88840000D02*
X178127470Y-88840000D01*
X178742530Y-88840000D02*
X179565000Y-88840000D01*
X176035000Y-89535000D02*
X176035000Y-88775000D01*
X176035000Y-88775000D02*
X177165000Y-88775000D01*
X167040000Y-91790000D02*
X167040000Y-91090000D01*
X168240000Y-91090000D02*
X168240000Y-91790000D01*
X161763000Y-93122000D02*
X161763000Y-93822000D01*
X160563000Y-93822000D02*
X160563000Y-93122000D01*
X175225000Y-90074000D02*
X175225000Y-90774000D01*
X174025000Y-90774000D02*
X174025000Y-90074000D01*
X172558000Y-92614000D02*
X172558000Y-93314000D01*
X171358000Y-93314000D02*
X171358000Y-92614000D01*
X163480000Y-77505000D02*
X164180000Y-77505000D01*
X164180000Y-78705000D02*
X163480000Y-78705000D01*
X162137000Y-93367000D02*
X163237000Y-93367000D01*
X163237000Y-93367000D02*
X163237000Y-90767000D01*
X162137000Y-93367000D02*
X162137000Y-90767000D01*
X165185000Y-93240000D02*
X166285000Y-93240000D01*
X166285000Y-93240000D02*
X166285000Y-90640000D01*
X165185000Y-93240000D02*
X165185000Y-90640000D01*
X175305000Y-94115000D02*
X175305000Y-95115000D01*
X173945000Y-95115000D02*
X173945000Y-94115000D01*
X174050500Y-111586500D02*
X171750500Y-111586500D01*
X171750500Y-111586500D02*
X171750500Y-104186500D01*
X171750500Y-104186500D02*
X174050500Y-104186500D01*
X176850500Y-104186500D02*
X179150500Y-104186500D01*
X179150500Y-104186500D02*
X179150500Y-111586500D01*
X179150500Y-111586500D02*
X176850500Y-111586500D01*
X156445000Y-69845000D02*
X155185000Y-69845000D01*
X149625000Y-69845000D02*
X150885000Y-69845000D01*
X156445000Y-73605000D02*
X156445000Y-69845000D01*
X149625000Y-75855000D02*
X149625000Y-69845000D01*
X166605000Y-69845000D02*
X165345000Y-69845000D01*
X159785000Y-69845000D02*
X161045000Y-69845000D01*
X166605000Y-73605000D02*
X166605000Y-69845000D01*
X159785000Y-75855000D02*
X159785000Y-69845000D01*
X177300000Y-93300000D02*
X178300000Y-93300000D01*
X178300000Y-94660000D02*
X177300000Y-94660000D01*
X163367000Y-95342000D02*
X163367000Y-96342000D01*
X162007000Y-96342000D02*
X162007000Y-95342000D01*
X166415000Y-95385000D02*
X166415000Y-96385000D01*
X165055000Y-96385000D02*
X165055000Y-95385000D01*
X169600500Y-111741500D02*
X168600500Y-111741500D01*
X168600500Y-110381500D02*
X169600500Y-110381500D01*
X169690500Y-107751500D02*
X169690500Y-106751500D01*
X171050500Y-106751500D02*
X171050500Y-107751500D01*
X161880000Y-81780000D02*
X161880000Y-80780000D01*
X163240000Y-80780000D02*
X163240000Y-81780000D01*
D12*
X161565000Y-77985000D02*
X160565000Y-76985000D01*
X160565000Y-76985000D02*
X154665000Y-76985000D01*
X154665000Y-76985000D02*
X154665000Y-80495000D01*
X154665000Y-80495000D02*
X161565000Y-80495000D01*
X161565000Y-80495000D02*
X161565000Y-77985000D01*
D13*
X153000000Y-100615000D02*
X153000000Y-101315000D01*
X151800000Y-101315000D02*
X151800000Y-100615000D01*
X153000000Y-92995000D02*
X153000000Y-93695000D01*
X151800000Y-93695000D02*
X151800000Y-92995000D01*
D15*
X143637000Y-95758000D02*
G75*
G03X143637000Y-95758000I-381000J0D01*
G01*
X143383000Y-95758000D02*
G75*
G03X143383000Y-95758000I-127000J0D01*
G01*
D14*
X144122140Y-95961200D02*
X150517860Y-95961200D01*
X150517860Y-102158800D02*
X144122140Y-102158800D01*
X144122140Y-102158800D02*
X144122140Y-101658420D01*
X150517860Y-102158800D02*
X150517860Y-101658420D01*
X150517860Y-95961200D02*
X150517860Y-96461580D01*
X144122140Y-95961200D02*
X144122140Y-96461580D01*
D10*
X144018000Y-95631000D02*
G75*
G03X144018000Y-95631000I-254000J0D01*
G01*
D15*
X143637000Y-88138000D02*
G75*
G03X143637000Y-88138000I-381000J0D01*
G01*
X143383000Y-88138000D02*
G75*
G03X143383000Y-88138000I-127000J0D01*
G01*
D14*
X144122140Y-88341200D02*
X150517860Y-88341200D01*
X150517860Y-94538800D02*
X144122140Y-94538800D01*
X144122140Y-94538800D02*
X144122140Y-94038420D01*
X150517860Y-94538800D02*
X150517860Y-94038420D01*
X150517860Y-88341200D02*
X150517860Y-88841580D01*
X144122140Y-88341200D02*
X144122140Y-88841580D01*
D10*
X144018000Y-88011000D02*
G75*
G03X144018000Y-88011000I-254000J0D01*
G01*
D13*
X174260000Y-57660000D02*
X176260000Y-57660000D01*
X174260000Y-64260000D02*
X176260000Y-64260000D01*
X178560000Y-59960000D02*
X178560000Y-61960000D01*
X171960000Y-59960000D02*
X171960000Y-61960000D01*
X164779000Y-106239000D02*
X162119000Y-106239000D01*
X164779000Y-108839000D02*
X164779000Y-106239000D01*
X162119000Y-108839000D02*
X162119000Y-106239000D01*
X164779000Y-108839000D02*
X162119000Y-108839000D01*
X164779000Y-110109000D02*
X164779000Y-111439000D01*
X164779000Y-111439000D02*
X163449000Y-111439000D01*
X135110000Y-82020000D02*
X135110000Y-86720000D01*
X135110000Y-86720000D02*
X141210000Y-86720000D01*
X141210000Y-86720000D02*
X141210000Y-82020000D01*
X141210000Y-82020000D02*
X135110000Y-82020000D01*
X137660000Y-82020000D02*
X137660000Y-82620000D01*
X137660000Y-82620000D02*
X135710000Y-82620000D01*
X135710000Y-82620000D02*
X135710000Y-86120000D01*
X135710000Y-86120000D02*
X140610000Y-86120000D01*
X140610000Y-86120000D02*
X140610000Y-82620000D01*
X140610000Y-82620000D02*
X138660000Y-82620000D01*
X138660000Y-82620000D02*
X138660000Y-82020000D01*
X135110000Y-83320000D02*
X135710000Y-83320000D01*
X135110000Y-84620000D02*
X135710000Y-84620000D01*
X141210000Y-83320000D02*
X140610000Y-83320000D01*
X141210000Y-84620000D02*
X140610000Y-84620000D01*
X136860000Y-82020000D02*
X136860000Y-81820000D01*
X136860000Y-81820000D02*
X136560000Y-81820000D01*
X136560000Y-81820000D02*
X136560000Y-82020000D01*
X136860000Y-81920000D02*
X136560000Y-81920000D01*
X138060000Y-86120000D02*
X138060000Y-85620000D01*
X138060000Y-85620000D02*
X138260000Y-85620000D01*
X138260000Y-85620000D02*
X138260000Y-86120000D01*
X138160000Y-86120000D02*
X138160000Y-85620000D01*
X136060000Y-81720000D02*
X134810000Y-81720000D01*
X134810000Y-81720000D02*
X134810000Y-82970000D01*
X178046000Y-101131000D02*
X177046000Y-101131000D01*
X177046000Y-102831000D02*
X178046000Y-102831000D01*
D12*
X148090048Y-109791571D02*
X148232905Y-109839190D01*
X148280524Y-109886810D01*
X148328143Y-109982048D01*
X148328143Y-110124905D01*
X148280524Y-110220143D01*
X148232905Y-110267762D01*
X148137667Y-110315381D01*
X147756714Y-110315381D01*
X147756714Y-109315381D01*
X148090048Y-109315381D01*
X148185286Y-109363000D01*
X148232905Y-109410619D01*
X148280524Y-109505857D01*
X148280524Y-109601095D01*
X148232905Y-109696333D01*
X148185286Y-109743952D01*
X148090048Y-109791571D01*
X147756714Y-109791571D01*
X148661476Y-109315381D02*
X149328143Y-109315381D01*
X148661476Y-110315381D01*
X149328143Y-110315381D01*
X150232905Y-110315381D02*
X149661476Y-110315381D01*
X149947190Y-110315381D02*
X149947190Y-109315381D01*
X149851952Y-109458238D01*
X149756714Y-109553476D01*
X149661476Y-109601095D01*
X152979381Y-85637666D02*
X152503190Y-85971000D01*
X152979381Y-86209095D02*
X151979381Y-86209095D01*
X151979381Y-85828142D01*
X152027000Y-85732904D01*
X152074619Y-85685285D01*
X152169857Y-85637666D01*
X152312714Y-85637666D01*
X152407952Y-85685285D01*
X152455571Y-85732904D01*
X152503190Y-85828142D01*
X152503190Y-86209095D01*
X152979381Y-84685285D02*
X152979381Y-85256714D01*
X152979381Y-84971000D02*
X151979381Y-84971000D01*
X152122238Y-85066238D01*
X152217476Y-85161476D01*
X152265095Y-85256714D01*
X150947381Y-85637666D02*
X150471190Y-85971000D01*
X150947381Y-86209095D02*
X149947381Y-86209095D01*
X149947381Y-85828142D01*
X149995000Y-85732904D01*
X150042619Y-85685285D01*
X150137857Y-85637666D01*
X150280714Y-85637666D01*
X150375952Y-85685285D01*
X150423571Y-85732904D01*
X150471190Y-85828142D01*
X150471190Y-86209095D01*
X150042619Y-85256714D02*
X149995000Y-85209095D01*
X149947381Y-85113857D01*
X149947381Y-84875761D01*
X149995000Y-84780523D01*
X150042619Y-84732904D01*
X150137857Y-84685285D01*
X150233095Y-84685285D01*
X150375952Y-84732904D01*
X150947381Y-85304333D01*
X150947381Y-84685285D01*
D16*
X155640315Y-64690171D02*
X155640315Y-65183657D01*
X155669343Y-65241714D01*
X155698372Y-65270743D01*
X155756429Y-65299771D01*
X155872543Y-65299771D01*
X155930601Y-65270743D01*
X155959629Y-65241714D01*
X155988658Y-65183657D01*
X155988658Y-64690171D01*
X156540201Y-64690171D02*
X156424087Y-64690171D01*
X156366030Y-64719200D01*
X156337001Y-64748229D01*
X156278944Y-64835314D01*
X156249915Y-64951429D01*
X156249915Y-65183657D01*
X156278944Y-65241714D01*
X156307972Y-65270743D01*
X156366030Y-65299771D01*
X156482144Y-65299771D01*
X156540201Y-65270743D01*
X156569230Y-65241714D01*
X156598258Y-65183657D01*
X156598258Y-65038514D01*
X156569230Y-64980457D01*
X156540201Y-64951429D01*
X156482144Y-64922400D01*
X156366030Y-64922400D01*
X156307972Y-64951429D01*
X156278944Y-64980457D01*
X156249915Y-65038514D01*
X157498143Y-65532000D02*
X157469115Y-65502971D01*
X157411058Y-65415886D01*
X157382029Y-65357829D01*
X157353000Y-65270743D01*
X157323972Y-65125600D01*
X157323972Y-65009486D01*
X157353000Y-64864343D01*
X157382029Y-64777257D01*
X157411058Y-64719200D01*
X157469115Y-64632114D01*
X157498143Y-64603086D01*
X157672315Y-64690171D02*
X158078715Y-65299771D01*
X158078715Y-64690171D02*
X157672315Y-65299771D01*
X158514143Y-64980457D02*
X158601229Y-65009486D01*
X158630257Y-65038514D01*
X158659286Y-65096571D01*
X158659286Y-65183657D01*
X158630257Y-65241714D01*
X158601229Y-65270743D01*
X158543171Y-65299771D01*
X158310943Y-65299771D01*
X158310943Y-64690171D01*
X158514143Y-64690171D01*
X158572200Y-64719200D01*
X158601229Y-64748229D01*
X158630257Y-64806286D01*
X158630257Y-64864343D01*
X158601229Y-64922400D01*
X158572200Y-64951429D01*
X158514143Y-64980457D01*
X158310943Y-64980457D01*
X159152771Y-65270743D02*
X159094714Y-65299771D01*
X158978600Y-65299771D01*
X158920543Y-65270743D01*
X158891514Y-65212686D01*
X158891514Y-64980457D01*
X158920543Y-64922400D01*
X158978600Y-64893371D01*
X159094714Y-64893371D01*
X159152771Y-64922400D01*
X159181800Y-64980457D01*
X159181800Y-65038514D01*
X158891514Y-65096571D01*
X159675285Y-65270743D02*
X159617228Y-65299771D01*
X159501114Y-65299771D01*
X159443057Y-65270743D01*
X159414028Y-65212686D01*
X159414028Y-64980457D01*
X159443057Y-64922400D01*
X159501114Y-64893371D01*
X159617228Y-64893371D01*
X159675285Y-64922400D01*
X159704314Y-64980457D01*
X159704314Y-65038514D01*
X159414028Y-65096571D01*
X159907514Y-65532000D02*
X159936542Y-65502971D01*
X159994599Y-65415886D01*
X160023628Y-65357829D01*
X160052657Y-65270743D01*
X160081685Y-65125600D01*
X160081685Y-65009486D01*
X160052657Y-64864343D01*
X160023628Y-64777257D01*
X159994599Y-64719200D01*
X159936542Y-64632114D01*
X159907514Y-64603086D01*
X147530458Y-57451171D02*
X147936858Y-58060771D01*
X147936858Y-57451171D02*
X147530458Y-58060771D01*
X148372286Y-57741457D02*
X148459372Y-57770486D01*
X148488400Y-57799514D01*
X148517429Y-57857571D01*
X148517429Y-57944657D01*
X148488400Y-58002714D01*
X148459372Y-58031743D01*
X148401314Y-58060771D01*
X148169086Y-58060771D01*
X148169086Y-57451171D01*
X148372286Y-57451171D01*
X148430343Y-57480200D01*
X148459372Y-57509229D01*
X148488400Y-57567286D01*
X148488400Y-57625343D01*
X148459372Y-57683400D01*
X148430343Y-57712429D01*
X148372286Y-57741457D01*
X148169086Y-57741457D01*
X148778686Y-57741457D02*
X148981886Y-57741457D01*
X149068972Y-58060771D02*
X148778686Y-58060771D01*
X148778686Y-57451171D01*
X149068972Y-57451171D01*
X149330229Y-57741457D02*
X149533429Y-57741457D01*
X149620515Y-58060771D02*
X149330229Y-58060771D01*
X149330229Y-57451171D01*
X149620515Y-57451171D01*
D17*
X166761886Y-83832579D02*
X166181315Y-83832579D01*
X166471601Y-83832579D02*
X166471601Y-82816579D01*
X166374839Y-82961722D01*
X166278077Y-83058484D01*
X166181315Y-83106865D01*
D12*
X177466667Y-87292381D02*
X177466667Y-88006667D01*
X177419047Y-88149524D01*
X177323809Y-88244762D01*
X177180952Y-88292381D01*
X177085714Y-88292381D01*
X177847619Y-87292381D02*
X178466667Y-87292381D01*
X178133333Y-87673333D01*
X178276191Y-87673333D01*
X178371429Y-87720952D01*
X178419048Y-87768571D01*
X178466667Y-87863810D01*
X178466667Y-88101905D01*
X178419048Y-88197143D01*
X178371429Y-88244762D01*
X178276191Y-88292381D01*
X177990476Y-88292381D01*
X177895238Y-88244762D01*
X177847619Y-88197143D01*
X168124143Y-94527666D02*
X168171762Y-94575285D01*
X168219381Y-94718142D01*
X168219381Y-94813380D01*
X168171762Y-94956238D01*
X168076524Y-95051476D01*
X167981286Y-95099095D01*
X167790810Y-95146714D01*
X167647952Y-95146714D01*
X167457476Y-95099095D01*
X167362238Y-95051476D01*
X167267000Y-94956238D01*
X167219381Y-94813380D01*
X167219381Y-94718142D01*
X167267000Y-94575285D01*
X167314619Y-94527666D01*
X168219381Y-93575285D02*
X168219381Y-94146714D01*
X168219381Y-93861000D02*
X167219381Y-93861000D01*
X167362238Y-93956238D01*
X167457476Y-94051476D01*
X167505095Y-94146714D01*
X161520143Y-96305666D02*
X161567762Y-96353285D01*
X161615381Y-96496142D01*
X161615381Y-96591380D01*
X161567762Y-96734238D01*
X161472524Y-96829476D01*
X161377286Y-96877095D01*
X161186810Y-96924714D01*
X161043952Y-96924714D01*
X160853476Y-96877095D01*
X160758238Y-96829476D01*
X160663000Y-96734238D01*
X160615381Y-96591380D01*
X160615381Y-96496142D01*
X160663000Y-96353285D01*
X160710619Y-96305666D01*
X160710619Y-95924714D02*
X160663000Y-95877095D01*
X160615381Y-95781857D01*
X160615381Y-95543761D01*
X160663000Y-95448523D01*
X160710619Y-95400904D01*
X160805857Y-95353285D01*
X160901095Y-95353285D01*
X161043952Y-95400904D01*
X161615381Y-95972333D01*
X161615381Y-95353285D01*
X174982143Y-87669666D02*
X175029762Y-87717285D01*
X175077381Y-87860142D01*
X175077381Y-87955380D01*
X175029762Y-88098238D01*
X174934524Y-88193476D01*
X174839286Y-88241095D01*
X174648810Y-88288714D01*
X174505952Y-88288714D01*
X174315476Y-88241095D01*
X174220238Y-88193476D01*
X174125000Y-88098238D01*
X174077381Y-87955380D01*
X174077381Y-87860142D01*
X174125000Y-87717285D01*
X174172619Y-87669666D01*
X174410714Y-86812523D02*
X175077381Y-86812523D01*
X174029762Y-87050619D02*
X174744048Y-87288714D01*
X174744048Y-86669666D01*
X172442143Y-96051666D02*
X172489762Y-96099285D01*
X172537381Y-96242142D01*
X172537381Y-96337380D01*
X172489762Y-96480238D01*
X172394524Y-96575476D01*
X172299286Y-96623095D01*
X172108810Y-96670714D01*
X171965952Y-96670714D01*
X171775476Y-96623095D01*
X171680238Y-96575476D01*
X171585000Y-96480238D01*
X171537381Y-96337380D01*
X171537381Y-96242142D01*
X171585000Y-96099285D01*
X171632619Y-96051666D01*
X171537381Y-95146904D02*
X171537381Y-95623095D01*
X172013571Y-95670714D01*
X171965952Y-95623095D01*
X171918333Y-95527857D01*
X171918333Y-95289761D01*
X171965952Y-95194523D01*
X172013571Y-95146904D01*
X172108810Y-95099285D01*
X172346905Y-95099285D01*
X172442143Y-95146904D01*
X172489762Y-95194523D01*
X172537381Y-95289761D01*
X172537381Y-95527857D01*
X172489762Y-95623095D01*
X172442143Y-95670714D01*
X166203334Y-78462143D02*
X166155715Y-78509762D01*
X166012858Y-78557381D01*
X165917620Y-78557381D01*
X165774762Y-78509762D01*
X165679524Y-78414524D01*
X165631905Y-78319286D01*
X165584286Y-78128810D01*
X165584286Y-77985952D01*
X165631905Y-77795476D01*
X165679524Y-77700238D01*
X165774762Y-77605000D01*
X165917620Y-77557381D01*
X166012858Y-77557381D01*
X166155715Y-77605000D01*
X166203334Y-77652619D01*
X166774762Y-77985952D02*
X166679524Y-77938333D01*
X166631905Y-77890714D01*
X166584286Y-77795476D01*
X166584286Y-77747857D01*
X166631905Y-77652619D01*
X166679524Y-77605000D01*
X166774762Y-77557381D01*
X166965239Y-77557381D01*
X167060477Y-77605000D01*
X167108096Y-77652619D01*
X167155715Y-77747857D01*
X167155715Y-77795476D01*
X167108096Y-77890714D01*
X167060477Y-77938333D01*
X166965239Y-77985952D01*
X166774762Y-77985952D01*
X166679524Y-78033571D01*
X166631905Y-78081190D01*
X166584286Y-78176429D01*
X166584286Y-78366905D01*
X166631905Y-78462143D01*
X166679524Y-78509762D01*
X166774762Y-78557381D01*
X166965239Y-78557381D01*
X167060477Y-78509762D01*
X167108096Y-78462143D01*
X167155715Y-78366905D01*
X167155715Y-78176429D01*
X167108096Y-78081190D01*
X167060477Y-78033571D01*
X166965239Y-77985952D01*
X161869381Y-91035095D02*
X160869381Y-91035095D01*
X160869381Y-90797000D01*
X160917000Y-90654142D01*
X161012238Y-90558904D01*
X161107476Y-90511285D01*
X161297952Y-90463666D01*
X161440810Y-90463666D01*
X161631286Y-90511285D01*
X161726524Y-90558904D01*
X161821762Y-90654142D01*
X161869381Y-90797000D01*
X161869381Y-91035095D01*
X161869381Y-89511285D02*
X161869381Y-90082714D01*
X161869381Y-89797000D02*
X160869381Y-89797000D01*
X161012238Y-89892238D01*
X161107476Y-89987476D01*
X161155095Y-90082714D01*
X164917381Y-91035095D02*
X163917381Y-91035095D01*
X163917381Y-90797000D01*
X163965000Y-90654142D01*
X164060238Y-90558904D01*
X164155476Y-90511285D01*
X164345952Y-90463666D01*
X164488810Y-90463666D01*
X164679286Y-90511285D01*
X164774524Y-90558904D01*
X164869762Y-90654142D01*
X164917381Y-90797000D01*
X164917381Y-91035095D01*
X164012619Y-90082714D02*
X163965000Y-90035095D01*
X163917381Y-89939857D01*
X163917381Y-89701761D01*
X163965000Y-89606523D01*
X164012619Y-89558904D01*
X164107857Y-89511285D01*
X164203095Y-89511285D01*
X164345952Y-89558904D01*
X164917381Y-90130333D01*
X164917381Y-89511285D01*
X174553571Y-98750333D02*
X174553571Y-99083667D01*
X175077381Y-99083667D02*
X174077381Y-99083667D01*
X174077381Y-98607476D01*
X174553571Y-97893190D02*
X174601190Y-97750333D01*
X174648810Y-97702714D01*
X174744048Y-97655095D01*
X174886905Y-97655095D01*
X174982143Y-97702714D01*
X175029762Y-97750333D01*
X175077381Y-97845571D01*
X175077381Y-98226524D01*
X174077381Y-98226524D01*
X174077381Y-97893190D01*
X174125000Y-97797952D01*
X174172619Y-97750333D01*
X174267857Y-97702714D01*
X174363095Y-97702714D01*
X174458333Y-97750333D01*
X174505952Y-97797952D01*
X174553571Y-97893190D01*
X174553571Y-98226524D01*
X175077381Y-96702714D02*
X175077381Y-97274143D01*
X175077381Y-96988429D02*
X174077381Y-96988429D01*
X174220238Y-97083667D01*
X174315476Y-97178905D01*
X174363095Y-97274143D01*
X173553381Y-112815666D02*
X173553381Y-113291857D01*
X172553381Y-113291857D01*
X173553381Y-111958523D02*
X173553381Y-112529952D01*
X173553381Y-112244238D02*
X172553381Y-112244238D01*
X172696238Y-112339476D01*
X172791476Y-112434714D01*
X172839095Y-112529952D01*
X153193762Y-66968619D02*
X153098524Y-66921000D01*
X153003286Y-66825762D01*
X152860429Y-66682905D01*
X152765190Y-66635286D01*
X152669952Y-66635286D01*
X152717571Y-66873381D02*
X152622333Y-66825762D01*
X152527095Y-66730524D01*
X152479476Y-66540048D01*
X152479476Y-66206714D01*
X152527095Y-66016238D01*
X152622333Y-65921000D01*
X152717571Y-65873381D01*
X152908048Y-65873381D01*
X153003286Y-65921000D01*
X153098524Y-66016238D01*
X153146143Y-66206714D01*
X153146143Y-66540048D01*
X153098524Y-66730524D01*
X153003286Y-66825762D01*
X152908048Y-66873381D01*
X152717571Y-66873381D01*
X154098524Y-66873381D02*
X153527095Y-66873381D01*
X153812809Y-66873381D02*
X153812809Y-65873381D01*
X153717571Y-66016238D01*
X153622333Y-66111476D01*
X153527095Y-66159095D01*
X163099762Y-67222619D02*
X163004524Y-67175000D01*
X162909286Y-67079762D01*
X162766429Y-66936905D01*
X162671190Y-66889286D01*
X162575952Y-66889286D01*
X162623571Y-67127381D02*
X162528333Y-67079762D01*
X162433095Y-66984524D01*
X162385476Y-66794048D01*
X162385476Y-66460714D01*
X162433095Y-66270238D01*
X162528333Y-66175000D01*
X162623571Y-66127381D01*
X162814048Y-66127381D01*
X162909286Y-66175000D01*
X163004524Y-66270238D01*
X163052143Y-66460714D01*
X163052143Y-66794048D01*
X163004524Y-66984524D01*
X162909286Y-67079762D01*
X162814048Y-67127381D01*
X162623571Y-67127381D01*
X163433095Y-66222619D02*
X163480714Y-66175000D01*
X163575952Y-66127381D01*
X163814048Y-66127381D01*
X163909286Y-66175000D01*
X163956905Y-66222619D01*
X164004524Y-66317857D01*
X164004524Y-66413095D01*
X163956905Y-66555952D01*
X163385476Y-67127381D01*
X164004524Y-67127381D01*
X177506334Y-96083381D02*
X177173000Y-95607190D01*
X176934905Y-96083381D02*
X176934905Y-95083381D01*
X177315858Y-95083381D01*
X177411096Y-95131000D01*
X177458715Y-95178619D01*
X177506334Y-95273857D01*
X177506334Y-95416714D01*
X177458715Y-95511952D01*
X177411096Y-95559571D01*
X177315858Y-95607190D01*
X176934905Y-95607190D01*
X177839667Y-95083381D02*
X178458715Y-95083381D01*
X178125381Y-95464333D01*
X178268239Y-95464333D01*
X178363477Y-95511952D01*
X178411096Y-95559571D01*
X178458715Y-95654810D01*
X178458715Y-95892905D01*
X178411096Y-95988143D01*
X178363477Y-96035762D01*
X178268239Y-96083381D01*
X177982524Y-96083381D01*
X177887286Y-96035762D01*
X177839667Y-95988143D01*
X163139381Y-99353666D02*
X162663190Y-99687000D01*
X163139381Y-99925095D02*
X162139381Y-99925095D01*
X162139381Y-99544142D01*
X162187000Y-99448904D01*
X162234619Y-99401285D01*
X162329857Y-99353666D01*
X162472714Y-99353666D01*
X162567952Y-99401285D01*
X162615571Y-99448904D01*
X162663190Y-99544142D01*
X162663190Y-99925095D01*
X162139381Y-98496523D02*
X162139381Y-98687000D01*
X162187000Y-98782238D01*
X162234619Y-98829857D01*
X162377476Y-98925095D01*
X162567952Y-98972714D01*
X162948905Y-98972714D01*
X163044143Y-98925095D01*
X163091762Y-98877476D01*
X163139381Y-98782238D01*
X163139381Y-98591761D01*
X163091762Y-98496523D01*
X163044143Y-98448904D01*
X162948905Y-98401285D01*
X162710810Y-98401285D01*
X162615571Y-98448904D01*
X162567952Y-98496523D01*
X162520333Y-98591761D01*
X162520333Y-98782238D01*
X162567952Y-98877476D01*
X162615571Y-98925095D01*
X162710810Y-98972714D01*
X166187381Y-99353666D02*
X165711190Y-99687000D01*
X166187381Y-99925095D02*
X165187381Y-99925095D01*
X165187381Y-99544142D01*
X165235000Y-99448904D01*
X165282619Y-99401285D01*
X165377857Y-99353666D01*
X165520714Y-99353666D01*
X165615952Y-99401285D01*
X165663571Y-99448904D01*
X165711190Y-99544142D01*
X165711190Y-99925095D01*
X165187381Y-99020333D02*
X165187381Y-98353666D01*
X166187381Y-98782238D01*
X165822334Y-111577381D02*
X165489000Y-111101190D01*
X165250905Y-111577381D02*
X165250905Y-110577381D01*
X165631858Y-110577381D01*
X165727096Y-110625000D01*
X165774715Y-110672619D01*
X165822334Y-110767857D01*
X165822334Y-110910714D01*
X165774715Y-111005952D01*
X165727096Y-111053571D01*
X165631858Y-111101190D01*
X165250905Y-111101190D01*
X166393762Y-111005952D02*
X166298524Y-110958333D01*
X166250905Y-110910714D01*
X166203286Y-110815476D01*
X166203286Y-110767857D01*
X166250905Y-110672619D01*
X166298524Y-110625000D01*
X166393762Y-110577381D01*
X166584239Y-110577381D01*
X166679477Y-110625000D01*
X166727096Y-110672619D01*
X166774715Y-110767857D01*
X166774715Y-110815476D01*
X166727096Y-110910714D01*
X166679477Y-110958333D01*
X166584239Y-111005952D01*
X166393762Y-111005952D01*
X166298524Y-111053571D01*
X166250905Y-111101190D01*
X166203286Y-111196429D01*
X166203286Y-111386905D01*
X166250905Y-111482143D01*
X166298524Y-111529762D01*
X166393762Y-111577381D01*
X166584239Y-111577381D01*
X166679477Y-111529762D01*
X166727096Y-111482143D01*
X166774715Y-111386905D01*
X166774715Y-111196429D01*
X166727096Y-111101190D01*
X166679477Y-111053571D01*
X166584239Y-111005952D01*
X170822881Y-104243166D02*
X170346690Y-104576500D01*
X170822881Y-104814595D02*
X169822881Y-104814595D01*
X169822881Y-104433642D01*
X169870500Y-104338404D01*
X169918119Y-104290785D01*
X170013357Y-104243166D01*
X170156214Y-104243166D01*
X170251452Y-104290785D01*
X170299071Y-104338404D01*
X170346690Y-104433642D01*
X170346690Y-104814595D01*
X170822881Y-103766976D02*
X170822881Y-103576500D01*
X170775262Y-103481261D01*
X170727643Y-103433642D01*
X170584786Y-103338404D01*
X170394310Y-103290785D01*
X170013357Y-103290785D01*
X169918119Y-103338404D01*
X169870500Y-103386023D01*
X169822881Y-103481261D01*
X169822881Y-103671738D01*
X169870500Y-103766976D01*
X169918119Y-103814595D01*
X170013357Y-103862214D01*
X170251452Y-103862214D01*
X170346690Y-103814595D01*
X170394310Y-103766976D01*
X170441929Y-103671738D01*
X170441929Y-103481261D01*
X170394310Y-103386023D01*
X170346690Y-103338404D01*
X170251452Y-103290785D01*
X164462381Y-81922857D02*
X163986190Y-82256191D01*
X164462381Y-82494286D02*
X163462381Y-82494286D01*
X163462381Y-82113333D01*
X163510000Y-82018095D01*
X163557619Y-81970476D01*
X163652857Y-81922857D01*
X163795714Y-81922857D01*
X163890952Y-81970476D01*
X163938571Y-82018095D01*
X163986190Y-82113333D01*
X163986190Y-82494286D01*
X164462381Y-80970476D02*
X164462381Y-81541905D01*
X164462381Y-81256191D02*
X163462381Y-81256191D01*
X163605238Y-81351429D01*
X163700476Y-81446667D01*
X163748095Y-81541905D01*
X163462381Y-80351429D02*
X163462381Y-80256190D01*
X163510000Y-80160952D01*
X163557619Y-80113333D01*
X163652857Y-80065714D01*
X163843333Y-80018095D01*
X164081429Y-80018095D01*
X164271905Y-80065714D01*
X164367143Y-80113333D01*
X164414762Y-80160952D01*
X164462381Y-80256190D01*
X164462381Y-80351429D01*
X164414762Y-80446667D01*
X164367143Y-80494286D01*
X164271905Y-80541905D01*
X164081429Y-80589524D01*
X163843333Y-80589524D01*
X163652857Y-80541905D01*
X163557619Y-80494286D01*
X163510000Y-80446667D01*
X163462381Y-80351429D01*
X157200714Y-80749857D02*
X157200714Y-81721286D01*
X157257857Y-81835571D01*
X157315000Y-81892714D01*
X157429286Y-81949857D01*
X157657857Y-81949857D01*
X157772143Y-81892714D01*
X157829286Y-81835571D01*
X157886429Y-81721286D01*
X157886429Y-80749857D01*
X158515000Y-81949857D02*
X158743572Y-81949857D01*
X158857857Y-81892714D01*
X158915000Y-81835571D01*
X159029286Y-81664143D01*
X159086429Y-81435571D01*
X159086429Y-80978429D01*
X159029286Y-80864143D01*
X158972143Y-80807000D01*
X158857857Y-80749857D01*
X158629286Y-80749857D01*
X158515000Y-80807000D01*
X158457857Y-80864143D01*
X158400714Y-80978429D01*
X158400714Y-81264143D01*
X158457857Y-81378429D01*
X158515000Y-81435571D01*
X158629286Y-81492714D01*
X158857857Y-81492714D01*
X158972143Y-81435571D01*
X159029286Y-81378429D01*
X159086429Y-81264143D01*
X154007143Y-101131666D02*
X154054762Y-101179285D01*
X154102381Y-101322142D01*
X154102381Y-101417380D01*
X154054762Y-101560238D01*
X153959524Y-101655476D01*
X153864286Y-101703095D01*
X153673810Y-101750714D01*
X153530952Y-101750714D01*
X153340476Y-101703095D01*
X153245238Y-101655476D01*
X153150000Y-101560238D01*
X153102381Y-101417380D01*
X153102381Y-101322142D01*
X153150000Y-101179285D01*
X153197619Y-101131666D01*
X154102381Y-100655476D02*
X154102381Y-100465000D01*
X154054762Y-100369761D01*
X154007143Y-100322142D01*
X153864286Y-100226904D01*
X153673810Y-100179285D01*
X153292857Y-100179285D01*
X153197619Y-100226904D01*
X153150000Y-100274523D01*
X153102381Y-100369761D01*
X153102381Y-100560238D01*
X153150000Y-100655476D01*
X153197619Y-100703095D01*
X153292857Y-100750714D01*
X153530952Y-100750714D01*
X153626190Y-100703095D01*
X153673810Y-100655476D01*
X153721429Y-100560238D01*
X153721429Y-100369761D01*
X153673810Y-100274523D01*
X153626190Y-100226904D01*
X153530952Y-100179285D01*
X154007143Y-93987857D02*
X154054762Y-94035476D01*
X154102381Y-94178333D01*
X154102381Y-94273571D01*
X154054762Y-94416429D01*
X153959524Y-94511667D01*
X153864286Y-94559286D01*
X153673810Y-94606905D01*
X153530952Y-94606905D01*
X153340476Y-94559286D01*
X153245238Y-94511667D01*
X153150000Y-94416429D01*
X153102381Y-94273571D01*
X153102381Y-94178333D01*
X153150000Y-94035476D01*
X153197619Y-93987857D01*
X154102381Y-93035476D02*
X154102381Y-93606905D01*
X154102381Y-93321191D02*
X153102381Y-93321191D01*
X153245238Y-93416429D01*
X153340476Y-93511667D01*
X153388095Y-93606905D01*
X153102381Y-92416429D02*
X153102381Y-92321190D01*
X153150000Y-92225952D01*
X153197619Y-92178333D01*
X153292857Y-92130714D01*
X153483333Y-92083095D01*
X153721429Y-92083095D01*
X153911905Y-92130714D01*
X154007143Y-92178333D01*
X154054762Y-92225952D01*
X154102381Y-92321190D01*
X154102381Y-92416429D01*
X154054762Y-92511667D01*
X154007143Y-92559286D01*
X153911905Y-92606905D01*
X153721429Y-92654524D01*
X153483333Y-92654524D01*
X153292857Y-92606905D01*
X153197619Y-92559286D01*
X153150000Y-92511667D01*
X153102381Y-92416429D01*
D16*
X146565258Y-102409171D02*
X146565258Y-102902657D01*
X146594286Y-102960714D01*
X146623315Y-102989743D01*
X146681372Y-103018771D01*
X146797486Y-103018771D01*
X146855544Y-102989743D01*
X146884572Y-102960714D01*
X146913601Y-102902657D01*
X146913601Y-102409171D01*
X147523201Y-103018771D02*
X147174858Y-103018771D01*
X147349030Y-103018771D02*
X147349030Y-102409171D01*
X147290973Y-102496257D01*
X147232915Y-102554314D01*
X147174858Y-102583343D01*
X147900572Y-102409171D02*
X147958629Y-102409171D01*
X148016686Y-102438200D01*
X148045715Y-102467229D01*
X148074744Y-102525286D01*
X148103772Y-102641400D01*
X148103772Y-102786543D01*
X148074744Y-102902657D01*
X148045715Y-102960714D01*
X148016686Y-102989743D01*
X147958629Y-103018771D01*
X147900572Y-103018771D01*
X147842515Y-102989743D01*
X147813486Y-102960714D01*
X147784458Y-102902657D01*
X147755429Y-102786543D01*
X147755429Y-102641400D01*
X147784458Y-102525286D01*
X147813486Y-102467229D01*
X147842515Y-102438200D01*
X147900572Y-102409171D01*
X144141373Y-103145771D02*
X144141373Y-102536171D01*
X144344573Y-102971600D01*
X144547773Y-102536171D01*
X144547773Y-103145771D01*
X144809030Y-103116743D02*
X144896116Y-103145771D01*
X145041259Y-103145771D01*
X145099316Y-103116743D01*
X145128345Y-103087714D01*
X145157373Y-103029657D01*
X145157373Y-102971600D01*
X145128345Y-102913543D01*
X145099316Y-102884514D01*
X145041259Y-102855486D01*
X144925145Y-102826457D01*
X144867087Y-102797429D01*
X144838059Y-102768400D01*
X144809030Y-102710343D01*
X144809030Y-102652286D01*
X144838059Y-102594229D01*
X144867087Y-102565200D01*
X144925145Y-102536171D01*
X145070287Y-102536171D01*
X145157373Y-102565200D01*
X145708916Y-102536171D02*
X145418630Y-102536171D01*
X145389601Y-102826457D01*
X145418630Y-102797429D01*
X145476687Y-102768400D01*
X145621830Y-102768400D01*
X145679887Y-102797429D01*
X145708916Y-102826457D01*
X145737944Y-102884514D01*
X145737944Y-103029657D01*
X145708916Y-103087714D01*
X145679887Y-103116743D01*
X145621830Y-103145771D01*
X145476687Y-103145771D01*
X145418630Y-103116743D01*
X145389601Y-103087714D01*
X146086287Y-102797429D02*
X146028229Y-102768400D01*
X145999201Y-102739371D01*
X145970172Y-102681314D01*
X145970172Y-102652286D01*
X145999201Y-102594229D01*
X146028229Y-102565200D01*
X146086287Y-102536171D01*
X146202401Y-102536171D01*
X146260458Y-102565200D01*
X146289487Y-102594229D01*
X146318515Y-102652286D01*
X146318515Y-102681314D01*
X146289487Y-102739371D01*
X146260458Y-102768400D01*
X146202401Y-102797429D01*
X146086287Y-102797429D01*
X146028229Y-102826457D01*
X145999201Y-102855486D01*
X145970172Y-102913543D01*
X145970172Y-103029657D01*
X145999201Y-103087714D01*
X146028229Y-103116743D01*
X146086287Y-103145771D01*
X146202401Y-103145771D01*
X146260458Y-103116743D01*
X146289487Y-103087714D01*
X146318515Y-103029657D01*
X146318515Y-102913543D01*
X146289487Y-102855486D01*
X146260458Y-102826457D01*
X146202401Y-102797429D01*
X146695886Y-102536171D02*
X146753943Y-102536171D01*
X146812000Y-102565200D01*
X146841029Y-102594229D01*
X146870058Y-102652286D01*
X146899086Y-102768400D01*
X146899086Y-102913543D01*
X146870058Y-103029657D01*
X146841029Y-103087714D01*
X146812000Y-103116743D01*
X146753943Y-103145771D01*
X146695886Y-103145771D01*
X146637829Y-103116743D01*
X146608800Y-103087714D01*
X146579772Y-103029657D01*
X146550743Y-102913543D01*
X146550743Y-102768400D01*
X146579772Y-102652286D01*
X146608800Y-102594229D01*
X146637829Y-102565200D01*
X146695886Y-102536171D01*
X147102286Y-102536171D02*
X147479657Y-102536171D01*
X147276457Y-102768400D01*
X147363543Y-102768400D01*
X147421600Y-102797429D01*
X147450629Y-102826457D01*
X147479657Y-102884514D01*
X147479657Y-103029657D01*
X147450629Y-103087714D01*
X147421600Y-103116743D01*
X147363543Y-103145771D01*
X147189371Y-103145771D01*
X147131314Y-103116743D01*
X147102286Y-103087714D01*
X147740914Y-102913543D02*
X148205371Y-102913543D01*
X148814971Y-103145771D02*
X148466628Y-103145771D01*
X148640800Y-103145771D02*
X148640800Y-102536171D01*
X148582743Y-102623257D01*
X148524685Y-102681314D01*
X148466628Y-102710343D01*
X149337485Y-102739371D02*
X149337485Y-103145771D01*
X149192342Y-102507143D02*
X149047199Y-102942571D01*
X149424571Y-102942571D01*
X149859999Y-102826457D02*
X149947085Y-102855486D01*
X149976113Y-102884514D01*
X150005142Y-102942571D01*
X150005142Y-103029657D01*
X149976113Y-103087714D01*
X149947085Y-103116743D01*
X149889027Y-103145771D01*
X149656799Y-103145771D01*
X149656799Y-102536171D01*
X149859999Y-102536171D01*
X149918056Y-102565200D01*
X149947085Y-102594229D01*
X149976113Y-102652286D01*
X149976113Y-102710343D01*
X149947085Y-102768400D01*
X149918056Y-102797429D01*
X149859999Y-102826457D01*
X149656799Y-102826457D01*
X150237370Y-102971600D02*
X150527656Y-102971600D01*
X150179313Y-103145771D02*
X150382513Y-102536171D01*
X150585713Y-103145771D01*
X146565258Y-87423171D02*
X146565258Y-87916657D01*
X146594286Y-87974714D01*
X146623315Y-88003743D01*
X146681372Y-88032771D01*
X146797486Y-88032771D01*
X146855544Y-88003743D01*
X146884572Y-87974714D01*
X146913601Y-87916657D01*
X146913601Y-87423171D01*
X147523201Y-88032771D02*
X147174858Y-88032771D01*
X147349030Y-88032771D02*
X147349030Y-87423171D01*
X147290973Y-87510257D01*
X147232915Y-87568314D01*
X147174858Y-87597343D01*
X148103772Y-88032771D02*
X147755429Y-88032771D01*
X147929601Y-88032771D02*
X147929601Y-87423171D01*
X147871544Y-87510257D01*
X147813486Y-87568314D01*
X147755429Y-87597343D01*
X144141373Y-95525771D02*
X144141373Y-94916171D01*
X144344573Y-95351600D01*
X144547773Y-94916171D01*
X144547773Y-95525771D01*
X144809030Y-95496743D02*
X144896116Y-95525771D01*
X145041259Y-95525771D01*
X145099316Y-95496743D01*
X145128345Y-95467714D01*
X145157373Y-95409657D01*
X145157373Y-95351600D01*
X145128345Y-95293543D01*
X145099316Y-95264514D01*
X145041259Y-95235486D01*
X144925145Y-95206457D01*
X144867087Y-95177429D01*
X144838059Y-95148400D01*
X144809030Y-95090343D01*
X144809030Y-95032286D01*
X144838059Y-94974229D01*
X144867087Y-94945200D01*
X144925145Y-94916171D01*
X145070287Y-94916171D01*
X145157373Y-94945200D01*
X145708916Y-94916171D02*
X145418630Y-94916171D01*
X145389601Y-95206457D01*
X145418630Y-95177429D01*
X145476687Y-95148400D01*
X145621830Y-95148400D01*
X145679887Y-95177429D01*
X145708916Y-95206457D01*
X145737944Y-95264514D01*
X145737944Y-95409657D01*
X145708916Y-95467714D01*
X145679887Y-95496743D01*
X145621830Y-95525771D01*
X145476687Y-95525771D01*
X145418630Y-95496743D01*
X145389601Y-95467714D01*
X146086287Y-95177429D02*
X146028229Y-95148400D01*
X145999201Y-95119371D01*
X145970172Y-95061314D01*
X145970172Y-95032286D01*
X145999201Y-94974229D01*
X146028229Y-94945200D01*
X146086287Y-94916171D01*
X146202401Y-94916171D01*
X146260458Y-94945200D01*
X146289487Y-94974229D01*
X146318515Y-95032286D01*
X146318515Y-95061314D01*
X146289487Y-95119371D01*
X146260458Y-95148400D01*
X146202401Y-95177429D01*
X146086287Y-95177429D01*
X146028229Y-95206457D01*
X145999201Y-95235486D01*
X145970172Y-95293543D01*
X145970172Y-95409657D01*
X145999201Y-95467714D01*
X146028229Y-95496743D01*
X146086287Y-95525771D01*
X146202401Y-95525771D01*
X146260458Y-95496743D01*
X146289487Y-95467714D01*
X146318515Y-95409657D01*
X146318515Y-95293543D01*
X146289487Y-95235486D01*
X146260458Y-95206457D01*
X146202401Y-95177429D01*
X146695886Y-94916171D02*
X146753943Y-94916171D01*
X146812000Y-94945200D01*
X146841029Y-94974229D01*
X146870058Y-95032286D01*
X146899086Y-95148400D01*
X146899086Y-95293543D01*
X146870058Y-95409657D01*
X146841029Y-95467714D01*
X146812000Y-95496743D01*
X146753943Y-95525771D01*
X146695886Y-95525771D01*
X146637829Y-95496743D01*
X146608800Y-95467714D01*
X146579772Y-95409657D01*
X146550743Y-95293543D01*
X146550743Y-95148400D01*
X146579772Y-95032286D01*
X146608800Y-94974229D01*
X146637829Y-94945200D01*
X146695886Y-94916171D01*
X147102286Y-94916171D02*
X147479657Y-94916171D01*
X147276457Y-95148400D01*
X147363543Y-95148400D01*
X147421600Y-95177429D01*
X147450629Y-95206457D01*
X147479657Y-95264514D01*
X147479657Y-95409657D01*
X147450629Y-95467714D01*
X147421600Y-95496743D01*
X147363543Y-95525771D01*
X147189371Y-95525771D01*
X147131314Y-95496743D01*
X147102286Y-95467714D01*
X147740914Y-95293543D02*
X148205371Y-95293543D01*
X148814971Y-95525771D02*
X148466628Y-95525771D01*
X148640800Y-95525771D02*
X148640800Y-94916171D01*
X148582743Y-95003257D01*
X148524685Y-95061314D01*
X148466628Y-95090343D01*
X149337485Y-95119371D02*
X149337485Y-95525771D01*
X149192342Y-94887143D02*
X149047199Y-95322571D01*
X149424571Y-95322571D01*
X149859999Y-95206457D02*
X149947085Y-95235486D01*
X149976113Y-95264514D01*
X150005142Y-95322571D01*
X150005142Y-95409657D01*
X149976113Y-95467714D01*
X149947085Y-95496743D01*
X149889027Y-95525771D01*
X149656799Y-95525771D01*
X149656799Y-94916171D01*
X149859999Y-94916171D01*
X149918056Y-94945200D01*
X149947085Y-94974229D01*
X149976113Y-95032286D01*
X149976113Y-95090343D01*
X149947085Y-95148400D01*
X149918056Y-95177429D01*
X149859999Y-95206457D01*
X149656799Y-95206457D01*
X150237370Y-95351600D02*
X150527656Y-95351600D01*
X150179313Y-95525771D02*
X150382513Y-94916171D01*
X150585713Y-95525771D01*
D12*
X174926667Y-55412381D02*
X174926667Y-56126667D01*
X174879047Y-56269524D01*
X174783809Y-56364762D01*
X174640952Y-56412381D01*
X174545714Y-56412381D01*
X175831429Y-55745714D02*
X175831429Y-56412381D01*
X175593333Y-55364762D02*
X175355238Y-56079048D01*
X175974286Y-56079048D01*
X149987095Y-89487381D02*
X149987095Y-90296905D01*
X150034714Y-90392143D01*
X150082333Y-90439762D01*
X150177571Y-90487381D01*
X150368048Y-90487381D01*
X150463286Y-90439762D01*
X150510905Y-90392143D01*
X150558524Y-90296905D01*
X150558524Y-89487381D01*
X151510905Y-89487381D02*
X151034714Y-89487381D01*
X150987095Y-89963571D01*
X151034714Y-89915952D01*
X151129952Y-89868333D01*
X151368048Y-89868333D01*
X151463286Y-89915952D01*
X151510905Y-89963571D01*
X151558524Y-90058810D01*
X151558524Y-90296905D01*
X151510905Y-90392143D01*
X151463286Y-90439762D01*
X151368048Y-90487381D01*
X151129952Y-90487381D01*
X151034714Y-90439762D01*
X150987095Y-90392143D01*
X163115667Y-111891381D02*
X163115667Y-112605667D01*
X163068047Y-112748524D01*
X162972809Y-112843762D01*
X162829952Y-112891381D01*
X162734714Y-112891381D01*
X164068048Y-111891381D02*
X163591857Y-111891381D01*
X163544238Y-112367571D01*
X163591857Y-112319952D01*
X163687095Y-112272333D01*
X163925191Y-112272333D01*
X164020429Y-112319952D01*
X164068048Y-112367571D01*
X164115667Y-112462810D01*
X164115667Y-112700905D01*
X164068048Y-112796143D01*
X164020429Y-112843762D01*
X163925191Y-112891381D01*
X163687095Y-112891381D01*
X163591857Y-112843762D01*
X163544238Y-112796143D01*
X138326667Y-80472381D02*
X138326667Y-81186667D01*
X138279047Y-81329524D01*
X138183809Y-81424762D01*
X138040952Y-81472381D01*
X137945714Y-81472381D01*
X139326667Y-81472381D02*
X138755238Y-81472381D01*
X139040952Y-81472381D02*
X139040952Y-80472381D01*
X138945714Y-80615238D01*
X138850476Y-80710476D01*
X138755238Y-80758095D01*
X173950334Y-102338143D02*
X173902715Y-102385762D01*
X173759858Y-102433381D01*
X173664620Y-102433381D01*
X173521762Y-102385762D01*
X173426524Y-102290524D01*
X173378905Y-102195286D01*
X173331286Y-102004810D01*
X173331286Y-101861952D01*
X173378905Y-101671476D01*
X173426524Y-101576238D01*
X173521762Y-101481000D01*
X173664620Y-101433381D01*
X173759858Y-101433381D01*
X173902715Y-101481000D01*
X173950334Y-101528619D01*
X174283667Y-101433381D02*
X174950334Y-101433381D01*
X174521762Y-102433381D01*
X164369905Y-101806381D02*
X164369905Y-102615905D01*
X164417524Y-102711143D01*
X164465143Y-102758762D01*
X164560381Y-102806381D01*
X164750858Y-102806381D01*
X164846096Y-102758762D01*
X164893715Y-102711143D01*
X164941334Y-102615905D01*
X164941334Y-101806381D01*
X165941334Y-102806381D02*
X165369905Y-102806381D01*
X165655619Y-102806381D02*
X165655619Y-101806381D01*
X165560381Y-101949238D01*
X165465143Y-102044476D01*
X165369905Y-102092095D01*
X166798477Y-102139714D02*
X166798477Y-102806381D01*
X166560381Y-101758762D02*
X166322286Y-102473048D01*
X166941334Y-102473048D01*
M02*
