G04 #@! TF.FileFunction,Soldermask,Bot*
%FSLAX46Y46*%
G04 Gerber Fmt 4.6, Leading zero omitted, Abs format (unit mm)*
G04 Created by KiCad (PCBNEW 4.0.6) date Sun Jan 14 22:50:12 2018*
%MOMM*%
%LPD*%
G01*
G04 APERTURE LIST*
%ADD10C,0.128000*%
%ADD11C,1.924000*%
%ADD12R,0.950000X1.900000*%
%ADD13R,0.800000X1.900000*%
%ADD14R,1.900000X0.800000*%
%ADD15R,1.650000X0.670000*%
%ADD16R,1.100000X1.900000*%
%ADD17R,1.900000X1.100000*%
%ADD18R,1.900000X1.400000*%
%ADD19C,1.727200*%
%ADD20R,1.416000X1.416000*%
%ADD21O,1.416000X1.416000*%
%ADD22R,2.100000X2.100000*%
%ADD23O,2.100000X2.100000*%
%ADD24R,1.600000X1.150000*%
%ADD25R,1.150000X1.600000*%
%ADD26R,1.600000X1.300000*%
%ADD27R,1.700000X1.700000*%
%ADD28C,1.700000*%
%ADD29C,2.600000*%
%ADD30C,2.400000*%
%ADD31R,1.300000X1.600000*%
%ADD32C,1.162000*%
%ADD33R,1.600000X2.100000*%
%ADD34O,1.600000X2.100000*%
%ADD35C,3.650000*%
G04 APERTURE END LIST*
D10*
D11*
X145161000Y-110363000D03*
X152781000Y-110363000D03*
D12*
X144145000Y-60735000D03*
X144145000Y-67535000D03*
X142875000Y-60735000D03*
X142875000Y-67535000D03*
X141605000Y-60735000D03*
X141605000Y-67535000D03*
X140335000Y-60735000D03*
X140335000Y-67535000D03*
D13*
X169100000Y-100480000D03*
X168300000Y-100480000D03*
X167500000Y-100480000D03*
X166700000Y-100480000D03*
X165900000Y-100480000D03*
X165100000Y-100480000D03*
X164300000Y-100480000D03*
X163500000Y-100480000D03*
X162700000Y-100480000D03*
X161900000Y-100480000D03*
X161100000Y-100480000D03*
D14*
X158600000Y-97980000D03*
X158600000Y-97180000D03*
X158600000Y-96380000D03*
X158600000Y-95580000D03*
X158600000Y-94780000D03*
X158600000Y-93980000D03*
X158600000Y-93180000D03*
X158600000Y-92380000D03*
X158600000Y-91580000D03*
X158600000Y-90780000D03*
X158600000Y-89980000D03*
D13*
X161100000Y-87480000D03*
X161900000Y-87480000D03*
X162700000Y-87480000D03*
X163500000Y-87480000D03*
X164300000Y-87480000D03*
X165100000Y-87480000D03*
X165900000Y-87480000D03*
X166700000Y-87480000D03*
X167500000Y-87480000D03*
X168300000Y-87480000D03*
X169100000Y-87480000D03*
D14*
X171600000Y-89980000D03*
X171600000Y-90780000D03*
X171600000Y-91580000D03*
X171600000Y-92380000D03*
X171600000Y-93180000D03*
X171600000Y-93980000D03*
X171600000Y-94780000D03*
X171600000Y-95580000D03*
X171600000Y-96380000D03*
X171600000Y-97180000D03*
X171600000Y-97980000D03*
D15*
X176950500Y-108886500D03*
X173950500Y-108886500D03*
X176950500Y-108386500D03*
X173950500Y-108386500D03*
X176950500Y-107886500D03*
X173950500Y-107886500D03*
X176950500Y-107386500D03*
X173950500Y-107386500D03*
X176950500Y-106886500D03*
X173950500Y-106886500D03*
D16*
X160160000Y-70970000D03*
D17*
X153760000Y-70570000D03*
X153760000Y-69570000D03*
X153760000Y-68570000D03*
X153760000Y-67570000D03*
X153760000Y-66570000D03*
X153760000Y-65570000D03*
X153760000Y-64570000D03*
X153760000Y-63570000D03*
X153760000Y-62570000D03*
X153760000Y-61570000D03*
X153760000Y-60570000D03*
X153760000Y-59570000D03*
D18*
X153760000Y-58420000D03*
X162560000Y-58420000D03*
D17*
X162560000Y-59570000D03*
X162560000Y-60570000D03*
X162560000Y-61570000D03*
X162560000Y-62570000D03*
X162560000Y-63570000D03*
X162560000Y-64570000D03*
X162560000Y-65570000D03*
X162560000Y-66570000D03*
X162560000Y-67570000D03*
X162560000Y-68570000D03*
X162560000Y-69570000D03*
X162560000Y-70570000D03*
D16*
X159160000Y-70970000D03*
X158160000Y-70970000D03*
X157160000Y-70970000D03*
X156160000Y-70970000D03*
D19*
X168478200Y-82864960D03*
X168478200Y-80863440D03*
X168478200Y-78864460D03*
X168478200Y-76862940D03*
X168478200Y-74863960D03*
X168478200Y-72864980D03*
X168478200Y-70863460D03*
X168478200Y-68864480D03*
X168478200Y-66862960D03*
X168478200Y-64863980D03*
X146481800Y-64863980D03*
X146481800Y-66862960D03*
X146481800Y-68864480D03*
X146481800Y-70863460D03*
X146481800Y-72864980D03*
X146481800Y-74863960D03*
X146481800Y-76862940D03*
X146481800Y-78864460D03*
X146481800Y-80863440D03*
X146481800Y-82864960D03*
D20*
X177165000Y-89535000D03*
D21*
X178435000Y-89535000D03*
X177165000Y-90805000D03*
X178435000Y-90805000D03*
X177165000Y-92075000D03*
X178435000Y-92075000D03*
D22*
X176530000Y-85090000D03*
D23*
X176530000Y-82550000D03*
X176530000Y-80010000D03*
X176530000Y-77470000D03*
X176530000Y-74930000D03*
X176530000Y-72390000D03*
D24*
X162372000Y-102616000D03*
X164272000Y-102616000D03*
D25*
X170370500Y-108836500D03*
X170370500Y-106936500D03*
D26*
X171810500Y-104711500D03*
X174010500Y-104711500D03*
X174010500Y-102806500D03*
X171810500Y-102806500D03*
D11*
X137160000Y-101600000D03*
X137160000Y-99060000D03*
X137160000Y-96520000D03*
X137160000Y-93980000D03*
X137160000Y-91440000D03*
X137160000Y-88900000D03*
X154940000Y-91440000D03*
X154940000Y-93980000D03*
X154940000Y-96520000D03*
X154940000Y-99060000D03*
D27*
X139700000Y-78740000D03*
D28*
X139700000Y-76740000D03*
X139700000Y-74740000D03*
X139700000Y-72740000D03*
X137700000Y-78740000D03*
X137700000Y-76740000D03*
X137700000Y-74740000D03*
X137700000Y-72740000D03*
D29*
X172720000Y-63500000D03*
X172720000Y-58420000D03*
X177800000Y-58420000D03*
X177800000Y-63500000D03*
D30*
X175260000Y-60960000D03*
D31*
X165100000Y-71290000D03*
X165100000Y-73490000D03*
X162560000Y-73830000D03*
X162560000Y-76030000D03*
D25*
X151130000Y-70165000D03*
X151130000Y-68265000D03*
D32*
X152019000Y-90170000D03*
X165163500Y-58991500D03*
X150558500Y-59245500D03*
D22*
X163449000Y-110109000D03*
D23*
X163449000Y-107569000D03*
D33*
X137160000Y-83820000D03*
D34*
X139160000Y-83820000D03*
D32*
X166878000Y-102489000D03*
X151638000Y-66548000D03*
X160147000Y-89027000D03*
D35*
X138303000Y-115697000D03*
X173863000Y-67945000D03*
X137287000Y-58547000D03*
X175387000Y-115443000D03*
D32*
X151638000Y-79247998D03*
X173355000Y-94869000D03*
X161290000Y-97282002D03*
X160120021Y-92329000D03*
X158966619Y-102653381D03*
X179832000Y-95250000D03*
X167640000Y-88900000D03*
X174180500Y-105981500D03*
X148030990Y-69215000D03*
X151257000Y-71755000D03*
X151130000Y-65151000D03*
X153670000Y-88900000D03*
X165481000Y-83947000D03*
X161543998Y-83312000D03*
X163830000Y-81534000D03*
X166116000Y-84963000D03*
X173355000Y-93472000D03*
X157473990Y-74295000D03*
X169037000Y-104293979D03*
X159385000Y-82677000D03*
X161925000Y-88900000D03*
X163195000Y-88900000D03*
X160655000Y-98679000D03*
X170053000Y-93980000D03*
X178181000Y-109728000D03*
X158877000Y-79502000D03*
X161544000Y-77089000D03*
X172466000Y-107061000D03*
X171577000Y-107823000D03*
X170942000Y-79756000D03*
X142748000Y-65278000D03*
X171704004Y-79121000D03*
X141605000Y-65405000D03*
X156972000Y-88773000D03*
X141986000Y-100838000D03*
X142367000Y-92075000D03*
X156845000Y-97663000D03*
X149860000Y-95249998D03*
X148590000Y-95036538D03*
X147701000Y-97409000D03*
X153035000Y-97790000D03*
X153035000Y-96520000D03*
X147320000Y-89535000D03*
X143383000Y-80010000D03*
X144272000Y-85725000D03*
X160909000Y-84530990D03*
X142113000Y-72771000D03*
X164338000Y-84582000D03*
X144018000Y-72771000D03*
X144907002Y-83439000D03*
X160120021Y-85217000D03*
X147828000Y-85903010D03*
X163449000Y-85852000D03*
X164465000Y-98806000D03*
X164211000Y-97028000D03*
X163703000Y-104025977D03*
X164465000Y-94615000D03*
X178181000Y-105156000D03*
M02*
