M48
;DRILL file {KiCad 4.0.6} date Sun Jan 14 22:50:19 2018
;FORMAT={-:-/ absolute / inch / decimal}
FMAT,2
INCH,TZ
T1C0.015
T2C0.026
T3C0.030
T4C0.030
T5C0.031
T6C0.031
T7C0.039
T8C0.059
T9C0.067
T10C0.116
%
G90
G05
M72
T1
X5.575Y-2.575
X5.59Y-3.97
X5.595Y-2.865
X5.605Y-3.625
X5.62Y-2.57
X5.645Y-3.15
X5.67Y-2.865
X5.68Y-3.375
X5.705Y-3.285
X5.8Y-3.525
X5.815Y-3.835
X5.82Y-3.382
X5.828Y-2.725
X5.85Y-3.7416
X5.9Y-3.75
X5.9275Y-2.3325
X5.95Y-2.565
X5.955Y-2.825
X5.97Y-2.62
X5.97Y-3.12
X5.985Y-3.55
X6.025Y-3.8
X6.025Y-3.85
X6.05Y-3.5
X6.175Y-3.845
X6.18Y-3.495
X6.1998Y-2.925
X6.255Y-3.13
X6.2585Y-4.0415
X6.275Y-3.255
X6.3039Y-3.355
X6.3039Y-3.635
X6.305Y-3.505
X6.325Y-3.885
X6.335Y-3.328
X6.35Y-3.83
X6.36Y-3.28
X6.36Y-3.035
X6.375Y-3.5
X6.425Y-3.5
X6.435Y-3.38
X6.445Y-4.0955
X6.45Y-3.21
X6.465Y-3.82
X6.47Y-3.33
X6.475Y-3.725
X6.475Y-3.89
X6.5025Y-2.3225
X6.515Y-3.305
X6.54Y-3.345
X6.57Y-4.035
X6.6Y-3.5
X6.655Y-4.1061
X6.695Y-3.7
X6.73Y-3.14
X6.755Y-4.245
X6.76Y-3.115
X6.79Y-4.215
X6.825Y-3.68
X6.825Y-3.735
X6.8575Y-4.1725
X7.015Y-4.14
X7.015Y-4.32
X7.08Y-3.75
T2
X6.975Y-3.525
X6.975Y-3.575
X6.975Y-3.625
X7.025Y-3.525
X7.025Y-3.575
X7.025Y-3.625
T3
X5.4Y-3.3
X5.4787Y-3.3
T4
X5.4Y-3.5
X5.4Y-3.6
X5.4Y-3.7
X5.4Y-3.8
X5.4Y-3.9
X5.4Y-4.
X6.1Y-3.6
X6.1Y-3.7
X6.1Y-3.8
X6.1Y-3.9
T5
X5.767Y-2.5537
X5.767Y-2.6324
X5.767Y-2.7112
X5.767Y-2.7899
X5.767Y-2.8687
X5.767Y-2.9474
X5.767Y-3.0261
X5.767Y-3.1049
X5.767Y-3.1836
X5.767Y-3.2624
X6.633Y-2.5537
X6.633Y-2.6324
X6.633Y-2.7112
X6.633Y-2.7899
X6.633Y-2.8687
X6.633Y-2.9474
X6.633Y-3.0261
X6.633Y-3.1049
X6.633Y-3.1836
X6.633Y-3.2624
T6
X5.4213Y-2.8638
X5.4213Y-2.9425
X5.4213Y-3.0213
X5.4213Y-3.1
X5.5Y-2.8638
X5.5Y-2.9425
X5.5Y-3.0213
X5.5Y-3.1
T7
X5.715Y-4.345
X6.015Y-4.345
X6.435Y-4.235
X6.435Y-4.335
X6.95Y-2.85
X6.95Y-2.95
X6.95Y-3.05
X6.95Y-3.15
X6.95Y-3.25
X6.95Y-3.35
T8
X6.9Y-2.4
T9
X6.8Y-2.3
X6.8Y-2.5
X7.Y-2.3
X7.Y-2.5
T10
X5.405Y-2.305
X5.445Y-4.555
X6.845Y-2.675
X6.905Y-4.545
T0
M30
