G04 #@! TF.FileFunction,Legend,Top*
%FSLAX46Y46*%
G04 Gerber Fmt 4.6, Leading zero omitted, Abs format (unit mm)*
G04 Created by KiCad (PCBNEW 4.0.7) date 12/26/17 15:46:09*
%MOMM*%
%LPD*%
G01*
G04 APERTURE LIST*
%ADD10C,0.100000*%
%ADD11C,0.200000*%
%ADD12C,0.120000*%
%ADD13C,0.203200*%
%ADD14C,0.150000*%
%ADD15C,0.254000*%
%ADD16C,0.127000*%
%ADD17C,0.152400*%
G04 APERTURE END LIST*
D10*
D11*
X177568903Y-67437000D02*
G75*
G03X177568903Y-67437000I-1419903J0D01*
G01*
X139083051Y-58293000D02*
G75*
G03X139083051Y-58293000I-1796051J0D01*
G01*
X138833903Y-111252000D02*
G75*
G03X138833903Y-111252000I-1419903J0D01*
G01*
X173504903Y-105410000D02*
G75*
G03X173504903Y-105410000I-1419903J0D01*
G01*
D12*
X151720000Y-82923000D02*
X151720000Y-81923000D01*
X153080000Y-81923000D02*
X153080000Y-82923000D01*
X151175000Y-81923000D02*
X151175000Y-82923000D01*
X149815000Y-82923000D02*
X149815000Y-81923000D01*
D13*
X147731480Y-84114640D02*
X145232120Y-84114640D01*
X145232120Y-84114640D02*
X145232120Y-63614300D01*
X145232120Y-63614300D02*
X147731480Y-63614300D01*
X147731480Y-84114640D02*
X147731480Y-63614300D01*
X167228520Y-84114640D02*
X169727880Y-84114640D01*
X169727880Y-84114640D02*
X169727880Y-63614300D01*
X169727880Y-63614300D02*
X167228520Y-63614300D01*
X167228520Y-84114640D02*
X167228520Y-63614300D01*
D12*
X176035000Y-92770000D02*
X176857470Y-92770000D01*
X178742530Y-92770000D02*
X179565000Y-92770000D01*
X177472530Y-92770000D02*
X178127470Y-92770000D01*
X176035000Y-90295000D02*
X176035000Y-92770000D01*
X179565000Y-88840000D02*
X179565000Y-92770000D01*
X176035000Y-90295000D02*
X176601529Y-90295000D01*
X177728471Y-90295000D02*
X177871529Y-90295000D01*
X177925000Y-90241529D02*
X177925000Y-90098471D01*
X177925000Y-88971529D02*
X177925000Y-88840000D01*
X177925000Y-88840000D02*
X178127470Y-88840000D01*
X178742530Y-88840000D02*
X179565000Y-88840000D01*
X176035000Y-89535000D02*
X176035000Y-88775000D01*
X176035000Y-88775000D02*
X177165000Y-88775000D01*
X167040000Y-91790000D02*
X167040000Y-91090000D01*
X168240000Y-91090000D02*
X168240000Y-91790000D01*
X161763000Y-93122000D02*
X161763000Y-93822000D01*
X160563000Y-93822000D02*
X160563000Y-93122000D01*
X175225000Y-90074000D02*
X175225000Y-90774000D01*
X174025000Y-90774000D02*
X174025000Y-90074000D01*
X172558000Y-92614000D02*
X172558000Y-93314000D01*
X171358000Y-93314000D02*
X171358000Y-92614000D01*
X163480000Y-77505000D02*
X164180000Y-77505000D01*
X164180000Y-78705000D02*
X163480000Y-78705000D01*
X162645000Y-93240000D02*
X163745000Y-93240000D01*
X163745000Y-93240000D02*
X163745000Y-90640000D01*
X162645000Y-93240000D02*
X162645000Y-90640000D01*
X165185000Y-93240000D02*
X166285000Y-93240000D01*
X166285000Y-93240000D02*
X166285000Y-90640000D01*
X165185000Y-93240000D02*
X165185000Y-90640000D01*
X175305000Y-94115000D02*
X175305000Y-95115000D01*
X173945000Y-95115000D02*
X173945000Y-94115000D01*
X174050500Y-111586500D02*
X171750500Y-111586500D01*
X171750500Y-111586500D02*
X171750500Y-104186500D01*
X171750500Y-104186500D02*
X174050500Y-104186500D01*
X176850500Y-104186500D02*
X179150500Y-104186500D01*
X179150500Y-104186500D02*
X179150500Y-111586500D01*
X179150500Y-111586500D02*
X176850500Y-111586500D01*
X156445000Y-69845000D02*
X155185000Y-69845000D01*
X149625000Y-69845000D02*
X150885000Y-69845000D01*
X156445000Y-73605000D02*
X156445000Y-69845000D01*
X149625000Y-75855000D02*
X149625000Y-69845000D01*
X166605000Y-69845000D02*
X165345000Y-69845000D01*
X159785000Y-69845000D02*
X161045000Y-69845000D01*
X166605000Y-73605000D02*
X166605000Y-69845000D01*
X159785000Y-75855000D02*
X159785000Y-69845000D01*
X177300000Y-93300000D02*
X178300000Y-93300000D01*
X178300000Y-94660000D02*
X177300000Y-94660000D01*
X163875000Y-95385000D02*
X163875000Y-96385000D01*
X162515000Y-96385000D02*
X162515000Y-95385000D01*
X166415000Y-95385000D02*
X166415000Y-96385000D01*
X165055000Y-96385000D02*
X165055000Y-95385000D01*
X169600500Y-111741500D02*
X168600500Y-111741500D01*
X168600500Y-110381500D02*
X169600500Y-110381500D01*
X169690500Y-107751500D02*
X169690500Y-106751500D01*
X171050500Y-106751500D02*
X171050500Y-107751500D01*
X161880000Y-81780000D02*
X161880000Y-80780000D01*
X163240000Y-80780000D02*
X163240000Y-81780000D01*
D14*
X161565000Y-77985000D02*
X160565000Y-76985000D01*
X160565000Y-76985000D02*
X154665000Y-76985000D01*
X154665000Y-76985000D02*
X154665000Y-80495000D01*
X154665000Y-80495000D02*
X161565000Y-80495000D01*
X161565000Y-80495000D02*
X161565000Y-77985000D01*
D12*
X153000000Y-100615000D02*
X153000000Y-101315000D01*
X151800000Y-101315000D02*
X151800000Y-100615000D01*
X153000000Y-92995000D02*
X153000000Y-93695000D01*
X151800000Y-93695000D02*
X151800000Y-92995000D01*
D15*
X143637000Y-95758000D02*
G75*
G03X143637000Y-95758000I-381000J0D01*
G01*
X143383000Y-95758000D02*
G75*
G03X143383000Y-95758000I-127000J0D01*
G01*
D13*
X144122140Y-95961200D02*
X150517860Y-95961200D01*
X150517860Y-102158800D02*
X144122140Y-102158800D01*
X144122140Y-102158800D02*
X144122140Y-101658420D01*
X150517860Y-102158800D02*
X150517860Y-101658420D01*
X150517860Y-95961200D02*
X150517860Y-96461580D01*
X144122140Y-95961200D02*
X144122140Y-96461580D01*
D10*
X144018000Y-95631000D02*
G75*
G03X144018000Y-95631000I-254000J0D01*
G01*
D15*
X143637000Y-88138000D02*
G75*
G03X143637000Y-88138000I-381000J0D01*
G01*
X143383000Y-88138000D02*
G75*
G03X143383000Y-88138000I-127000J0D01*
G01*
D13*
X144122140Y-88341200D02*
X150517860Y-88341200D01*
X150517860Y-94538800D02*
X144122140Y-94538800D01*
X144122140Y-94538800D02*
X144122140Y-94038420D01*
X150517860Y-94538800D02*
X150517860Y-94038420D01*
X150517860Y-88341200D02*
X150517860Y-88841580D01*
X144122140Y-88341200D02*
X144122140Y-88841580D01*
D10*
X144018000Y-88011000D02*
G75*
G03X144018000Y-88011000I-254000J0D01*
G01*
D12*
X174260000Y-57660000D02*
X176260000Y-57660000D01*
X174260000Y-64260000D02*
X176260000Y-64260000D01*
X178560000Y-59960000D02*
X178560000Y-61960000D01*
X171960000Y-59960000D02*
X171960000Y-61960000D01*
D14*
X157480000Y-111760000D02*
G75*
G03X157480000Y-111760000I-7620000J0D01*
G01*
D12*
X158182000Y-113097000D02*
X158182000Y-115757000D01*
X160782000Y-113097000D02*
X158182000Y-113097000D01*
X160782000Y-115757000D02*
X158182000Y-115757000D01*
X160782000Y-113097000D02*
X160782000Y-115757000D01*
X162052000Y-113097000D02*
X163382000Y-113097000D01*
X163382000Y-113097000D02*
X163382000Y-114427000D01*
X135110000Y-82020000D02*
X135110000Y-86720000D01*
X135110000Y-86720000D02*
X141210000Y-86720000D01*
X141210000Y-86720000D02*
X141210000Y-82020000D01*
X141210000Y-82020000D02*
X135110000Y-82020000D01*
X137660000Y-82020000D02*
X137660000Y-82620000D01*
X137660000Y-82620000D02*
X135710000Y-82620000D01*
X135710000Y-82620000D02*
X135710000Y-86120000D01*
X135710000Y-86120000D02*
X140610000Y-86120000D01*
X140610000Y-86120000D02*
X140610000Y-82620000D01*
X140610000Y-82620000D02*
X138660000Y-82620000D01*
X138660000Y-82620000D02*
X138660000Y-82020000D01*
X135110000Y-83320000D02*
X135710000Y-83320000D01*
X135110000Y-84620000D02*
X135710000Y-84620000D01*
X141210000Y-83320000D02*
X140610000Y-83320000D01*
X141210000Y-84620000D02*
X140610000Y-84620000D01*
X136860000Y-82020000D02*
X136860000Y-81820000D01*
X136860000Y-81820000D02*
X136560000Y-81820000D01*
X136560000Y-81820000D02*
X136560000Y-82020000D01*
X136860000Y-81920000D02*
X136560000Y-81920000D01*
X138060000Y-86120000D02*
X138060000Y-85620000D01*
X138060000Y-85620000D02*
X138260000Y-85620000D01*
X138260000Y-85620000D02*
X138260000Y-86120000D01*
X138160000Y-86120000D02*
X138160000Y-85620000D01*
X136060000Y-81720000D02*
X134810000Y-81720000D01*
X134810000Y-81720000D02*
X134810000Y-82970000D01*
X178046000Y-101131000D02*
X177046000Y-101131000D01*
X177046000Y-102831000D02*
X178046000Y-102831000D01*
D14*
X154302381Y-82589666D02*
X153826190Y-82923000D01*
X154302381Y-83161095D02*
X153302381Y-83161095D01*
X153302381Y-82780142D01*
X153350000Y-82684904D01*
X153397619Y-82637285D01*
X153492857Y-82589666D01*
X153635714Y-82589666D01*
X153730952Y-82637285D01*
X153778571Y-82684904D01*
X153826190Y-82780142D01*
X153826190Y-83161095D01*
X154302381Y-81637285D02*
X154302381Y-82208714D01*
X154302381Y-81923000D02*
X153302381Y-81923000D01*
X153445238Y-82018238D01*
X153540476Y-82113476D01*
X153588095Y-82208714D01*
X149497381Y-82589666D02*
X149021190Y-82923000D01*
X149497381Y-83161095D02*
X148497381Y-83161095D01*
X148497381Y-82780142D01*
X148545000Y-82684904D01*
X148592619Y-82637285D01*
X148687857Y-82589666D01*
X148830714Y-82589666D01*
X148925952Y-82637285D01*
X148973571Y-82684904D01*
X149021190Y-82780142D01*
X149021190Y-83161095D01*
X148592619Y-82208714D02*
X148545000Y-82161095D01*
X148497381Y-82065857D01*
X148497381Y-81827761D01*
X148545000Y-81732523D01*
X148592619Y-81684904D01*
X148687857Y-81637285D01*
X148783095Y-81637285D01*
X148925952Y-81684904D01*
X149497381Y-82256333D01*
X149497381Y-81637285D01*
D16*
X148125543Y-58721171D02*
X148125543Y-59214657D01*
X148154571Y-59272714D01*
X148183600Y-59301743D01*
X148241657Y-59330771D01*
X148357771Y-59330771D01*
X148415829Y-59301743D01*
X148444857Y-59272714D01*
X148473886Y-59214657D01*
X148473886Y-58721171D01*
X149025429Y-58721171D02*
X148909315Y-58721171D01*
X148851258Y-58750200D01*
X148822229Y-58779229D01*
X148764172Y-58866314D01*
X148735143Y-58982429D01*
X148735143Y-59214657D01*
X148764172Y-59272714D01*
X148793200Y-59301743D01*
X148851258Y-59330771D01*
X148967372Y-59330771D01*
X149025429Y-59301743D01*
X149054458Y-59272714D01*
X149083486Y-59214657D01*
X149083486Y-59069514D01*
X149054458Y-59011457D01*
X149025429Y-58982429D01*
X148967372Y-58953400D01*
X148851258Y-58953400D01*
X148793200Y-58982429D01*
X148764172Y-59011457D01*
X148735143Y-59069514D01*
X147530458Y-57451171D02*
X147936858Y-58060771D01*
X147936858Y-57451171D02*
X147530458Y-58060771D01*
X148372286Y-57741457D02*
X148459372Y-57770486D01*
X148488400Y-57799514D01*
X148517429Y-57857571D01*
X148517429Y-57944657D01*
X148488400Y-58002714D01*
X148459372Y-58031743D01*
X148401314Y-58060771D01*
X148169086Y-58060771D01*
X148169086Y-57451171D01*
X148372286Y-57451171D01*
X148430343Y-57480200D01*
X148459372Y-57509229D01*
X148488400Y-57567286D01*
X148488400Y-57625343D01*
X148459372Y-57683400D01*
X148430343Y-57712429D01*
X148372286Y-57741457D01*
X148169086Y-57741457D01*
X148778686Y-57741457D02*
X148981886Y-57741457D01*
X149068972Y-58060771D02*
X148778686Y-58060771D01*
X148778686Y-57451171D01*
X149068972Y-57451171D01*
X149330229Y-57741457D02*
X149533429Y-57741457D01*
X149620515Y-58060771D02*
X149330229Y-58060771D01*
X149330229Y-57451171D01*
X149620515Y-57451171D01*
D17*
X166761886Y-83832579D02*
X166181315Y-83832579D01*
X166471601Y-83832579D02*
X166471601Y-82816579D01*
X166374839Y-82961722D01*
X166278077Y-83058484D01*
X166181315Y-83106865D01*
D14*
X177466667Y-87292381D02*
X177466667Y-88006667D01*
X177419047Y-88149524D01*
X177323809Y-88244762D01*
X177180952Y-88292381D01*
X177085714Y-88292381D01*
X177847619Y-87292381D02*
X178466667Y-87292381D01*
X178133333Y-87673333D01*
X178276191Y-87673333D01*
X178371429Y-87720952D01*
X178419048Y-87768571D01*
X178466667Y-87863810D01*
X178466667Y-88101905D01*
X178419048Y-88197143D01*
X178371429Y-88244762D01*
X178276191Y-88292381D01*
X177990476Y-88292381D01*
X177895238Y-88244762D01*
X177847619Y-88197143D01*
X166747143Y-91606666D02*
X166794762Y-91654285D01*
X166842381Y-91797142D01*
X166842381Y-91892380D01*
X166794762Y-92035238D01*
X166699524Y-92130476D01*
X166604286Y-92178095D01*
X166413810Y-92225714D01*
X166270952Y-92225714D01*
X166080476Y-92178095D01*
X165985238Y-92130476D01*
X165890000Y-92035238D01*
X165842381Y-91892380D01*
X165842381Y-91797142D01*
X165890000Y-91654285D01*
X165937619Y-91606666D01*
X166842381Y-90654285D02*
X166842381Y-91225714D01*
X166842381Y-90940000D02*
X165842381Y-90940000D01*
X165985238Y-91035238D01*
X166080476Y-91130476D01*
X166128095Y-91225714D01*
X162770143Y-93638666D02*
X162817762Y-93686285D01*
X162865381Y-93829142D01*
X162865381Y-93924380D01*
X162817762Y-94067238D01*
X162722524Y-94162476D01*
X162627286Y-94210095D01*
X162436810Y-94257714D01*
X162293952Y-94257714D01*
X162103476Y-94210095D01*
X162008238Y-94162476D01*
X161913000Y-94067238D01*
X161865381Y-93924380D01*
X161865381Y-93829142D01*
X161913000Y-93686285D01*
X161960619Y-93638666D01*
X161960619Y-93257714D02*
X161913000Y-93210095D01*
X161865381Y-93114857D01*
X161865381Y-92876761D01*
X161913000Y-92781523D01*
X161960619Y-92733904D01*
X162055857Y-92686285D01*
X162151095Y-92686285D01*
X162293952Y-92733904D01*
X162865381Y-93305333D01*
X162865381Y-92686285D01*
X176232143Y-90590666D02*
X176279762Y-90638285D01*
X176327381Y-90781142D01*
X176327381Y-90876380D01*
X176279762Y-91019238D01*
X176184524Y-91114476D01*
X176089286Y-91162095D01*
X175898810Y-91209714D01*
X175755952Y-91209714D01*
X175565476Y-91162095D01*
X175470238Y-91114476D01*
X175375000Y-91019238D01*
X175327381Y-90876380D01*
X175327381Y-90781142D01*
X175375000Y-90638285D01*
X175422619Y-90590666D01*
X175660714Y-89733523D02*
X176327381Y-89733523D01*
X175279762Y-89971619D02*
X175994048Y-90209714D01*
X175994048Y-89590666D01*
X173565143Y-93130666D02*
X173612762Y-93178285D01*
X173660381Y-93321142D01*
X173660381Y-93416380D01*
X173612762Y-93559238D01*
X173517524Y-93654476D01*
X173422286Y-93702095D01*
X173231810Y-93749714D01*
X173088952Y-93749714D01*
X172898476Y-93702095D01*
X172803238Y-93654476D01*
X172708000Y-93559238D01*
X172660381Y-93416380D01*
X172660381Y-93321142D01*
X172708000Y-93178285D01*
X172755619Y-93130666D01*
X172660381Y-92225904D02*
X172660381Y-92702095D01*
X173136571Y-92749714D01*
X173088952Y-92702095D01*
X173041333Y-92606857D01*
X173041333Y-92368761D01*
X173088952Y-92273523D01*
X173136571Y-92225904D01*
X173231810Y-92178285D01*
X173469905Y-92178285D01*
X173565143Y-92225904D01*
X173612762Y-92273523D01*
X173660381Y-92368761D01*
X173660381Y-92606857D01*
X173612762Y-92702095D01*
X173565143Y-92749714D01*
X166203334Y-78462143D02*
X166155715Y-78509762D01*
X166012858Y-78557381D01*
X165917620Y-78557381D01*
X165774762Y-78509762D01*
X165679524Y-78414524D01*
X165631905Y-78319286D01*
X165584286Y-78128810D01*
X165584286Y-77985952D01*
X165631905Y-77795476D01*
X165679524Y-77700238D01*
X165774762Y-77605000D01*
X165917620Y-77557381D01*
X166012858Y-77557381D01*
X166155715Y-77605000D01*
X166203334Y-77652619D01*
X166774762Y-77985952D02*
X166679524Y-77938333D01*
X166631905Y-77890714D01*
X166584286Y-77795476D01*
X166584286Y-77747857D01*
X166631905Y-77652619D01*
X166679524Y-77605000D01*
X166774762Y-77557381D01*
X166965239Y-77557381D01*
X167060477Y-77605000D01*
X167108096Y-77652619D01*
X167155715Y-77747857D01*
X167155715Y-77795476D01*
X167108096Y-77890714D01*
X167060477Y-77938333D01*
X166965239Y-77985952D01*
X166774762Y-77985952D01*
X166679524Y-78033571D01*
X166631905Y-78081190D01*
X166584286Y-78176429D01*
X166584286Y-78366905D01*
X166631905Y-78462143D01*
X166679524Y-78509762D01*
X166774762Y-78557381D01*
X166965239Y-78557381D01*
X167060477Y-78509762D01*
X167108096Y-78462143D01*
X167155715Y-78366905D01*
X167155715Y-78176429D01*
X167108096Y-78081190D01*
X167060477Y-78033571D01*
X166965239Y-77985952D01*
X162197381Y-92178095D02*
X161197381Y-92178095D01*
X161197381Y-91940000D01*
X161245000Y-91797142D01*
X161340238Y-91701904D01*
X161435476Y-91654285D01*
X161625952Y-91606666D01*
X161768810Y-91606666D01*
X161959286Y-91654285D01*
X162054524Y-91701904D01*
X162149762Y-91797142D01*
X162197381Y-91940000D01*
X162197381Y-92178095D01*
X162197381Y-90654285D02*
X162197381Y-91225714D01*
X162197381Y-90940000D02*
X161197381Y-90940000D01*
X161340238Y-91035238D01*
X161435476Y-91130476D01*
X161483095Y-91225714D01*
X164737381Y-92178095D02*
X163737381Y-92178095D01*
X163737381Y-91940000D01*
X163785000Y-91797142D01*
X163880238Y-91701904D01*
X163975476Y-91654285D01*
X164165952Y-91606666D01*
X164308810Y-91606666D01*
X164499286Y-91654285D01*
X164594524Y-91701904D01*
X164689762Y-91797142D01*
X164737381Y-91940000D01*
X164737381Y-92178095D01*
X163832619Y-91225714D02*
X163785000Y-91178095D01*
X163737381Y-91082857D01*
X163737381Y-90844761D01*
X163785000Y-90749523D01*
X163832619Y-90701904D01*
X163927857Y-90654285D01*
X164023095Y-90654285D01*
X164165952Y-90701904D01*
X164737381Y-91273333D01*
X164737381Y-90654285D01*
X172653571Y-95448333D02*
X172653571Y-95781667D01*
X173177381Y-95781667D02*
X172177381Y-95781667D01*
X172177381Y-95305476D01*
X172653571Y-94591190D02*
X172701190Y-94448333D01*
X172748810Y-94400714D01*
X172844048Y-94353095D01*
X172986905Y-94353095D01*
X173082143Y-94400714D01*
X173129762Y-94448333D01*
X173177381Y-94543571D01*
X173177381Y-94924524D01*
X172177381Y-94924524D01*
X172177381Y-94591190D01*
X172225000Y-94495952D01*
X172272619Y-94448333D01*
X172367857Y-94400714D01*
X172463095Y-94400714D01*
X172558333Y-94448333D01*
X172605952Y-94495952D01*
X172653571Y-94591190D01*
X172653571Y-94924524D01*
X173177381Y-93400714D02*
X173177381Y-93972143D01*
X173177381Y-93686429D02*
X172177381Y-93686429D01*
X172320238Y-93781667D01*
X172415476Y-93876905D01*
X172463095Y-93972143D01*
X180352881Y-108053166D02*
X180352881Y-108529357D01*
X179352881Y-108529357D01*
X180352881Y-107196023D02*
X180352881Y-107767452D01*
X180352881Y-107481738D02*
X179352881Y-107481738D01*
X179495738Y-107576976D01*
X179590976Y-107672214D01*
X179638595Y-107767452D01*
X149082619Y-71850238D02*
X149035000Y-71945476D01*
X148939762Y-72040714D01*
X148796905Y-72183571D01*
X148749286Y-72278810D01*
X148749286Y-72374048D01*
X148987381Y-72326429D02*
X148939762Y-72421667D01*
X148844524Y-72516905D01*
X148654048Y-72564524D01*
X148320714Y-72564524D01*
X148130238Y-72516905D01*
X148035000Y-72421667D01*
X147987381Y-72326429D01*
X147987381Y-72135952D01*
X148035000Y-72040714D01*
X148130238Y-71945476D01*
X148320714Y-71897857D01*
X148654048Y-71897857D01*
X148844524Y-71945476D01*
X148939762Y-72040714D01*
X148987381Y-72135952D01*
X148987381Y-72326429D01*
X148987381Y-70945476D02*
X148987381Y-71516905D01*
X148987381Y-71231191D02*
X147987381Y-71231191D01*
X148130238Y-71326429D01*
X148225476Y-71421667D01*
X148273095Y-71516905D01*
X159242619Y-71850238D02*
X159195000Y-71945476D01*
X159099762Y-72040714D01*
X158956905Y-72183571D01*
X158909286Y-72278810D01*
X158909286Y-72374048D01*
X159147381Y-72326429D02*
X159099762Y-72421667D01*
X159004524Y-72516905D01*
X158814048Y-72564524D01*
X158480714Y-72564524D01*
X158290238Y-72516905D01*
X158195000Y-72421667D01*
X158147381Y-72326429D01*
X158147381Y-72135952D01*
X158195000Y-72040714D01*
X158290238Y-71945476D01*
X158480714Y-71897857D01*
X158814048Y-71897857D01*
X159004524Y-71945476D01*
X159099762Y-72040714D01*
X159147381Y-72135952D01*
X159147381Y-72326429D01*
X158242619Y-71516905D02*
X158195000Y-71469286D01*
X158147381Y-71374048D01*
X158147381Y-71135952D01*
X158195000Y-71040714D01*
X158242619Y-70993095D01*
X158337857Y-70945476D01*
X158433095Y-70945476D01*
X158575952Y-70993095D01*
X159147381Y-71564524D01*
X159147381Y-70945476D01*
X177633334Y-95882381D02*
X177300000Y-95406190D01*
X177061905Y-95882381D02*
X177061905Y-94882381D01*
X177442858Y-94882381D01*
X177538096Y-94930000D01*
X177585715Y-94977619D01*
X177633334Y-95072857D01*
X177633334Y-95215714D01*
X177585715Y-95310952D01*
X177538096Y-95358571D01*
X177442858Y-95406190D01*
X177061905Y-95406190D01*
X177966667Y-94882381D02*
X178585715Y-94882381D01*
X178252381Y-95263333D01*
X178395239Y-95263333D01*
X178490477Y-95310952D01*
X178538096Y-95358571D01*
X178585715Y-95453810D01*
X178585715Y-95691905D01*
X178538096Y-95787143D01*
X178490477Y-95834762D01*
X178395239Y-95882381D01*
X178109524Y-95882381D01*
X178014286Y-95834762D01*
X177966667Y-95787143D01*
X162197381Y-96051666D02*
X161721190Y-96385000D01*
X162197381Y-96623095D02*
X161197381Y-96623095D01*
X161197381Y-96242142D01*
X161245000Y-96146904D01*
X161292619Y-96099285D01*
X161387857Y-96051666D01*
X161530714Y-96051666D01*
X161625952Y-96099285D01*
X161673571Y-96146904D01*
X161721190Y-96242142D01*
X161721190Y-96623095D01*
X161197381Y-95194523D02*
X161197381Y-95385000D01*
X161245000Y-95480238D01*
X161292619Y-95527857D01*
X161435476Y-95623095D01*
X161625952Y-95670714D01*
X162006905Y-95670714D01*
X162102143Y-95623095D01*
X162149762Y-95575476D01*
X162197381Y-95480238D01*
X162197381Y-95289761D01*
X162149762Y-95194523D01*
X162102143Y-95146904D01*
X162006905Y-95099285D01*
X161768810Y-95099285D01*
X161673571Y-95146904D01*
X161625952Y-95194523D01*
X161578333Y-95289761D01*
X161578333Y-95480238D01*
X161625952Y-95575476D01*
X161673571Y-95623095D01*
X161768810Y-95670714D01*
X164737381Y-96051666D02*
X164261190Y-96385000D01*
X164737381Y-96623095D02*
X163737381Y-96623095D01*
X163737381Y-96242142D01*
X163785000Y-96146904D01*
X163832619Y-96099285D01*
X163927857Y-96051666D01*
X164070714Y-96051666D01*
X164165952Y-96099285D01*
X164213571Y-96146904D01*
X164261190Y-96242142D01*
X164261190Y-96623095D01*
X163737381Y-95718333D02*
X163737381Y-95051666D01*
X164737381Y-95480238D01*
X168933834Y-110063881D02*
X168600500Y-109587690D01*
X168362405Y-110063881D02*
X168362405Y-109063881D01*
X168743358Y-109063881D01*
X168838596Y-109111500D01*
X168886215Y-109159119D01*
X168933834Y-109254357D01*
X168933834Y-109397214D01*
X168886215Y-109492452D01*
X168838596Y-109540071D01*
X168743358Y-109587690D01*
X168362405Y-109587690D01*
X169505262Y-109492452D02*
X169410024Y-109444833D01*
X169362405Y-109397214D01*
X169314786Y-109301976D01*
X169314786Y-109254357D01*
X169362405Y-109159119D01*
X169410024Y-109111500D01*
X169505262Y-109063881D01*
X169695739Y-109063881D01*
X169790977Y-109111500D01*
X169838596Y-109159119D01*
X169886215Y-109254357D01*
X169886215Y-109301976D01*
X169838596Y-109397214D01*
X169790977Y-109444833D01*
X169695739Y-109492452D01*
X169505262Y-109492452D01*
X169410024Y-109540071D01*
X169362405Y-109587690D01*
X169314786Y-109682929D01*
X169314786Y-109873405D01*
X169362405Y-109968643D01*
X169410024Y-110016262D01*
X169505262Y-110063881D01*
X169695739Y-110063881D01*
X169790977Y-110016262D01*
X169838596Y-109968643D01*
X169886215Y-109873405D01*
X169886215Y-109682929D01*
X169838596Y-109587690D01*
X169790977Y-109540071D01*
X169695739Y-109492452D01*
X170822881Y-104243166D02*
X170346690Y-104576500D01*
X170822881Y-104814595D02*
X169822881Y-104814595D01*
X169822881Y-104433642D01*
X169870500Y-104338404D01*
X169918119Y-104290785D01*
X170013357Y-104243166D01*
X170156214Y-104243166D01*
X170251452Y-104290785D01*
X170299071Y-104338404D01*
X170346690Y-104433642D01*
X170346690Y-104814595D01*
X170822881Y-103766976D02*
X170822881Y-103576500D01*
X170775262Y-103481261D01*
X170727643Y-103433642D01*
X170584786Y-103338404D01*
X170394310Y-103290785D01*
X170013357Y-103290785D01*
X169918119Y-103338404D01*
X169870500Y-103386023D01*
X169822881Y-103481261D01*
X169822881Y-103671738D01*
X169870500Y-103766976D01*
X169918119Y-103814595D01*
X170013357Y-103862214D01*
X170251452Y-103862214D01*
X170346690Y-103814595D01*
X170394310Y-103766976D01*
X170441929Y-103671738D01*
X170441929Y-103481261D01*
X170394310Y-103386023D01*
X170346690Y-103338404D01*
X170251452Y-103290785D01*
X164462381Y-81922857D02*
X163986190Y-82256191D01*
X164462381Y-82494286D02*
X163462381Y-82494286D01*
X163462381Y-82113333D01*
X163510000Y-82018095D01*
X163557619Y-81970476D01*
X163652857Y-81922857D01*
X163795714Y-81922857D01*
X163890952Y-81970476D01*
X163938571Y-82018095D01*
X163986190Y-82113333D01*
X163986190Y-82494286D01*
X164462381Y-80970476D02*
X164462381Y-81541905D01*
X164462381Y-81256191D02*
X163462381Y-81256191D01*
X163605238Y-81351429D01*
X163700476Y-81446667D01*
X163748095Y-81541905D01*
X163462381Y-80351429D02*
X163462381Y-80256190D01*
X163510000Y-80160952D01*
X163557619Y-80113333D01*
X163652857Y-80065714D01*
X163843333Y-80018095D01*
X164081429Y-80018095D01*
X164271905Y-80065714D01*
X164367143Y-80113333D01*
X164414762Y-80160952D01*
X164462381Y-80256190D01*
X164462381Y-80351429D01*
X164414762Y-80446667D01*
X164367143Y-80494286D01*
X164271905Y-80541905D01*
X164081429Y-80589524D01*
X163843333Y-80589524D01*
X163652857Y-80541905D01*
X163557619Y-80494286D01*
X163510000Y-80446667D01*
X163462381Y-80351429D01*
X157200714Y-75127857D02*
X157200714Y-76099286D01*
X157257857Y-76213571D01*
X157315000Y-76270714D01*
X157429286Y-76327857D01*
X157657857Y-76327857D01*
X157772143Y-76270714D01*
X157829286Y-76213571D01*
X157886429Y-76099286D01*
X157886429Y-75127857D01*
X158515000Y-76327857D02*
X158743572Y-76327857D01*
X158857857Y-76270714D01*
X158915000Y-76213571D01*
X159029286Y-76042143D01*
X159086429Y-75813571D01*
X159086429Y-75356429D01*
X159029286Y-75242143D01*
X158972143Y-75185000D01*
X158857857Y-75127857D01*
X158629286Y-75127857D01*
X158515000Y-75185000D01*
X158457857Y-75242143D01*
X158400714Y-75356429D01*
X158400714Y-75642143D01*
X158457857Y-75756429D01*
X158515000Y-75813571D01*
X158629286Y-75870714D01*
X158857857Y-75870714D01*
X158972143Y-75813571D01*
X159029286Y-75756429D01*
X159086429Y-75642143D01*
X154007143Y-101131666D02*
X154054762Y-101179285D01*
X154102381Y-101322142D01*
X154102381Y-101417380D01*
X154054762Y-101560238D01*
X153959524Y-101655476D01*
X153864286Y-101703095D01*
X153673810Y-101750714D01*
X153530952Y-101750714D01*
X153340476Y-101703095D01*
X153245238Y-101655476D01*
X153150000Y-101560238D01*
X153102381Y-101417380D01*
X153102381Y-101322142D01*
X153150000Y-101179285D01*
X153197619Y-101131666D01*
X154102381Y-100655476D02*
X154102381Y-100465000D01*
X154054762Y-100369761D01*
X154007143Y-100322142D01*
X153864286Y-100226904D01*
X153673810Y-100179285D01*
X153292857Y-100179285D01*
X153197619Y-100226904D01*
X153150000Y-100274523D01*
X153102381Y-100369761D01*
X153102381Y-100560238D01*
X153150000Y-100655476D01*
X153197619Y-100703095D01*
X153292857Y-100750714D01*
X153530952Y-100750714D01*
X153626190Y-100703095D01*
X153673810Y-100655476D01*
X153721429Y-100560238D01*
X153721429Y-100369761D01*
X153673810Y-100274523D01*
X153626190Y-100226904D01*
X153530952Y-100179285D01*
X154007143Y-93987857D02*
X154054762Y-94035476D01*
X154102381Y-94178333D01*
X154102381Y-94273571D01*
X154054762Y-94416429D01*
X153959524Y-94511667D01*
X153864286Y-94559286D01*
X153673810Y-94606905D01*
X153530952Y-94606905D01*
X153340476Y-94559286D01*
X153245238Y-94511667D01*
X153150000Y-94416429D01*
X153102381Y-94273571D01*
X153102381Y-94178333D01*
X153150000Y-94035476D01*
X153197619Y-93987857D01*
X154102381Y-93035476D02*
X154102381Y-93606905D01*
X154102381Y-93321191D02*
X153102381Y-93321191D01*
X153245238Y-93416429D01*
X153340476Y-93511667D01*
X153388095Y-93606905D01*
X153102381Y-92416429D02*
X153102381Y-92321190D01*
X153150000Y-92225952D01*
X153197619Y-92178333D01*
X153292857Y-92130714D01*
X153483333Y-92083095D01*
X153721429Y-92083095D01*
X153911905Y-92130714D01*
X154007143Y-92178333D01*
X154054762Y-92225952D01*
X154102381Y-92321190D01*
X154102381Y-92416429D01*
X154054762Y-92511667D01*
X154007143Y-92559286D01*
X153911905Y-92606905D01*
X153721429Y-92654524D01*
X153483333Y-92654524D01*
X153292857Y-92606905D01*
X153197619Y-92559286D01*
X153150000Y-92511667D01*
X153102381Y-92416429D01*
D16*
X146565258Y-95043171D02*
X146565258Y-95536657D01*
X146594286Y-95594714D01*
X146623315Y-95623743D01*
X146681372Y-95652771D01*
X146797486Y-95652771D01*
X146855544Y-95623743D01*
X146884572Y-95594714D01*
X146913601Y-95536657D01*
X146913601Y-95043171D01*
X147523201Y-95652771D02*
X147174858Y-95652771D01*
X147349030Y-95652771D02*
X147349030Y-95043171D01*
X147290973Y-95130257D01*
X147232915Y-95188314D01*
X147174858Y-95217343D01*
X147900572Y-95043171D02*
X147958629Y-95043171D01*
X148016686Y-95072200D01*
X148045715Y-95101229D01*
X148074744Y-95159286D01*
X148103772Y-95275400D01*
X148103772Y-95420543D01*
X148074744Y-95536657D01*
X148045715Y-95594714D01*
X148016686Y-95623743D01*
X147958629Y-95652771D01*
X147900572Y-95652771D01*
X147842515Y-95623743D01*
X147813486Y-95594714D01*
X147784458Y-95536657D01*
X147755429Y-95420543D01*
X147755429Y-95275400D01*
X147784458Y-95159286D01*
X147813486Y-95101229D01*
X147842515Y-95072200D01*
X147900572Y-95043171D01*
X144141373Y-103145771D02*
X144141373Y-102536171D01*
X144344573Y-102971600D01*
X144547773Y-102536171D01*
X144547773Y-103145771D01*
X144809030Y-103116743D02*
X144896116Y-103145771D01*
X145041259Y-103145771D01*
X145099316Y-103116743D01*
X145128345Y-103087714D01*
X145157373Y-103029657D01*
X145157373Y-102971600D01*
X145128345Y-102913543D01*
X145099316Y-102884514D01*
X145041259Y-102855486D01*
X144925145Y-102826457D01*
X144867087Y-102797429D01*
X144838059Y-102768400D01*
X144809030Y-102710343D01*
X144809030Y-102652286D01*
X144838059Y-102594229D01*
X144867087Y-102565200D01*
X144925145Y-102536171D01*
X145070287Y-102536171D01*
X145157373Y-102565200D01*
X145708916Y-102536171D02*
X145418630Y-102536171D01*
X145389601Y-102826457D01*
X145418630Y-102797429D01*
X145476687Y-102768400D01*
X145621830Y-102768400D01*
X145679887Y-102797429D01*
X145708916Y-102826457D01*
X145737944Y-102884514D01*
X145737944Y-103029657D01*
X145708916Y-103087714D01*
X145679887Y-103116743D01*
X145621830Y-103145771D01*
X145476687Y-103145771D01*
X145418630Y-103116743D01*
X145389601Y-103087714D01*
X146086287Y-102797429D02*
X146028229Y-102768400D01*
X145999201Y-102739371D01*
X145970172Y-102681314D01*
X145970172Y-102652286D01*
X145999201Y-102594229D01*
X146028229Y-102565200D01*
X146086287Y-102536171D01*
X146202401Y-102536171D01*
X146260458Y-102565200D01*
X146289487Y-102594229D01*
X146318515Y-102652286D01*
X146318515Y-102681314D01*
X146289487Y-102739371D01*
X146260458Y-102768400D01*
X146202401Y-102797429D01*
X146086287Y-102797429D01*
X146028229Y-102826457D01*
X145999201Y-102855486D01*
X145970172Y-102913543D01*
X145970172Y-103029657D01*
X145999201Y-103087714D01*
X146028229Y-103116743D01*
X146086287Y-103145771D01*
X146202401Y-103145771D01*
X146260458Y-103116743D01*
X146289487Y-103087714D01*
X146318515Y-103029657D01*
X146318515Y-102913543D01*
X146289487Y-102855486D01*
X146260458Y-102826457D01*
X146202401Y-102797429D01*
X146695886Y-102536171D02*
X146753943Y-102536171D01*
X146812000Y-102565200D01*
X146841029Y-102594229D01*
X146870058Y-102652286D01*
X146899086Y-102768400D01*
X146899086Y-102913543D01*
X146870058Y-103029657D01*
X146841029Y-103087714D01*
X146812000Y-103116743D01*
X146753943Y-103145771D01*
X146695886Y-103145771D01*
X146637829Y-103116743D01*
X146608800Y-103087714D01*
X146579772Y-103029657D01*
X146550743Y-102913543D01*
X146550743Y-102768400D01*
X146579772Y-102652286D01*
X146608800Y-102594229D01*
X146637829Y-102565200D01*
X146695886Y-102536171D01*
X147102286Y-102536171D02*
X147479657Y-102536171D01*
X147276457Y-102768400D01*
X147363543Y-102768400D01*
X147421600Y-102797429D01*
X147450629Y-102826457D01*
X147479657Y-102884514D01*
X147479657Y-103029657D01*
X147450629Y-103087714D01*
X147421600Y-103116743D01*
X147363543Y-103145771D01*
X147189371Y-103145771D01*
X147131314Y-103116743D01*
X147102286Y-103087714D01*
X147740914Y-102913543D02*
X148205371Y-102913543D01*
X148814971Y-103145771D02*
X148466628Y-103145771D01*
X148640800Y-103145771D02*
X148640800Y-102536171D01*
X148582743Y-102623257D01*
X148524685Y-102681314D01*
X148466628Y-102710343D01*
X149337485Y-102739371D02*
X149337485Y-103145771D01*
X149192342Y-102507143D02*
X149047199Y-102942571D01*
X149424571Y-102942571D01*
X149859999Y-102826457D02*
X149947085Y-102855486D01*
X149976113Y-102884514D01*
X150005142Y-102942571D01*
X150005142Y-103029657D01*
X149976113Y-103087714D01*
X149947085Y-103116743D01*
X149889027Y-103145771D01*
X149656799Y-103145771D01*
X149656799Y-102536171D01*
X149859999Y-102536171D01*
X149918056Y-102565200D01*
X149947085Y-102594229D01*
X149976113Y-102652286D01*
X149976113Y-102710343D01*
X149947085Y-102768400D01*
X149918056Y-102797429D01*
X149859999Y-102826457D01*
X149656799Y-102826457D01*
X150237370Y-102971600D02*
X150527656Y-102971600D01*
X150179313Y-103145771D02*
X150382513Y-102536171D01*
X150585713Y-103145771D01*
X146565258Y-87423171D02*
X146565258Y-87916657D01*
X146594286Y-87974714D01*
X146623315Y-88003743D01*
X146681372Y-88032771D01*
X146797486Y-88032771D01*
X146855544Y-88003743D01*
X146884572Y-87974714D01*
X146913601Y-87916657D01*
X146913601Y-87423171D01*
X147523201Y-88032771D02*
X147174858Y-88032771D01*
X147349030Y-88032771D02*
X147349030Y-87423171D01*
X147290973Y-87510257D01*
X147232915Y-87568314D01*
X147174858Y-87597343D01*
X148103772Y-88032771D02*
X147755429Y-88032771D01*
X147929601Y-88032771D02*
X147929601Y-87423171D01*
X147871544Y-87510257D01*
X147813486Y-87568314D01*
X147755429Y-87597343D01*
X144141373Y-95525771D02*
X144141373Y-94916171D01*
X144344573Y-95351600D01*
X144547773Y-94916171D01*
X144547773Y-95525771D01*
X144809030Y-95496743D02*
X144896116Y-95525771D01*
X145041259Y-95525771D01*
X145099316Y-95496743D01*
X145128345Y-95467714D01*
X145157373Y-95409657D01*
X145157373Y-95351600D01*
X145128345Y-95293543D01*
X145099316Y-95264514D01*
X145041259Y-95235486D01*
X144925145Y-95206457D01*
X144867087Y-95177429D01*
X144838059Y-95148400D01*
X144809030Y-95090343D01*
X144809030Y-95032286D01*
X144838059Y-94974229D01*
X144867087Y-94945200D01*
X144925145Y-94916171D01*
X145070287Y-94916171D01*
X145157373Y-94945200D01*
X145708916Y-94916171D02*
X145418630Y-94916171D01*
X145389601Y-95206457D01*
X145418630Y-95177429D01*
X145476687Y-95148400D01*
X145621830Y-95148400D01*
X145679887Y-95177429D01*
X145708916Y-95206457D01*
X145737944Y-95264514D01*
X145737944Y-95409657D01*
X145708916Y-95467714D01*
X145679887Y-95496743D01*
X145621830Y-95525771D01*
X145476687Y-95525771D01*
X145418630Y-95496743D01*
X145389601Y-95467714D01*
X146086287Y-95177429D02*
X146028229Y-95148400D01*
X145999201Y-95119371D01*
X145970172Y-95061314D01*
X145970172Y-95032286D01*
X145999201Y-94974229D01*
X146028229Y-94945200D01*
X146086287Y-94916171D01*
X146202401Y-94916171D01*
X146260458Y-94945200D01*
X146289487Y-94974229D01*
X146318515Y-95032286D01*
X146318515Y-95061314D01*
X146289487Y-95119371D01*
X146260458Y-95148400D01*
X146202401Y-95177429D01*
X146086287Y-95177429D01*
X146028229Y-95206457D01*
X145999201Y-95235486D01*
X145970172Y-95293543D01*
X145970172Y-95409657D01*
X145999201Y-95467714D01*
X146028229Y-95496743D01*
X146086287Y-95525771D01*
X146202401Y-95525771D01*
X146260458Y-95496743D01*
X146289487Y-95467714D01*
X146318515Y-95409657D01*
X146318515Y-95293543D01*
X146289487Y-95235486D01*
X146260458Y-95206457D01*
X146202401Y-95177429D01*
X146695886Y-94916171D02*
X146753943Y-94916171D01*
X146812000Y-94945200D01*
X146841029Y-94974229D01*
X146870058Y-95032286D01*
X146899086Y-95148400D01*
X146899086Y-95293543D01*
X146870058Y-95409657D01*
X146841029Y-95467714D01*
X146812000Y-95496743D01*
X146753943Y-95525771D01*
X146695886Y-95525771D01*
X146637829Y-95496743D01*
X146608800Y-95467714D01*
X146579772Y-95409657D01*
X146550743Y-95293543D01*
X146550743Y-95148400D01*
X146579772Y-95032286D01*
X146608800Y-94974229D01*
X146637829Y-94945200D01*
X146695886Y-94916171D01*
X147102286Y-94916171D02*
X147479657Y-94916171D01*
X147276457Y-95148400D01*
X147363543Y-95148400D01*
X147421600Y-95177429D01*
X147450629Y-95206457D01*
X147479657Y-95264514D01*
X147479657Y-95409657D01*
X147450629Y-95467714D01*
X147421600Y-95496743D01*
X147363543Y-95525771D01*
X147189371Y-95525771D01*
X147131314Y-95496743D01*
X147102286Y-95467714D01*
X147740914Y-95293543D02*
X148205371Y-95293543D01*
X148814971Y-95525771D02*
X148466628Y-95525771D01*
X148640800Y-95525771D02*
X148640800Y-94916171D01*
X148582743Y-95003257D01*
X148524685Y-95061314D01*
X148466628Y-95090343D01*
X149337485Y-95119371D02*
X149337485Y-95525771D01*
X149192342Y-94887143D02*
X149047199Y-95322571D01*
X149424571Y-95322571D01*
X149859999Y-95206457D02*
X149947085Y-95235486D01*
X149976113Y-95264514D01*
X150005142Y-95322571D01*
X150005142Y-95409657D01*
X149976113Y-95467714D01*
X149947085Y-95496743D01*
X149889027Y-95525771D01*
X149656799Y-95525771D01*
X149656799Y-94916171D01*
X149859999Y-94916171D01*
X149918056Y-94945200D01*
X149947085Y-94974229D01*
X149976113Y-95032286D01*
X149976113Y-95090343D01*
X149947085Y-95148400D01*
X149918056Y-95177429D01*
X149859999Y-95206457D01*
X149656799Y-95206457D01*
X150237370Y-95351600D02*
X150527656Y-95351600D01*
X150179313Y-95525771D02*
X150382513Y-94916171D01*
X150585713Y-95525771D01*
D14*
X174926667Y-55412381D02*
X174926667Y-56126667D01*
X174879047Y-56269524D01*
X174783809Y-56364762D01*
X174640952Y-56412381D01*
X174545714Y-56412381D01*
X175831429Y-55745714D02*
X175831429Y-56412381D01*
X175593333Y-55364762D02*
X175355238Y-56079048D01*
X175974286Y-56079048D01*
X149987095Y-89487381D02*
X149987095Y-90296905D01*
X150034714Y-90392143D01*
X150082333Y-90439762D01*
X150177571Y-90487381D01*
X150368048Y-90487381D01*
X150463286Y-90439762D01*
X150510905Y-90392143D01*
X150558524Y-90296905D01*
X150558524Y-89487381D01*
X151510905Y-89487381D02*
X151034714Y-89487381D01*
X150987095Y-89963571D01*
X151034714Y-89915952D01*
X151129952Y-89868333D01*
X151368048Y-89868333D01*
X151463286Y-89915952D01*
X151510905Y-89963571D01*
X151558524Y-90058810D01*
X151558524Y-90296905D01*
X151510905Y-90392143D01*
X151463286Y-90439762D01*
X151368048Y-90487381D01*
X151129952Y-90487381D01*
X151034714Y-90439762D01*
X150987095Y-90392143D01*
X162655405Y-58308881D02*
X162655405Y-59118405D01*
X162703024Y-59213643D01*
X162750643Y-59261262D01*
X162845881Y-59308881D01*
X163036358Y-59308881D01*
X163131596Y-59261262D01*
X163179215Y-59213643D01*
X163226834Y-59118405D01*
X163226834Y-58308881D01*
X164226834Y-59308881D02*
X163655405Y-59308881D01*
X163941119Y-59308881D02*
X163941119Y-58308881D01*
X163845881Y-58451738D01*
X163750643Y-58546976D01*
X163655405Y-58594595D01*
X164607786Y-58404119D02*
X164655405Y-58356500D01*
X164750643Y-58308881D01*
X164988739Y-58308881D01*
X165083977Y-58356500D01*
X165131596Y-58404119D01*
X165179215Y-58499357D01*
X165179215Y-58594595D01*
X165131596Y-58737452D01*
X164560167Y-59308881D01*
X165179215Y-59308881D01*
X148050405Y-58562881D02*
X148050405Y-59372405D01*
X148098024Y-59467643D01*
X148145643Y-59515262D01*
X148240881Y-59562881D01*
X148431358Y-59562881D01*
X148526596Y-59515262D01*
X148574215Y-59467643D01*
X148621834Y-59372405D01*
X148621834Y-58562881D01*
X149621834Y-59562881D02*
X149050405Y-59562881D01*
X149336119Y-59562881D02*
X149336119Y-58562881D01*
X149240881Y-58705738D01*
X149145643Y-58800976D01*
X149050405Y-58848595D01*
X149955167Y-58562881D02*
X150574215Y-58562881D01*
X150240881Y-58943833D01*
X150383739Y-58943833D01*
X150478977Y-58991452D01*
X150526596Y-59039071D01*
X150574215Y-59134310D01*
X150574215Y-59372405D01*
X150526596Y-59467643D01*
X150478977Y-59515262D01*
X150383739Y-59562881D01*
X150098024Y-59562881D01*
X150002786Y-59515262D01*
X149955167Y-59467643D01*
X148979048Y-111188571D02*
X149121905Y-111236190D01*
X149169524Y-111283810D01*
X149217143Y-111379048D01*
X149217143Y-111521905D01*
X149169524Y-111617143D01*
X149121905Y-111664762D01*
X149026667Y-111712381D01*
X148645714Y-111712381D01*
X148645714Y-110712381D01*
X148979048Y-110712381D01*
X149074286Y-110760000D01*
X149121905Y-110807619D01*
X149169524Y-110902857D01*
X149169524Y-110998095D01*
X149121905Y-111093333D01*
X149074286Y-111140952D01*
X148979048Y-111188571D01*
X148645714Y-111188571D01*
X149550476Y-110712381D02*
X150217143Y-110712381D01*
X149550476Y-111712381D01*
X150217143Y-111712381D01*
X151121905Y-111712381D02*
X150550476Y-111712381D01*
X150836190Y-111712381D02*
X150836190Y-110712381D01*
X150740952Y-110855238D01*
X150645714Y-110950476D01*
X150550476Y-110998095D01*
X163834381Y-114760333D02*
X164548667Y-114760333D01*
X164691524Y-114807953D01*
X164786762Y-114903191D01*
X164834381Y-115046048D01*
X164834381Y-115141286D01*
X163834381Y-113807952D02*
X163834381Y-114284143D01*
X164310571Y-114331762D01*
X164262952Y-114284143D01*
X164215333Y-114188905D01*
X164215333Y-113950809D01*
X164262952Y-113855571D01*
X164310571Y-113807952D01*
X164405810Y-113760333D01*
X164643905Y-113760333D01*
X164739143Y-113807952D01*
X164786762Y-113855571D01*
X164834381Y-113950809D01*
X164834381Y-114188905D01*
X164786762Y-114284143D01*
X164739143Y-114331762D01*
X138326667Y-80472381D02*
X138326667Y-81186667D01*
X138279047Y-81329524D01*
X138183809Y-81424762D01*
X138040952Y-81472381D01*
X137945714Y-81472381D01*
X139326667Y-81472381D02*
X138755238Y-81472381D01*
X139040952Y-81472381D02*
X139040952Y-80472381D01*
X138945714Y-80615238D01*
X138850476Y-80710476D01*
X138755238Y-80758095D01*
X177379334Y-100588143D02*
X177331715Y-100635762D01*
X177188858Y-100683381D01*
X177093620Y-100683381D01*
X176950762Y-100635762D01*
X176855524Y-100540524D01*
X176807905Y-100445286D01*
X176760286Y-100254810D01*
X176760286Y-100111952D01*
X176807905Y-99921476D01*
X176855524Y-99826238D01*
X176950762Y-99731000D01*
X177093620Y-99683381D01*
X177188858Y-99683381D01*
X177331715Y-99731000D01*
X177379334Y-99778619D01*
X177712667Y-99683381D02*
X178379334Y-99683381D01*
X177950762Y-100683381D01*
M02*
