M48
;DRILL file {KiCad 4.0.7} date 12/26/17 15:46:14
;FORMAT={-:-/ absolute / inch / decimal}
FMAT,2
INCH,TZ
T1C0.016
T2C0.026
T3C0.030
T4C0.030
T5C0.031
T6C0.031
T7C0.039
T8C0.059
T9C0.067
%
G90
G05
M72
T1
X5.55Y-3.95
X5.575Y-2.575
X5.575Y-2.95
X5.6Y-2.475
X5.6Y-3.05
X5.6Y-3.375
X5.62Y-2.57
X5.625Y-2.925
X5.625Y-3.25
X5.65Y-3.4
X5.775Y-3.675
X5.8Y-3.525
X5.825Y-2.75
X5.825Y-3.7
X5.825Y-3.85
X5.9Y-3.775
X5.925Y-3.075
X5.9275Y-2.3325
X5.95Y-2.575
X5.95Y-2.875
X5.985Y-3.55
X6.025Y-3.8
X6.025Y-3.85
X6.05Y-3.5
X6.075Y-3.275
X6.175Y-3.825
X6.18Y-3.55
X6.2Y-2.925
X6.2Y-3.375
X6.225Y-3.4
X6.25Y-3.15
X6.255Y-4.05
X6.3Y-3.635
X6.325Y-3.875
X6.35Y-3.325
X6.36Y-3.035
X6.36Y-3.85
X6.375Y-3.525
X6.41Y-4.1
X6.42Y-3.39
X6.425Y-3.5
X6.445Y-3.235
X6.45Y-3.35
X6.455Y-3.9
X6.475Y-3.3
X6.475Y-3.76
X6.475Y-3.835
X6.5025Y-2.3225
X6.54Y-3.345
X6.6Y-3.5
X6.6Y-4.125
X6.7Y-3.9
X6.745Y-4.26
X6.7825Y-4.2225
X6.8Y-3.145
X6.825Y-3.7
X6.825Y-3.735
X6.835Y-3.13
X6.8575Y-4.1725
X7.0075Y-4.3475
X7.03Y-4.14
X7.075Y-3.8
T2
X6.975Y-3.525
X6.975Y-3.575
X6.975Y-3.625
X7.025Y-3.525
X7.025Y-3.575
X7.025Y-3.625
T3
X5.4Y-3.3
X5.4787Y-3.3
T4
X5.4Y-3.5
X5.4Y-3.6
X5.4Y-3.7
X5.4Y-3.8
X5.4Y-3.9
X5.4Y-4.
X6.1Y-3.6
X6.1Y-3.7
X6.1Y-3.8
X6.1Y-3.9
T5
X5.767Y-2.5537
X5.767Y-2.6324
X5.767Y-2.7112
X5.767Y-2.7899
X5.767Y-2.8687
X5.767Y-2.9474
X5.767Y-3.0261
X5.767Y-3.1049
X5.767Y-3.1836
X5.767Y-3.2624
X6.633Y-2.5537
X6.633Y-2.6324
X6.633Y-2.7112
X6.633Y-2.7899
X6.633Y-2.8687
X6.633Y-2.9474
X6.633Y-3.0261
X6.633Y-3.1049
X6.633Y-3.1836
X6.633Y-3.2624
T6
X5.4213Y-2.8638
X5.4213Y-2.9425
X5.4213Y-3.0213
X5.4213Y-3.1
X5.5Y-2.8638
X5.5Y-2.9425
X5.5Y-3.0213
X5.5Y-3.1
T7
X5.75Y-4.4
X6.05Y-4.4
X6.28Y-4.505
X6.38Y-4.505
X6.95Y-2.85
X6.95Y-2.95
X6.95Y-3.05
X6.95Y-3.15
X6.95Y-3.25
X6.95Y-3.35
T8
X6.9Y-2.4
T9
X6.8Y-2.3
X6.8Y-2.5
X7.Y-2.3
X7.Y-2.5
T0
M30
