G04 #@! TF.FileFunction,Soldermask,Bot*
%FSLAX46Y46*%
G04 Gerber Fmt 4.6, Leading zero omitted, Abs format (unit mm)*
G04 Created by KiCad (PCBNEW 4.0.7) date Tuesday, March 06, 2018 'PMt' 12:34:16 PM*
%MOMM*%
%LPD*%
G01*
G04 APERTURE LIST*
%ADD10C,0.100000*%
G04 APERTURE END LIST*
D10*
G36*
X79742500Y-138480000D02*
X77737500Y-138480000D01*
X77737500Y-130760000D01*
X79742500Y-130760000D01*
X79742500Y-138480000D01*
X79742500Y-138480000D01*
G37*
G36*
X77202500Y-138480000D02*
X75197500Y-138480000D01*
X75197500Y-130760000D01*
X77202500Y-130760000D01*
X77202500Y-138480000D01*
X77202500Y-138480000D01*
G37*
G36*
X74662500Y-138480000D02*
X72657500Y-138480000D01*
X72657500Y-130760000D01*
X74662500Y-130760000D01*
X74662500Y-138480000D01*
X74662500Y-138480000D01*
G37*
G36*
X72122500Y-138480000D02*
X70117500Y-138480000D01*
X70117500Y-130760000D01*
X72122500Y-130760000D01*
X72122500Y-138480000D01*
X72122500Y-138480000D01*
G37*
G36*
X69582500Y-138480000D02*
X67577500Y-138480000D01*
X67577500Y-130760000D01*
X69582500Y-130760000D01*
X69582500Y-138480000D01*
X69582500Y-138480000D01*
G37*
G36*
X67042500Y-138480000D02*
X65037500Y-138480000D01*
X65037500Y-130760000D01*
X67042500Y-130760000D01*
X67042500Y-138480000D01*
X67042500Y-138480000D01*
G37*
G36*
X64502500Y-138480000D02*
X62497500Y-138480000D01*
X62497500Y-130760000D01*
X64502500Y-130760000D01*
X64502500Y-138480000D01*
X64502500Y-138480000D01*
G37*
G36*
X61962500Y-138480000D02*
X59957500Y-138480000D01*
X59957500Y-130760000D01*
X61962500Y-130760000D01*
X61962500Y-138480000D01*
X61962500Y-138480000D01*
G37*
G36*
X59422500Y-138480000D02*
X57417500Y-138480000D01*
X57417500Y-130760000D01*
X59422500Y-130760000D01*
X59422500Y-138480000D01*
X59422500Y-138480000D01*
G37*
G36*
X56882500Y-138480000D02*
X54877500Y-138480000D01*
X54877500Y-130760000D01*
X56882500Y-130760000D01*
X56882500Y-138480000D01*
X56882500Y-138480000D01*
G37*
G36*
X84822500Y-138480000D02*
X82817500Y-138480000D01*
X82817500Y-130760000D01*
X84822500Y-130760000D01*
X84822500Y-138480000D01*
X84822500Y-138480000D01*
G37*
G36*
X92442500Y-138480000D02*
X90437500Y-138480000D01*
X90437500Y-130760000D01*
X92442500Y-130760000D01*
X92442500Y-138480000D01*
X92442500Y-138480000D01*
G37*
G36*
X89902500Y-138480000D02*
X87897500Y-138480000D01*
X87897500Y-130760000D01*
X89902500Y-130760000D01*
X89902500Y-138480000D01*
X89902500Y-138480000D01*
G37*
G36*
X87362500Y-138480000D02*
X85357500Y-138480000D01*
X85357500Y-130760000D01*
X87362500Y-130760000D01*
X87362500Y-138480000D01*
X87362500Y-138480000D01*
G37*
G36*
X82282500Y-138480000D02*
X80277500Y-138480000D01*
X80277500Y-130760000D01*
X82282500Y-130760000D01*
X82282500Y-138480000D01*
X82282500Y-138480000D01*
G37*
G36*
X104483279Y-100694564D02*
X104646570Y-100728083D01*
X104800236Y-100792678D01*
X104938433Y-100885892D01*
X105055893Y-101004176D01*
X105148140Y-101143018D01*
X105211661Y-101297132D01*
X105243971Y-101460309D01*
X105243971Y-101460319D01*
X105244037Y-101460653D01*
X105241378Y-101651049D01*
X105241302Y-101651383D01*
X105241302Y-101651395D01*
X105204451Y-101813599D01*
X105136649Y-101965883D01*
X105040562Y-102102095D01*
X104919843Y-102217054D01*
X104779102Y-102306370D01*
X104623688Y-102366653D01*
X104459529Y-102395598D01*
X104292872Y-102392107D01*
X104130062Y-102356311D01*
X103977315Y-102289577D01*
X103840429Y-102194439D01*
X103724634Y-102074530D01*
X103634337Y-101934417D01*
X103572972Y-101779428D01*
X103542880Y-101615467D01*
X103545208Y-101448791D01*
X103579864Y-101285744D01*
X103645534Y-101132527D01*
X103739710Y-100994986D01*
X103858810Y-100878354D01*
X103998292Y-100787079D01*
X104152848Y-100724635D01*
X104316586Y-100693400D01*
X104483279Y-100694564D01*
X104483279Y-100694564D01*
G37*
G36*
X105244000Y-98894000D02*
X103544000Y-98894000D01*
X103544000Y-97194000D01*
X105244000Y-97194000D01*
X105244000Y-98894000D01*
X105244000Y-98894000D01*
G37*
M02*
