M48
;DRILL file {KiCad 4.0.7} date Tuesday, March 06, 2018 'PMt' 12:34:25 PM
;FORMAT={-:-/ absolute / inch / decimal}
FMAT,2
INCH,TZ
T1C0.010
T2C0.016
T3C0.031
%
G90
G05
M72
T1
X2.33Y-4.2
X2.47Y-4.15
X2.5087Y-4.3819
X2.52Y-4.24
X2.63Y-4.2
X2.77Y-4.15
X2.81Y-4.24
X2.8112Y-4.3818
X2.93Y-4.2
X3.07Y-4.15
X3.09Y-4.02
X3.11Y-4.24
X3.1134Y-4.4039
X3.1134Y-4.4323
X3.1369Y-4.5015
X3.1386Y-4.3772
X3.1589Y-4.4791
X3.3416Y-4.2363
X3.39Y-4.24
X3.4Y-4.66
X3.4Y-4.74
X3.414Y-4.21
X3.4149Y-4.5599
X3.43Y-4.66
X3.44Y-4.58
X3.44Y-4.24
X3.46Y-4.74
X3.4633Y-4.5598
X3.464Y-4.21
X3.49Y-4.24
X3.49Y-4.58
X3.5229Y-4.173
X3.7697Y-4.6555
X3.7697Y-4.6949
X3.7894Y-4.6752
X3.8091Y-4.6949
X3.8189Y-4.6555
X3.8386Y-4.6752
X3.8583Y-4.6555
X3.8583Y-4.6949
X4.415Y-4.1325
X4.7525Y-4.22
T2
X2.175Y-3.825
X2.2Y-4.96
X2.2Y-5.
X2.24Y-5.
X2.24Y-5.04
X2.28Y-5.04
X2.28Y-5.08
X2.3192Y-4.5188
X2.3192Y-4.56
X2.32Y-3.79
X2.32Y-3.83
X2.3592Y-4.5188
X2.3592Y-4.56
X2.36Y-3.79
X2.36Y-3.83
X2.3992Y-4.5188
X2.3992Y-4.56
X2.4Y-3.79
X2.4Y-3.83
X2.4392Y-4.5188
X2.4392Y-4.56
X2.44Y-3.79
X2.44Y-3.83
X2.4792Y-3.79
X2.4792Y-3.83
X2.4792Y-4.5188
X2.4792Y-4.56
X2.54Y-4.3
X2.54Y-4.34
X2.54Y-4.46
X2.58Y-4.28
X2.58Y-4.32
X2.58Y-4.36
X2.82Y-4.54
X2.84Y-4.3
X2.84Y-4.34
X2.84Y-4.5
X2.84Y-4.58
X2.86Y-4.54
X2.88Y-4.28
X2.88Y-4.32
X2.88Y-4.5
X2.88Y-4.58
X2.88Y-4.72
X3.16Y-4.32
X3.16Y-4.8
X3.2Y-5.1
X3.22Y-4.54
X3.3Y-5.1
X3.34Y-4.46
X3.4Y-3.96
X3.4Y-4.
X3.42Y-4.4
X3.44Y-3.96
X3.44Y-4.
X3.45Y-5.12
X3.46Y-4.4
X3.475Y-4.945
X3.55Y-5.06
X3.55Y-5.11
X3.56Y-4.36
X3.595Y-4.875
X3.5993Y-4.9199
X3.64Y-4.7
X3.66Y-4.54
X3.68Y-4.36
X3.68Y-4.4
X3.68Y-4.58
X3.685Y-5.0288
X3.69Y-3.7165
X3.69Y-3.94
X3.7Y-4.84
X3.7Y-4.88
X3.7992Y-4.9688
X3.94Y-4.66
X3.94Y-4.7
X3.96Y-4.21
X4.07Y-4.91
X4.14Y-4.7
X4.17Y-4.38
X4.19Y-4.98
X4.24Y-4.73
X4.37Y-3.91
X4.37Y-4.59
X4.415Y-3.845
X4.415Y-4.52
X4.415Y-4.8075
X4.44Y-3.945
X4.44Y-3.9825
X4.44Y-4.62
X4.44Y-4.6575
X4.4525Y-3.845
X4.4525Y-4.52
X4.48Y-4.04
X4.48Y-4.72
X4.52Y-4.04
X4.52Y-4.22
X4.52Y-4.72
X4.52Y-4.9
X4.56Y-4.04
X4.56Y-4.3
X4.56Y-4.72
X4.56Y-4.98
X4.6Y-4.04
X4.6Y-4.72
X4.7Y-4.39
X4.7525Y-4.895
X4.758Y-4.31
X4.7892Y-4.2788
X4.8225Y-3.78
X4.8225Y-3.82
X4.8225Y-3.86
X4.8225Y-3.9
X4.8225Y-4.45
X4.8225Y-4.49
X4.8225Y-4.53
X4.8225Y-4.57
X5.15Y-4.04
X5.15Y-4.72
T3
X4.11Y-3.86
X4.11Y-3.9978
T0
M30
