G04 #@! TF.FileFunction,Soldermask,Top*
%FSLAX46Y46*%
G04 Gerber Fmt 4.6, Leading zero omitted, Abs format (unit mm)*
G04 Created by KiCad (PCBNEW 4.0.7) date Tuesday, March 06, 2018 'PMt' 12:34:16 PM*
%MOMM*%
%LPD*%
G01*
G04 APERTURE LIST*
%ADD10C,0.100000*%
G04 APERTURE END LIST*
D10*
G36*
X56882500Y-138480000D02*
X54877500Y-138480000D01*
X54877500Y-130760000D01*
X56882500Y-130760000D01*
X56882500Y-138480000D01*
X56882500Y-138480000D01*
G37*
G36*
X59422500Y-138480000D02*
X57417500Y-138480000D01*
X57417500Y-130760000D01*
X59422500Y-130760000D01*
X59422500Y-138480000D01*
X59422500Y-138480000D01*
G37*
G36*
X61962500Y-138480000D02*
X59957500Y-138480000D01*
X59957500Y-130760000D01*
X61962500Y-130760000D01*
X61962500Y-138480000D01*
X61962500Y-138480000D01*
G37*
G36*
X64502500Y-138480000D02*
X62497500Y-138480000D01*
X62497500Y-130760000D01*
X64502500Y-130760000D01*
X64502500Y-138480000D01*
X64502500Y-138480000D01*
G37*
G36*
X67042500Y-138480000D02*
X65037500Y-138480000D01*
X65037500Y-130760000D01*
X67042500Y-130760000D01*
X67042500Y-138480000D01*
X67042500Y-138480000D01*
G37*
G36*
X69582500Y-138480000D02*
X67577500Y-138480000D01*
X67577500Y-130760000D01*
X69582500Y-130760000D01*
X69582500Y-138480000D01*
X69582500Y-138480000D01*
G37*
G36*
X72122500Y-138480000D02*
X70117500Y-138480000D01*
X70117500Y-130760000D01*
X72122500Y-130760000D01*
X72122500Y-138480000D01*
X72122500Y-138480000D01*
G37*
G36*
X92442500Y-138480000D02*
X90437500Y-138480000D01*
X90437500Y-130760000D01*
X92442500Y-130760000D01*
X92442500Y-138480000D01*
X92442500Y-138480000D01*
G37*
G36*
X87362500Y-138480000D02*
X85357500Y-138480000D01*
X85357500Y-130760000D01*
X87362500Y-130760000D01*
X87362500Y-138480000D01*
X87362500Y-138480000D01*
G37*
G36*
X84822500Y-138480000D02*
X82817500Y-138480000D01*
X82817500Y-130760000D01*
X84822500Y-130760000D01*
X84822500Y-138480000D01*
X84822500Y-138480000D01*
G37*
G36*
X82282500Y-138480000D02*
X80277500Y-138480000D01*
X80277500Y-130760000D01*
X82282500Y-130760000D01*
X82282500Y-138480000D01*
X82282500Y-138480000D01*
G37*
G36*
X89902500Y-138480000D02*
X87897500Y-138480000D01*
X87897500Y-130760000D01*
X89902500Y-130760000D01*
X89902500Y-138480000D01*
X89902500Y-138480000D01*
G37*
G36*
X79742500Y-138480000D02*
X77737500Y-138480000D01*
X77737500Y-130760000D01*
X79742500Y-130760000D01*
X79742500Y-138480000D01*
X79742500Y-138480000D01*
G37*
G36*
X77202500Y-138480000D02*
X75197500Y-138480000D01*
X75197500Y-130760000D01*
X77202500Y-130760000D01*
X77202500Y-138480000D01*
X77202500Y-138480000D01*
G37*
G36*
X74662500Y-138480000D02*
X72657500Y-138480000D01*
X72657500Y-130760000D01*
X74662500Y-130760000D01*
X74662500Y-138480000D01*
X74662500Y-138480000D01*
G37*
G36*
X82100000Y-127754000D02*
X81500000Y-127754000D01*
X81500000Y-126754000D01*
X82100000Y-126754000D01*
X82100000Y-127754000D01*
X82100000Y-127754000D01*
G37*
G36*
X83600000Y-127754000D02*
X83000000Y-127754000D01*
X83000000Y-126754000D01*
X83600000Y-126754000D01*
X83600000Y-127754000D01*
X83600000Y-127754000D01*
G37*
G36*
X86848000Y-127704000D02*
X85948000Y-127704000D01*
X85948000Y-126804000D01*
X86848000Y-126804000D01*
X86848000Y-127704000D01*
X86848000Y-127704000D01*
G37*
G36*
X85248000Y-127704000D02*
X84348000Y-127704000D01*
X84348000Y-126804000D01*
X85248000Y-126804000D01*
X85248000Y-127704000D01*
X85248000Y-127704000D01*
G37*
G36*
X128343500Y-127438000D02*
X123243500Y-127438000D01*
X123243500Y-122838000D01*
X128343500Y-122838000D01*
X128343500Y-127438000D01*
X128343500Y-127438000D01*
G37*
G36*
X83600000Y-125976000D02*
X83000000Y-125976000D01*
X83000000Y-124976000D01*
X83600000Y-124976000D01*
X83600000Y-125976000D01*
X83600000Y-125976000D01*
G37*
G36*
X82100000Y-125976000D02*
X81500000Y-125976000D01*
X81500000Y-124976000D01*
X82100000Y-124976000D01*
X82100000Y-125976000D01*
X82100000Y-125976000D01*
G37*
G36*
X86848000Y-125926000D02*
X85948000Y-125926000D01*
X85948000Y-125026000D01*
X86848000Y-125026000D01*
X86848000Y-125926000D01*
X86848000Y-125926000D01*
G37*
G36*
X85248000Y-125926000D02*
X84348000Y-125926000D01*
X84348000Y-125026000D01*
X85248000Y-125026000D01*
X85248000Y-125926000D01*
X85248000Y-125926000D01*
G37*
G36*
X116453500Y-125643000D02*
X115353500Y-125643000D01*
X115353500Y-124293000D01*
X116453500Y-124293000D01*
X116453500Y-125643000D01*
X116453500Y-125643000D01*
G37*
G36*
X118453500Y-125643000D02*
X117353500Y-125643000D01*
X117353500Y-124293000D01*
X118453500Y-124293000D01*
X118453500Y-125643000D01*
X118453500Y-125643000D01*
G37*
G36*
X69390000Y-125025000D02*
X66790000Y-125025000D01*
X66790000Y-122625000D01*
X69390000Y-122625000D01*
X69390000Y-125025000D01*
X69390000Y-125025000D01*
G37*
G36*
X73690000Y-125025000D02*
X71090000Y-125025000D01*
X71090000Y-122625000D01*
X73690000Y-122625000D01*
X73690000Y-125025000D01*
X73690000Y-125025000D01*
G37*
G36*
X83600000Y-124198000D02*
X83000000Y-124198000D01*
X83000000Y-123198000D01*
X83600000Y-123198000D01*
X83600000Y-124198000D01*
X83600000Y-124198000D01*
G37*
G36*
X82100000Y-124198000D02*
X81500000Y-124198000D01*
X81500000Y-123198000D01*
X82100000Y-123198000D01*
X82100000Y-124198000D01*
X82100000Y-124198000D01*
G37*
G36*
X98050000Y-124175000D02*
X96950000Y-124175000D01*
X96950000Y-122825000D01*
X98050000Y-122825000D01*
X98050000Y-124175000D01*
X98050000Y-124175000D01*
G37*
G36*
X96050000Y-124175000D02*
X94950000Y-124175000D01*
X94950000Y-122825000D01*
X96050000Y-122825000D01*
X96050000Y-124175000D01*
X96050000Y-124175000D01*
G37*
G36*
X86848000Y-124148000D02*
X85948000Y-124148000D01*
X85948000Y-123248000D01*
X86848000Y-123248000D01*
X86848000Y-124148000D01*
X86848000Y-124148000D01*
G37*
G36*
X85248000Y-124148000D02*
X84348000Y-124148000D01*
X84348000Y-123248000D01*
X85248000Y-123248000D01*
X85248000Y-124148000D01*
X85248000Y-124148000D01*
G37*
G36*
X101700000Y-123925000D02*
X100800000Y-123925000D01*
X100800000Y-123075000D01*
X101700000Y-123075000D01*
X101700000Y-123925000D01*
X101700000Y-123925000D01*
G37*
G36*
X100200000Y-123925000D02*
X99300000Y-123925000D01*
X99300000Y-123075000D01*
X100200000Y-123075000D01*
X100200000Y-123925000D01*
X100200000Y-123925000D01*
G37*
G36*
X104550000Y-123550000D02*
X102450000Y-123550000D01*
X102450000Y-120450000D01*
X104550000Y-120450000D01*
X104550000Y-123550000D01*
X104550000Y-123550000D01*
G37*
G36*
X116453500Y-123103000D02*
X115353500Y-123103000D01*
X115353500Y-121753000D01*
X116453500Y-121753000D01*
X116453500Y-123103000D01*
X116453500Y-123103000D01*
G37*
G36*
X118453500Y-123103000D02*
X117353500Y-123103000D01*
X117353500Y-121753000D01*
X118453500Y-121753000D01*
X118453500Y-123103000D01*
X118453500Y-123103000D01*
G37*
G36*
X111286000Y-122610500D02*
X110686000Y-122610500D01*
X110686000Y-121610500D01*
X111286000Y-121610500D01*
X111286000Y-122610500D01*
X111286000Y-122610500D01*
G37*
G36*
X109786000Y-122610500D02*
X109186000Y-122610500D01*
X109186000Y-121610500D01*
X109786000Y-121610500D01*
X109786000Y-122610500D01*
X109786000Y-122610500D01*
G37*
G36*
X90510000Y-121912000D02*
X89910000Y-121912000D01*
X89910000Y-120912000D01*
X90510000Y-120912000D01*
X90510000Y-121912000D01*
X90510000Y-121912000D01*
G37*
G36*
X89010000Y-121912000D02*
X88410000Y-121912000D01*
X88410000Y-120912000D01*
X89010000Y-120912000D01*
X89010000Y-121912000D01*
X89010000Y-121912000D01*
G37*
G36*
X87410000Y-121912000D02*
X86810000Y-121912000D01*
X86810000Y-120912000D01*
X87410000Y-120912000D01*
X87410000Y-121912000D01*
X87410000Y-121912000D01*
G37*
G36*
X85910000Y-121912000D02*
X85310000Y-121912000D01*
X85310000Y-120912000D01*
X85910000Y-120912000D01*
X85910000Y-121912000D01*
X85910000Y-121912000D01*
G37*
G36*
X84362000Y-121912000D02*
X83762000Y-121912000D01*
X83762000Y-120912000D01*
X84362000Y-120912000D01*
X84362000Y-121912000D01*
X84362000Y-121912000D01*
G37*
G36*
X82862000Y-121912000D02*
X82262000Y-121912000D01*
X82262000Y-120912000D01*
X82862000Y-120912000D01*
X82862000Y-121912000D01*
X82862000Y-121912000D01*
G37*
G36*
X98700000Y-121700000D02*
X94800000Y-121700000D01*
X94800000Y-120200000D01*
X98700000Y-120200000D01*
X98700000Y-121700000D01*
X98700000Y-121700000D01*
G37*
G36*
X111286000Y-120705500D02*
X110686000Y-120705500D01*
X110686000Y-119705500D01*
X111286000Y-119705500D01*
X111286000Y-120705500D01*
X111286000Y-120705500D01*
G37*
G36*
X109786000Y-120705500D02*
X109186000Y-120705500D01*
X109186000Y-119705500D01*
X109786000Y-119705500D01*
X109786000Y-120705500D01*
X109786000Y-120705500D01*
G37*
G36*
X88958000Y-119880000D02*
X88358000Y-119880000D01*
X88358000Y-118880000D01*
X88958000Y-118880000D01*
X88958000Y-119880000D01*
X88958000Y-119880000D01*
G37*
G36*
X90458000Y-119880000D02*
X89858000Y-119880000D01*
X89858000Y-118880000D01*
X90458000Y-118880000D01*
X90458000Y-119880000D01*
X90458000Y-119880000D01*
G37*
G36*
X87410000Y-119880000D02*
X86810000Y-119880000D01*
X86810000Y-118880000D01*
X87410000Y-118880000D01*
X87410000Y-119880000D01*
X87410000Y-119880000D01*
G37*
G36*
X85910000Y-119880000D02*
X85310000Y-119880000D01*
X85310000Y-118880000D01*
X85910000Y-118880000D01*
X85910000Y-119880000D01*
X85910000Y-119880000D01*
G37*
G36*
X84362000Y-119880000D02*
X83762000Y-119880000D01*
X83762000Y-118880000D01*
X84362000Y-118880000D01*
X84362000Y-119880000D01*
X84362000Y-119880000D01*
G37*
G36*
X82862000Y-119880000D02*
X82262000Y-119880000D01*
X82262000Y-118880000D01*
X82862000Y-118880000D01*
X82862000Y-119880000D01*
X82862000Y-119880000D01*
G37*
G36*
X98325000Y-119625000D02*
X95375000Y-119625000D01*
X95375000Y-117875000D01*
X98325000Y-117875000D01*
X98325000Y-119625000D01*
X98325000Y-119625000D01*
G37*
G36*
X77990000Y-119310000D02*
X75390000Y-119310000D01*
X75390000Y-116910000D01*
X77990000Y-116910000D01*
X77990000Y-119310000D01*
X77990000Y-119310000D01*
G37*
G36*
X73690000Y-119310000D02*
X71090000Y-119310000D01*
X71090000Y-116910000D01*
X73690000Y-116910000D01*
X73690000Y-119310000D01*
X73690000Y-119310000D01*
G37*
G36*
X65435000Y-119310000D02*
X62835000Y-119310000D01*
X62835000Y-116910000D01*
X65435000Y-116910000D01*
X65435000Y-119310000D01*
X65435000Y-119310000D01*
G37*
G36*
X61135000Y-119310000D02*
X58535000Y-119310000D01*
X58535000Y-116910000D01*
X61135000Y-116910000D01*
X61135000Y-119310000D01*
X61135000Y-119310000D01*
G37*
G36*
X112421000Y-118658000D02*
X111321000Y-118658000D01*
X111321000Y-117308000D01*
X112421000Y-117308000D01*
X112421000Y-118658000D01*
X112421000Y-118658000D01*
G37*
G36*
X110421000Y-118658000D02*
X109321000Y-118658000D01*
X109321000Y-117308000D01*
X110421000Y-117308000D01*
X110421000Y-118658000D01*
X110421000Y-118658000D01*
G37*
G36*
X84362000Y-117848000D02*
X83762000Y-117848000D01*
X83762000Y-116848000D01*
X84362000Y-116848000D01*
X84362000Y-117848000D01*
X84362000Y-117848000D01*
G37*
G36*
X87410000Y-117848000D02*
X86810000Y-117848000D01*
X86810000Y-116848000D01*
X87410000Y-116848000D01*
X87410000Y-117848000D01*
X87410000Y-117848000D01*
G37*
G36*
X82862000Y-117848000D02*
X82262000Y-117848000D01*
X82262000Y-116848000D01*
X82862000Y-116848000D01*
X82862000Y-117848000D01*
X82862000Y-117848000D01*
G37*
G36*
X90480000Y-117848000D02*
X89880000Y-117848000D01*
X89880000Y-116848000D01*
X90480000Y-116848000D01*
X90480000Y-117848000D01*
X90480000Y-117848000D01*
G37*
G36*
X85910000Y-117848000D02*
X85310000Y-117848000D01*
X85310000Y-116848000D01*
X85910000Y-116848000D01*
X85910000Y-117848000D01*
X85910000Y-117848000D01*
G37*
G36*
X88980000Y-117848000D02*
X88380000Y-117848000D01*
X88380000Y-116848000D01*
X88980000Y-116848000D01*
X88980000Y-117848000D01*
X88980000Y-117848000D01*
G37*
G36*
X98700000Y-117300000D02*
X94800000Y-117300000D01*
X94800000Y-115800000D01*
X98700000Y-115800000D01*
X98700000Y-117300000D01*
X98700000Y-117300000D01*
G37*
G36*
X128343500Y-116938000D02*
X123243500Y-116938000D01*
X123243500Y-112338000D01*
X128343500Y-112338000D01*
X128343500Y-116938000D01*
X128343500Y-116938000D01*
G37*
G36*
X104550000Y-116550000D02*
X102450000Y-116550000D01*
X102450000Y-113450000D01*
X104550000Y-113450000D01*
X104550000Y-116550000D01*
X104550000Y-116550000D01*
G37*
G36*
X115673500Y-116040500D02*
X114323500Y-116040500D01*
X114323500Y-114940500D01*
X115673500Y-114940500D01*
X115673500Y-116040500D01*
X115673500Y-116040500D01*
G37*
G36*
X117896000Y-116040500D02*
X116546000Y-116040500D01*
X116546000Y-114940500D01*
X117896000Y-114940500D01*
X117896000Y-116040500D01*
X117896000Y-116040500D01*
G37*
G36*
X111598500Y-115815500D02*
X110438500Y-115815500D01*
X110438500Y-115065500D01*
X111598500Y-115065500D01*
X111598500Y-115815500D01*
X111598500Y-115815500D01*
G37*
G36*
X109398500Y-115815500D02*
X108238500Y-115815500D01*
X108238500Y-115065500D01*
X109398500Y-115065500D01*
X109398500Y-115815500D01*
X109398500Y-115815500D01*
G37*
G36*
X83816000Y-115070000D02*
X83316000Y-115070000D01*
X83316000Y-113770000D01*
X83816000Y-113770000D01*
X83816000Y-115070000D01*
X83816000Y-115070000D01*
G37*
G36*
X84451000Y-115070000D02*
X83951000Y-115070000D01*
X83951000Y-113770000D01*
X84451000Y-113770000D01*
X84451000Y-115070000D01*
X84451000Y-115070000D01*
G37*
G36*
X85086000Y-115070000D02*
X84586000Y-115070000D01*
X84586000Y-113770000D01*
X85086000Y-113770000D01*
X85086000Y-115070000D01*
X85086000Y-115070000D01*
G37*
G36*
X85721000Y-115070000D02*
X85221000Y-115070000D01*
X85221000Y-113770000D01*
X85721000Y-113770000D01*
X85721000Y-115070000D01*
X85721000Y-115070000D01*
G37*
G36*
X86356000Y-115070000D02*
X85856000Y-115070000D01*
X85856000Y-113770000D01*
X86356000Y-113770000D01*
X86356000Y-115070000D01*
X86356000Y-115070000D01*
G37*
G36*
X86991000Y-115070000D02*
X86491000Y-115070000D01*
X86491000Y-113770000D01*
X86991000Y-113770000D01*
X86991000Y-115070000D01*
X86991000Y-115070000D01*
G37*
G36*
X87626000Y-115070000D02*
X87126000Y-115070000D01*
X87126000Y-113770000D01*
X87626000Y-113770000D01*
X87626000Y-115070000D01*
X87626000Y-115070000D01*
G37*
G36*
X88261000Y-115070000D02*
X87761000Y-115070000D01*
X87761000Y-113770000D01*
X88261000Y-113770000D01*
X88261000Y-115070000D01*
X88261000Y-115070000D01*
G37*
G36*
X88896000Y-115070000D02*
X88396000Y-115070000D01*
X88396000Y-113770000D01*
X88896000Y-113770000D01*
X88896000Y-115070000D01*
X88896000Y-115070000D01*
G37*
G36*
X89531000Y-115070000D02*
X89031000Y-115070000D01*
X89031000Y-113770000D01*
X89531000Y-113770000D01*
X89531000Y-115070000D01*
X89531000Y-115070000D01*
G37*
G36*
X90166000Y-115070000D02*
X89666000Y-115070000D01*
X89666000Y-113770000D01*
X90166000Y-113770000D01*
X90166000Y-115070000D01*
X90166000Y-115070000D01*
G37*
G36*
X90801000Y-115070000D02*
X90301000Y-115070000D01*
X90301000Y-113770000D01*
X90801000Y-113770000D01*
X90801000Y-115070000D01*
X90801000Y-115070000D01*
G37*
G36*
X94200000Y-114925000D02*
X93300000Y-114925000D01*
X93300000Y-114075000D01*
X94200000Y-114075000D01*
X94200000Y-114925000D01*
X94200000Y-114925000D01*
G37*
G36*
X95700000Y-114925000D02*
X94800000Y-114925000D01*
X94800000Y-114075000D01*
X95700000Y-114075000D01*
X95700000Y-114925000D01*
X95700000Y-114925000D01*
G37*
G36*
X109398500Y-114865500D02*
X108238500Y-114865500D01*
X108238500Y-114115500D01*
X109398500Y-114115500D01*
X109398500Y-114865500D01*
X109398500Y-114865500D01*
G37*
G36*
X111598500Y-114865500D02*
X110438500Y-114865500D01*
X110438500Y-114115500D01*
X111598500Y-114115500D01*
X111598500Y-114865500D01*
X111598500Y-114865500D01*
G37*
G36*
X117896000Y-114040500D02*
X116546000Y-114040500D01*
X116546000Y-112940500D01*
X117896000Y-112940500D01*
X117896000Y-114040500D01*
X117896000Y-114040500D01*
G37*
G36*
X115673500Y-114040500D02*
X114323500Y-114040500D01*
X114323500Y-112940500D01*
X115673500Y-112940500D01*
X115673500Y-114040500D01*
X115673500Y-114040500D01*
G37*
G36*
X100200000Y-113925000D02*
X99300000Y-113925000D01*
X99300000Y-113075000D01*
X100200000Y-113075000D01*
X100200000Y-113925000D01*
X100200000Y-113925000D01*
G37*
G36*
X101700000Y-113925000D02*
X100800000Y-113925000D01*
X100800000Y-113075000D01*
X101700000Y-113075000D01*
X101700000Y-113925000D01*
X101700000Y-113925000D01*
G37*
G36*
X109398500Y-113915500D02*
X108238500Y-113915500D01*
X108238500Y-113165500D01*
X109398500Y-113165500D01*
X109398500Y-113915500D01*
X109398500Y-113915500D01*
G37*
G36*
X111598500Y-113915500D02*
X110438500Y-113915500D01*
X110438500Y-113165500D01*
X111598500Y-113165500D01*
X111598500Y-113915500D01*
X111598500Y-113915500D01*
G37*
G36*
X70585000Y-112675000D02*
X70586980Y-112688930D01*
X70592761Y-112701756D01*
X70601888Y-112712464D01*
X70613636Y-112720206D01*
X70627076Y-112724368D01*
X70635000Y-112725000D01*
X70840000Y-112725000D01*
X70840000Y-113845000D01*
X70130000Y-113845000D01*
X70130000Y-113185000D01*
X70128020Y-113171070D01*
X70122239Y-113158244D01*
X70113112Y-113147536D01*
X70101364Y-113139794D01*
X70087924Y-113135632D01*
X70080000Y-113135000D01*
X69620000Y-113135000D01*
X69606070Y-113136980D01*
X69593244Y-113142761D01*
X69582536Y-113151888D01*
X69574794Y-113163636D01*
X69570632Y-113177076D01*
X69570000Y-113185000D01*
X69570000Y-113845000D01*
X68860000Y-113845000D01*
X68860000Y-113185000D01*
X68858020Y-113171070D01*
X68852239Y-113158244D01*
X68843112Y-113147536D01*
X68831364Y-113139794D01*
X68817924Y-113135632D01*
X68810000Y-113135000D01*
X68350000Y-113135000D01*
X68336070Y-113136980D01*
X68323244Y-113142761D01*
X68312536Y-113151888D01*
X68304794Y-113163636D01*
X68300632Y-113177076D01*
X68300000Y-113185000D01*
X68300000Y-113845000D01*
X67590000Y-113845000D01*
X67590000Y-113185000D01*
X67588020Y-113171070D01*
X67582239Y-113158244D01*
X67573112Y-113147536D01*
X67561364Y-113139794D01*
X67547924Y-113135632D01*
X67540000Y-113135000D01*
X67080000Y-113135000D01*
X67066070Y-113136980D01*
X67053244Y-113142761D01*
X67042536Y-113151888D01*
X67034794Y-113163636D01*
X67030632Y-113177076D01*
X67030000Y-113185000D01*
X67030000Y-113845000D01*
X66320000Y-113845000D01*
X66320000Y-112725000D01*
X66525000Y-112725000D01*
X66538930Y-112723020D01*
X66551756Y-112717239D01*
X66562464Y-112708112D01*
X66570206Y-112696364D01*
X66574368Y-112682924D01*
X66575000Y-112675000D01*
X66575000Y-109225000D01*
X70585000Y-109225000D01*
X70585000Y-112675000D01*
X70585000Y-112675000D01*
G37*
G36*
X78205000Y-112675000D02*
X78206980Y-112688930D01*
X78212761Y-112701756D01*
X78221888Y-112712464D01*
X78233636Y-112720206D01*
X78247076Y-112724368D01*
X78255000Y-112725000D01*
X78460000Y-112725000D01*
X78460000Y-113845000D01*
X77750000Y-113845000D01*
X77750000Y-113185000D01*
X77748020Y-113171070D01*
X77742239Y-113158244D01*
X77733112Y-113147536D01*
X77721364Y-113139794D01*
X77707924Y-113135632D01*
X77700000Y-113135000D01*
X77240000Y-113135000D01*
X77226070Y-113136980D01*
X77213244Y-113142761D01*
X77202536Y-113151888D01*
X77194794Y-113163636D01*
X77190632Y-113177076D01*
X77190000Y-113185000D01*
X77190000Y-113845000D01*
X76480000Y-113845000D01*
X76480000Y-113185000D01*
X76478020Y-113171070D01*
X76472239Y-113158244D01*
X76463112Y-113147536D01*
X76451364Y-113139794D01*
X76437924Y-113135632D01*
X76430000Y-113135000D01*
X75970000Y-113135000D01*
X75956070Y-113136980D01*
X75943244Y-113142761D01*
X75932536Y-113151888D01*
X75924794Y-113163636D01*
X75920632Y-113177076D01*
X75920000Y-113185000D01*
X75920000Y-113845000D01*
X75210000Y-113845000D01*
X75210000Y-113185000D01*
X75208020Y-113171070D01*
X75202239Y-113158244D01*
X75193112Y-113147536D01*
X75181364Y-113139794D01*
X75167924Y-113135632D01*
X75160000Y-113135000D01*
X74700000Y-113135000D01*
X74686070Y-113136980D01*
X74673244Y-113142761D01*
X74662536Y-113151888D01*
X74654794Y-113163636D01*
X74650632Y-113177076D01*
X74650000Y-113185000D01*
X74650000Y-113845000D01*
X73940000Y-113845000D01*
X73940000Y-112725000D01*
X74145000Y-112725000D01*
X74158930Y-112723020D01*
X74171756Y-112717239D01*
X74182464Y-112708112D01*
X74190206Y-112696364D01*
X74194368Y-112682924D01*
X74195000Y-112675000D01*
X74195000Y-109225000D01*
X78205000Y-109225000D01*
X78205000Y-112675000D01*
X78205000Y-112675000D01*
G37*
G36*
X62965000Y-112675000D02*
X62966980Y-112688930D01*
X62972761Y-112701756D01*
X62981888Y-112712464D01*
X62993636Y-112720206D01*
X63007076Y-112724368D01*
X63015000Y-112725000D01*
X63220000Y-112725000D01*
X63220000Y-113845000D01*
X62510000Y-113845000D01*
X62510000Y-113185000D01*
X62508020Y-113171070D01*
X62502239Y-113158244D01*
X62493112Y-113147536D01*
X62481364Y-113139794D01*
X62467924Y-113135632D01*
X62460000Y-113135000D01*
X62000000Y-113135000D01*
X61986070Y-113136980D01*
X61973244Y-113142761D01*
X61962536Y-113151888D01*
X61954794Y-113163636D01*
X61950632Y-113177076D01*
X61950000Y-113185000D01*
X61950000Y-113845000D01*
X61240000Y-113845000D01*
X61240000Y-113185000D01*
X61238020Y-113171070D01*
X61232239Y-113158244D01*
X61223112Y-113147536D01*
X61211364Y-113139794D01*
X61197924Y-113135632D01*
X61190000Y-113135000D01*
X60730000Y-113135000D01*
X60716070Y-113136980D01*
X60703244Y-113142761D01*
X60692536Y-113151888D01*
X60684794Y-113163636D01*
X60680632Y-113177076D01*
X60680000Y-113185000D01*
X60680000Y-113845000D01*
X59970000Y-113845000D01*
X59970000Y-113185000D01*
X59968020Y-113171070D01*
X59962239Y-113158244D01*
X59953112Y-113147536D01*
X59941364Y-113139794D01*
X59927924Y-113135632D01*
X59920000Y-113135000D01*
X59460000Y-113135000D01*
X59446070Y-113136980D01*
X59433244Y-113142761D01*
X59422536Y-113151888D01*
X59414794Y-113163636D01*
X59410632Y-113177076D01*
X59410000Y-113185000D01*
X59410000Y-113845000D01*
X58700000Y-113845000D01*
X58700000Y-112725000D01*
X58905000Y-112725000D01*
X58918930Y-112723020D01*
X58931756Y-112717239D01*
X58942464Y-112708112D01*
X58950206Y-112696364D01*
X58954368Y-112682924D01*
X58955000Y-112675000D01*
X58955000Y-109225000D01*
X62965000Y-109225000D01*
X62965000Y-112675000D01*
X62965000Y-112675000D01*
G37*
G36*
X96700000Y-113425000D02*
X95800000Y-113425000D01*
X95800000Y-112575000D01*
X96700000Y-112575000D01*
X96700000Y-113425000D01*
X96700000Y-113425000D01*
G37*
G36*
X95200000Y-113425000D02*
X94300000Y-113425000D01*
X94300000Y-112575000D01*
X95200000Y-112575000D01*
X95200000Y-113425000D01*
X95200000Y-113425000D01*
G37*
G36*
X95550000Y-111675000D02*
X94450000Y-111675000D01*
X94450000Y-110325000D01*
X95550000Y-110325000D01*
X95550000Y-111675000D01*
X95550000Y-111675000D01*
G37*
G36*
X97550000Y-111675000D02*
X96450000Y-111675000D01*
X96450000Y-110325000D01*
X97550000Y-110325000D01*
X97550000Y-111675000D01*
X97550000Y-111675000D01*
G37*
G36*
X128343500Y-110293000D02*
X123243500Y-110293000D01*
X123243500Y-105693000D01*
X128343500Y-105693000D01*
X128343500Y-110293000D01*
X128343500Y-110293000D01*
G37*
G36*
X83816000Y-109870000D02*
X83316000Y-109870000D01*
X83316000Y-108570000D01*
X83816000Y-108570000D01*
X83816000Y-109870000D01*
X83816000Y-109870000D01*
G37*
G36*
X84451000Y-109870000D02*
X83951000Y-109870000D01*
X83951000Y-108570000D01*
X84451000Y-108570000D01*
X84451000Y-109870000D01*
X84451000Y-109870000D01*
G37*
G36*
X85086000Y-109870000D02*
X84586000Y-109870000D01*
X84586000Y-108570000D01*
X85086000Y-108570000D01*
X85086000Y-109870000D01*
X85086000Y-109870000D01*
G37*
G36*
X85721000Y-109870000D02*
X85221000Y-109870000D01*
X85221000Y-108570000D01*
X85721000Y-108570000D01*
X85721000Y-109870000D01*
X85721000Y-109870000D01*
G37*
G36*
X86356000Y-109870000D02*
X85856000Y-109870000D01*
X85856000Y-108570000D01*
X86356000Y-108570000D01*
X86356000Y-109870000D01*
X86356000Y-109870000D01*
G37*
G36*
X86991000Y-109870000D02*
X86491000Y-109870000D01*
X86491000Y-108570000D01*
X86991000Y-108570000D01*
X86991000Y-109870000D01*
X86991000Y-109870000D01*
G37*
G36*
X87626000Y-109870000D02*
X87126000Y-109870000D01*
X87126000Y-108570000D01*
X87626000Y-108570000D01*
X87626000Y-109870000D01*
X87626000Y-109870000D01*
G37*
G36*
X88261000Y-109870000D02*
X87761000Y-109870000D01*
X87761000Y-108570000D01*
X88261000Y-108570000D01*
X88261000Y-109870000D01*
X88261000Y-109870000D01*
G37*
G36*
X88896000Y-109870000D02*
X88396000Y-109870000D01*
X88396000Y-108570000D01*
X88896000Y-108570000D01*
X88896000Y-109870000D01*
X88896000Y-109870000D01*
G37*
G36*
X90801000Y-109870000D02*
X90301000Y-109870000D01*
X90301000Y-108570000D01*
X90801000Y-108570000D01*
X90801000Y-109870000D01*
X90801000Y-109870000D01*
G37*
G36*
X90166000Y-109870000D02*
X89666000Y-109870000D01*
X89666000Y-108570000D01*
X90166000Y-108570000D01*
X90166000Y-109870000D01*
X90166000Y-109870000D01*
G37*
G36*
X89531000Y-109870000D02*
X89031000Y-109870000D01*
X89031000Y-108570000D01*
X89531000Y-108570000D01*
X89531000Y-109870000D01*
X89531000Y-109870000D01*
G37*
G36*
X75920000Y-108505000D02*
X75210000Y-108505000D01*
X75210000Y-107135000D01*
X75920000Y-107135000D01*
X75920000Y-108505000D01*
X75920000Y-108505000D01*
G37*
G36*
X74650000Y-108505000D02*
X73940000Y-108505000D01*
X73940000Y-107135000D01*
X74650000Y-107135000D01*
X74650000Y-108505000D01*
X74650000Y-108505000D01*
G37*
G36*
X68300000Y-108505000D02*
X67590000Y-108505000D01*
X67590000Y-107135000D01*
X68300000Y-107135000D01*
X68300000Y-108505000D01*
X68300000Y-108505000D01*
G37*
G36*
X69570000Y-108505000D02*
X68860000Y-108505000D01*
X68860000Y-107135000D01*
X69570000Y-107135000D01*
X69570000Y-108505000D01*
X69570000Y-108505000D01*
G37*
G36*
X70840000Y-108505000D02*
X70130000Y-108505000D01*
X70130000Y-107135000D01*
X70840000Y-107135000D01*
X70840000Y-108505000D01*
X70840000Y-108505000D01*
G37*
G36*
X77190000Y-108505000D02*
X76480000Y-108505000D01*
X76480000Y-107135000D01*
X77190000Y-107135000D01*
X77190000Y-108505000D01*
X77190000Y-108505000D01*
G37*
G36*
X78460000Y-108505000D02*
X77750000Y-108505000D01*
X77750000Y-107135000D01*
X78460000Y-107135000D01*
X78460000Y-108505000D01*
X78460000Y-108505000D01*
G37*
G36*
X67030000Y-108505000D02*
X66320000Y-108505000D01*
X66320000Y-107135000D01*
X67030000Y-107135000D01*
X67030000Y-108505000D01*
X67030000Y-108505000D01*
G37*
G36*
X63220000Y-108505000D02*
X62510000Y-108505000D01*
X62510000Y-107135000D01*
X63220000Y-107135000D01*
X63220000Y-108505000D01*
X63220000Y-108505000D01*
G37*
G36*
X61950000Y-108505000D02*
X61240000Y-108505000D01*
X61240000Y-107135000D01*
X61950000Y-107135000D01*
X61950000Y-108505000D01*
X61950000Y-108505000D01*
G37*
G36*
X60680000Y-108505000D02*
X59970000Y-108505000D01*
X59970000Y-107135000D01*
X60680000Y-107135000D01*
X60680000Y-108505000D01*
X60680000Y-108505000D01*
G37*
G36*
X59410000Y-108505000D02*
X58700000Y-108505000D01*
X58700000Y-107135000D01*
X59410000Y-107135000D01*
X59410000Y-108505000D01*
X59410000Y-108505000D01*
G37*
G36*
X116453500Y-108498000D02*
X115353500Y-108498000D01*
X115353500Y-107148000D01*
X116453500Y-107148000D01*
X116453500Y-108498000D01*
X116453500Y-108498000D01*
G37*
G36*
X118453500Y-108498000D02*
X117353500Y-108498000D01*
X117353500Y-107148000D01*
X118453500Y-107148000D01*
X118453500Y-108498000D01*
X118453500Y-108498000D01*
G37*
G36*
X83991000Y-107372000D02*
X83141000Y-107372000D01*
X83141000Y-106472000D01*
X83991000Y-106472000D01*
X83991000Y-107372000D01*
X83991000Y-107372000D01*
G37*
G36*
X85769000Y-107372000D02*
X84919000Y-107372000D01*
X84919000Y-106472000D01*
X85769000Y-106472000D01*
X85769000Y-107372000D01*
X85769000Y-107372000D01*
G37*
G36*
X80435000Y-107372000D02*
X79585000Y-107372000D01*
X79585000Y-106472000D01*
X80435000Y-106472000D01*
X80435000Y-107372000D01*
X80435000Y-107372000D01*
G37*
G36*
X82213000Y-107372000D02*
X81363000Y-107372000D01*
X81363000Y-106472000D01*
X82213000Y-106472000D01*
X82213000Y-107372000D01*
X82213000Y-107372000D01*
G37*
G36*
X87293000Y-106102000D02*
X86443000Y-106102000D01*
X86443000Y-105202000D01*
X87293000Y-105202000D01*
X87293000Y-106102000D01*
X87293000Y-106102000D01*
G37*
G36*
X89071000Y-106102000D02*
X88221000Y-106102000D01*
X88221000Y-105202000D01*
X89071000Y-105202000D01*
X89071000Y-106102000D01*
X89071000Y-106102000D01*
G37*
G36*
X118453500Y-105958000D02*
X117353500Y-105958000D01*
X117353500Y-104608000D01*
X118453500Y-104608000D01*
X118453500Y-105958000D01*
X118453500Y-105958000D01*
G37*
G36*
X116453500Y-105958000D02*
X115353500Y-105958000D01*
X115353500Y-104608000D01*
X116453500Y-104608000D01*
X116453500Y-105958000D01*
X116453500Y-105958000D01*
G37*
G36*
X80435000Y-105872000D02*
X79585000Y-105872000D01*
X79585000Y-104972000D01*
X80435000Y-104972000D01*
X80435000Y-105872000D01*
X80435000Y-105872000D01*
G37*
G36*
X82213000Y-105872000D02*
X81363000Y-105872000D01*
X81363000Y-104972000D01*
X82213000Y-104972000D01*
X82213000Y-105872000D01*
X82213000Y-105872000D01*
G37*
G36*
X83991000Y-105872000D02*
X83141000Y-105872000D01*
X83141000Y-104972000D01*
X83991000Y-104972000D01*
X83991000Y-105872000D01*
X83991000Y-105872000D01*
G37*
G36*
X85769000Y-105872000D02*
X84919000Y-105872000D01*
X84919000Y-104972000D01*
X85769000Y-104972000D01*
X85769000Y-105872000D01*
X85769000Y-105872000D01*
G37*
G36*
X109786000Y-105465500D02*
X109186000Y-105465500D01*
X109186000Y-104465500D01*
X109786000Y-104465500D01*
X109786000Y-105465500D01*
X109786000Y-105465500D01*
G37*
G36*
X111286000Y-105465500D02*
X110686000Y-105465500D01*
X110686000Y-104465500D01*
X111286000Y-104465500D01*
X111286000Y-105465500D01*
X111286000Y-105465500D01*
G37*
G36*
X78460000Y-104955000D02*
X77750000Y-104955000D01*
X77750000Y-103585000D01*
X78460000Y-103585000D01*
X78460000Y-104955000D01*
X78460000Y-104955000D01*
G37*
G36*
X77190000Y-104955000D02*
X76480000Y-104955000D01*
X76480000Y-103585000D01*
X77190000Y-103585000D01*
X77190000Y-104955000D01*
X77190000Y-104955000D01*
G37*
G36*
X75920000Y-104955000D02*
X75210000Y-104955000D01*
X75210000Y-103585000D01*
X75920000Y-103585000D01*
X75920000Y-104955000D01*
X75920000Y-104955000D01*
G37*
G36*
X74650000Y-104955000D02*
X73940000Y-104955000D01*
X73940000Y-103585000D01*
X74650000Y-103585000D01*
X74650000Y-104955000D01*
X74650000Y-104955000D01*
G37*
G36*
X70840000Y-104955000D02*
X70130000Y-104955000D01*
X70130000Y-103585000D01*
X70840000Y-103585000D01*
X70840000Y-104955000D01*
X70840000Y-104955000D01*
G37*
G36*
X69570000Y-104955000D02*
X68860000Y-104955000D01*
X68860000Y-103585000D01*
X69570000Y-103585000D01*
X69570000Y-104955000D01*
X69570000Y-104955000D01*
G37*
G36*
X68300000Y-104955000D02*
X67590000Y-104955000D01*
X67590000Y-103585000D01*
X68300000Y-103585000D01*
X68300000Y-104955000D01*
X68300000Y-104955000D01*
G37*
G36*
X59410000Y-104955000D02*
X58700000Y-104955000D01*
X58700000Y-103585000D01*
X59410000Y-103585000D01*
X59410000Y-104955000D01*
X59410000Y-104955000D01*
G37*
G36*
X67030000Y-104955000D02*
X66320000Y-104955000D01*
X66320000Y-103585000D01*
X67030000Y-103585000D01*
X67030000Y-104955000D01*
X67030000Y-104955000D01*
G37*
G36*
X63220000Y-104955000D02*
X62510000Y-104955000D01*
X62510000Y-103585000D01*
X63220000Y-103585000D01*
X63220000Y-104955000D01*
X63220000Y-104955000D01*
G37*
G36*
X61950000Y-104955000D02*
X61240000Y-104955000D01*
X61240000Y-103585000D01*
X61950000Y-103585000D01*
X61950000Y-104955000D01*
X61950000Y-104955000D01*
G37*
G36*
X60680000Y-104955000D02*
X59970000Y-104955000D01*
X59970000Y-103585000D01*
X60680000Y-103585000D01*
X60680000Y-104955000D01*
X60680000Y-104955000D01*
G37*
G36*
X89071000Y-104602000D02*
X88221000Y-104602000D01*
X88221000Y-103702000D01*
X89071000Y-103702000D01*
X89071000Y-104602000D01*
X89071000Y-104602000D01*
G37*
G36*
X87293000Y-104602000D02*
X86443000Y-104602000D01*
X86443000Y-103702000D01*
X87293000Y-103702000D01*
X87293000Y-104602000D01*
X87293000Y-104602000D01*
G37*
G36*
X111286000Y-103560500D02*
X110686000Y-103560500D01*
X110686000Y-102560500D01*
X111286000Y-102560500D01*
X111286000Y-103560500D01*
X111286000Y-103560500D01*
G37*
G36*
X109786000Y-103560500D02*
X109186000Y-103560500D01*
X109186000Y-102560500D01*
X109786000Y-102560500D01*
X109786000Y-103560500D01*
X109786000Y-103560500D01*
G37*
G36*
X83750000Y-102900000D02*
X81350000Y-102900000D01*
X81350000Y-100300000D01*
X83750000Y-100300000D01*
X83750000Y-102900000D01*
X83750000Y-102900000D01*
G37*
G36*
X67030000Y-98905000D02*
X67031980Y-98918930D01*
X67037761Y-98931756D01*
X67046888Y-98942464D01*
X67058636Y-98950206D01*
X67072076Y-98954368D01*
X67080000Y-98955000D01*
X67540000Y-98955000D01*
X67553930Y-98953020D01*
X67566756Y-98947239D01*
X67577464Y-98938112D01*
X67585206Y-98926364D01*
X67589368Y-98912924D01*
X67590000Y-98905000D01*
X67590000Y-98245000D01*
X68300000Y-98245000D01*
X68300000Y-98905000D01*
X68301980Y-98918930D01*
X68307761Y-98931756D01*
X68316888Y-98942464D01*
X68328636Y-98950206D01*
X68342076Y-98954368D01*
X68350000Y-98955000D01*
X68810000Y-98955000D01*
X68823930Y-98953020D01*
X68836756Y-98947239D01*
X68847464Y-98938112D01*
X68855206Y-98926364D01*
X68859368Y-98912924D01*
X68860000Y-98905000D01*
X68860000Y-98245000D01*
X69570000Y-98245000D01*
X69570000Y-98905000D01*
X69571980Y-98918930D01*
X69577761Y-98931756D01*
X69586888Y-98942464D01*
X69598636Y-98950206D01*
X69612076Y-98954368D01*
X69620000Y-98955000D01*
X70080000Y-98955000D01*
X70093930Y-98953020D01*
X70106756Y-98947239D01*
X70117464Y-98938112D01*
X70125206Y-98926364D01*
X70129368Y-98912924D01*
X70130000Y-98905000D01*
X70130000Y-98245000D01*
X70840000Y-98245000D01*
X70840000Y-99365000D01*
X70635000Y-99365000D01*
X70621070Y-99366980D01*
X70608244Y-99372761D01*
X70597536Y-99381888D01*
X70589794Y-99393636D01*
X70585632Y-99407076D01*
X70585000Y-99415000D01*
X70585000Y-102865000D01*
X66575000Y-102865000D01*
X66575000Y-99415000D01*
X66573020Y-99401070D01*
X66567239Y-99388244D01*
X66558112Y-99377536D01*
X66546364Y-99369794D01*
X66532924Y-99365632D01*
X66525000Y-99365000D01*
X66320000Y-99365000D01*
X66320000Y-98245000D01*
X67030000Y-98245000D01*
X67030000Y-98905000D01*
X67030000Y-98905000D01*
G37*
G36*
X74650000Y-98905000D02*
X74651980Y-98918930D01*
X74657761Y-98931756D01*
X74666888Y-98942464D01*
X74678636Y-98950206D01*
X74692076Y-98954368D01*
X74700000Y-98955000D01*
X75160000Y-98955000D01*
X75173930Y-98953020D01*
X75186756Y-98947239D01*
X75197464Y-98938112D01*
X75205206Y-98926364D01*
X75209368Y-98912924D01*
X75210000Y-98905000D01*
X75210000Y-98245000D01*
X75920000Y-98245000D01*
X75920000Y-98905000D01*
X75921980Y-98918930D01*
X75927761Y-98931756D01*
X75936888Y-98942464D01*
X75948636Y-98950206D01*
X75962076Y-98954368D01*
X75970000Y-98955000D01*
X76430000Y-98955000D01*
X76443930Y-98953020D01*
X76456756Y-98947239D01*
X76467464Y-98938112D01*
X76475206Y-98926364D01*
X76479368Y-98912924D01*
X76480000Y-98905000D01*
X76480000Y-98245000D01*
X77190000Y-98245000D01*
X77190000Y-98905000D01*
X77191980Y-98918930D01*
X77197761Y-98931756D01*
X77206888Y-98942464D01*
X77218636Y-98950206D01*
X77232076Y-98954368D01*
X77240000Y-98955000D01*
X77700000Y-98955000D01*
X77713930Y-98953020D01*
X77726756Y-98947239D01*
X77737464Y-98938112D01*
X77745206Y-98926364D01*
X77749368Y-98912924D01*
X77750000Y-98905000D01*
X77750000Y-98245000D01*
X78460000Y-98245000D01*
X78460000Y-99365000D01*
X78255000Y-99365000D01*
X78241070Y-99366980D01*
X78228244Y-99372761D01*
X78217536Y-99381888D01*
X78209794Y-99393636D01*
X78205632Y-99407076D01*
X78205000Y-99415000D01*
X78205000Y-102865000D01*
X74195000Y-102865000D01*
X74195000Y-99415000D01*
X74193020Y-99401070D01*
X74187239Y-99388244D01*
X74178112Y-99377536D01*
X74166364Y-99369794D01*
X74152924Y-99365632D01*
X74145000Y-99365000D01*
X73940000Y-99365000D01*
X73940000Y-98245000D01*
X74650000Y-98245000D01*
X74650000Y-98905000D01*
X74650000Y-98905000D01*
G37*
G36*
X59410000Y-98905000D02*
X59411980Y-98918930D01*
X59417761Y-98931756D01*
X59426888Y-98942464D01*
X59438636Y-98950206D01*
X59452076Y-98954368D01*
X59460000Y-98955000D01*
X59920000Y-98955000D01*
X59933930Y-98953020D01*
X59946756Y-98947239D01*
X59957464Y-98938112D01*
X59965206Y-98926364D01*
X59969368Y-98912924D01*
X59970000Y-98905000D01*
X59970000Y-98245000D01*
X60680000Y-98245000D01*
X60680000Y-98905000D01*
X60681980Y-98918930D01*
X60687761Y-98931756D01*
X60696888Y-98942464D01*
X60708636Y-98950206D01*
X60722076Y-98954368D01*
X60730000Y-98955000D01*
X61190000Y-98955000D01*
X61203930Y-98953020D01*
X61216756Y-98947239D01*
X61227464Y-98938112D01*
X61235206Y-98926364D01*
X61239368Y-98912924D01*
X61240000Y-98905000D01*
X61240000Y-98245000D01*
X61950000Y-98245000D01*
X61950000Y-98905000D01*
X61951980Y-98918930D01*
X61957761Y-98931756D01*
X61966888Y-98942464D01*
X61978636Y-98950206D01*
X61992076Y-98954368D01*
X62000000Y-98955000D01*
X62460000Y-98955000D01*
X62473930Y-98953020D01*
X62486756Y-98947239D01*
X62497464Y-98938112D01*
X62505206Y-98926364D01*
X62509368Y-98912924D01*
X62510000Y-98905000D01*
X62510000Y-98245000D01*
X63220000Y-98245000D01*
X63220000Y-99365000D01*
X63015000Y-99365000D01*
X63001070Y-99366980D01*
X62988244Y-99372761D01*
X62977536Y-99381888D01*
X62969794Y-99393636D01*
X62965632Y-99407076D01*
X62965000Y-99415000D01*
X62965000Y-102865000D01*
X58955000Y-102865000D01*
X58955000Y-99415000D01*
X58953020Y-99401070D01*
X58947239Y-99388244D01*
X58938112Y-99377536D01*
X58926364Y-99369794D01*
X58912924Y-99365632D01*
X58905000Y-99365000D01*
X58700000Y-99365000D01*
X58700000Y-98245000D01*
X59410000Y-98245000D01*
X59410000Y-98905000D01*
X59410000Y-98905000D01*
G37*
G36*
X104483279Y-100694564D02*
X104646570Y-100728083D01*
X104800236Y-100792678D01*
X104938433Y-100885892D01*
X105055893Y-101004176D01*
X105148140Y-101143018D01*
X105211661Y-101297132D01*
X105243971Y-101460309D01*
X105243971Y-101460319D01*
X105244037Y-101460653D01*
X105241378Y-101651049D01*
X105241302Y-101651383D01*
X105241302Y-101651395D01*
X105204451Y-101813599D01*
X105136649Y-101965883D01*
X105040562Y-102102095D01*
X104919843Y-102217054D01*
X104779102Y-102306370D01*
X104623688Y-102366653D01*
X104459529Y-102395598D01*
X104292872Y-102392107D01*
X104130062Y-102356311D01*
X103977315Y-102289577D01*
X103840429Y-102194439D01*
X103724634Y-102074530D01*
X103634337Y-101934417D01*
X103572972Y-101779428D01*
X103542880Y-101615467D01*
X103545208Y-101448791D01*
X103579864Y-101285744D01*
X103645534Y-101132527D01*
X103739710Y-100994986D01*
X103858810Y-100878354D01*
X103998292Y-100787079D01*
X104152848Y-100724635D01*
X104316586Y-100693400D01*
X104483279Y-100694564D01*
X104483279Y-100694564D01*
G37*
G36*
X112421000Y-101513000D02*
X111321000Y-101513000D01*
X111321000Y-100163000D01*
X112421000Y-100163000D01*
X112421000Y-101513000D01*
X112421000Y-101513000D01*
G37*
G36*
X110421000Y-101513000D02*
X109321000Y-101513000D01*
X109321000Y-100163000D01*
X110421000Y-100163000D01*
X110421000Y-101513000D01*
X110421000Y-101513000D01*
G37*
G36*
X128343500Y-99793000D02*
X123243500Y-99793000D01*
X123243500Y-95193000D01*
X128343500Y-95193000D01*
X128343500Y-99793000D01*
X128343500Y-99793000D01*
G37*
G36*
X117896000Y-98895500D02*
X116546000Y-98895500D01*
X116546000Y-97795500D01*
X117896000Y-97795500D01*
X117896000Y-98895500D01*
X117896000Y-98895500D01*
G37*
G36*
X115673500Y-98895500D02*
X114323500Y-98895500D01*
X114323500Y-97795500D01*
X115673500Y-97795500D01*
X115673500Y-98895500D01*
X115673500Y-98895500D01*
G37*
G36*
X105244000Y-98894000D02*
X103544000Y-98894000D01*
X103544000Y-97194000D01*
X105244000Y-97194000D01*
X105244000Y-98894000D01*
X105244000Y-98894000D01*
G37*
G36*
X109398500Y-98670500D02*
X108238500Y-98670500D01*
X108238500Y-97920500D01*
X109398500Y-97920500D01*
X109398500Y-98670500D01*
X109398500Y-98670500D01*
G37*
G36*
X111598500Y-98670500D02*
X110438500Y-98670500D01*
X110438500Y-97920500D01*
X111598500Y-97920500D01*
X111598500Y-98670500D01*
X111598500Y-98670500D01*
G37*
G36*
X83750000Y-98600000D02*
X81350000Y-98600000D01*
X81350000Y-96000000D01*
X83750000Y-96000000D01*
X83750000Y-98600000D01*
X83750000Y-98600000D01*
G37*
G36*
X109398500Y-97720500D02*
X108238500Y-97720500D01*
X108238500Y-96970500D01*
X109398500Y-96970500D01*
X109398500Y-97720500D01*
X109398500Y-97720500D01*
G37*
G36*
X111598500Y-97720500D02*
X110438500Y-97720500D01*
X110438500Y-96970500D01*
X111598500Y-96970500D01*
X111598500Y-97720500D01*
X111598500Y-97720500D01*
G37*
G36*
X115673500Y-96895500D02*
X114323500Y-96895500D01*
X114323500Y-95795500D01*
X115673500Y-95795500D01*
X115673500Y-96895500D01*
X115673500Y-96895500D01*
G37*
G36*
X117896000Y-96895500D02*
X116546000Y-96895500D01*
X116546000Y-95795500D01*
X117896000Y-95795500D01*
X117896000Y-96895500D01*
X117896000Y-96895500D01*
G37*
G36*
X111598500Y-96770500D02*
X110438500Y-96770500D01*
X110438500Y-96020500D01*
X111598500Y-96020500D01*
X111598500Y-96770500D01*
X111598500Y-96770500D01*
G37*
G36*
X109398500Y-96770500D02*
X108238500Y-96770500D01*
X108238500Y-96020500D01*
X109398500Y-96020500D01*
X109398500Y-96770500D01*
X109398500Y-96770500D01*
G37*
M02*
