G04 #@! TF.FileFunction,Legend,Bot*
%FSLAX46Y46*%
G04 Gerber Fmt 4.6, Leading zero omitted, Abs format (unit mm)*
G04 Created by KiCad (PCBNEW 4.0.7) date 12/26/17 15:11:40*
%MOMM*%
%LPD*%
G01*
G04 APERTURE LIST*
%ADD10C,0.100000*%
%ADD11C,0.150000*%
%ADD12C,0.120000*%
G04 APERTURE END LIST*
D10*
D11*
X143920000Y-59485000D02*
X144920000Y-60485000D01*
X144920000Y-60485000D02*
X144920000Y-68785000D01*
X144920000Y-68785000D02*
X139560000Y-68785000D01*
X139560000Y-68785000D02*
X139560000Y-59485000D01*
X139560000Y-59485000D02*
X143920000Y-59485000D01*
X169900000Y-100480000D02*
X171600000Y-98780000D01*
X171600000Y-89180000D02*
X171600000Y-87480000D01*
X171600000Y-87480000D02*
X169900000Y-87480000D01*
X158600000Y-98780000D02*
X158600000Y-100480000D01*
X158600000Y-100480000D02*
X160300000Y-100480000D01*
X158600000Y-89180000D02*
X158600000Y-87480000D01*
X158600000Y-87480000D02*
X160300000Y-87480000D01*
X178075500Y-108521500D02*
X177075500Y-109521500D01*
X177075500Y-109521500D02*
X172825500Y-109521500D01*
X172825500Y-109521500D02*
X172825500Y-106251500D01*
X172825500Y-106251500D02*
X178075500Y-106251500D01*
X178075500Y-106251500D02*
X178075500Y-108521500D01*
X152400000Y-57150000D02*
X163830000Y-57150000D01*
X163830000Y-57150000D02*
X163830000Y-72390000D01*
X163830000Y-72390000D02*
X152400000Y-72390000D01*
X152400000Y-72390000D02*
X152400000Y-57150000D01*
D12*
X175200000Y-71060000D02*
X177860000Y-71060000D01*
X175200000Y-83820000D02*
X175200000Y-71060000D01*
X177860000Y-83820000D02*
X177860000Y-71060000D01*
X175200000Y-83820000D02*
X177860000Y-83820000D01*
X175200000Y-85090000D02*
X175200000Y-86420000D01*
X175200000Y-86420000D02*
X176530000Y-86420000D01*
X163480000Y-103089000D02*
X164180000Y-103089000D01*
X164180000Y-101889000D02*
X163480000Y-101889000D01*
X170970500Y-108236500D02*
X170970500Y-107536500D01*
X169770500Y-107536500D02*
X169770500Y-108236500D01*
X173410500Y-104031500D02*
X172410500Y-104031500D01*
X172410500Y-105391500D02*
X173410500Y-105391500D01*
X172410500Y-103486500D02*
X173410500Y-103486500D01*
X173410500Y-102126500D02*
X172410500Y-102126500D01*
D11*
X135890000Y-108585000D02*
X156210000Y-108585000D01*
X156210000Y-108585000D02*
X156210000Y-81915000D01*
X156210000Y-81915000D02*
X135890000Y-81915000D01*
X135890000Y-81915000D02*
X135890000Y-108585000D01*
D12*
X142850000Y-77490000D02*
X142100000Y-77490000D01*
X142100000Y-77490000D02*
X142100000Y-73990000D01*
X142100000Y-73990000D02*
X142850000Y-73990000D01*
X142850000Y-73990000D02*
X142850000Y-77490000D01*
X143750000Y-78240000D02*
X142100000Y-78240000D01*
X142100000Y-78240000D02*
X142100000Y-78990000D01*
X142100000Y-78990000D02*
X142850000Y-78990000D01*
X142850000Y-78990000D02*
X142850000Y-79990000D01*
X142850000Y-79990000D02*
X136050000Y-79990000D01*
X136050000Y-79990000D02*
X136050000Y-75740000D01*
X143750000Y-73240000D02*
X142100000Y-73240000D01*
X142100000Y-73240000D02*
X142100000Y-72490000D01*
X142100000Y-72490000D02*
X142850000Y-72490000D01*
X142850000Y-72490000D02*
X142850000Y-71490000D01*
X142850000Y-71490000D02*
X136050000Y-71490000D01*
X136050000Y-71490000D02*
X136050000Y-75740000D01*
X143750000Y-80890000D02*
X135150000Y-80890000D01*
X135150000Y-80890000D02*
X135150000Y-70590000D01*
X135150000Y-70590000D02*
X143750000Y-70590000D01*
X143750000Y-70590000D02*
X143750000Y-80890000D01*
X139700000Y-81090000D02*
X139400000Y-81690000D01*
X139400000Y-81690000D02*
X140000000Y-81690000D01*
X140000000Y-81690000D02*
X139700000Y-81090000D01*
X165780000Y-72890000D02*
X165780000Y-71890000D01*
X164420000Y-71890000D02*
X164420000Y-72890000D01*
X163240000Y-75430000D02*
X163240000Y-74430000D01*
X161880000Y-74430000D02*
X161880000Y-75430000D01*
X151730000Y-69565000D02*
X151730000Y-68865000D01*
X150530000Y-68865000D02*
X150530000Y-69565000D01*
D11*
X145462857Y-63220714D02*
X146434286Y-63220714D01*
X146548571Y-63277857D01*
X146605714Y-63335000D01*
X146662857Y-63449286D01*
X146662857Y-63677857D01*
X146605714Y-63792143D01*
X146548571Y-63849286D01*
X146434286Y-63906429D01*
X145462857Y-63906429D01*
X146662857Y-65106429D02*
X146662857Y-64420714D01*
X146662857Y-64763572D02*
X145462857Y-64763572D01*
X145634286Y-64649286D01*
X145748571Y-64535000D01*
X145805714Y-64420714D01*
X172892857Y-93065714D02*
X173864286Y-93065714D01*
X173978571Y-93122857D01*
X174035714Y-93180000D01*
X174092857Y-93294286D01*
X174092857Y-93522857D01*
X174035714Y-93637143D01*
X173978571Y-93694286D01*
X173864286Y-93751429D01*
X172892857Y-93751429D01*
X173007143Y-94265714D02*
X172950000Y-94322857D01*
X172892857Y-94437143D01*
X172892857Y-94722857D01*
X172950000Y-94837143D01*
X173007143Y-94894286D01*
X173121429Y-94951429D01*
X173235714Y-94951429D01*
X173407143Y-94894286D01*
X174092857Y-94208572D01*
X174092857Y-94951429D01*
X176364786Y-110064357D02*
X176364786Y-111035786D01*
X176307643Y-111150071D01*
X176250500Y-111207214D01*
X176136214Y-111264357D01*
X175907643Y-111264357D01*
X175793357Y-111207214D01*
X175736214Y-111150071D01*
X175679071Y-111035786D01*
X175679071Y-110064357D01*
X175221928Y-110064357D02*
X174479071Y-110064357D01*
X174879071Y-110521500D01*
X174707643Y-110521500D01*
X174593357Y-110578643D01*
X174536214Y-110635786D01*
X174479071Y-110750071D01*
X174479071Y-111035786D01*
X174536214Y-111150071D01*
X174593357Y-111207214D01*
X174707643Y-111264357D01*
X175050500Y-111264357D01*
X175164786Y-111207214D01*
X175221928Y-111150071D01*
X158241905Y-52792381D02*
X158241905Y-53601905D01*
X158194286Y-53697143D01*
X158146667Y-53744762D01*
X158051429Y-53792381D01*
X157860952Y-53792381D01*
X157765714Y-53744762D01*
X157718095Y-53697143D01*
X157670476Y-53601905D01*
X157670476Y-52792381D01*
X156765714Y-53125714D02*
X156765714Y-53792381D01*
X157003810Y-52744762D02*
X157241905Y-53459048D01*
X156622857Y-53459048D01*
X177291905Y-86872381D02*
X177291905Y-87681905D01*
X177244286Y-87777143D01*
X177196667Y-87824762D01*
X177101429Y-87872381D01*
X176910952Y-87872381D01*
X176815714Y-87824762D01*
X176768095Y-87777143D01*
X176720476Y-87681905D01*
X176720476Y-86872381D01*
X176339524Y-86872381D02*
X175672857Y-86872381D01*
X176101429Y-87872381D01*
X163996666Y-104096143D02*
X164044285Y-104143762D01*
X164187142Y-104191381D01*
X164282380Y-104191381D01*
X164425238Y-104143762D01*
X164520476Y-104048524D01*
X164568095Y-103953286D01*
X164615714Y-103762810D01*
X164615714Y-103619952D01*
X164568095Y-103429476D01*
X164520476Y-103334238D01*
X164425238Y-103239000D01*
X164282380Y-103191381D01*
X164187142Y-103191381D01*
X164044285Y-103239000D01*
X163996666Y-103286619D01*
X163663333Y-103191381D02*
X163044285Y-103191381D01*
X163377619Y-103572333D01*
X163234761Y-103572333D01*
X163139523Y-103619952D01*
X163091904Y-103667571D01*
X163044285Y-103762810D01*
X163044285Y-104000905D01*
X163091904Y-104096143D01*
X163139523Y-104143762D01*
X163234761Y-104191381D01*
X163520476Y-104191381D01*
X163615714Y-104143762D01*
X163663333Y-104096143D01*
X170727643Y-110894834D02*
X170775262Y-110847215D01*
X170822881Y-110704358D01*
X170822881Y-110609120D01*
X170775262Y-110466262D01*
X170680024Y-110371024D01*
X170584786Y-110323405D01*
X170394310Y-110275786D01*
X170251452Y-110275786D01*
X170060976Y-110323405D01*
X169965738Y-110371024D01*
X169870500Y-110466262D01*
X169822881Y-110609120D01*
X169822881Y-110704358D01*
X169870500Y-110847215D01*
X169918119Y-110894834D01*
X169822881Y-111751977D02*
X169822881Y-111561500D01*
X169870500Y-111466262D01*
X169918119Y-111418643D01*
X170060976Y-111323405D01*
X170251452Y-111275786D01*
X170632405Y-111275786D01*
X170727643Y-111323405D01*
X170775262Y-111371024D01*
X170822881Y-111466262D01*
X170822881Y-111656739D01*
X170775262Y-111751977D01*
X170727643Y-111799596D01*
X170632405Y-111847215D01*
X170394310Y-111847215D01*
X170299071Y-111799596D01*
X170251452Y-111751977D01*
X170203833Y-111656739D01*
X170203833Y-111466262D01*
X170251452Y-111371024D01*
X170299071Y-111323405D01*
X170394310Y-111275786D01*
X169902166Y-105163881D02*
X170235500Y-104687690D01*
X170473595Y-105163881D02*
X170473595Y-104163881D01*
X170092642Y-104163881D01*
X169997404Y-104211500D01*
X169949785Y-104259119D01*
X169902166Y-104354357D01*
X169902166Y-104497214D01*
X169949785Y-104592452D01*
X169997404Y-104640071D01*
X170092642Y-104687690D01*
X170473595Y-104687690D01*
X169045023Y-104497214D02*
X169045023Y-105163881D01*
X169283119Y-104116262D02*
X169521214Y-104830548D01*
X168902166Y-104830548D01*
X169902166Y-103258881D02*
X170235500Y-102782690D01*
X170473595Y-103258881D02*
X170473595Y-102258881D01*
X170092642Y-102258881D01*
X169997404Y-102306500D01*
X169949785Y-102354119D01*
X169902166Y-102449357D01*
X169902166Y-102592214D01*
X169949785Y-102687452D01*
X169997404Y-102735071D01*
X170092642Y-102782690D01*
X170473595Y-102782690D01*
X168997404Y-102258881D02*
X169473595Y-102258881D01*
X169521214Y-102735071D01*
X169473595Y-102687452D01*
X169378357Y-102639833D01*
X169140261Y-102639833D01*
X169045023Y-102687452D01*
X168997404Y-102735071D01*
X168949785Y-102830310D01*
X168949785Y-103068405D01*
X168997404Y-103163643D01*
X169045023Y-103211262D01*
X169140261Y-103258881D01*
X169378357Y-103258881D01*
X169473595Y-103211262D01*
X169521214Y-103163643D01*
X146176905Y-98512381D02*
X146176905Y-99321905D01*
X146129286Y-99417143D01*
X146081667Y-99464762D01*
X145986429Y-99512381D01*
X145795952Y-99512381D01*
X145700714Y-99464762D01*
X145653095Y-99417143D01*
X145605476Y-99321905D01*
X145605476Y-98512381D01*
X144986429Y-98940952D02*
X145081667Y-98893333D01*
X145129286Y-98845714D01*
X145176905Y-98750476D01*
X145176905Y-98702857D01*
X145129286Y-98607619D01*
X145081667Y-98560000D01*
X144986429Y-98512381D01*
X144795952Y-98512381D01*
X144700714Y-98560000D01*
X144653095Y-98607619D01*
X144605476Y-98702857D01*
X144605476Y-98750476D01*
X144653095Y-98845714D01*
X144700714Y-98893333D01*
X144795952Y-98940952D01*
X144986429Y-98940952D01*
X145081667Y-98988571D01*
X145129286Y-99036190D01*
X145176905Y-99131429D01*
X145176905Y-99321905D01*
X145129286Y-99417143D01*
X145081667Y-99464762D01*
X144986429Y-99512381D01*
X144795952Y-99512381D01*
X144700714Y-99464762D01*
X144653095Y-99417143D01*
X144605476Y-99321905D01*
X144605476Y-99131429D01*
X144653095Y-99036190D01*
X144700714Y-98988571D01*
X144795952Y-98940952D01*
X144352381Y-75406667D02*
X145066667Y-75406667D01*
X145209524Y-75359047D01*
X145304762Y-75263809D01*
X145352381Y-75120952D01*
X145352381Y-75025714D01*
X144447619Y-75835238D02*
X144400000Y-75882857D01*
X144352381Y-75978095D01*
X144352381Y-76216191D01*
X144400000Y-76311429D01*
X144447619Y-76359048D01*
X144542857Y-76406667D01*
X144638095Y-76406667D01*
X144780952Y-76359048D01*
X145352381Y-75787619D01*
X145352381Y-76406667D01*
X164102381Y-71747143D02*
X163626190Y-71413809D01*
X164102381Y-71175714D02*
X163102381Y-71175714D01*
X163102381Y-71556667D01*
X163150000Y-71651905D01*
X163197619Y-71699524D01*
X163292857Y-71747143D01*
X163435714Y-71747143D01*
X163530952Y-71699524D01*
X163578571Y-71651905D01*
X163626190Y-71556667D01*
X163626190Y-71175714D01*
X164102381Y-72699524D02*
X164102381Y-72128095D01*
X164102381Y-72413809D02*
X163102381Y-72413809D01*
X163245238Y-72318571D01*
X163340476Y-72223333D01*
X163388095Y-72128095D01*
X164102381Y-73651905D02*
X164102381Y-73080476D01*
X164102381Y-73366190D02*
X163102381Y-73366190D01*
X163245238Y-73270952D01*
X163340476Y-73175714D01*
X163388095Y-73080476D01*
X161562381Y-74287143D02*
X161086190Y-73953809D01*
X161562381Y-73715714D02*
X160562381Y-73715714D01*
X160562381Y-74096667D01*
X160610000Y-74191905D01*
X160657619Y-74239524D01*
X160752857Y-74287143D01*
X160895714Y-74287143D01*
X160990952Y-74239524D01*
X161038571Y-74191905D01*
X161086190Y-74096667D01*
X161086190Y-73715714D01*
X161562381Y-75239524D02*
X161562381Y-74668095D01*
X161562381Y-74953809D02*
X160562381Y-74953809D01*
X160705238Y-74858571D01*
X160800476Y-74763333D01*
X160848095Y-74668095D01*
X160657619Y-75620476D02*
X160610000Y-75668095D01*
X160562381Y-75763333D01*
X160562381Y-76001429D01*
X160610000Y-76096667D01*
X160657619Y-76144286D01*
X160752857Y-76191905D01*
X160848095Y-76191905D01*
X160990952Y-76144286D01*
X161562381Y-75572857D01*
X161562381Y-76191905D01*
X152737143Y-68572143D02*
X152784762Y-68524524D01*
X152832381Y-68381667D01*
X152832381Y-68286429D01*
X152784762Y-68143571D01*
X152689524Y-68048333D01*
X152594286Y-68000714D01*
X152403810Y-67953095D01*
X152260952Y-67953095D01*
X152070476Y-68000714D01*
X151975238Y-68048333D01*
X151880000Y-68143571D01*
X151832381Y-68286429D01*
X151832381Y-68381667D01*
X151880000Y-68524524D01*
X151927619Y-68572143D01*
X152832381Y-69524524D02*
X152832381Y-68953095D01*
X152832381Y-69238809D02*
X151832381Y-69238809D01*
X151975238Y-69143571D01*
X152070476Y-69048333D01*
X152118095Y-68953095D01*
X152832381Y-70476905D02*
X152832381Y-69905476D01*
X152832381Y-70191190D02*
X151832381Y-70191190D01*
X151975238Y-70095952D01*
X152070476Y-70000714D01*
X152118095Y-69905476D01*
M02*
