G04 #@! TF.FileFunction,Paste,Bot*
%FSLAX46Y46*%
G04 Gerber Fmt 4.6, Leading zero omitted, Abs format (unit mm)*
G04 Created by KiCad (PCBNEW 4.0.7) date Sunday, February 25, 2018 'PMt' 02:02:45 PM*
%MOMM*%
%LPD*%
G01*
G04 APERTURE LIST*
%ADD10C,0.128000*%
%ADD11R,0.550000X1.500000*%
%ADD12R,0.400000X1.500000*%
%ADD13R,1.500000X0.400000*%
%ADD14R,1.250000X0.270000*%
%ADD15R,0.700000X1.500000*%
%ADD16R,1.500000X0.700000*%
%ADD17R,1.500000X1.000000*%
%ADD18R,1.200000X0.750000*%
%ADD19R,0.750000X1.200000*%
%ADD20R,1.200000X0.900000*%
%ADD21R,0.900000X1.200000*%
G04 APERTURE END LIST*
D10*
D11*
X144145000Y-60735000D03*
X144145000Y-67535000D03*
X142875000Y-60735000D03*
X142875000Y-67535000D03*
X141605000Y-60735000D03*
X141605000Y-67535000D03*
X140335000Y-60735000D03*
X140335000Y-67535000D03*
D12*
X169100000Y-100480000D03*
X168300000Y-100480000D03*
X167500000Y-100480000D03*
X166700000Y-100480000D03*
X165900000Y-100480000D03*
X165100000Y-100480000D03*
X164300000Y-100480000D03*
X163500000Y-100480000D03*
X162700000Y-100480000D03*
X161900000Y-100480000D03*
X161100000Y-100480000D03*
D13*
X158600000Y-97980000D03*
X158600000Y-97180000D03*
X158600000Y-96380000D03*
X158600000Y-95580000D03*
X158600000Y-94780000D03*
X158600000Y-93980000D03*
X158600000Y-93180000D03*
X158600000Y-92380000D03*
X158600000Y-91580000D03*
X158600000Y-90780000D03*
X158600000Y-89980000D03*
D12*
X161100000Y-87480000D03*
X161900000Y-87480000D03*
X162700000Y-87480000D03*
X163500000Y-87480000D03*
X164300000Y-87480000D03*
X165100000Y-87480000D03*
X165900000Y-87480000D03*
X166700000Y-87480000D03*
X167500000Y-87480000D03*
X168300000Y-87480000D03*
X169100000Y-87480000D03*
D13*
X171600000Y-89980000D03*
X171600000Y-90780000D03*
X171600000Y-91580000D03*
X171600000Y-92380000D03*
X171600000Y-93180000D03*
X171600000Y-93980000D03*
X171600000Y-94780000D03*
X171600000Y-95580000D03*
X171600000Y-96380000D03*
X171600000Y-97180000D03*
X171600000Y-97980000D03*
D14*
X176950500Y-108886500D03*
X173950500Y-108886500D03*
X176950500Y-108386500D03*
X173950500Y-108386500D03*
X176950500Y-107886500D03*
X173950500Y-107886500D03*
X176950500Y-107386500D03*
X173950500Y-107386500D03*
X176950500Y-106886500D03*
X173950500Y-106886500D03*
D15*
X160160000Y-70970000D03*
D16*
X153760000Y-70570000D03*
X153760000Y-69570000D03*
X153760000Y-68570000D03*
X153760000Y-67570000D03*
X153760000Y-66570000D03*
X153760000Y-65570000D03*
X153760000Y-64570000D03*
X153760000Y-63570000D03*
X153760000Y-62570000D03*
X153760000Y-61570000D03*
X153760000Y-60570000D03*
X153760000Y-59570000D03*
D17*
X153760000Y-58420000D03*
X162560000Y-58420000D03*
D16*
X162560000Y-59570000D03*
X162560000Y-60570000D03*
X162560000Y-61570000D03*
X162560000Y-62570000D03*
X162560000Y-63570000D03*
X162560000Y-64570000D03*
X162560000Y-65570000D03*
X162560000Y-66570000D03*
X162560000Y-67570000D03*
X162560000Y-68570000D03*
X162560000Y-69570000D03*
X162560000Y-70570000D03*
D15*
X159160000Y-70970000D03*
X158160000Y-70970000D03*
X157160000Y-70970000D03*
X156160000Y-70970000D03*
D18*
X162372000Y-102616000D03*
X164272000Y-102616000D03*
D19*
X170370500Y-108836500D03*
X170370500Y-106936500D03*
D20*
X171810500Y-104711500D03*
X174010500Y-104711500D03*
X174010500Y-102806500D03*
X171810500Y-102806500D03*
D21*
X165100000Y-71290000D03*
X165100000Y-73490000D03*
X162560000Y-73830000D03*
X162560000Y-76030000D03*
D19*
X151130000Y-70165000D03*
X151130000Y-68265000D03*
M02*
